<svg xmlns="http://www.w3.org/2000/svg" width="362" height="383"><defs><style>.c7,.c8{fill:#3a3a3a}.c4,.c5,.c6{fill:rgba(58,58,58,.3)}.c4,.c8{stroke:#3a3a3a}.c4,.c5,.c7,.c8{stroke-miterlimit:10}.c5,.c7{stroke:#828282}.c7,.c8{stroke-width:2px}</style></defs><g style="opacity:.51;clip-path:url(#clip-path)"><g style="opacity:.8;mix-blend-mode:exclusion;isolation:isolate"><path class="c4" d="M105.169 106.869a.173.173 0 0 1 .112.136l6.72 44.85a.172.172 0 0 1-.082.172.167.167 0 0 1-.19-.006l-26.15-18.7a.174.174 0 0 1-.07-.115.171.171 0 0 1 .03-.13l19.432-26.148a.171.171 0 0 1 .18-.065zm6.43 44.636-6.595-44.038-19.08 25.676zm-247.017.381a.18.18 0 0 1 .042.023l54.825 39.034a.172.172 0 0 1-.12.312l-99.128-11.22a.167.167 0 0 1-.149-.133.173.173 0 0 1 .078-.185l44.302-27.814a.173.173 0 0 1 .15-.017zm54.126 38.947-54.188-38.583-43.787 27.492zm34.597 108.654a.172.172 0 0 1 .114.17.172.172 0 0 1-.138.16l-37.245 7.497a.171.171 0 0 1-.195-.107.174.174 0 0 1 .074-.211l20.806-12.044a.173.173 0 0 1 .132-.017l16.44 4.55zm-36.31 7.283 35.51-7.15-15.673-4.333zm19.813-11.67z"/><path class="c5" d="M-83.94 306.983a.175.175 0 0 1 .07.048l62.421 69.997a.175.175 0 0 1 .04.153.174.174 0 0 1-.102.122l-11.398 4.715a.173.173 0 0 1-.209-.062l-51.027-74.715a.172.172 0 0 1 .037-.232.171.171 0 0 1 .167-.026zm62.075 70.09-60.484-67.825 49.44 72.395z"/><path class="c5" d="M-46.695 299.487a.172.172 0 0 1 .106.11l25.175 77.493a.173.173 0 0 1-.077.202.171.171 0 0 1-.215-.034l-62.423-69.994a.173.173 0 0 1-.034-.17.172.172 0 0 1 .13-.114l37.246-7.496a.17.17 0 0 1 .092.003zm24.7 76.928-24.873-76.566-36.797 7.405z"/><path class="c4" d="m170.526 162.106.022.008 47.426 24.39a.172.172 0 0 1-.113.321l-53.2-10.932a.171.171 0 0 1-.124-.236l5.773-13.457a.171.171 0 0 1 .216-.094zm46.17 24.13-46.142-23.73-5.616 13.093z"/><path class="c4" d="M170.527 162.105a.168.168 0 0 1 .093.08.172.172 0 0 1 .007.15l-5.773 13.457a.173.173 0 0 1-.096.094.148.148 0 0 1-.133-.004l-52.867-23.844a.172.172 0 0 1 .1-.326l58.64 10.385a.118.118 0 0 1 .029.008zm-5.92 13.39 5.617-13.096-57.068-10.108z"/><path class="c4" d="m111.888 151.719.013.005 52.867 23.843a.172.172 0 0 1-.057.329l-56.507 4.867a.177.177 0 0 1-.139-.053.17.17 0 0 1-.046-.14l3.64-28.712a.173.173 0 0 1 .23-.14zm52.134 23.89-52.05-23.475-3.586 28.268z"/><path class="c5" d="M314.716 150.465a.17.17 0 0 1 .088.07.173.173 0 0 1-.016.209l-35.096 41.2a.175.175 0 0 1-.16.059.172.172 0 0 1-.132-.108l-11.245-28.903a.172.172 0 0 1 .116-.23l46.342-12.301a.172.172 0 0 1 .103.004zm-35.099 41.031 34.55-40.558-45.62 12.108zM141.441 105.91a.173.173 0 0 1 .095.085l29.084 56.198a.172.172 0 0 1-.184.25l-58.638-10.39a.163.163 0 0 1-.128-.101.17.17 0 0 1 .014-.162l29.555-45.812a.174.174 0 0 1 .154-.08.178.178 0 0 1 .048.013zm28.713 56.13-28.787-55.623-29.254 45.339z"/><path class="c5" d="M135.423 91.754a.165.165 0 0 1 .1.094l6.022 14.153a.171.171 0 0 1-.014.16.174.174 0 0 1-.138.08l-36.275.965a.175.175 0 0 1-.171-.13.172.172 0 0 1 .09-.196l30.253-15.114a.171.171 0 0 1 .133-.012zm5.708 14.15-5.85-13.75-29.399 14.686z"/><path class="c5" d="M141.44 105.91a.173.173 0 0 1 .092.078.17.17 0 0 1-.006.177l-29.551 45.81a.172.172 0 0 1-.316-.068l-6.719-44.85a.173.173 0 0 1 .166-.2l36.275-.964a.182.182 0 0 1 .06.017zm-29.51 45.497 29.131-45.154-35.753.95zm-192.523 39.516a.172.172 0 0 1-.019.328l-88.907 22.73a.172.172 0 0 1-.208-.116l-10.221-33.95a.174.174 0 0 1 .033-.16.171.171 0 0 1 .152-.06l99.133 11.214a.174.174 0 0 1 .037.014zm-88.849 22.685 87.837-22.457-97.933-11.083z"/><path class="c4" d="M-50.04 176.06a.164.164 0 0 1 .047.025.172.172 0 0 1 .066.168l-5.008 27.64a.174.174 0 0 1-.093.125.172.172 0 0 1-.154 0l-25.547-12.782a.172.172 0 0 1 .001-.308l30.556-14.862a.172.172 0 0 1 .133-.006zm-5.193 27.542 4.905-27.077-29.932 14.56zm160.403-96.733a.172.172 0 0 1 .08.265l-19.431 26.15a.166.166 0 0 1-.222.05L31 103.457a.173.173 0 0 1 .09-.324l74.03 3.726a.169.169 0 0 1 .05.01zm-19.539 26.089 19.15-25.77-72.955-3.673z"/><path class="c4" d="m31.14 103.143.026.01 54.598 29.876a.173.173 0 0 1-.022.313l-20.447 7.782a.175.175 0 0 1-.19-.045L30.96 103.422a.173.173 0 0 1 .186-.279zm54.131 30.01-53.37-29.204 33.381 36.807z"/><path class="c4" d="M31.14 103.143a.183.183 0 0 1 .07.046l34.146 37.656a.174.174 0 0 1 .028.188.171.171 0 0 1-.161.1l-40.567-1.156a.177.177 0 0 1-.13-.063.17.17 0 0 1-.035-.138l6.421-36.501a.172.172 0 0 1 .228-.133zm33.69 37.635L31.19 103.68l-6.327 35.958zm-107.716 29.93a.175.175 0 0 1 .099.09l16.768 36.286a.173.173 0 0 1-.294.18l-23.922-30.936a.171.171 0 0 1 .034-.245l7.154-5.351a.17.17 0 0 1 .145-.03zm15.914 35.137-16.039-34.71-6.843 5.12zm-53.621-14.923a.172.172 0 0 1 .102.095l16.325 38.615a.173.173 0 0 1-.185.238l-105.23-15.887a.174.174 0 0 1-.146-.162.171.171 0 0 1 .13-.176l88.907-22.73a.169.169 0 0 1 .097.007zm15.991 38.564-16.15-38.197-87.937 22.479z"/><path class="c5" d="M-9.041 94.367a.171.171 0 0 1 .112.188l-4.847 32.086a.173.173 0 0 1-.165.151.176.176 0 0 1-.173-.138l-7.227-35.81a.171.171 0 0 1 .053-.161.173.173 0 0 1 .167-.038l12.072 3.722zm-4.929 31.256 4.674-30.974-11.654-3.595z"/><path class="c4" d="M-8.981 93.655a.172.172 0 0 1 .113.177l-.058.71a.173.173 0 0 1-.223.152l-12.073-3.723a.178.178 0 0 1-.115-.21.173.173 0 0 1 .208-.122L-9 93.649zm-.271.646.028-.352-5.992-1.487z"/><path class="c5" d="M50.02 30.098a.158.158 0 0 1 .042.023l85.403 61.656a.172.172 0 0 1-.024.294l-30.254 15.114a.175.175 0 0 1-.217-.053L49.82 30.36a.174.174 0 0 1 .018-.223.172.172 0 0 1 .182-.04zm85.013 61.792L50.72 31.021l54.445 75.79z"/><path class="c5" d="M50.02 30.098a.173.173 0 0 1 .083.062l55.15 76.771a.172.172 0 0 1-.148.273l-74.029-3.726a.172.172 0 0 1-.13-.069.174.174 0 0 1-.028-.145l18.88-73.045a.173.173 0 0 1 .224-.119zm54.741 76.743-54.725-76.18-18.733 72.482z"/><path class="c4" d="M50.02 30.098a.17.17 0 0 1 .07.048.172.172 0 0 1 .038.158l-18.88 73.043a.173.173 0 0 1-.34-.023l-7.25-69.487a.172.172 0 0 1 .15-.188l26.13-3.557a.169.169 0 0 1 .082.006zm-18.865 72.237 18.576-71.87-25.71 3.501z"/><path class="c5" d="M-64.37 89.407a.167.167 0 0 1 .043.024l50.485 37.046a.171.171 0 0 1 .068.134.173.173 0 0 1-.052.137l-35.916 33.148a.173.173 0 0 1-.286-.093l-14.57-70.2a.172.172 0 0 1 .227-.198zm50.159 37.225-49.954-36.656 14.418 69.458z"/><path class="c4" d="M-49.8 159.604a.173.173 0 0 1 .088.07l6.914 11.105a.172.172 0 0 1-.043.23l-7.154 5.352a.166.166 0 0 1-.182.015.172.172 0 0 1-.093-.155l.24-16.457a.173.173 0 0 1 .231-.16zm6.627 11.22-6.52-10.472-.225 15.519z"/><path class="c4" d="m-49.799 159.604.008.003a.171.171 0 0 1 .106.161l-.241 16.457a.174.174 0 0 1-.096.153l-30.555 14.86a.171.171 0 0 1-.216-.054.173.173 0 0 1 .018-.221l30.799-31.316a.174.174 0 0 1 .177-.043zm-.469 16.51.233-15.92-29.79 30.297z"/><path class="c5" d="M-49.8 159.604a.177.177 0 0 1 .105.103.174.174 0 0 1-.04.18l-30.797 31.317a.172.172 0 0 1-.222.022l-54.825-39.034a.172.172 0 0 1 .12-.311l85.62 7.718a.191.191 0 0 1 .04.005zm-30.87 31.254 30.432-30.95-84.62-7.627z"/><path class="c5" d="M-64.372 89.407a.173.173 0 0 1 .111.127l14.572 70.198a.173.173 0 0 1-.093.19.175.175 0 0 1-.207-.043l-59.87-69.527a.173.173 0 0 1 .128-.284l45.299-.67a.17.17 0 0 1 .06.01zm14.21 69.741-14.409-69.404-44.787.663z"/><path class="c4" d="M-83.94 306.983a.175.175 0 0 1 .081.065l51.03 74.715a.172.172 0 0 1-.003.2.172.172 0 0 1-.19.062l-96.227-30.239a.182.182 0 0 1-.116-.125.171.171 0 0 1 .047-.164l45.199-44.475a.171.171 0 0 1 .137-.048.2.2 0 0 1 .041.01zm50.543 74.566-50.63-74.133-44.847 44.13zm.111-126.17.009.003 47.312 19.811a.173.173 0 0 1-.031.328l-30.45 6.409a.172.172 0 0 1-.184-.077l-16.864-26.22a.173.173 0 0 1 .205-.255zm46.678 19.919-46.29-19.383 16.502 25.654z"/><path class="c5" d="M268.371 162.77a.171.171 0 0 1 .103.098l11.248 28.895a.173.173 0 0 1-.168.235l-25.51-.902a.175.175 0 0 1-.142-.084.173.173 0 0 1-.005-.166l14.263-27.994a.172.172 0 0 1 .162-.093.184.184 0 0 1 .05.01zm10.932 28.879-11.006-28.298-13.965 27.41z"/><path class="c5" d="M279.618 191.666a.173.173 0 0 1 .105.106.171.171 0 0 1-.052.188l-31.734 26.883a.179.179 0 0 1-.2.016.172.172 0 0 1-.08-.186l6.226-27.788a.172.172 0 0 1 .175-.135l25.51.902a.177.177 0 0 1 .05.014zm-31.511 26.582 31.002-26.263-24.92-.885zm-182.82-77.449a.17.17 0 0 1 .094.083.171.171 0 0 1-.009.176l-11.776 17.76a.173.173 0 0 1-.233.05L24.57 139.956a.173.173 0 0 1 .099-.317l40.569 1.155a.16.16 0 0 1 .05.005zm-11.885 17.678 11.508-17.354-39.65-1.129z"/><path class="c6" d="M24.631 197.583a.191.191 0 0 1 .041.016l11.247 7.672a.173.173 0 0 1-.092.315l-61.995 1.739a.175.175 0 0 1-.177-.154.173.173 0 0 1 .14-.188l50.748-9.411a.175.175 0 0 1 .088.01zm10.656 7.68-10.748-7.333-48.504 8.99z"/><path class="c4" d="m111.888 151.719.02.007a.171.171 0 0 1 .093.176l-3.642 28.711a.173.173 0 0 1-.279.113l-14.328-11.555a.174.174 0 0 1-.008-.258l17.97-17.156a.174.174 0 0 1 .174-.038zm-3.832 28.544 3.541-27.921-17.475 16.683z"/><path class="c5" d="M85.737 133.019a.161.161 0 0 1 .041.022l26.15 18.7a.169.169 0 0 1 .072.129.172.172 0 0 1-.052.137l-17.97 17.156a.174.174 0 0 1-.17.042.163.163 0 0 1-.118-.127l-8.18-35.858a.173.173 0 0 1 .227-.201zm25.822 18.88-25.611-18.314 8.012 35.118z"/><path class="c5" d="m85.737 133.019.025.01a.173.173 0 0 1 .087.113l8.18 35.856a.172.172 0 0 1-.289.161l-28.63-28.076a.172.172 0 0 1 .058-.285l20.447-7.781a.169.169 0 0 1 .122.002zm7.822 35.488-8.002-35.099-20.016 7.62z"/><path class="c4" d="M65.287 140.799a.161.161 0 0 1 .062.04l28.631 28.075a.172.172 0 0 1-.162.29l-40.406-10.32a.172.172 0 0 1-.1-.262l11.775-17.76a.171.171 0 0 1 .126-.076.168.168 0 0 1 .074.013zm27.996 27.913L65.259 141.23l-11.525 17.38zM-69.272 87.365l.008.003 4.904 2.043a.173.173 0 0 1-.064.333l-45.3.67a.173.173 0 0 1-.014-.346l40.395-2.712a.181.181 0 0 1 .07.01zm4.012 2.045-4.099-1.707-33.77 2.266z"/><path class="c5" d="M254.11 190.76a.175.175 0 0 1 .065.04.173.173 0 0 1 .046.16l-6.226 27.788a.175.175 0 0 1-.132.13.173.173 0 0 1-.171-.065l-17.552-22.66a.173.173 0 0 1 .1-.274l23.779-5.129a.176.176 0 0 1 .091.01zm-6.372 27.554 6.088-27.167-23.248 5.017z"/><path class="c4" d="M131.695 267.115a.168.168 0 0 1 .074.051.17.17 0 0 1 .039.135l-.938 6.984a.173.173 0 0 1-.072.119.171.171 0 0 1-.137.027l-34.688-7.84a.167.167 0 0 1-.133-.19.172.172 0 0 1 .175-.146l35.625.855a.156.156 0 0 1 .055.005zm-1.143 6.937.888-6.607-33.7-.81zm129.618-39.848a.17.17 0 0 1 .076.053l14.072 17.172a.173.173 0 0 1-.161.28l-47.76-7.674a.173.173 0 0 1-.019-.338l33.686-9.497a.175.175 0 0 1 .106.004zm13.59 17.09-13.715-16.732-32.824 9.251z"/><path class="c4" d="M279.62 191.665a.158.158 0 0 1 .045.025.173.173 0 0 1 .053.21l-19.452 42.536a.172.172 0 0 1-.137.1.175.175 0 0 1-.158-.06l-12.28-15.658a.172.172 0 0 1 .025-.238l31.735-26.883a.173.173 0 0 1 .168-.032zm-19.555 42.37 19.014-41.577-31.014 26.277z"/><path class="c4" d="M247.885 218.548a.176.176 0 0 1 .078.056l12.282 15.654a.173.173 0 0 1-.089.274l-33.688 9.497a.172.172 0 0 1-.176-.282l21.405-25.147a.174.174 0 0 1 .13-.058.167.167 0 0 1 .058.006zm11.93 15.72-11.992-15.286-20.902 24.56z"/><path class="c5" d="m200.174 200.938 47.71 17.611a.173.173 0 0 1 .07.273l-21.403 25.153a.174.174 0 0 1-.145.06.172.172 0 0 1-.134-.082l-26.302-42.766a.172.172 0 0 1 .204-.254zm47.361 17.85-47.01-17.353 25.922 42.137z"/><path class="c5" d="M230.335 195.89a.174.174 0 0 1 .078.057l17.552 22.658a.173.173 0 0 1-.194.268l-47.71-17.611a.171.171 0 0 1-.11-.178.173.173 0 0 1 .144-.159l30.158-5.047a.181.181 0 0 1 .082.012zm16.983 22.448-17.116-22.102-29.419 4.924z"/><path class="c5" d="M217.953 186.495a.163.163 0 0 1 .046.025l12.38 9.395a.172.172 0 0 1-.077.307l-30.157 5.048a.176.176 0 0 1-.186-.099.173.173 0 0 1 .048-.205l17.78-14.443a.172.172 0 0 1 .166-.028zm11.903 9.454-11.954-9.071-17.165 13.946z"/><path class="c5" d="M217.953 186.495a.173.173 0 0 1 .051.297l-17.778 14.44a.17.17 0 0 1-.21.007l-35.42-25.379a.172.172 0 0 1 .135-.31l53.2 10.933zm-17.841 14.389 17.393-14.13-52.05-10.697z"/><path class="c4" d="M-84.181 68.724a.179.179 0 0 1 .067.043l19.81 20.683a.174.174 0 0 1 .017.22.188.188 0 0 1-.21.063l-4.905-2.043a.186.186 0 0 1-.068-.052l-14.91-18.642a.173.173 0 0 1 .193-.27zm19.058 20.37-16.571-17.3 12.47 15.589z"/><path class="c5" d="m-82.477-1.373.028.01 40.474 22.641a.169.169 0 0 1 .085.122.172.172 0 0 1-.041.144l-42.183 47.454a.169.169 0 0 1-.192.046.173.173 0 0 1-.11-.164l1.708-70.096a.172.172 0 0 1 .23-.16zm40.146 22.85L-82.37-.92l-1.689 69.339z"/><path class="c4" d="M-84.181 68.724a.175.175 0 0 1 .077.056l14.91 18.64a.173.173 0 0 1-.123.28l-40.395 2.712a.173.173 0 0 1-.122-.304l25.489-21.353a.171.171 0 0 1 .127-.038.166.166 0 0 1 .037.007zm14.505 18.653-14.592-18.24-24.947 20.9zm242.798 3.777a.19.19 0 0 1 .045.024l71.274 52.809a.173.173 0 0 1-.06.306l-73.87 18.139a.174.174 0 0 1-.15-.034.171.171 0 0 1-.063-.14l2.598-70.95a.172.172 0 0 1 .098-.148.177.177 0 0 1 .128-.006zm70.818 52.892-70.72-52.398-2.574 70.396z"/><path class="c5" d="M173.122 91.154a.17.17 0 0 1 .039.015.173.173 0 0 1 .077.15l-2.598 70.949a.173.173 0 0 1-.326.073l-29.084-56.197a.173.173 0 0 1 .081-.236l31.68-14.753a.175.175 0 0 1 .13-.001zm-2.8 70.456 2.561-70.014-31.263 14.554zM-63.134 294.938a.172.172 0 0 1 .112.133.172.172 0 0 1-.084.182l-20.804 12.043a.171.171 0 0 1-.156.008l-58.385-25.812a.172.172 0 0 1 .1-.327l79.187 13.765a.16.16 0 0 1 .03.008zm-20.876 12.017 20.32-11.766-77.333-13.442z"/><path class="c5" d="m-64.268 229.538.022.008a.171.171 0 0 1 .093.15l1.137 65.402a.173.173 0 0 1-.202.173l-79.186-13.765a.165.165 0 0 1-.14-.134.173.173 0 0 1 .07-.181l78.052-51.635a.17.17 0 0 1 .154-.018zm.9 65.356-1.126-64.874-77.43 51.218z"/><path class="c4" d="m-142.32 281.173.012.004 58.379 25.81a.174.174 0 0 1 .1.126.175.175 0 0 1-.05.154l-45.198 44.476a.172.172 0 0 1-.172.041.178.178 0 0 1-.117-.133l-13.182-70.285a.174.174 0 0 1 .064-.167.172.172 0 0 1 .163-.026zm58.018 26.028-57.846-25.576 13.06 69.646z"/><path class="c5" d="M-64.268 229.538a.17.17 0 0 1 .11.124.173.173 0 0 1-.072.187l-78.053 51.63a.172.172 0 0 1-.147.021.2.2 0 0 1-.109-.1l-27.178-67.524a.172.172 0 0 1 .186-.235l105.234 15.89a.173.173 0 0 1 .029.007zm-78.029 51.537 77.503-51.271-104.49-15.775z"/><path class="c4" d="M-169.498 213.651a.172.172 0 0 1 .101.098l27.179 67.525a.173.173 0 0 1-.048.196.169.169 0 0 1-.196.024l-38.948-20.933a.173.173 0 0 1-.086-.195l11.773-46.595a.172.172 0 0 1 .157-.13.176.176 0 0 1 .068.01zm26.783 67.307-26.804-66.59-11.61 45.953z"/><path class="c5" d="M-84.182 68.724a.173.173 0 0 1 .052.295l-25.489 21.353a.171.171 0 0 1-.23-.008l-18.748-17.67a.172.172 0 0 1 .103-.297l44.239-3.683a.166.166 0 0 1 .073.01zm-25.542 21.284 24.955-20.904-43.311 3.605z"/><path class="c5" d="M-82.475-1.372a.173.173 0 0 1 .115.167l-1.707 70.096a.172.172 0 0 1-.158.168l-44.238 3.683a.176.176 0 0 1-.162-.082.172.172 0 0 1 .001-.18L-82.679-1.3a.172.172 0 0 1 .196-.074zm-1.934 70.1 1.689-69.31-45.43 72.952z"/><path class="c4" d="M31.14 103.142a.172.172 0 0 1 .112.192l-6.422 36.502a.168.168 0 0 1-.075.113.172.172 0 0 1-.134.025l-11.271-2.705a.171.171 0 0 1-.118-.097.176.176 0 0 1 .005-.151l17.698-33.799a.173.173 0 0 1 .209-.083zm-6.616 36.45 6.197-35.227-17.075 32.616z"/><path class="c4" d="M31.14 103.143a.173.173 0 0 1 .095.243l-17.692 33.796a.174.174 0 0 1-.153.093.172.172 0 0 1-.152-.092L-9.25 94.611a.173.173 0 0 1 .188-.25l40.18 8.776zM13.389 136.73l17.436-33.306-39.594-8.646z"/><path class="c5" d="M-9.04 94.368a.172.172 0 0 1 .095.081l22.488 42.573a.172.172 0 0 1-.024.195.188.188 0 0 1-.19.047l-27.334-10.486a.173.173 0 0 1-.108-.187l4.847-32.086a.172.172 0 0 1 .142-.144.168.168 0 0 1 .084.007zm22.067 42.41L-9.006 95.074l-4.747 31.431z"/><path class="c4" d="M-55.046 203.697a.164.164 0 0 1 .057.035.171.171 0 0 1 .047.185l-9.221 25.84a.173.173 0 0 1-.192.113.171.171 0 0 1-.143-.17l-.125-21.418a.173.173 0 0 1 .098-.157l9.347-4.423a.174.174 0 0 1 .132-.005zm-9.113 25.022 8.753-24.526-8.872 4.2z"/><path class="c4" d="m-80.593 190.922.02.007 25.545 12.776a.172.172 0 0 1-.003.31l-9.347 4.423a.172.172 0 0 1-.2-.038l-16.197-17.2a.173.173 0 0 1 .184-.28zm25.093 12.933-24.359-12.183 15.448 16.402z"/><path class="c4" d="M-80.593 190.922a.168.168 0 0 1 .068.044l16.199 17.198a.179.179 0 0 1 .047.118l.125 21.417a.173.173 0 0 1-.332.068l-16.324-38.615a.173.173 0 0 1 .217-.23zm15.969 17.43-15.496-16.446 15.615 36.93zm38.509-1.357a.172.172 0 0 1-.078.333l-28.93-3.296a.172.172 0 0 1-.013-.34l10.467-2.119a.17.17 0 0 1 .083.003l18.46 5.416zm-27.882-3.182 25.856 2.946-16.5-4.841z"/><path class="c4" d="M-50.04 176.06a.175.175 0 0 1 .079.056l23.922 30.934a.173.173 0 0 1-.186.272l-18.46-5.417a.171.171 0 0 1-.121-.13l-5.461-25.517a.173.173 0 0 1 .227-.199zm23.402 30.78-23.132-29.911 5.28 24.675z"/><path class="c4" d="M-50.04 176.06a.171.171 0 0 1 .112.126l5.461 25.517a.176.176 0 0 1-.024.13.173.173 0 0 1-.11.075l-10.468 2.12a.169.169 0 0 1-.155-.047.171.171 0 0 1-.048-.152l5.008-27.641a.172.172 0 0 1 .227-.128zm5.199 25.544-5.242-24.492-4.806 26.528zm93.266 22.914a.169.169 0 0 1 .055.032l47.645 41.741a.172.172 0 0 1-.054.292l-36.205 13.284a.172.172 0 0 1-.228-.127l-11.44-55.026a.172.172 0 0 1 .226-.198zm47.254 41.841-47.039-41.21 11.295 54.325z"/><path class="c4" d="M48.424 224.518a.173.173 0 0 1 .111.128l11.44 55.025a.172.172 0 0 1-.153.207l-26.62 2.207a.172.172 0 0 1-.18-.216l15.18-57.237a.172.172 0 0 1 .171-.128.167.167 0 0 1 .05.014zm11.173 55.032-11.252-54.12-14.931 56.295z"/><path class="c4" d="m48.424 224.517.014.006a.173.173 0 0 1 .095.201l-15.18 57.237a.172.172 0 0 1-.222.119l-19.217-6.565a.181.181 0 0 1-.107-.108.171.171 0 0 1 .02-.152l34.397-50.672a.172.172 0 0 1 .2-.066zm-15.357 57.174 14.873-56.078-33.705 49.646z"/><path class="c6" d="M35.876 205.254a.175.175 0 0 1 .086.069l12.547 19.262a.172.172 0 0 1-.184.263l-74.542-17.525a.173.173 0 0 1 .034-.34l61.995-1.738a.186.186 0 0 1 .064.01zm12.111 19.16-12.26-18.822-60.574 1.698z"/><path class="c4" d="M33.244 281.753a.173.173 0 0 1 .014.32L7.773 293.62a.173.173 0 0 1-.188-.03.171.171 0 0 1-.046-.184l6.268-18.112a.173.173 0 0 1 .219-.106l19.216 6.564zM7.995 293.141l24.723-11.201-18.641-6.369z"/><path class="c5" d="M7.759 293.302a.174.174 0 0 1 .077.055.174.174 0 0 1 .028.164l-29.278 83.68a.173.173 0 0 1-.166.115.173.173 0 0 1-.162-.119l-25.176-77.491a.171.171 0 0 1 .02-.146.172.172 0 0 1 .125-.078l54.454-6.186a.183.183 0 0 1 .078.006zm-29.33 83.302 29.02-82.938-53.972 6.131z"/><path class="c4" d="M14.027 275.19a.18.18 0 0 1 .071.048.173.173 0 0 1 .035.17l-6.27 18.112a.172.172 0 0 1-.097.103.169.169 0 0 1-.14-.004l-24.18-11.703a.174.174 0 0 1-.097-.177.172.172 0 0 1 .136-.147l30.45-6.413a.176.176 0 0 1 .092.01zm-6.425 18.033 6.105-17.64-29.656 6.243z"/><path class="c5" d="m-16.42 281.598.017.007 24.18 11.703a.173.173 0 0 1-.055.327l-54.454 6.185a.173.173 0 0 1-.107-.32l30.273-17.889a.173.173 0 0 1 .145-.014zm23.51 11.761-23.561-11.4-29.497 17.428z"/><path class="c5" d="M-38.02 259.398a.186.186 0 0 1 .065.043l21.6 22.2a.173.173 0 0 1-.036.27L-46.665 299.8a.173.173 0 0 1-.256-.185l8.673-40.091a.174.174 0 0 1 .121-.13.172.172 0 0 1 .106.004zm21.265 22.327-21.223-21.813-8.522 39.39z"/><path class="c4" d="M-33.286 255.379a.17.17 0 0 1 .087.069l16.865 26.22a.174.174 0 0 1-.271.217l-21.6-22.2a.176.176 0 0 1-.049-.126.172.172 0 0 1 .06-.122l4.736-4.02a.171.171 0 0 1 .137-.039.173.173 0 0 1 .035.001zm15.732 25.03-15.833-24.608-4.447 3.77z"/><path class="c5" d="m-38.02 259.398.01.004a.172.172 0 0 1 .1.195l-8.675 40.093a.173.173 0 0 1-.215.132l-16.44-4.55a.143.143 0 0 1-.117-.108.173.173 0 0 1 .022-.158l25.114-35.54a.172.172 0 0 1 .2-.068zm-8.862 40.038 8.456-39.085L-62.912 295z"/><path class="c4" d="M-64.267 229.538a.162.162 0 0 1 .052.03l30.982 25.84a.172.172 0 0 1 .062.132.177.177 0 0 1-.06.132l-4.736 4.019a.171.171 0 0 1-.24-.018l-26.243-29.858a.172.172 0 0 1 .187-.277zm30.656 26.004-29.114-24.282 24.665 28.058z"/><path class="c5" d="M-64.267 229.538a.177.177 0 0 1 .072.048l26.25 29.862a.174.174 0 0 1 .011.218l-25.114 35.54a.173.173 0 0 1-.192.066.179.179 0 0 1-.122-.162l-1.137-65.402a.172.172 0 0 1 .23-.165zm25.97 30.034-25.847-29.405 1.117 64.404z"/><path class="c4" d="m-169.5 213.65.016.007a.173.173 0 0 1 .094.199l-11.773 46.596a.175.175 0 0 1-.13.125l-26.136 5.752a.173.173 0 0 1-.176-.27l37.908-52.348a.172.172 0 0 1 .198-.06zm-11.971 46.615 11.526-45.622-37.114 51.253z"/><path class="c5" d="M164.754 175.562a.167.167 0 0 1 .042.022l35.42 25.38a.172.172 0 0 1-.077.31L137.205 210a.171.171 0 0 1-.173-.085.173.173 0 0 1 .016-.193l27.512-34.099a.173.173 0 0 1 .194-.061zm34.907 25.425-34.938-25.03-27.136 33.633z"/><path class="c4" d="M164.755 175.562a.173.173 0 0 1 .076.27l-27.512 34.099a.173.173 0 0 1-.255.009l-28.996-29.233a.173.173 0 0 1 .112-.292l56.508-4.868a.171.171 0 0 1 .067.015zm-27.583 34.004 27.136-33.635-55.737 4.801zM23.886 33.654a.173.173 0 0 1 .114.144l7.25 69.487a.174.174 0 0 1-.098.176.17.17 0 0 1-.194-.03L-8.35 65.541a.172.172 0 0 1-.002-.246l32.053-31.6a.173.173 0 0 1 .185-.042zm6.972 69.194-7.165-68.66L-7.983 65.41z"/><path class="c5" d="M120.442 250.217a.172.172 0 0 1 .082.066l11.256 16.898a.172.172 0 0 1-.028.223.176.176 0 0 1-.225.006l-21.183-17.367a.173.173 0 0 1 .118-.306l9.932.47a.188.188 0 0 1 .048.01zm10.414 16.196-10.567-15.865-9.326-.44z"/><path class="c5" d="M110.507 249.747a.179.179 0 0 1 .051.029l21.183 17.367a.172.172 0 0 1-.116.304l-35.626-.856a.172.172 0 0 1-.126-.286l14.438-16.514a.173.173 0 0 1 .196-.044zm20.633 17.346-20.67-16.943-14.086 16.112z"/><path class="c4" d="m137.24 209.666.024.009a.173.173 0 0 1 .078.218l-16.803 40.556a.174.174 0 0 1-.167.106l-9.933-.47a.18.18 0 0 1-.145-.095.171.171 0 0 1 .01-.172l26.734-40.082a.172.172 0 0 1 .202-.07zm-16.974 40.54 16.078-38.817-25.589 38.367z"/><path class="c5" d="m48.424 224.517.007.003 62.084 25.224a.173.173 0 0 1 .065.274l-14.44 16.517a.172.172 0 0 1-.118.062.176.176 0 0 1-.125-.043l-47.645-41.74a.172.172 0 0 1 .172-.293zm61.736 25.46-60.909-24.751 46.744 40.952z"/><path class="c5" d="M96.069 266.26a.184.184 0 0 1 .054.03.175.175 0 0 1 .056.168l-11.123 52.394a.172.172 0 0 1-.314.057l-25.084-39.107a.173.173 0 0 1 .086-.255l36.204-13.284a.174.174 0 0 1 .12-.004zm-11.262 52.105 10.97-51.674-35.713 13.101z"/><path class="c5" d="M59.864 279.543a.171.171 0 0 1 .088.069l25.084 39.107a.173.173 0 0 1-.13.265l-34.844 2.938a.175.175 0 0 1-.146-.056.172.172 0 0 1-.037-.153l9.76-42.044a.172.172 0 0 1 .226-.127zm24.723 39.12-24.704-38.52-9.614 41.415z"/><path class="c5" d="m50.105 321.588.026.01a.174.174 0 0 1 .088.169l-6.579 64.699a.171.171 0 0 1-.065.118.174.174 0 0 1-.13.035l-65.046-9.305a.177.177 0 0 1-.143-.126.174.174 0 0 1 .061-.181l71.624-55.395a.174.174 0 0 1 .164-.024zm-6.789 64.662 6.52-64.122-70.988 54.897z"/><path class="c5" d="M59.864 279.543a.171.171 0 0 1 .11.202l-9.759 42.044a.172.172 0 0 1-.327.028l-16.86-39.832a.171.171 0 0 1 .01-.157.175.175 0 0 1 .134-.082l26.623-2.208a.175.175 0 0 1 .07.005zM50 321.193l9.586-41.296-26.148 2.172z"/><path class="c4" d="M33.244 281.754a.192.192 0 0 1 .1.095l16.862 39.833a.173.173 0 0 1-.255.21L7.606 293.606a.172.172 0 0 1 .024-.3l25.485-11.547a.176.176 0 0 1 .129-.005zm16.424 39.532L33.096 282.15 8.054 293.493z"/><path class="c4" d="M7.76 293.301a.2.2 0 0 1 .038.015l42.346 28.286a.171.171 0 0 1 .077.137.172.172 0 0 1-.066.142l-71.625 55.397a.17.17 0 0 1-.207.003.172.172 0 0 1-.061-.197l29.28-83.68a.171.171 0 0 1 .107-.107.17.17 0 0 1 .111.004zm41.99 28.458L7.788 293.73l-29.012 82.92z"/><path class="c5" d="M-21.113 90.644a.171.171 0 0 1 .112.128l7.226 35.81a.172.172 0 0 1-.323.112l-20.538-40.413a.173.173 0 0 1 .21-.241l13.311 4.604zm6.75 34.766-6.957-34.473-12.815-4.432z"/><path class="c5" d="M-34.425 86.04a.174.174 0 0 1 .095.084l20.54 40.414a.173.173 0 0 1-.043.21.167.167 0 0 1-.216.006l-50.482-37.045a.172.172 0 0 1 .083-.311l29.945-3.367a.177.177 0 0 1 .078.01zm19.999 40.009L-34.584 86.39l-29.388 3.3z"/><path class="c4" d="M-8.169 65.253a.176.176 0 0 1 .051.03.173.173 0 0 1 .045.211l-12.945 25.39a.173.173 0 0 1-.209.086l-13.312-4.605a.154.154 0 0 1-.114-.134.172.172 0 0 1 .063-.164L-8.332 65.28a.173.173 0 0 1 .163-.027zm-13.084 25.342 12.518-24.551-25.39 20.1z"/><path class="c4" d="M-34.426 86.04a.172.172 0 0 1-.04.334l-29.942 3.368a.174.174 0 0 1-.143-.055l-19.81-20.683a.173.173 0 0 1 .182-.282l49.756 17.316zm-29.94 3.351 29.107-3.273-48.362-16.83zm-45.304.686a.179.179 0 0 1 .073.05l59.87 69.526a.173.173 0 0 1 0 .224.171.171 0 0 1-.22.037l-78.143-46.622a.172.172 0 0 1-.047-.256l18.273-22.903a.171.171 0 0 1 .132-.065.162.162 0 0 1 .062.009zm58.99 68.997-59.04-68.564-18.02 22.586z"/><path class="c4" d="m-127.943 112.98.032.012 78.143 46.624a.172.172 0 0 1-.105.32l-85.62-7.718a.17.17 0 0 1-.123-.068.175.175 0 0 1-.03-.136l7.473-38.906a.173.173 0 0 1 .227-.127zm77.347 46.546-77.28-46.11-7.393 38.478zm41.707-65.433.99-.939-.974.754z"/><path class="c4" d="M-5.225 90.75a.172.172 0 0 1 .048.3l-3.756 2.904a.175.175 0 0 1-.148.032l-12.132-3.012a.169.169 0 0 1-.13-.19.172.172 0 0 1 .172-.148l15.89.108a.181.181 0 0 1 .056.007zm-3.852 2.88 3.295-2.55-13.938-.093z"/><path class="c4" d="M-8.168 65.253a.173.173 0 0 1 .114.144l2.944 25.497a.174.174 0 0 1-.043.135.171.171 0 0 1-.13.057l-15.888-.107a.176.176 0 0 1-.146-.083.173.173 0 0 1-.006-.168l12.945-25.39a.175.175 0 0 1 .184-.092zm2.693 25.487-2.858-24.734-12.563 24.634z"/><path class="c5" d="M137.242 209.661a.17.17 0 0 1 .1.092.172.172 0 0 1-.014.165L110.594 250a.172.172 0 0 1-.282.006l-36.218-49.814a.172.172 0 0 1 .166-.272l62.95 9.737a.163.163 0 0 1 .032.004zm-26.796 39.95 26.448-39.655-62.277-9.624z"/><path class="c4" d="M108.246 180.43a.182.182 0 0 1 .065.04l28.995 29.233a.172.172 0 0 1-.15.291l-62.952-9.728a.166.166 0 0 1-.143-.138.173.173 0 0 1 .084-.182l33.956-19.503a.171.171 0 0 1 .145-.014zm28.446 29.142-28.532-28.764L74.746 200z"/><path class="c5" d="M74.288 199.931a.166.166 0 0 1 .083.062l36.218 49.814a.172.172 0 0 1-.005.212.183.183 0 0 1-.2.054l-62.085-25.224a.173.173 0 0 1-.054-.285l25.866-24.585a.172.172 0 0 1 .134-.048.217.217 0 0 1 .043 0zm35.665 49.589-35.746-49.166-25.529 24.263z"/><path class="c4" d="M93.918 168.875a.184.184 0 0 1 .05.028l14.328 11.554a.173.173 0 0 1-.022.284l-33.956 19.504a.173.173 0 0 1-.228-.241l19.627-31.057a.174.174 0 0 1 .118-.078.169.169 0 0 1 .083.006zm13.965 11.693-13.98-11.275-19.154 30.306z"/><path class="c4" d="M93.917 168.875a.173.173 0 0 1 .089.255l-19.63 31.058a.171.171 0 0 1-.154.08.182.182 0 0 1-.146-.095L53.3 158.796a.173.173 0 0 1 .201-.245l40.406 10.32zm-19.669 30.87 19.34-30.603-39.809-10.167z"/><path class="c5" d="M74.29 199.932a.172.172 0 0 1 .06.287l-25.865 24.585a.173.173 0 0 1-.139.047.175.175 0 0 1-.123-.077l-12.548-19.263a.172.172 0 0 1 .12-.265l38.414-5.323a.168.168 0 0 1 .08.009zm-25.893 24.48 25.327-24.074-37.614 5.211z"/><path class="c4" d="M53.513 158.556a.17.17 0 0 1 .095.085l20.777 41.377a.172.172 0 0 1-.162.25l-49.655-2.352a.175.175 0 0 1-.148-.098.173.173 0 0 1 .016-.177l28.883-39.027a.174.174 0 0 1 .154-.07.183.183 0 0 1 .04.012zm20.437 41.355-20.518-40.868-28.52 38.539z"/><path class="c4" d="M74.29 199.932a.173.173 0 0 1-.033.334l-38.414 5.322a.169.169 0 0 1-.121-.028l-11.246-7.673a.173.173 0 0 1 .106-.315l49.655 2.351a.187.187 0 0 1 .054.01zm-38.433 5.303 36.504-5.054-47.187-2.235z"/><path class="c5" d="m-142.32 281.173.025.01a.172.172 0 0 1 .086.12l13.18 70.285a.17.17 0 0 1-.066.174.169.169 0 0 1-.186.009l-76.463-44.266a.172.172 0 0 1-.086-.162.172.172 0 0 1 .106-.148l63.28-26.02a.171.171 0 0 1 .123-.002zm12.883 70.11-13.07-69.708-62.76 25.806z"/><path class="c5" d="m-181.27 260.249.025.01 38.95 20.926a.173.173 0 0 1 .092.16.171.171 0 0 1-.107.151l-63.282 26.02a.169.169 0 0 1-.197-.045.173.173 0 0 1-.026-.196l24.328-46.947a.172.172 0 0 1 .102-.085.169.169 0 0 1 .116.006zm38.491 21.068-38.475-20.67-24.029 46.368z"/><path class="c5" d="M-181.272 260.247a.173.173 0 0 1 .08.057.175.175 0 0 1 .015.185l-24.327 46.947a.174.174 0 0 1-.19.089.174.174 0 0 1-.137-.16l-1.808-41.195a.173.173 0 0 1 .136-.176l26.136-5.752a.175.175 0 0 1 .095.005zm-24.241 46.456 23.861-46.046-25.635 5.64z"/><path class="c4" d="M-207.407 265.999a.172.172 0 0 1 .116.151l1.808 41.196a.174.174 0 0 1-.123.173.175.175 0 0 1-.198-.076l-26.21-43.022a.173.173 0 0 1-.001-.18.175.175 0 0 1 .16-.082l24.402 1.829a.174.174 0 0 1 .046.011zm1.548 40.695-1.771-40.375-23.917-1.79zM1.741 89.723l.014.005 29.396 13.418a.173.173 0 0 1-.108.326l-40.18-8.776a.182.182 0 0 1-.136-.151.172.172 0 0 1 .103-.175l10.786-4.643a.171.171 0 0 1 .125-.004zm27.8 13.068L1.681 90.075l-10.221 4.4z"/><path class="c4" d="M-8.168 65.253a.165.165 0 0 1 .062.039l39.308 37.89a.173.173 0 0 1 .022.222.161.161 0 0 1-.215.06L1.614 90.046a.172.172 0 0 1-.09-.09l-9.91-24.478a.172.172 0 0 1 .218-.227zm38.405 37.477L-7.761 66.104l9.582 23.655z"/><path class="c4" d="M1.748 89.725a.173.173 0 0 1 .008.325l-10.78 4.645a.171.171 0 0 1-.213-.063.172.172 0 0 1 .026-.22l.333-.31 3.487-3.305a.171.171 0 0 1 .093-.045l6.97-1.027a.174.174 0 0 1 .076 0zM-8.672 94.2l9.083-3.95-5.61.826-3.665 2.756zm3.393-3.286z"/><path class="c4" d="M-8.17 65.257a.169.169 0 0 1 .102.098l9.912 24.47a.172.172 0 0 1-.135.236l-6.97 1.025a.172.172 0 0 1-.13-.034.178.178 0 0 1-.062-.116L-8.396 65.44a.172.172 0 0 1 .23-.182zm9.612 24.495-9.355-23.086 2.778 24.059z"/><path class="c5" d="M274.239 251.374a.172.172 0 0 1-.02.334l-44.878 8.725a.168.168 0 0 1-.131-.028.173.173 0 0 1-.073-.112l-2.887-16.4a.174.174 0 0 1 .198-.201l47.759 7.674a.206.206 0 0 1 .032.008zm-44.788 8.687 43.746-8.507-46.56-7.483z"/><path class="c4" d="m226.48 243.7.013.005a.174.174 0 0 1 .098.127l2.887 16.4a.173.173 0 0 1-.194.201l-24.578-3.5a.179.179 0 0 1-.145-.137.173.173 0 0 1 .082-.183l21.69-12.899a.171.171 0 0 1 .146-.014zm2.617 16.36-2.803-15.921-21.06 12.52zm-100.044 53.102a.179.179 0 0 1 .04.015.172.172 0 0 1 .047.239l-16.983 25.267a.175.175 0 0 1-.24.048.172.172 0 0 1-.046-.239l16.983-25.267a.172.172 0 0 1 .199-.063z"/><path class="c5" d="M129.055 313.164a.172.172 0 0 1 .084.258l-16.982 25.267a.171.171 0 0 1-.113.074.166.166 0 0 1-.133-.03l-27.125-19.781a.173.173 0 0 1 .081-.312l44.105-5.488a.176.176 0 0 1 .083.012zm-17.082 25.185 16.67-24.806-43.296 5.388z"/><path class="c4" d="M130.755 274.1a.173.173 0 0 1 .114.17l-1.703 39.063a.172.172 0 0 1-.124.157.17.17 0 0 1-.19-.066L95.87 266.522a.172.172 0 0 1 .18-.268l34.687 7.84zm-1.911 38.712 1.677-38.413-34.11-7.709z"/><path class="c4" d="M96.07 266.26a.174.174 0 0 1 .082.063l32.983 46.902a.173.173 0 0 1-.122.275l-44.105 5.488a.174.174 0 0 1-.19-.208l11.122-52.394a.172.172 0 0 1 .228-.127zm32.619 46.93-32.591-46.346-10.988 51.767zm-256.632-200.21a.139.139 0 0 1 .031.012.173.173 0 0 1 .082.18l-7.474 38.906a.173.173 0 0 1-.127.134.176.176 0 0 1-.176-.057l-15.847-19.269a.172.172 0 0 1 .023-.24l23.322-19.638a.173.173 0 0 1 .166-.028zm-7.633 38.675 7.313-38.067-22.819 19.213z"/><path class="c4" d="M-151.266 132.618a.174.174 0 0 1 .076.053l15.847 19.269a.174.174 0 0 1 .036.137.17.17 0 0 1-.078.117l-44.303 27.815a.173.173 0 0 1-.24-.235l28.456-47.084a.174.174 0 0 1 .139-.082.171.171 0 0 1 .067.01zm15.533 19.39L-151.3 133.08l-27.954 46.254z"/><path class="c5" d="M-151.265 132.62a.178.178 0 0 1 .084.06.176.176 0 0 1 .009.192l-28.46 47.086a.172.172 0 0 1-.26.043l-37.245-31.15a.173.173 0 0 1 .068-.295l65.701-15.933a.174.174 0 0 1 .103-.004zm-28.557 46.986 28.136-46.557-64.962 15.758zm342.167 77.804a.169.169 0 0 1 .1.097.172.172 0 0 1-.077.219l-31.592 16.687a.172.172 0 0 1-.254-.177l.939-6.985a.171.171 0 0 1 .118-.14l30.653-9.704a.173.173 0 0 1 .113.004zm-31.435 16.541 29.6-15.63-28.722 9.09z"/><path class="c4" d="M162.348 257.412a.172.172 0 0 1-.006.326l-30.653 9.704a.174.174 0 0 1-.197-.07l-11.255-16.898a.172.172 0 0 1 .173-.266l41.904 7.195a.143.143 0 0 1 .034.009zm-30.64 9.661 29.852-9.45-40.814-7.007z"/><path class="c4" d="M137.241 209.66a.168.168 0 0 1 .094.083l25.108 47.75a.172.172 0 0 1-.183.252l-41.904-7.196a.172.172 0 0 1-.13-.236l16.803-40.556a.174.174 0 0 1 .148-.107.165.165 0 0 1 .064.01zm24.738 47.687-24.772-47.117-16.579 40.017z"/><path class="c5" d="M48.426 224.52a.172.172 0 0 1 .085.259L14.114 275.45a.173.173 0 0 1-.258.031l-37.697-34.24a.172.172 0 0 1 .077-.291l72.093-16.432a.17.17 0 0 1 .097 0zM13.94 275.091l34.04-50.145-71.344 16.262z"/><path class="c5" d="M48.426 224.519a.173.173 0 0 1-.02.33l-72.093 16.432a.184.184 0 0 1-.141-.029.172.172 0 0 1-.07-.126l-2.449-33.957a.172.172 0 0 1 .056-.146.174.174 0 0 1 .151-.036l74.542 17.524zm-71.993 16.38 71.17-16.223-73.587-17.3z"/><path class="c4" d="M-23.669 240.951a.169.169 0 0 1 .058.035l37.696 34.24a.173.173 0 0 1 .03.22.165.165 0 0 1-.213.066l-47.313-19.81a.173.173 0 0 1-.076-.256l9.616-14.428a.173.173 0 0 1 .122-.076.175.175 0 0 1 .08.01zm36.78 33.855-36.806-33.43-9.389 14.087z"/><path class="c4" d="M-23.669 240.951a.173.173 0 0 1 .086.258l-9.617 14.428a.171.171 0 0 1-.118.076.175.175 0 0 1-.135-.04l-30.982-25.84a.172.172 0 0 1 .156-.298l40.599 11.413zm-9.71 14.335 9.378-14.074-39.594-11.128z"/><path class="c5" d="M-26.118 206.99a.172.172 0 0 1 .113.151l2.45 33.957a.171.171 0 0 1-.108.173.169.169 0 0 1-.196-.048l-31.378-37.253a.172.172 0 0 1 .151-.283l28.93 3.296a.175.175 0 0 1 .038.009zm2.18 33.603-2.4-33.284-28.356-3.231z"/><path class="c5" d="M-55.047 203.697a.17.17 0 0 1 .074.05l31.377 37.255a.172.172 0 0 1-.178.277l-40.6-11.413a.164.164 0 0 1-.107-.087.173.173 0 0 1-.01-.137l9.223-25.84a.172.172 0 0 1 .22-.105zm30.827 37.098L-55.043 204.2l-9.058 25.383zm-85.45-150.718a.176.176 0 0 1 .096.085.174.174 0 0 1-.02.185l-18.273 22.904a.171.171 0 0 1-.142.064.176.176 0 0 1-.136-.078l-14.484-22.003a.172.172 0 0 1 .139-.268l32.757-.9a.191.191 0 0 1 .063.01zm-18.318 22.772 17.893-22.427-32.076.881z"/><path class="c5" d="M-128.42 72.407a.17.17 0 0 1 .061.037l18.75 17.67a.172.172 0 0 1-.115.298l-32.751.898a.174.174 0 0 1-.158-.093.171.171 0 0 1 .016-.184l14.007-18.57a.173.173 0 0 1 .122-.068.176.176 0 0 1 .069.012zm18.269 17.672-18.304-17.252-13.676 18.13z"/><path class="c5" d="M-142.427 90.977a.173.173 0 0 1 .082.067l14.484 22.003a.172.172 0 0 1-.034.227l-23.322 19.637a.17.17 0 0 1-.2.017.173.173 0 0 1-.08-.184l8.84-41.642a.174.174 0 0 1 .136-.133.178.178 0 0 1 .094.008zm14.198 22.132-14.174-21.53-8.648 40.745z"/><path class="c5" d="M-128.418 72.408a.176.176 0 0 1 .086.067.171.171 0 0 1-.008.199l-14.006 18.568a.172.172 0 0 1-.123.069.174.174 0 0 1-.132-.05l-12.924-12.225a.172.172 0 0 1 .078-.292l26.931-6.346a.175.175 0 0 1 .098.01zm-14.09 18.478 13.604-18.035-26.155 6.163z"/><path class="c4" d="M226.48 243.7a.172.172 0 0 1 .029.31l-21.693 12.9a.173.173 0 0 1-.145.016l-30.246-10.5a.173.173 0 0 1 .05-.336l51.937-2.4a.172.172 0 0 1 .067.01zm-21.773 12.872 21.033-12.506-50.354 2.328z"/><path class="c5" d="M200.176 200.937a.174.174 0 0 1 .089.072l26.303 42.766a.174.174 0 0 1 .005.172.172.172 0 0 1-.143.092l-51.937 2.4a.172.172 0 0 1-.157-.258l25.633-45.163a.171.171 0 0 1 .147-.087.163.163 0 0 1 .06.006zm25.946 42.767-26-42.263-25.333 44.636z"/><path class="c4" d="M204.784 256.6a.172.172 0 0 1-.054.334l-42.436.814a.164.164 0 0 1-.164-.108.172.172 0 0 1 .042-.19l12.194-11.313a.172.172 0 0 1 .175-.04l30.246 10.5zm-42.044.794 41.018-.786-29.231-10.15z"/><path class="c5" d="M200.18 200.939a.175.175 0 0 1 .082.064.172.172 0 0 1 .007.182l-25.633 45.163a.172.172 0 0 1-.271.038l-37.305-36.441a.172.172 0 0 1 .096-.294l62.935-8.726a.178.178 0 0 1 .088.014zm-25.732 45.045 25.35-44.665-62.238 8.627z"/><path class="c5" d="M137.241 209.66a.172.172 0 0 1 .063.04l37.3 36.44a.172.172 0 0 1 .051.126.174.174 0 0 1-.055.125l-12.193 11.312a.172.172 0 0 1-.146.044.165.165 0 0 1-.123-.09l-25.106-47.752a.172.172 0 0 1 .21-.241zm36.99 36.598-36.39-35.55 24.493 46.586z"/><path class="c6" d="M-3.072 174.522a.155.155 0 0 1 .053.03l27.702 23.06a.172.172 0 0 1-.078.301l-50.744 9.414a.173.173 0 0 1-.173-.27l23.047-32.472a.173.173 0 0 1 .118-.071.166.166 0 0 1 .075.008zm27.252 23.121-27.275-22.705-22.692 31.972z"/><path class="c4" d="M-3.07 174.522a.171.171 0 0 1 .082.262l-23.047 32.472a.172.172 0 0 1-.297-.027L-43.1 170.943a.173.173 0 0 1 .173-.244l39.815 3.813a.178.178 0 0 1 .042.01zm-23.074 32.29 22.704-31.988-39.22-3.757z"/><path class="c5" d="M-13.885 126.453a.173.173 0 0 1 .11.125l10.814 48.068a.172.172 0 0 1-.22.203l-46.727-14.922a.168.168 0 0 1-.116-.127.174.174 0 0 1 .051-.164l35.914-33.151a.173.173 0 0 1 .17-.042zm10.523 47.975-10.684-47.482-35.474 32.744z"/><path class="c4" d="M-3.071 174.521a.172.172 0 0 1-.074.334l-39.814-3.814a.172.172 0 0 1-.13-.081l-6.914-11.104a.172.172 0 0 1 .199-.255l46.728 14.918zm-39.774-3.816 38.124 3.65-44.753-14.287zM112.072 338.43a.173.173 0 0 1-.019.328l-37.425 9.627a.172.172 0 1 1-.086-.334l37.425-9.627a.169.169 0 0 1 .105.006z"/><path class="c5" d="M84.948 318.65a.15.15 0 0 1 .043.024l27.125 19.78a.173.173 0 0 1-.059.307l-37.425 9.628a.167.167 0 0 1-.17-.05.172.172 0 0 1-.04-.175l10.304-29.404a.173.173 0 0 1 .11-.108.175.175 0 0 1 .112-.001zm26.67 19.868-26.643-19.43-10.117 28.885z"/><path class="c5" d="M84.948 318.65a.177.177 0 0 1 .078.056.175.175 0 0 1 .026.163l-10.3 29.408a.172.172 0 0 1-.127.112.177.177 0 0 1-.161-.052l-24.543-26.47a.172.172 0 0 1 .111-.289l34.843-2.937a.173.173 0 0 1 .073.01zm-10.427 29.244 10.117-28.887-34.225 2.886z"/><path class="c5" d="m74.648 348.058.032.012a.174.174 0 0 1 .07.215l-19.935 46.611a.173.173 0 0 1-.114.099.181.181 0 0 1-.149-.028l-11.186-8.383a.174.174 0 0 1-.068-.117.171.171 0 0 1 .038-.13l31.121-38.226a.172.172 0 0 1 .19-.053zm-20.065 46.503 19.366-45.28-30.232 37.133z"/><path class="c5" d="M50.105 321.587a.175.175 0 0 1 .068.046l24.543 26.471a.172.172 0 0 1 .007.226l-31.122 38.227a.156.156 0 0 1-.2.05.173.173 0 0 1-.105-.177l6.579-64.698a.172.172 0 0 1 .117-.146.174.174 0 0 1 .113.001zm24.256 26.641-24.182-26.081-6.482 63.746zM53.512 158.557a.173.173 0 0 1 .08.265l-28.88 39.027a.173.173 0 0 1-.167.068.169.169 0 0 1-.137-.117l-9.682-28.928a.171.171 0 0 1 .12-.22l38.564-10.1a.172.172 0 0 1 .102.005zm-28.881 38.82 28.392-38.367-37.912 9.929z"/><path class="c4" d="M24.718 139.643a.159.159 0 0 1 .038.015L53.55 158.57a.172.172 0 0 1-.05.31l-38.567 10.104a.172.172 0 0 1-.207-.221l9.77-29.012a.174.174 0 0 1 .108-.108.169.169 0 0 1 .114 0zm28.315 19.01-28.284-18.576-9.596 28.496z"/><path class="c5" d="M14.952 168.657a.171.171 0 0 1 .106.108l9.682 28.927a.173.173 0 0 1-.066.197.175.175 0 0 1-.21-.011l-27.702-23.06a.172.172 0 0 1 .058-.299l18.02-5.867a.168.168 0 0 1 .112.005zm9.27 28.568-9.437-28.189-17.56 5.717z"/><path class="c4" d="M24.718 139.643a.176.176 0 0 1 .093.079.173.173 0 0 1 .012.139l-9.771 29.011a.172.172 0 0 1-.336-.046l-1.5-31.715a.173.173 0 0 1 .214-.177l11.27 2.706zm-9.7 28.25 9.418-27.963-10.864-2.607z"/><path class="c5" d="m-13.885 126.453 27.333 10.486a.172.172 0 0 1 .112.15l1.5 31.716a.173.173 0 0 1-.315.104l-28.831-42.199a.173.173 0 0 1 .201-.259zm27.108 10.77-26.713-10.249 28.18 41.243z"/><path class="c5" d="M-13.886 126.453a.174.174 0 0 1 .082.064l28.835 42.201a.173.173 0 0 1-.09.261l-18.02 5.867a.173.173 0 0 1-.22-.126l-10.817-48.07a.172.172 0 0 1 .226-.2zm28.503 42.271-28.196-41.267 10.576 47.004zm253.756-5.959a.176.176 0 0 1 .083.062.173.173 0 0 1 .014.18l-14.263 27.994a.174.174 0 0 1-.105.087.171.171 0 0 1-.135-.016l-35.275-20.346a.172.172 0 0 1 .06-.32l49.537-7.648a.164.164 0 0 1 .084.007zm-14.392 27.917 14.028-27.532-48.72 7.522z"/><path class="c5" d="M244.396 143.963a.158.158 0 0 1 .05.026l23.977 18.803a.173.173 0 0 1-.08.307l-49.537 7.646a.172.172 0 0 1-.151-.29l25.56-26.451a.172.172 0 0 1 .181-.04zm23.504 18.858-23.541-18.463-25.096 25.97z"/><path class="c4" d="m218.836 170.414.029.011 35.274 20.347a.172.172 0 0 1-.05.318l-23.778 5.13a.173.173 0 0 1-.194-.099l-11.496-25.475a.173.173 0 0 1 .04-.198.176.176 0 0 1 .175-.034zm34.742 20.435-34.424-19.855 11.22 24.86z"/><path class="c4" d="M218.837 170.414a.173.173 0 0 1 .098.092l11.496 25.476a.172.172 0 0 1-.26.208l-12.38-9.395a.173.173 0 0 1-.068-.148l.88-16.08a.172.172 0 0 1 .14-.16.17.17 0 0 1 .094.007zm11.003 25.088-10.928-24.214-.839 15.284z"/><path class="c4" d="M244.396 143.963a.17.17 0 0 1 .092.076.173.173 0 0 1-.025.205l-25.558 26.453a.171.171 0 0 1-.153.048l-48.31-8.31a.166.166 0 0 1-.143-.162.173.173 0 0 1 .131-.173l73.869-18.142a.17.17 0 0 1 .097.005zm-25.676 26.429 25.081-25.956-72.486 17.806z"/><path class="c4" d="M218.838 170.415a.172.172 0 0 1 .113.172l-.883 16.08a.171.171 0 0 1-.086.14.169.169 0 0 1-.165.004l-47.427-24.39a.172.172 0 0 1 .108-.323l48.31 8.31a.182.182 0 0 1 .03.007zm-1.096 15.968.86-15.662-47.05-8.093z"/><path class="c5" d="M-21.16 48.321a.175.175 0 0 1 .08.057l12.995 16.934a.173.173 0 0 1-.03.24L-34.373 86.34a.173.173 0 0 1-.27-.193l13.261-37.72a.175.175 0 0 1 .136-.114.165.165 0 0 1 .086.009zm12.694 17.064-12.693-16.547-12.961 36.855z"/><path class="c4" d="M-21.16 48.322a.172.172 0 0 1 .106.22L-34.321 86.26a.173.173 0 0 1-.22.106l-49.755-17.317a.173.173 0 0 1 .004-.327L-21.27 48.32a.172.172 0 0 1 .11.002zm-13.43 37.662 13.094-37.229-62.202 20.137z"/><path class="c4" d="M-41.998 21.27a.172.172 0 0 1 .079.056l20.84 27.052a.172.172 0 0 1-.085.27L-84.186 69.05a.172.172 0 0 1-.18-.284l42.182-47.454a.171.171 0 0 1 .134-.056.168.168 0 0 1 .052.013zm20.495 27.126-20.563-26.694-41.624 46.824z"/><path class="c7" d="M-22.442 379.567a2.573 2.573 0 0 0 3.288-1.559 2.572 2.572 0 0 0-1.558-3.287 2.572 2.572 0 0 0-3.287 1.558 2.572 2.572 0 0 0 1.557 3.288zm191.906-214.493a2.98 2.98 0 1 0-1.805-3.809 2.98 2.98 0 0 0 1.805 3.809zm-5.897 13.813a3.358 3.358 0 1 0-2.034-4.29 3.358 3.358 0 0 0 2.034 4.29zM313.7 153.312a2.851 2.851 0 1 0-1.728-3.644 2.851 2.851 0 0 0 1.727 3.644zM140.232 109.3a3.43 3.43 0 1 0-2.079-4.382 3.43 3.43 0 0 0 2.079 4.383zm-117.5 29.818a2.047 2.047 0 1 0 2.618-1.24 2.047 2.047 0 0 0-2.618 1.24zm-85.208 91.242a1.964 1.964 0 1 0-2.51 1.19 1.964 1.964 0 0 0 2.51-1.19zm40.774-138.067a1.578 1.578 0 1 0-.956-2.016 1.579 1.579 0 0 0 .956 2.016z"/><path class="c8" d="M23.303 35.297a1.571 1.571 0 1 0-.952-2.008 1.571 1.571 0 0 0 .952 2.008zm-75.324 140.24a2.042 2.042 0 1 0 2.61-1.237 2.042 2.042 0 0 0-2.61 1.237z"/><path class="c7" d="M-81.319 192.959a1.99 1.99 0 1 0-1.206-2.543 1.99 1.99 0 0 0 1.206 2.543z"/><path class="c8" d="M-33.405 383.077a1.29 1.29 0 0 0 1.65-.782 1.29 1.29 0 0 0-.782-1.65 1.29 1.29 0 0 0-1.65.782 1.291 1.291 0 0 0 .782 1.65z"/><path class="c7" d="M13.008 278.046a2.859 2.859 0 1 0-1.732-3.654 2.859 2.859 0 0 0 1.732 3.654zM84.6 136.207a3.215 3.215 0 1 0-1.948-4.108 3.214 3.214 0 0 0 1.947 4.108zm-19.918 6.286a1.625 1.625 0 1 0-.985-2.078 1.626 1.626 0 0 0 .985 2.078zm188.474 50.941a2.669 2.669 0 1 0-1.617-3.41 2.669 2.669 0 0 0 1.617 3.41zm-4.864 23.973a1.384 1.384 0 1 0 .838 1.77 1.384 1.384 0 0 0-.838-1.77zm-119.134 56.306a1.634 1.634 0 1 0 2.094-.989 1.634 1.634 0 0 0-2.094.989zm96.49-27.683a2.3 2.3 0 1 0-1.394-2.94 2.3 2.3 0 0 0 1.394 2.94z"/><path class="c8" d="M259.62 235.735a1.453 1.453 0 1 0-.88-1.857 1.453 1.453 0 0 0 .88 1.857z"/><path class="c7" d="M199.02 204.175a3.263 3.263 0 1 0-1.976-4.17 3.263 3.263 0 0 0 1.977 4.17zm32.176-10.702a2.739 2.739 0 1 0 1.656 3.499 2.738 2.738 0 0 0-1.656-3.499zM-82.818-.41a.849.849 0 1 0-.514-1.086.849.849 0 0 0 .514 1.086zM243.31 147.007a3.059 3.059 0 1 0-1.853-3.909 3.058 3.058 0 0 0 1.853 3.909zm-384.656 131.438a3.07 3.07 0 0 0-3.927 1.859 3.071 3.071 0 0 0 1.859 3.927 3.071 3.071 0 0 0 3.927-1.86 3.071 3.071 0 0 0-1.86-3.926zm12.152-203.853a2.146 2.146 0 1 0-1.303-2.743 2.145 2.145 0 0 0 1.303 2.743zm44.292-3.848a1.972 1.972 0 1 0-1.194-2.52 1.972 1.972 0 0 0 1.194 2.52zm97.741 67.902a1.643 1.643 0 1 0-.997-2.096 1.643 1.643 0 0 0 .997 2.096z"/><path class="c8" d="M-63.946 206.868a1.5 1.5 0 1 0 .91 1.919 1.5 1.5 0 0 0-.91-1.919z"/><path class="c7" d="M-47.609 302.051a2.549 2.549 0 1 0-1.544-3.256 2.548 2.548 0 0 0 1.544 3.256zm54.689-6.844a1.851 1.851 0 1 0-1.122-2.365 1.85 1.85 0 0 0 1.121 2.365zm-22.953-15.144a1.8 1.8 0 1 0 1.092 2.304 1.8 1.8 0 0 0-1.092-2.304zm-46.769 13.496a1.638 1.638 0 1 0 .992 2.094 1.638 1.638 0 0 0-.992-2.094zm24.743-35.785a1.638 1.638 0 1 0 .993 2.095 1.638 1.638 0 0 0-.993-2.095zm-170.093 9.86a1.563 1.563 0 0 0 1.998-.947 1.563 1.563 0 0 0-.947-1.997 1.563 1.563 0 0 0-1.998.947 1.563 1.563 0 0 0 .947 1.997zm25.347-7.694a1.4 1.4 0 1 0 1.786-.845 1.4 1.4 0 0 0-1.786.845zm318.82-47.289a3 3 0 1 0-1.819-3.836 3 3 0 0 0 1.819 3.836z"/><path class="c8" d="M107.682 182.009a1.5 1.5 0 1 0-.912-1.922 1.5 1.5 0 0 0 .912 1.922z"/><path class="c7" d="M97.124 263.302a3.313 3.313 0 1 0 2.006 4.234 3.313 3.313 0 0 0-2.006-4.234zm33.696 6.259a2.425 2.425 0 1 0-1.468-3.098 2.425 2.425 0 0 0 1.468 3.098zm-79.813 49.497a2.858 2.858 0 1 0 1.732 3.653 2.858 2.858 0 0 0-1.732-3.653zM-8.71 66.774a1.441 1.441 0 1 0-.874-1.841 1.441 1.441 0 0 0 .873 1.84zM93.156 171.008a2.092 2.092 0 1 0-1.267-2.674 2.092 2.092 0 0 0 1.267 2.674zM73.249 202.85a2.925 2.925 0 1 0-1.772-3.737 2.924 2.924 0 0 0 1.772 3.737z"/><path class="c8" d="M35.162 207.253a1.949 1.949 0 1 0-1.186-2.49 1.95 1.95 0 0 0 1.186 2.49z"/><path class="c7" d="M-206.579 309.94a2.746 2.746 0 0 0 3.51-1.664 2.747 2.747 0 0 0-1.664-3.51 2.746 2.746 0 0 0-3.51 1.664 2.746 2.746 0 0 0 1.664 3.51z"/><path class="c8" d="M-232.398 265.819a1.578 1.578 0 0 0 2.016-.955 1.577 1.577 0 0 0-.956-2.016 1.577 1.577 0 0 0-2.015.956 1.577 1.577 0 0 0 .955 2.015z"/><path class="c7" d="M273.788 252.64a1.17 1.17 0 1 0-.711-1.497 1.17 1.17 0 0 0 .71 1.496zm-45.097 9.353a1.836 1.836 0 1 0-1.111-2.346 1.835 1.835 0 0 0 1.111 2.346zm-99.044 49.502a1.943 1.943 0 1 0 1.175 2.486 1.942 1.942 0 0 0-1.175-2.486z"/><path class="c8" d="M-34.096 257.652a2.241 2.241 0 1 0-1.357-2.864 2.241 2.241 0 0 0 1.357 2.864z"/><path class="c7" d="M-24.432 243.088a2.1 2.1 0 1 0-1.272-2.684 2.1 2.1 0 0 0 1.272 2.684zM-143.624 94.333A3.389 3.389 0 1 0-145.677 90a3.389 3.389 0 0 0 2.053 4.332zm317.405 153.9a2.091 2.091 0 1 0-1.266-2.673 2.091 2.091 0 0 0 1.266 2.673zM24.015 199.304a1.656 1.656 0 1 0-1.003-2.116 1.656 1.656 0 0 0 1.003 2.116zm-27.783-22.831a1.9 1.9 0 1 0-1.15-2.427 1.9 1.9 0 0 0 1.15 2.427z"/><path class="c8" d="M-52.22 158.923a2.508 2.508 0 1 0 3.206-1.52 2.508 2.508 0 0 0-3.206 1.52z"/><path class="c7" d="M75.183 346.555a1.769 1.769 0 1 0 1.072 2.26 1.769 1.769 0 0 0-1.072-2.26zm-32.64 42.485a2.751 2.751 0 0 0 3.516-1.667 2.751 2.751 0 0 0-1.667-3.516 2.751 2.751 0 0 0-3.516 1.666 2.751 2.751 0 0 0 1.667 3.516zm-55.425-265.401a3.161 3.161 0 1 0 1.914 4.04 3.161 3.161 0 0 0-1.914-4.04zm28.678 42.638a2.7 2.7 0 1 0 1.634 3.448 2.7 2.7 0 0 0-1.634-3.448zm202.274 6.283a2.106 2.106 0 1 0-1.275-2.69 2.106 2.106 0 0 0 1.276 2.69zM-35.303 88.501a2.44 2.44 0 1 0-1.48-3.12 2.44 2.44 0 0 0 1.48 3.12zM-82.894 304.05a3.287 3.287 0 0 0-4.201 1.993 3.288 3.288 0 0 0 1.988 4.199 3.288 3.288 0 0 0 4.2-1.992 3.287 3.287 0 0 0-1.987-4.2zm194.119-150.472a1.8 1.8 0 1 0-1.09-2.298 1.8 1.8 0 0 0 1.09 2.298zm155.886 12.731a3.588 3.588 0 1 0-2.174-4.584 3.588 3.588 0 0 0 2.174 4.584zm-447.773 16.031a2.629 2.629 0 1 0-1.593-3.359 2.628 2.628 0 0 0 1.593 3.359zM48.883 33.283a3.209 3.209 0 1 0-1.944-4.1 3.209 3.209 0 0 0 1.944 4.1zm54.647 78.187a4.711 4.711 0 1 0-2.853-6.022 4.711 4.711 0 0 0 2.853 6.022z"/><path class="c8" d="M-43.62 172.775a2.021 2.021 0 1 0-1.225-2.584 2.021 2.021 0 0 0 1.224 2.584z"/><path class="c7" d="M-110.274 91.77a1.624 1.624 0 1 0-.985-2.076 1.624 1.624 0 0 0 .985 2.076zm389.099 102.12a2.19 2.19 0 1 0-1.328-2.794 2.19 2.19 0 0 0 1.328 2.794zM-42.997 24.067a2.8 2.8 0 1 0-1.699-3.578 2.8 2.8 0 0 0 1.699 3.578zm-86.78 329.175a1.72 1.72 0 0 0 2.199-1.042 1.72 1.72 0 0 0-1.042-2.197 1.72 1.72 0 0 0-2.197 1.042 1.72 1.72 0 0 0 1.04 2.197zm-38.128-138.839a1.754 1.754 0 1 0-2.243 1.067 1.754 1.754 0 0 0 2.243-1.067zM28.918 102.53a2.3 2.3 0 1 0 2.938-1.393 2.3 2.3 0 0 0-2.938 1.393zm-84.955 103.941a2.773 2.773 0 1 0-1.68-3.544 2.774 2.774 0 0 0 1.68 3.544z"/><path class="c8" d="M-46.174 201.192a1.632 1.632 0 1 0 2.085-.988 1.631 1.631 0 0 0-2.085.988z"/><path class="c7" d="M61.928 280.463a2.253 2.253 0 1 0-2.88 1.364 2.253 2.253 0 0 0 2.88-1.364zm47.869-28.731a1.936 1.936 0 1 0-1.172-2.473 1.937 1.937 0 0 0 1.172 2.473zm-62.615-23.73a3.525 3.525 0 1 0-2.135-4.506 3.526 3.526 0 0 0 2.135 4.506zm-15.199 57.283a3.571 3.571 0 1 0-2.163-4.564 3.571 3.571 0 0 0 2.163 4.564zm-160.587-170.451a1.8 1.8 0 1 0-1.087-2.294 1.8 1.8 0 0 0 1.087 2.294zm-7.598 39.251a2.161 2.161 0 1 0-1.31-2.761 2.161 2.161 0 0 0 1.31 2.761zM.661 92.764a3.053 3.053 0 1 0-1.85-3.902 3.053 3.053 0 0 0 1.85 3.902z"/><path class="c8" d="M203.971 258.877a2.244 2.244 0 1 0-1.362-2.87 2.244 2.244 0 0 0 1.362 2.87z"/><path class="c7" d="M112.757 336.513a2.208 2.208 0 1 0 1.338 2.822 2.209 2.209 0 0 0-1.338-2.822zm-30.209-18.536a2.487 2.487 0 1 0 3.178-1.506 2.487 2.487 0 0 0-3.178 1.506zm79.192-58.863a1.634 1.634 0 1 0-.99-2.087 1.634 1.634 0 0 0 .99 2.087zm-315.815-127.315a2.921 2.921 0 1 0 3.733-1.769 2.921 2.921 0 0 0-3.733 1.769zm127.238 77.208a1.965 1.965 0 1 0-1.19-2.511 1.965 1.965 0 0 0 1.19 2.51z"/><path class="c8" d="M52.409 161.646a3.108 3.108 0 1 0-1.883-3.972 3.108 3.108 0 0 0 1.883 3.972z"/><path class="c7" d="M217.228 188.527a1.985 1.985 0 1 0-1.202-2.536 1.984 1.984 0 0 0 1.202 2.536zM-21.556 49.43a1 1 0 1 0-.609-1.283 1 1 0 0 0 .609 1.283z"/><path class="c8" d="M-71.351 86.773a1.366 1.366 0 1 0 1.746-.83 1.366 1.366 0 0 0-1.746.83z"/><path class="c7" d="M-155.74 78.84a.854.854 0 1 0 1.092-.516.854.854 0 0 0-1.092.517zm90.362 13.603a2.9 2.9 0 1 0-1.757-3.704 2.9 2.9 0 0 0 1.757 3.704z"/><path d="M793.249 529.925a.68.68 0 1 0 .664-.7.68.68 0 0 0-.664.7z" transform="rotate(21 1579.168 -1845.901)" style="stroke:#b3b3b3;stroke-width:2px;stroke-miterlimit:10;fill:#3a3a3a"/><path class="c7" d="M-9.748 95.57a1.592 1.592 0 1 0-.964-2.035 1.592 1.592 0 0 0 .964 2.035zm63.27 300.608a1.8 1.8 0 0 0 2.304-1.09 1.8 1.8 0 0 0-1.091-2.302 1.8 1.8 0 0 0-2.302 1.09 1.8 1.8 0 0 0 1.089 2.302z"/></g></g></svg>
