<svg xmlns="http://www.w3.org/2000/svg" width="349" height="308"><defs><style>.c4,.c5,.c6{fill:none}.c4,.c8{stroke:#3a3a3a}.c4,.c5,.c7,.c8{stroke-miterlimit:10}.c5,.c7{stroke:#828282}.c7,.c8{fill:#3a3a3a;stroke-width:2px}</style></defs><g style="opacity:.51;clip-path:url(#clip-path)"><g style="opacity:.8;mix-blend-mode:exclusion;isolation:isolate"><path class="c4" d="M246.13 251.376a.158.158 0 0 1-.141-.08l-20.44-36.1a.158.158 0 0 1 .013-.174.153.153 0 0 1 .164-.056l28.461 7.4a.159.159 0 0 1 .1.074.157.157 0 0 1 .015.121l-8.022 28.7a.156.156 0 0 1-.133.114zm-20.12-36.009 20.069 35.443 7.876-28.18zm210.814-81.299a.165.165 0 0 1-.043-.005l-59.614-15.362a.158.158 0 0 1 0-.305l88.329-22.914a.153.153 0 0 1 .17.065.158.158 0 0 1-.005.182l-28.714 38.275a.158.158 0 0 1-.123.064zm-58.987-15.521 58.921 15.184 28.381-37.83zm-65.162-81.44a.158.158 0 0 1-.088-.291l29.349-18.61a.156.156 0 0 1 .2.028.159.159 0 0 1 .005.2l-13.82 17.107a.158.158 0 0 1-.107.057l-15.53 1.5zm28.62-18.121-27.984 17.743 14.806-1.434zm-13.094 16.459z"/><path class="c5" d="M342.025 18.493a.159.159 0 0 1-.076-.018l-76.25-39.312a.16.16 0 0 1-.084-.118.159.159 0 0 1 .047-.137l8.185-7.764a.158.158 0 0 1 .2-.015l68.066 47.08a.157.157 0 0 1 .045.211.157.157 0 0 1-.133.073zm-75.984-39.509 73.882 38.096-65.952-45.615z"/><path class="c5" d="M312.675 37.107a.157.157 0 0 1-.126-.059l-46.9-57.923a.158.158 0 0 1 0-.2.156.156 0 0 1 .2-.041l76.25 39.312a.159.159 0 0 1 .085.134.157.157 0 0 1-.073.14l-29.349 18.61a.156.156 0 0 1-.087.027zm-46.309-57.6 46.34 57.23 29-18.387z"/><path class="c4" d="M172.213 225.632h-.021l-48.495-5.281a.158.158 0 0 1-.009-.312l49.014-8.1a.156.156 0 0 1 .183.161l-.518 13.384a.156.156 0 0 1-.154.152zm-47.337-5.471 47.182 5.138.5-13.022z"/><path class="c4" d="M172.213 225.632a.154.154 0 0 1-.106-.038.157.157 0 0 1-.055-.126l.518-13.384a.158.158 0 0 1 .051-.111.135.135 0 0 1 .116-.04l52.961 3.031a.157.157 0 0 1 .021.312l-53.476 10.353a.108.108 0 0 1-.03.003zm.666-13.376-.5 13.025 52.043-10.075z"/><path class="c4" d="M225.693 215.275h-.013l-52.961-3.031a.158.158 0 0 1-.06-.3l46.66-22.68a.162.162 0 0 1 .136 0 .156.156 0 0 1 .086.105l6.3 25.711a.158.158 0 0 1-.15.2zm-52.354-3.309 52.144 2.985-6.2-25.314z"/><path class="c5" d="M52.898 282.837a.155.155 0 0 1-.1-.031.158.158 0 0 1-.054-.179l16.465-46.687a.161.161 0 0 1 .117-.1.157.157 0 0 1 .148.049l19.075 20.988a.157.157 0 0 1-.024.234l-35.541 25.7a.156.156 0 0 1-.086.026zm16.522-46.544-16.209 45.962 34.989-25.3zm146.05 27.795a.158.158 0 0 1-.109-.04l-43.258-38.456a.157.157 0 0 1 .075-.272l53.48-10.353a.149.149 0 0 1 .143.044.156.156 0 0 1 .042.143l-10.222 48.813a.158.158 0 0 1-.105.118.161.161 0 0 1-.046.003zm-42.919-38.521 42.817 38.064 10.117-48.311z"/><path class="c5" d="M225.251 274.199a.151.151 0 0 1-.117-.047l-9.781-10.112a.157.157 0 0 1-.041-.142.159.159 0 0 1 .094-.114l30.661-12.712a.16.16 0 0 1 .189.055.158.158 0 0 1-.013.2l-20.881 22.824a.156.156 0 0 1-.111.048zm-9.51-10.213 9.5 9.825 20.291-22.179z"/><path class="c5" d="M215.471 264.089a.158.158 0 0 1-.1-.036.156.156 0 0 1-.053-.154l10.222-48.81a.157.157 0 0 1 .292-.045l20.44 36.1a.158.158 0 0 1-.077.224l-30.667 12.709a.17.17 0 0 1-.057.012zm10.287-48.522-10.075 48.1 30.22-12.529zm151.452-96.861a.158.158 0 0 1-.095-.286l68.471-48.554a.157.157 0 0 1 .216.032l19.857 25.64a.159.159 0 0 1 .024.148.157.157 0 0 1-.11.1L377.244 118.7a.159.159 0 0 1-.034.006zm68.436-48.5-67.647 47.97 87.266-22.638z"/><path class="c4" d="M355.992 141.412a.15.15 0 0 1-.047-.006.157.157 0 0 1-.111-.122l-4.784-25.242a.158.158 0 0 1 .171-.186l26 2.536a.157.157 0 0 1 .1.264L356.1 141.363a.157.157 0 0 1-.108.049zM351.4 116.19l4.686 24.73 20.788-22.245zM246.132 251.376a.158.158 0 0 1-.155-.2l8.021-28.7a.152.152 0 0 1 .173-.114l56.417 7.616a.158.158 0 0 1 .028.306l-64.439 21.085a.151.151 0 0 1-.045.007zm8.133-28.683-7.9 28.284 63.5-20.779z"/><path class="c4" d="M310.572 230.292h-.025l-56.417-7.616a.158.158 0 0 1-.084-.274l14.914-13.348a.16.16 0 0 1 .176-.023l41.5 20.963a.158.158 0 0 1-.068.3zm-56.061-7.889 55.149 7.445-40.571-20.492z"/><path class="c4" d="M310.571 230.291a.167.167 0 0 1-.075-.017l-41.5-20.963a.159.159 0 0 1-.086-.152.156.156 0 0 1 .105-.138l35.019-12.308a.162.162 0 0 1 .13.012.155.155 0 0 1 .076.107l6.482 33.275a.157.157 0 0 1-.151.188zm-41.106-21.1 40.886 20.652-6.385-32.78zm82.173-60.864a.16.16 0 0 1-.114-.045l-26.214-25.49a.158.158 0 0 1 .192-.248l30.568 18.575a.157.157 0 0 1 .052.219l-4.355 6.915a.156.156 0 0 1-.115.073zm-25.108-24.789 25.074 24.382 4.165-6.615zm50.681-4.832a.158.158 0 0 1-.118-.049l-26.598-27.62a.158.158 0 0 1 .08-.263l95.071-20.937a.159.159 0 0 1 .178.091.157.157 0 0 1-.053.192l-68.473 48.557a.155.155 0 0 1-.087.029zm-26.293-27.69 26.307 27.321 67.726-48.026z"/><path class="c5" d="M347.755 224.614a.157.157 0 0 1-.158-.124l-6.38-28.989a.158.158 0 0 1 .094-.18.161.161 0 0 1 .193.062l17.91 28.21a.158.158 0 0 1-.123.242l-11.53.778zm-6.037-28.306 6.158 27.983 11.13-.751z"/><path class="c4" d="M347.941 225.241a.157.157 0 0 1-.155-.114l-.182-.627a.158.158 0 0 1 .141-.2l11.53-.778a.163.163 0 0 1 .167.143.158.158 0 0 1-.138.172l-11.352 1.403zm.02-.641.09.31 5.6-.694z"/><path class="c5" d="M318.392 298.857a.145.145 0 0 1-.044-.005l-93.141-24.656a.158.158 0 0 1-.077-.259l20.885-22.825a.161.161 0 0 1 .2-.026l72.26 47.48a.159.159 0 0 1 .057.2.157.157 0 0 1-.14.091zm-92.852-24.9 91.951 24.341-71.337-46.874z"/><path class="c5" d="M318.393 298.856a.158.158 0 0 1-.091-.025l-72.26-47.481a.158.158 0 0 1 .038-.282l64.438-21.085a.158.158 0 0 1 .134.017.16.16 0 0 1 .072.115l7.821 68.565a.158.158 0 0 1-.153.176zm-71.9-47.59 71.7 47.115-7.762-68.038z"/><path class="c4" d="M318.393 298.856a.159.159 0 0 1-.161-.14l-7.822-68.565a.158.158 0 0 1 .3-.09l28.969 56.963a.157.157 0 0 1-.065.21l-21.148 11.6a.154.154 0 0 1-.073.022zm-7.57-67.872 7.7 67.462 20.807-11.417z"/><path class="c5" d="M396.635 210.712a.149.149 0 0 1-.045-.006l-55.256-15.087a.156.156 0 0 1-.1-.087.158.158 0 0 1 0-.134l19.8-40.082a.158.158 0 0 1 .275-.015l35.454 55.168a.158.158 0 0 1-.129.243zm-55.033-15.346 54.674 14.925-35.081-54.585z"/><path class="c4" d="M361.182 155.544a.158.158 0 0 1-.1-.032l-9.544-7.216a.157.157 0 0 1-.038-.21l4.355-6.915a.152.152 0 0 1 .15-.073.158.158 0 0 1 .131.1l5.19 14.132a.159.159 0 0 1-.144.212zm-9.337-7.412 9 6.805-4.894-13.327z"/><path class="c4" d="M361.182 155.544h-.008a.156.156 0 0 1-.143-.1l-5.19-14.132a.159.159 0 0 1 .032-.162l21.219-22.706a.156.156 0 0 1 .2-.025.159.159 0 0 1 .058.2l-16.029 36.838a.159.159 0 0 1-.139.087zm-5.008-14.253 5.02 13.671 15.507-35.637z"/><path class="c5" d="M361.181 155.544a.161.161 0 0 1-.123-.054.159.159 0 0 1-.025-.167l16.029-36.838a.157.157 0 0 1 .184-.089l59.614 15.362a.158.158 0 0 1 0 .3l-75.642 21.48a.169.169 0 0 1-.037.006zm16.116-36.809-15.842 36.409 74.763-21.226z"/><path class="c5" d="M396.635 210.712a.158.158 0 0 1-.137-.072l-35.454-55.168a.158.158 0 0 1 .208-.224l73.918 39.747a.158.158 0 0 1-.016.286l-38.464 15.421a.153.153 0 0 1-.055.01zm-35-54.9 35.054 54.545 38.029-15.247z"/><path class="c4" d="M342.025 18.497a.16.16 0 0 1-.094-.028l-68.066-47.076a.157.157 0 0 1-.062-.172.157.157 0 0 1 .142-.116l92.084-5.72a.166.166 0 0 1 .14.068.157.157 0 0 1 .014.155l-24.019 52.8a.157.157 0 0 1-.1.086.182.182 0 0 1-.039.003zm-67.606-47.1 67.536 46.705 23.832-52.385zM315.683 79.17h-.009l-46.9-1.409a.158.158 0 0 1-.081-.29l23.9-15.454a.157.157 0 0 1 .179 0l23 16.862a.158.158 0 0 1-.089.285zm-46.39-1.708 45.884 1.378-22.5-16.5z"/><path class="c5" d="M88.44 257.141a.156.156 0 0 1-.12-.051l-19.077-20.992a.158.158 0 0 1 .065-.256l22.084-7.593a.16.16 0 0 1 .149.026.159.159 0 0 1 .059.14l-3 28.581a.157.157 0 0 1-.108.133.162.162 0 0 1-.052.012zm-18.8-21.079 18.678 20.554 2.941-27.985z"/><path class="c5" d="M69.363 236.151a.158.158 0 0 1-.125-.056.156.156 0 0 1-.017-.177l18.287-33.359a.164.164 0 0 1 .166-.08.158.158 0 0 1 .129.132l3.792 25.771a.157.157 0 0 1-.105.172l-22.079 7.587a.164.164 0 0 1-.048.01zm18.2-33.029L69.692 235.71l21.57-7.414zm181.504 6.209a.155.155 0 0 1-.108-.04.157.157 0 0 1-.05-.152l4.234-19.022a.158.158 0 0 1 .187-.12l30.788 6.711a.158.158 0 0 1 .019.3l-35.022 12.312a.148.148 0 0 1-.048.011zm4.35-18.993-4.138 18.593 34.229-12.033z"/><path class="c6" d="M285.172 147.51a.173.173 0 0 1-.04 0l-12.117-2.869a.158.158 0 0 1-.024-.3l52.37-21.807a.16.16 0 0 1 .2.074.158.158 0 0 1-.058.206l-40.252 24.672a.161.161 0 0 1-.079.024zm-11.612-3.065 11.582 2.739 38.468-23.579z"/><path class="c4" d="M225.693 215.276h-.02a.157.157 0 0 1-.137-.119l-6.3-25.711a.158.158 0 0 1 .2-.188l16.023 5.17a.159.159 0 0 1 .095.218l-9.722 20.541a.159.159 0 0 1-.139.089zm-6.081-25.629 6.128 25 9.454-19.977z"/><path class="c5" d="M254.153 222.676a.149.149 0 0 1-.043-.005l-28.461-7.4a.155.155 0 0 1-.1-.086.157.157 0 0 1 0-.134l9.722-20.541a.159.159 0 0 1 .131-.09.149.149 0 0 1 .143.069l18.74 27.938a.158.158 0 0 1-.127.246zm-28.241-7.659 27.875 7.245-18.357-27.363z"/><path class="c5" d="M254.155 222.675h-.024a.158.158 0 0 1-.111-.068l-18.74-27.938a.158.158 0 0 1 .194-.233l33.653 14.59a.157.157 0 0 1 .043.262l-14.914 13.348a.154.154 0 0 1-.101.039zm-18.314-27.737 18.339 27.341 14.595-13.063z"/><path class="c4" d="M269.068 209.331a.147.147 0 0 1-.066-.013l-33.653-14.59a.158.158 0 0 1 .044-.3l37.887-4.433a.158.158 0 0 1 .172.191l-4.234 19.023a.157.157 0 0 1-.082.106.155.155 0 0 1-.068.016zm-33.056-14.659 32.94 14.281 4.145-18.62zm165.481 16.176h-.008l-4.857-.137a.158.158 0 0 1-.055-.3l38.464-15.421a.158.158 0 0 1 .125.29l-33.607 15.554a.167.167 0 0 1-.062.014zm-4.1-.431 4.06.114 28.095-13.006z"/><path class="c5" d="M91.443 228.56a.16.16 0 0 1-.069-.014.159.159 0 0 1-.091-.121l-3.792-25.772a.16.16 0 0 1 .069-.155.158.158 0 0 1 .168 0l22.416 13.6a.158.158 0 0 1 0 .267l-18.619 12.17a.16.16 0 0 1-.082.025zm-3.591-25.619 3.707 25.194 18.208-11.9z"/><path class="c4" d="M170.951 123.229a.154.154 0 0 1-.079-.019.156.156 0 0 1-.078-.1l-1.488-6.272a.159.159 0 0 1 .023-.125.157.157 0 0 1 .108-.067l32.191-4.676a.152.152 0 0 1 .176.118.157.157 0 0 1-.1.186l-30.7 10.948a.141.141 0 0 1-.053.007zm-1.3-6.3 1.407 5.932 29.044-10.356zm-97.619 76.518a.156.156 0 0 1-.082-.021l-17.646-10.051a.158.158 0 0 1 .045-.291l43.3-9.1a.158.158 0 0 1 .127.281l-25.654 19.151a.159.159 0 0 1-.09.031zm-17.21-10.14 17.195 9.794 25-18.664z"/><path class="c4" d="M69.364 236.154a.144.144 0 0 1-.047-.006.158.158 0 0 1-.114-.161l2.667-42.7a.158.158 0 0 1 .084-.13.16.16 0 0 1 .155 0l15.62 9.342a.157.157 0 0 1 .057.211l-18.287 33.36a.158.158 0 0 1-.135.084zm2.805-42.6-2.607 41.737 17.874-32.606z"/><path class="c4" d="M87.651 202.79a.161.161 0 0 1-.085-.022l-15.615-9.343a.158.158 0 0 1-.013-.262l25.654-19.153a.158.158 0 0 1 .243.179l-10.034 28.5a.159.159 0 0 1-.1.1.154.154 0 0 1-.05.001zm-15.34-9.515 15.252 9.122 9.8-27.824z"/><path class="c5" d="m134.165 202.185-46.515.6a.158.158 0 0 1-.15-.21l10.034-28.5a.159.159 0 0 1 .1-.1.157.157 0 0 1 .141.026l36.48 27.9a.158.158 0 0 1-.092.283zm-46.295.282 45.833-.591-35.946-27.486z"/><path class="c5" d="M110.066 216.384a.159.159 0 0 1-.085-.023l-22.416-13.6a.158.158 0 0 1 .078-.293l46.514-.6a.156.156 0 0 1 .154.115.158.158 0 0 1-.072.179l-24.1 14.2a.165.165 0 0 1-.073.022zm-21.867-13.6 21.864 13.262 23.506-13.847z"/><path class="c5" d="M123.718 220.35a.147.147 0 0 1-.047-.006l-13.652-3.961a.158.158 0 0 1-.036-.288l24.1-14.2a.161.161 0 0 1 .191.024.159.159 0 0 1 .026.191l-10.449 18.161a.157.157 0 0 1-.133.079zm-13.26-4.172 13.181 3.828 10.088-17.536z"/><path class="c5" d="M123.72 220.351a.158.158 0 0 1-.141-.237l10.441-18.161a.156.156 0 0 1 .176-.074l38.566 10.058a.158.158 0 0 1-.014.308l-49.014 8.1zm10.52-18.136-10.22 17.77 47.953-7.928z"/><path class="c4" d="M420.333 221.88a.164.164 0 0 1-.071-.015l-23.7-11.169a.159.159 0 0 1-.086-.179.172.172 0 0 1 .158-.121l4.858.137a.17.17 0 0 1 .076.022l18.84 11.032a.158.158 0 0 1-.076.294zm-22.947-11.147 19.821 9.342-15.758-9.227z"/><path class="c5" d="M441.853 282.299h-.026l-41.987-6.067a.154.154 0 0 1-.112-.076.157.157 0 0 1-.012-.136l20.467-54.352a.154.154 0 0 1 .149-.1.158.158 0 0 1 .147.1l21.52 60.419a.158.158 0 0 1-.145.211zm-41.773-6.352 41.533 6-21.287-59.766z"/><path class="c4" d="M420.334 221.88a.16.16 0 0 1-.084-.022l-18.839-11.032a.158.158 0 0 1 .014-.279l33.605-15.556a.158.158 0 0 1 .2.22L420.463 221.8a.155.155 0 0 1-.1.075.149.149 0 0 1-.029.005zm-18.5-11.173 18.44 10.8 14.453-26.025zm-208.579 76.364a.176.176 0 0 1-.045-.005l-78.18-21.734a.158.158 0 0 1-.048-.282l57.134-39.707a.159.159 0 0 1 .139-.02.157.157 0 0 1 .1.1l21.042 61.439a.157.157 0 0 1-.034.159.162.162 0 0 1-.108.05zm-77.814-21.953 77.564 21.563-20.875-60.959z"/><path class="c5" d="M193.255 287.071a.157.157 0 0 1-.038 0 .159.159 0 0 1-.115-.1l-21.042-61.446a.158.158 0 0 1 .254-.169l43.258 38.456a.158.158 0 0 1 .009.228l-22.216 22.983a.16.16 0 0 1-.11.048zm-20.7-61.08 20.764 60.628 21.925-22.68zm155.65-190.388a.158.158 0 0 1-.127-.257l13.82-17.107a.156.156 0 0 1 .13-.058l58.314 2.9a.158.158 0 0 1 .15.146.158.158 0 0 1-.127.166l-72.134 14.2zm13.888-17.1-13.5 16.706 70.449-13.873z"/><path class="c5" d="M350.612 91.08h-.022a.157.157 0 0 1-.128-.1l-22.407-55.476a.161.161 0 0 1 .008-.134.159.159 0 0 1 .109-.08l72.133-14.202a.151.151 0 0 1 .163.069.159.159 0 0 1 0 .177l-49.731 69.68a.156.156 0 0 1-.125.066zM328.42 35.563l22.227 55.033 49.329-69.122z"/><path class="c4" d="M400.339 21.4h-.012l-58.314-2.9a.159.159 0 0 1-.127-.075.16.16 0 0 1-.008-.148l24.019-52.8a.158.158 0 0 1 .133-.092.163.163 0 0 1 .144.075l34.3 55.7a.159.159 0 0 1 0 .163.157.157 0 0 1-.135.077zm-58.077-3.208 57.782 2.879-33.983-55.192z"/><path class="c5" d="M350.613 91.081a.156.156 0 0 1-.135-.071.159.159 0 0 1 0-.179l49.73-69.68a.157.157 0 0 1 .117-.065.181.181 0 0 1 .125.05l45.345 48.751a.158.158 0 0 1-.082.261l-95.07 20.929a.158.158 0 0 1-.03.004zm49.739-69.588-49.377 69.188 94.4-20.781z"/><path class="c4" d="M445.683 70.152a.158.158 0 0 1-.12-.05L400.22 21.35a.158.158 0 0 1-.024-.179.154.154 0 0 1 .16-.085l40.122 5.1a.158.158 0 0 1 .137.138l5.221 43.65a.158.158 0 0 1-.091.162.16.16 0 0 1-.062.016zm-44.935-48.698 44.717 48.078-5.149-43.047z"/><path class="c5" d="M420.333 221.881a.158.158 0 0 1-.142-.235l14.767-26.59a.156.156 0 0 1 .2-.069l21.8 8.943a.158.158 0 0 1 .009.288l-36.566 17.647a.154.154 0 0 1-.068.016zm14.833-26.548-14.458 26.032 35.8-17.276z"/><path class="c5" d="M441.852 282.299a.158.158 0 0 1-.152-.105l-21.52-60.418a.158.158 0 0 1 .08-.195l36.57-17.646a.161.161 0 0 1 .165.017.157.157 0 0 1 .058.155l-15.052 78.064a.157.157 0 0 1-.143.128zm-21.327-60.5 21.278 59.74 14.881-77.189z"/><path class="c4" d="M310.571 230.291a.157.157 0 0 1-.158-.128l-6.481-33.276a.153.153 0 0 1 .027-.122.157.157 0 0 1 .107-.065l10.511-1.385a.156.156 0 0 1 .131.044.161.161 0 0 1 .046.131l-4.03 34.66a.158.158 0 0 1-.151.139zm-6.3-33.3 6.255 32.114 3.89-33.45z"/><path class="c4" d="M310.571 230.291a.158.158 0 0 1-.161-.176l4.03-34.66a.159.159 0 0 1 .1-.129.157.157 0 0 1 .16.028l33.159 28.983a.158.158 0 0 1-.08.275l-37.189 5.677zm4.148-34.5-3.972 34.157 36.649-5.6z"/><path class="c5" d="M347.759 224.613a.157.157 0 0 1-.108-.038l-33.159-28.984a.157.157 0 0 1-.044-.174.172.172 0 0 1 .147-.1l26.779-.006a.158.158 0 0 1 .154.124l6.38 28.989a.158.158 0 0 1-.074.169.153.153 0 0 1-.075.02zm-32.743-28.983 32.482 28.391-6.249-28.4z"/><path class="c4" d="M351.209 116.17a.151.151 0 0 1-.061-.011.156.156 0 0 1-.1-.143l-.6-25.09a.158.158 0 0 1 .127-.158.156.156 0 0 1 .178.1l7.128 18.249a.158.158 0 0 1-.033.166l-6.532 6.841a.159.159 0 0 1-.107.046zm-.421-24.355.566 23.814 6.2-6.493z"/><path class="c4" d="M377.21 118.706h-.019l-26-2.536a.158.158 0 0 1-.1-.266l6.532-6.841a.158.158 0 0 1 .183-.033l19.47 9.377a.158.158 0 0 1-.065.3zm-25.668-2.82 24.8 2.419-18.567-8.942z"/><path class="c4" d="M377.211 118.706a.154.154 0 0 1-.073-.016l-19.47-9.377a.164.164 0 0 1-.079-.085l-7.128-18.249a.158.158 0 0 1 .261-.167l26.6 27.625a.158.158 0 0 1-.11.267zm-19.35-9.65 18.624 8.969-25.442-26.423zm-32.438 13.782a.158.158 0 0 1-.043-.31l25.784-6.668a.158.158 0 0 1 .124.286l-8.244 5.242a.155.155 0 0 1-.072.025l-17.54 1.426zm24.853-6.423-23.045 5.959 15.677-1.275z"/><path class="c4" d="M355.992 141.412a.159.159 0 0 1-.085-.022l-30.568-18.575a.158.158 0 0 1 .069-.293l17.54-1.426a.156.156 0 0 1 .145.071l13.028 20a.158.158 0 0 1-.129.244zm-30.074-18.615 29.56 17.962-12.6-19.341z"/><path class="c4" d="M355.997 141.412a.157.157 0 0 1-.136-.071l-13.028-20a.16.16 0 0 1-.022-.119.158.158 0 0 1 .07-.1l8.245-5.242a.154.154 0 0 1 .147-.011.157.157 0 0 1 .093.115l4.784 25.242a.157.157 0 0 1-.152.187zm-12.816-20.105 12.5 19.2-4.584-24.236zm-87.157 11.002a.154.154 0 0 1-.058-.009l-54.369-20.025a.158.158 0 0 1-.049-.267l26.563-23.212a.158.158 0 0 1 .237.034l27.807 43.239a.158.158 0 0 1-.01.184.156.156 0 0 1-.121.056zm-54.069-20.241 53.677 19.772-27.453-42.689z"/><path class="c4" d="M256.023 132.308a.158.158 0 0 1-.137-.072l-27.807-43.239a.158.158 0 0 1 .064-.227l22.008-10.62a.157.157 0 0 1 .225.125l5.8 53.853a.157.157 0 0 1-.1.165.151.151 0 0 1-.053.015zm-27.582-43.332 27.35 42.527-5.7-52.967z"/><path class="c4" d="M256.023 132.308h-.013a.158.158 0 0 1-.147-.141l-5.8-53.853a.157.157 0 0 1 .151-.174l18.562-.693a.166.166 0 0 1 .127.057.156.156 0 0 1 .032.136l-12.762 54.546a.158.158 0 0 1-.15.122zm-5.627-53.86 5.682 52.764 12.5-53.443z"/><path class="c6" d="M273.049 144.646a.16.16 0 0 1-.1-.03l-17.03-12.337a.158.158 0 0 1 .071-.284l69.4-9.47a.158.158 0 0 1 .083.3l-52.37 21.807a.169.169 0 0 1-.054.014zm-16.618-12.391 16.64 12.054 51.17-21.307z"/><path class="c4" d="M250.225 78.455a.158.158 0 0 1-.116-.269l17.978-18.214a.158.158 0 0 1 .17-.036.157.157 0 0 1 .1.142l.584 17.521a.158.158 0 0 1-.152.163l-18.562.693zm17.828-18-17.44 17.669 18.007-.672z"/><path class="c5" d="M268.202 60.243a.159.159 0 0 1-.084-.022.159.159 0 0 1-.078-.131l-2.427-81.058a.158.158 0 0 1 .1-.153.159.159 0 0 1 .177.049l46.9 57.923a.156.156 0 0 1 .031.131.157.157 0 0 1-.081.108l-44.469 23.133a.167.167 0 0 1-.069.02zm-2.26-80.751 2.406 80.338 44.08-22.928z"/><path class="c4" d="M268.786 77.761a.164.164 0 0 1-.077-.018.158.158 0 0 1-.085-.135l-.579-17.521a.157.157 0 0 1 .049-.119.155.155 0 0 1 .122-.043l24.485 2.067a.159.159 0 0 1 .14.119.157.157 0 0 1-.068.17l-23.9 15.454a.161.161 0 0 1-.087.026zm-.424-17.507.569 17.065 23.279-15.051z"/><path class="c5" d="M292.688 62.307h-.017l-24.486-2.068a.158.158 0 0 1-.059-.3l44.473-23.133a.158.158 0 0 1 .2.238l-19.988 25.2a.158.158 0 0 1-.123.063zm-23.933-2.336 23.858 2.014 19.476-24.553z"/><path class="c5" d="M318.41 74.185a.17.17 0 0 1-.07-.014l-25.722-11.878a.158.158 0 0 1-.058-.241l19.988-25.2a.158.158 0 0 1 .28.074l5.735 37.078a.159.159 0 0 1-.061.15.157.157 0 0 1-.092.031zM292.932 62.09l25.273 11.671-5.634-36.429z"/><path class="c4" d="M315.683 79.169a.155.155 0 0 1-.1-.031l-23-16.862a.158.158 0 0 1 .16-.27l25.723 11.878a.162.162 0 0 1 .083.094.157.157 0 0 1-.011.125l-2.727 4.984a.156.156 0 0 1-.1.078.159.159 0 0 1-.028.004zm-21.639-16.218 21.584 15.826 2.559-4.678z"/><path class="c5" d="M318.412 74.185h-.011a.157.157 0 0 1-.149-.133l-5.74-37.082a.158.158 0 0 1 .141-.181l15.53-1.5a.131.131 0 0 1 .135.054.158.158 0 0 1 .033.141l-9.8 38.582a.158.158 0 0 1-.139.119zm-5.557-37.095 5.59 36.148 9.549-37.614z"/><path class="c4" d="M350.612 91.078a.149.149 0 0 1-.055-.008l-34.928-11.911a.157.157 0 0 1-.1-.092.162.162 0 0 1 .008-.133l2.727-4.984a.157.157 0 0 1 .212-.064l32.2 16.9a.158.158 0 0 1-.069.3zm-34.7-12.157 32.822 11.193-30.26-15.877z"/><path class="c5" d="M350.611 91.08a.162.162 0 0 1-.077-.018l-32.2-16.9a.159.159 0 0 1-.08-.179l9.8-38.582a.158.158 0 0 1 .143-.119.164.164 0 0 1 .157.1l22.402 55.484a.159.159 0 0 1-.041.176.157.157 0 0 1-.104.038zm-32.02-17.134 31.711 16.638-22.065-54.633z"/><path class="c4" d="M445.683 70.152h-.015a.158.158 0 0 1-.146-.139l-5.221-43.65a.16.16 0 0 1 .07-.15l20.433-13.479a.157.157 0 0 1 .179 0 .157.157 0 0 1 .06.169l-15.212 57.129a.157.157 0 0 1-.148.12zm-5.057-43.73 5.112 42.737 14.894-55.934z"/><path class="c5" d="M172.732 212.247a.152.152 0 0 1-.043-.005l-38.566-10.058a.157.157 0 0 1-.036-.291l50.883-28.079a.156.156 0 0 1 .176.016.158.158 0 0 1 .05.17l-12.316 38.137a.158.158 0 0 1-.148.11zm-38.148-10.269 38.04 9.921 12.148-37.616z"/><path class="c4" d="M172.732 212.248a.159.159 0 0 1-.154-.206l12.316-38.137a.159.159 0 0 1 .215-.1l34.344 15.465a.158.158 0 0 1 0 .286l-46.66 22.68a.157.157 0 0 1-.061.012zm12.408-38.078-12.148 37.618 46.023-22.371zm154.4 113.084a.158.158 0 0 1-.145-.086l-28.969-56.962a.159.159 0 0 1 .025-.179.155.155 0 0 1 .177-.037l45.987 19.47a.157.157 0 0 1 .082.21l-17.019 37.494a.158.158 0 0 1-.138.09zm-28.636-56.806 28.625 56.284 16.815-37.045z"/><path class="c5" d="M186.102 133.969a.158.158 0 0 1-.095-.029l-15.152-10.741a.158.158 0 0 1-.05-.2.161.161 0 0 1 .19-.079l23.787 7.887a.158.158 0 0 1 0 .3l-8.636 2.854a.171.171 0 0 1-.044.008zm-14.2-10.42 14.224 10.084 8.108-2.68z"/><path class="c5" d="M194.738 131.116a.162.162 0 0 1-.053-.008l-23.782-7.887a.158.158 0 0 1 0-.3l30.7-10.946a.158.158 0 0 1 .2.2l-6.916 18.834a.158.158 0 0 1-.149.107zm-23.305-8.05 23.207 7.694 6.747-18.375z"/><path class="c4" d="M185.048 174.106h-.026a.158.158 0 0 1-.138-.161l1.055-40.141a.159.159 0 0 1 .108-.145l8.636-2.854a.164.164 0 0 1 .156.033.157.157 0 0 1 .048.151l-9.69 42.995a.157.157 0 0 1-.149.122zm1.206-40.183-1.01 38.42 9.275-41.152z"/><path class="c5" d="M256.023 132.308h-.007l-61.286-1.193a.158.158 0 0 1-.145-.212l6.916-18.834a.157.157 0 0 1 .082-.089.161.161 0 0 1 .121 0l54.369 20.027a.158.158 0 0 1-.051.306zm-61.065-1.5 60.127 1.17-53.341-19.649z"/><path class="c5" d="M201.654 112.281a.169.169 0 0 1-.057-.009.16.16 0 0 1-.1-.124l-7.677-48.384a.158.158 0 0 1 .249-.152l34.24 25.173a.159.159 0 0 1 .01.246l-26.562 23.212a.159.159 0 0 1-.103.038zm-7.464-48.187 7.572 47.723 26.2-22.894z"/><path class="c5" d="M228.217 89.071a.157.157 0 0 1-.1-.031L193.88 63.871a.157.157 0 0 1-.063-.141.158.158 0 0 1 .088-.128l28.791-13.931a.16.16 0 0 1 .143 0 .157.157 0 0 1 .082.118l5.448 39.1a.157.157 0 0 1-.152.179zm-33.939-25.3 33.727 24.8-5.366-38.517z"/><path class="c5" d="M222.769 49.967h-.026a.159.159 0 0 1-.13-.115l-15.591-57.41a.157.157 0 0 1 .017-.122.159.159 0 0 1 .1-.073l58.6-13.376a.162.162 0 0 1 .163.062.159.159 0 0 1 .007.174l-43.008 70.784a.159.159 0 0 1-.132.076zm-15.4-57.447 15.451 56.893 42.621-70.15z"/><path class="c5" d="M228.218 89.071a.157.157 0 0 1-.16-.136l-5.448-39.1a.158.158 0 0 1 .27-.131l27.455 28.488a.157.157 0 0 1 .042.137.16.16 0 0 1-.087.114l-22.008 10.615a.16.16 0 0 1-.064.013zm-5.229-38.8 5.351 38.408 21.616-10.426z"/><path class="c4" d="M250.224 78.454a.176.176 0 0 1-.117-.049l-27.456-28.487a.158.158 0 0 1 .148-.263l45.433 10.274a.158.158 0 0 1 .078.265l-17.978 18.215a.161.161 0 0 1-.108.045zm-26.98-28.375 26.978 27.993 17.665-17.9z"/><path class="c4" d="M268.203 60.242a.178.178 0 0 1-.038 0l-45.434-10.28a.157.157 0 0 1-.111-.092.158.158 0 0 1 .01-.143l43.006-70.785a.156.156 0 0 1 .175-.071.158.158 0 0 1 .117.147l2.428 81.056a.157.157 0 0 1-.057.126.156.156 0 0 1-.096.042zm-45.188-10.54 45.021 10.18-2.406-80.32z"/><path class="c5" d="M359.29 223.836a.157.157 0 0 1-.137-.073l-17.909-28.211a.158.158 0 0 1 .239-.2l30.786 27.778a.158.158 0 0 1-.1.275l-12.877.432zm-17.16-27.476 17.241 27.158 12.4-.417z"/><path class="c5" d="M372.166 223.403a.159.159 0 0 1-.109-.04l-30.787-27.779a.158.158 0 0 1-.033-.193.153.153 0 0 1 .18-.076l55.255 15.087a.158.158 0 0 1 .031.292l-24.468 12.692a.163.163 0 0 1-.069.017zm-30.193-27.609 30.214 27.261L396.2 210.6z"/><path class="c4" d="M356.558 249.759a.167.167 0 0 1-.053-.008.158.158 0 0 1-.108-.166l2.732-25.926a.158.158 0 0 1 .151-.141l12.877-.432a.141.141 0 0 1 .141.077.157.157 0 0 1 0 .161l-15.609 26.358a.158.158 0 0 1-.131.077zm2.87-25.93-2.641 25.07 15.094-25.488z"/><path class="c4" d="M372.166 223.404a.158.158 0 0 1-.076-.3l24.469-12.692a.159.159 0 0 1 .14 0l23.7 11.169a.158.158 0 0 1-.063.3l-48.17 1.523zm24.469-12.673-23.783 12.336 46.816-1.481zm38.465-15.443a.164.164 0 0 1-.079-.018l-73.918-39.747a.158.158 0 0 1-.074-.191.156.156 0 0 1 .176-.1l82.014 14.2a.157.157 0 0 1 .124.2l-8.1 25.548a.157.157 0 0 1-.09.1.15.15 0 0 1-.053.008zm-72.991-39.581 72.895 39.2 7.984-25.195z"/><path class="c4" d="M443.196 169.743h-.031l-82.014-14.2a.158.158 0 0 1-.016-.307l75.643-21.476a.156.156 0 0 1 .127.018.161.161 0 0 1 .072.106l6.371 35.675a.159.159 0 0 1-.152.186zm-81.308-14.394 81.109 14.042-6.3-35.281zm-14.169 69.549-.538 1.126.586-.963z"/><path class="c4" d="M345.687 228.952a.158.158 0 0 1-.139-.239l2.255-3.712a.16.16 0 0 1 .116-.075l11.348-1.405a.154.154 0 0 1 .172.119.158.158 0 0 1-.1.185l-13.6 5.117a.164.164 0 0 1-.052.01zm2.347-3.723-1.979 3.256 11.933-4.488z"/><path class="c4" d="M356.558 249.762a.158.158 0 0 1-.144-.085l-10.872-20.809a.159.159 0 0 1-.007-.129.156.156 0 0 1 .092-.092l13.6-5.117a.161.161 0 0 1 .152.023.158.158 0 0 1 .061.142l-2.731 25.926a.16.16 0 0 1-.127.139zm-10.653-20.879 10.547 20.187 2.65-25.152z"/><path class="c5" d="M185.047 174.108a.155.155 0 0 1-.116-.046.157.157 0 0 1-.042-.146l9.691-43a.157.157 0 0 1 .239-.1l47.257 30.667a.157.157 0 0 1-.052.286l-56.947 12.339a.149.149 0 0 1-.03 0zm9.791-42.9-9.586 42.533 56.335-12.2z"/><path class="c4" d="M219.391 189.568a.167.167 0 0 1-.069-.014l-34.343-15.457a.157.157 0 0 1 .032-.3l56.947-12.328a.152.152 0 0 1 .168.071.158.158 0 0 1-.012.182l-22.6 27.785a.156.156 0 0 1-.123.061zm-33.845-15.56 33.8 15.21 22.243-27.342z"/><path class="c5" d="M241.996 161.783a.152.152 0 0 1-.089-.026l-47.257-30.666a.157.157 0 0 1-.065-.179.168.168 0 0 1 .154-.112l61.285 1.193a.158.158 0 0 1 .139.225l-14.029 29.474a.157.157 0 0 1-.1.085.2.2 0 0 1-.038.006zm-46.716-30.656 46.642 30.268 13.847-29.09z"/><path class="c4" d="M235.412 194.737a.168.168 0 0 1-.052-.007l-16.023-5.17a.158.158 0 0 1-.074-.25l22.6-27.786a.158.158 0 0 1 .277.13l-6.58 32.955a.159.159 0 0 1-.075.105.155.155 0 0 1-.073.023zm-15.759-5.407 15.635 5.045 6.421-32.158z"/><path class="c4" d="M235.415 194.738a.158.158 0 0 1-.159-.188l6.585-32.956a.156.156 0 0 1 .106-.119.167.167 0 0 1 .156.033l31.306 28.523a.158.158 0 0 1-.088.274l-37.888 4.432zm6.677-32.808-6.484 32.469 37.328-4.367z"/><path class="c5" d="M241.995 161.782a.158.158 0 0 1-.146-.225l14.029-29.474a.158.158 0 0 1 .1-.085.16.16 0 0 1 .131.025l17.03 12.337a.158.158 0 0 1-.016.266l-31.059 17.137a.153.153 0 0 1-.069.019zm14.086-29.393-13.737 28.86 30.411-16.78z"/><path class="c4" d="M273.301 190.305a.156.156 0 0 1-.11-.041l-31.306-28.523a.158.158 0 0 1 .056-.266l43.177-14.272a.16.16 0 0 1 .159.036.158.158 0 0 1 .044.156l-11.871 42.794a.16.16 0 0 1-.109.11.167.167 0 0 1-.04.006zm-31-28.616 30.913 28.169 11.723-42.262z"/><path class="c4" d="M241.995 161.782a.158.158 0 0 1-.08-.3l31.059-17.137a.154.154 0 0 1 .112-.016l12.119 2.865a.158.158 0 0 1 .013.3l-43.177 14.272a.172.172 0 0 1-.046.016zm31.078-17.127-29.516 16.286 41.032-13.563z"/><path class="c5" d="M400.339 21.4h-.025a.157.157 0 0 1-.113-.074l-34.3-55.7a.155.155 0 0 1 0-.17.155.155 0 0 1 .156-.069l79.8 12.737a.158.158 0 0 1 .126.109.157.157 0 0 1-.042.161l-45.498 42.963a.156.156 0 0 1-.104.043zm-33.985-55.648 34.017 55.243 45.133-42.61z"/><path class="c5" d="M440.461 26.503h-.025l-40.122-5.1a.158.158 0 0 1-.13-.107.157.157 0 0 1 .042-.164l45.51-42.966a.155.155 0 0 1 .179-.027.158.158 0 0 1 .087.159l-5.388 48.065a.158.158 0 0 1-.06.106.155.155 0 0 1-.093.034zm-39.775-5.373 39.632 5.039 5.32-47.478z"/><path class="c5" d="M440.457 26.501a.158.158 0 0 1-.086-.023.159.159 0 0 1-.074-.152l5.385-48.065a.159.159 0 0 1 .134-.138.159.159 0 0 1 .168.093l15.051 34.585a.158.158 0 0 1-.057.2L440.544 26.48a.159.159 0 0 1-.087.021zm5.473-47.618-5.282 47.143 20.042-13.221z"/><path class="c4" d="M460.897 13.023a.157.157 0 0 1-.148-.094l-15.052-34.586a.159.159 0 0 1 .047-.188.16.16 0 0 1 .194 0l36.487 28.146a.158.158 0 0 1 .059.153.16.16 0 0 1-.11.123l-21.438 6.438a.158.158 0 0 1-.039.008zm-14.662-34.244 14.747 33.894 21.01-6.309zM340.072 232.114h-.014l-29.5-1.822a.158.158 0 0 1-.014-.313l37.189-5.677a.166.166 0 0 1 .165.085.157.157 0 0 1-.031.183l-7.688 7.5a.157.157 0 0 1-.107.044zm-28.023-2.047 27.959 1.727 7.286-7.108z"/><path class="c4" d="M356.558 249.763a.152.152 0 0 1-.065-.013l-45.987-19.47a.158.158 0 0 1-.092-.182.147.147 0 0 1 .164-.121l29.5 1.822a.156.156 0 0 1 .105.05l16.487 17.648a.157.157 0 0 1-.111.265zm-45.08-19.415 44.455 18.821-15.937-17.059z"/><path class="c4" d="M340.071 232.114a.158.158 0 0 1-.114-.271l7.688-7.5a.156.156 0 0 1 .2-.015.158.158 0 0 1 .05.2l-.179.373-1.894 3.965a.157.157 0 0 1-.065.069l-5.615 3.161a.158.158 0 0 1-.071.018zm7.431-7.238-6.462 6.351 4.521-2.545 2.225-3.555zm-1.82 3.919z"/><path class="c4" d="M356.559 249.762a.154.154 0 0 1-.119-.05l-16.487-17.648a.158.158 0 0 1 .038-.245l5.615-3.161a.156.156 0 0 1 .122-.014.162.162 0 0 1 .1.078l10.871 20.809a.158.158 0 0 1-.049.2.154.154 0 0 1-.091.031zm-16.238-17.766 15.556 16.652-10.258-19.635z"/><path class="c5" d="M54.385 183.396a.158.158 0 0 1-.087-.292l35.458-22.162a.153.153 0 0 1 .12-.02.158.158 0 0 1 .1.072l7.841 13.061a.16.16 0 0 1 .009.145.158.158 0 0 1-.112.092l-43.3 9.1a.172.172 0 0 1-.029.004zm35.4-22.1-34.566 21.605 42.214-8.873z"/><path class="c4" d="M97.685 174.294h-.014a.159.159 0 0 1-.126-.076l-7.842-13.06a.159.159 0 0 1 .1-.235l22.14-5.067a.163.163 0 0 1 .168.069.159.159 0 0 1-.01.182l-14.3 18.127a.157.157 0 0 1-.116.06zm-7.6-13.112 7.617 12.677 13.88-17.6zm68.027-78.142a.164.164 0 0 1-.039 0 .158.158 0 0 1-.119-.189l6.217-27.144a.16.16 0 0 1 .189-.119.158.158 0 0 1 .118.189l-6.217 27.144a.157.157 0 0 1-.149.119z"/><path class="c5" d="M158.112 83.04a.157.157 0 0 1-.157-.193l6.217-27.144a.156.156 0 0 1 .072-.1.152.152 0 0 1 .123-.017l29.647 8a.158.158 0 0 1 .033.292l-35.865 19.144a.162.162 0 0 1-.07.018zm6.331-27.107-6.1 26.647 35.207-18.794z"/><path class="c4" d="M169.462 116.957a.158.158 0 0 1-.154-.108l-11.349-33.915a.157.157 0 0 1 .054-.175.155.155 0 0 1 .184-.006l43.541 29.241a.158.158 0 0 1-.065.287l-32.191 4.676zm-11.058-33.685 11.162 33.352 31.655-4.6z"/><path class="c4" d="M201.655 112.281a.159.159 0 0 1-.092-.027l-43.541-29.241a.158.158 0 0 1 .014-.27l35.865-19.144a.159.159 0 0 1 .23.115l7.677 48.384a.158.158 0 0 1-.152.183zm-43.239-29.383 43.023 28.893-7.586-47.809zm284.779 86.846a.126.126 0 0 1-.03 0 .158.158 0 0 1-.129-.127l-6.371-35.675a.158.158 0 0 1 .064-.156.161.161 0 0 1 .17-.009l19.85 11.26a.157.157 0 0 1 .06.213l-13.479 24.415a.158.158 0 0 1-.135.079zm-6.16-35.53 6.233 34.905 13.188-23.888z"/><path class="c4" d="M456.674 145.328a.159.159 0 0 1-.082-.02l-19.85-11.26a.159.159 0 0 1-.076-.105.156.156 0 0 1 .029-.127l28.715-38.275a.158.158 0 0 1 .282.122l-8.865 49.535a.16.16 0 0 1-.089.115.157.157 0 0 1-.064.015zm-19.62-11.466 19.5 11.062 8.709-48.662z"/><path class="c5" d="M456.674 145.328a.163.163 0 0 1-.089-.025.16.16 0 0 1-.07-.161l8.865-49.535a.158.158 0 0 1 .207-.122l42.018 14.392a.158.158 0 0 1 .038.279l-50.883 35.143a.158.158 0 0 1-.086.029zm8.984-49.484-8.766 48.981 50.313-34.751zm-317.702 45.719a.155.155 0 0 1-.118-.049.158.158 0 0 1-.005-.212l21.508-24.606a.158.158 0 0 1 .272.067l1.488 6.272a.156.156 0 0 1-.055.16l-23 18.334a.159.159 0 0 1-.09.034zm21.422-24.429-20.153 23.053 21.547-17.178z"/><path class="c4" d="M147.955 141.562a.158.158 0 0 1-.1-.281l23-18.334a.159.159 0 0 1 .19-.005l15.151 10.741a.158.158 0 0 1-.06.283l-38.148 7.593zm23-18.295-22.4 17.855 37.151-7.394z"/><path class="c4" d="M185.047 174.11a.154.154 0 0 1-.107-.039l-37.093-32.548a.157.157 0 0 1 .073-.273l38.148-7.593a.157.157 0 0 1 .188.159l-1.058 40.141a.159.159 0 0 1-.095.14.149.149 0 0 1-.056.013zm-36.749-32.613 36.6 32.115 1.04-39.607z"/><path class="c5" d="M256.023 132.308a.158.158 0 0 1-.157-.194l12.763-54.546a.158.158 0 0 1 .211-.111l43.415 16.882a.157.157 0 0 1 .03.278l-56.177 37.665a.156.156 0 0 1-.085.026zm12.871-54.491-12.63 53.98 55.594-37.271z"/><path class="c5" d="M256.024 132.307a.158.158 0 0 1-.091-.289l56.178-37.665a.169.169 0 0 1 .13-.021.157.157 0 0 1 .1.085l13.223 28.2a.157.157 0 0 1 0 .142.159.159 0 0 1-.117.081l-69.4 9.47zm56.109-37.59L256.674 131.9l68.513-9.349z"/><path class="c4" d="M312.202 94.643a.155.155 0 0 1-.061-.011L268.726 77.75a.159.159 0 0 1-.1-.178.151.151 0 0 1 .16-.127l46.9 1.408a.158.158 0 0 1 .149.193l-3.482 15.473a.158.158 0 0 1-.079.105.16.16 0 0 1-.072.019zm-42.507-16.854 42.389 16.482 3.4-15.108z"/><path class="c4" d="M312.202 94.64a.158.158 0 0 1-.158-.192l3.482-15.473a.156.156 0 0 1 .077-.1.16.16 0 0 1 .128-.011l34.928 11.911a.158.158 0 0 1-.036.306l-38.41 3.562zm3.594-15.424-3.4 15.089 37.459-3.474z"/><path class="c5" d="M325.424 122.839a.157.157 0 0 1-.147-.091l-13.222-28.2a.157.157 0 0 1 .035-.182.154.154 0 0 1 .184-.023l39.007 21.527a.158.158 0 0 1-.037.291l-25.784 6.668a.16.16 0 0 1-.036.01zm-12.877-27.981 12.961 27.636 25.273-6.535z"/><path class="c5" d="M351.209 116.17a.155.155 0 0 1-.08-.02l-39.007-21.527a.158.158 0 0 1 .061-.3l38.411-3.562a.15.15 0 0 1 .12.039.158.158 0 0 1 .053.114l.6 25.09a.159.159 0 0 1-.076.139.157.157 0 0 1-.082.027zm-38.485-21.575 38.317 21.147-.586-24.646zM435.1 195.291a.161.161 0 0 1-.11-.041.159.159 0 0 1-.044-.164l8.1-25.548a.157.157 0 0 1 .1-.1.161.161 0 0 1 .141.022l19.582 14.042a.158.158 0 0 1-.031.274l-27.677 11.507a.173.173 0 0 1-.061.008zm8.177-25.451-7.928 25.017 27.1-11.267z"/><path class="c5" d="M456.903 204.235a.156.156 0 0 1-.064-.012l-21.8-8.943a.158.158 0 0 1 0-.292l27.677-11.506a.159.159 0 0 1 .166.028.157.157 0 0 1 .046.162l-5.874 20.449a.157.157 0 0 1-.083.1.161.161 0 0 1-.068.014zm-21.394-9.1 21.286 8.732 5.735-19.965z"/><path class="c5" d="M462.777 183.785a.159.159 0 0 1-.1-.03l-19.581-14.042a.157.157 0 0 1-.046-.2l13.479-24.415a.155.155 0 0 1 .165-.079.159.159 0 0 1 .129.13l6.1 38.457a.16.16 0 0 1-.073.159.163.163 0 0 1-.073.02zm-19.379-14.246 19.161 13.74-5.971-37.63z"/><path class="c5" d="M456.903 204.234a.159.159 0 0 1-.1-.03.156.156 0 0 1-.059-.172l5.874-20.449a.157.157 0 0 1 .083-.1.159.159 0 0 1 .129 0l15.044 6.2a.158.158 0 0 1 .029.276l-20.917 14.247a.161.161 0 0 1-.083.028zm5.974-20.394-5.705 19.86 20.315-13.836z"/><path class="c4" d="M97.684 174.293a.158.158 0 0 1-.127-.255l14.3-18.127a.158.158 0 0 1 .119-.06l29.267-.947a.158.158 0 0 1 .067.3l-43.566 19.075a.157.157 0 0 1-.06.014zm14.373-18.13-13.862 17.574 42.234-18.491z"/><path class="c5" d="M134.166 202.193a.159.159 0 0 1-.1-.032l-36.48-27.9a.16.16 0 0 1-.061-.145.158.158 0 0 1 .093-.125l43.566-19.075a.158.158 0 0 1 .219.168l-7.085 46.97a.157.157 0 0 1-.1.123.151.151 0 0 1-.052.016zM97.99 174.174l36.056 27.57 7-46.423z"/><path class="c4" d="M111.984 156.166a.158.158 0 0 1-.063-.3l35.972-14.6a.15.15 0 0 1 .175.038.157.157 0 0 1 .026.177l-6.7 13.657a.157.157 0 0 1-.136.088l-29.267.948zm35.644-14.461-34.769 14.117 28.289-.916z"/><path class="c5" d="M134.166 202.193a.16.16 0 0 1-.094-.028.157.157 0 0 1-.066-.153l7.085-46.97a.157.157 0 0 1 .219-.121l43.8 18.891a.158.158 0 0 1 .014.283l-50.883 28.079a.164.164 0 0 1-.075.019zm7.207-46.9-7.007 46.451 50.321-27.769z"/><path class="c5" d="M185.047 174.11a.159.159 0 0 1-.066-.013l-43.8-18.891a.158.158 0 0 1-.086-.09.16.16 0 0 1 .007-.124l6.7-13.657a.157.157 0 0 1 .111-.085.151.151 0 0 1 .135.036l37.092 32.548a.157.157 0 0 1-.1.276zm-43.586-19.127 42.727 18.429-36.183-31.753z"/><path class="c6" d="M316.387 158.123a.143.143 0 0 1-.054-.008l-31.216-10.612a.157.157 0 0 1-.032-.283l40.252-24.673a.158.158 0 0 1 .235.174l-9.036 35.284a.159.159 0 0 1-.078.1.152.152 0 0 1-.071.018zm-30.851-10.811 30.737 10.446 8.9-34.742z"/><path class="c4" d="M316.388 158.122a.157.157 0 0 1-.156-.2l9.036-35.285a.158.158 0 0 1 .263-.074l26.213 25.49a.158.158 0 0 1-.068.265l-35.25 9.795a.162.162 0 0 1-.038.009zm9.118-35.139-8.9 34.756 34.723-9.648z"/><path class="c5" d="M341.38 195.625a.159.159 0 0 1-.135-.07l-24.992-37.5a.157.157 0 0 1 .122-.245l44.793-2.578a.154.154 0 0 1 .141.071.159.159 0 0 1 .01.157l-19.8 40.081a.158.158 0 0 1-.132.088zm-24.712-37.519 24.688 37.046 19.56-39.593z"/><path class="c4" d="M316.387 158.122a.158.158 0 0 1-.046-.31l35.25-9.794a.157.157 0 0 1 .137.026l9.544 7.216a.158.158 0 0 1-.086.283l-44.794 2.579zm35.213-9.779-33.751 9.38 42.9-2.469zM164.33 55.897a.158.158 0 0 1-.1-.286l28.8-20.489a.158.158 0 1 1 .182.257l-28.8 20.489a.155.155 0 0 1-.082.029z"/><path class="c5" d="M193.98 63.896a.137.137 0 0 1-.045-.005l-29.647-8a.158.158 0 0 1-.05-.281l28.8-20.489a.152.152 0 0 1 .161-.013.157.157 0 0 1 .088.136l.844 28.49a.158.158 0 0 1-.06.129.16.16 0 0 1-.091.033zm-29.29-8.224 29.12 7.858-.83-27.982z"/><path class="c5" d="M193.977 63.897a.162.162 0 0 1-.085-.022.16.16 0 0 1-.076-.13l-.844-28.49a.157.157 0 0 1 .073-.138.162.162 0 0 1 .155-.009l29.635 14.563a.158.158 0 0 1 0 .284l-28.793 13.926a.158.158 0 0 1-.065.016zm-.683-28.391.83 27.985 28.281-13.683z"/><path class="c5" d="M193.134 35.407h-.031a.159.159 0 0 1-.13-.161l1.744-46.338a.158.158 0 0 1 .065-.122.166.166 0 0 1 .136-.024l12.3 3.492a.159.159 0 0 1 .1.078.157.157 0 0 1 .01.123L193.28 35.299a.157.157 0 0 1-.146.108zm1.891-46.289-1.7 45.015L206.971-7.49z"/><path class="c5" d="M222.77 49.966a.16.16 0 0 1-.073-.016L193.06 35.39a.157.157 0 0 1-.08-.19l14.045-42.847a.143.143 0 0 1 .154-.109.158.158 0 0 1 .148.117l15.591 57.406a.158.158 0 0 1-.052.163.158.158 0 0 1-.096.036zm-29.446-14.8 29.2 14.345-15.363-56.559zm79.977 155.139a.158.158 0 0 1-.156-.2l11.87-42.795a.159.159 0 0 1 .12-.112.154.154 0 0 1 .154.054l17.751 21.529a.157.157 0 0 1-.03.228l-29.621 21.267a.157.157 0 0 1-.088.029zm11.938-42.618-11.67 42.074 29.121-20.906z"/><path class="c4" d="M304.089 197.016a.144.144 0 0 1-.037 0l-30.788-6.711a.158.158 0 0 1-.059-.282l29.625-21.27a.157.157 0 0 1 .249.121l1.167 27.977a.159.159 0 0 1-.056.128.155.155 0 0 1-.101.037zm-30.412-6.948 30.242 6.592-1.146-27.481z"/><path class="c5" d="M302.923 169.039a.157.157 0 0 1-.125-.057l-17.751-21.529a.158.158 0 0 1-.008-.19.16.16 0 0 1 .181-.06l31.216 10.612a.158.158 0 0 1 .048.272l-13.465 10.917a.154.154 0 0 1-.096.035zm-17.279-21.358 17.3 20.979 13.121-10.638z"/><path class="c4" d="M304.09 197.017a.162.162 0 0 1-.105-.037.157.157 0 0 1-.056-.114l-1.167-27.977a.158.158 0 0 1 .3-.07l11.678 26.592a.158.158 0 0 1-.124.22l-10.511 1.385zm-.978-27.3 1.124 26.967 10.132-1.335z"/><path class="c5" d="m341.38 195.626-26.779.005a.157.157 0 0 1-.145-.094l-11.682-26.595a.158.158 0 0 1 .235-.193l38.457 26.593a.158.158 0 0 1-.086.288zm-26.68-.31 26.171-.005-37.583-25.983z"/><path class="c5" d="M341.38 195.625a.159.159 0 0 1-.094-.028l-38.457-26.586a.157.157 0 0 1-.067-.123.159.159 0 0 1 .058-.129l13.465-10.917a.155.155 0 0 1 .123-.033.156.156 0 0 1 .108.068l24.992 37.5a.158.158 0 0 1-.127.245zm-38.2-26.754 37.605 26-24.435-36.675zm-214.741 88.27a.161.161 0 0 1-.09-.025.158.158 0 0 1-.071-.149l3-28.581a.159.159 0 0 1 .061-.109.156.156 0 0 1 .121-.03l36.792 5.811a.158.158 0 0 1 .054.293l-39.8 22.77a.15.15 0 0 1-.067.02zm3.139-28.557-2.953 28.11 39.138-22.394z"/><path class="c5" d="M115.081 265.338a.149.149 0 0 1-.05-.007l-26.639-8.2a.158.158 0 0 1-.032-.288l39.8-22.769a.158.158 0 0 1 .224.2l-13.163 30.969a.157.157 0 0 1-.14.095zm-26.249-8.4 26.155 8.048 12.918-30.4z"/><path class="c4" d="M128.235 234.372h-.028l-36.788-5.814a.157.157 0 0 1-.061-.288l18.624-12.175a.158.158 0 0 1 .2.02l18.168 17.986a.159.159 0 0 1 .031.184.161.161 0 0 1-.146.087zm-36.367-6.062 35.9 5.672-17.73-17.552z"/><path class="c4" d="M128.235 234.372a.158.158 0 0 1-.114-.045l-18.168-17.987a.157.157 0 0 1 .154-.264l13.652 3.965a.159.159 0 0 1 .106.1l4.517 14.021a.158.158 0 0 1-.146.206zm-17.625-17.824 17.273 17.1-4.293-13.326z"/><path class="c4" d="M115.079 265.337a.156.156 0 0 1-.1-.035.158.158 0 0 1-.046-.185l13.156-30.967a.157.157 0 0 1 .114-.093l43.978-8.74a.152.152 0 0 1 .176.093.158.158 0 0 1-.055.191l-57.134 39.706a.156.156 0 0 1-.089.03zm13.265-30.986-12.914 30.387 56.064-38.962z"/><path class="c4" d="M128.235 234.372a.157.157 0 0 1-.154-.109l-4.517-14.021a.157.157 0 0 1 .027-.148.154.154 0 0 1 .14-.058l48.495 5.281a.158.158 0 0 1 .014.311l-43.978 8.74zm-4.3-14 4.4 13.656 42.832-8.513z"/><path class="c5" d="M373.203 259.962a.16.16 0 0 1-.087-.023l-16.644-10.2a.158.158 0 0 1-.053-.215l15.609-26.358a.158.158 0 0 1 .293.076l1.036 36.559a.16.16 0 0 1-.078.141.153.153 0 0 1-.076.02zm-16.433-10.408 16.264 9.966-1.012-35.722z"/><path class="c4" d="M373.202 259.962a.157.157 0 0 1-.162-.153l-1.036-36.559a.158.158 0 0 1 .153-.162l48.166-1.523a.158.158 0 0 1 .1.28l-47.13 38.081a.158.158 0 0 1-.091.036zm-.878-36.563 1.023 36.083 46.519-37.587z"/><path class="c4" d="M399.866 276.233a.158.158 0 0 1-.086-.023l-26.664-16.27a.158.158 0 0 1-.016-.257l47.13-38.082a.158.158 0 0 1 .246.179l-20.467 54.352a.156.156 0 0 1-.1.094.153.153 0 0 1-.043.007zm-26.394-16.446 26.309 16.055 20.2-53.63z"/><path class="c7" d="M265.715-23.326a2.353 2.353 0 0 0-2.3 2.408 2.353 2.353 0 0 0 2.408 2.3 2.353 2.353 0 0 0 2.3-2.408 2.353 2.353 0 0 0-2.408-2.3zm-93.57 246.074a2.726 2.726 0 1 0 2.79 2.661 2.726 2.726 0 0 0-2.79-2.661zm.511-13.729a3.072 3.072 0 1 0 3.144 3 3.072 3.072 0 0 0-3.144-3zM52.833 280.072a2.608 2.608 0 1 0 2.669 2.545 2.608 2.608 0 0 0-2.669-2.545zm162.56-19.278a3.138 3.138 0 1 0 3.211 3.062 3.137 3.137 0 0 0-3.211-3.062zm90.565-63.98a1.872 1.872 0 1 0-1.827 1.916 1.873 1.873 0 0 0 1.827-1.916zm42.854-105.848a1.8 1.8 0 1 0 1.753-1.838 1.8 1.8 0 0 0-1.753 1.838zm10.44 131.268a1.444 1.444 0 1 0 1.478 1.409 1.444 1.444 0 0 0-1.478-1.409z"/><path class="c8" d="M339.503 285.659a1.437 1.437 0 1 0 1.47 1.4 1.437 1.437 0 0 0-1.47-1.4zm18.352-144.449a1.868 1.868 0 1 0-1.827 1.912 1.868 1.868 0 0 0 1.827-1.912z"/><path class="c7" d="M377.163 116.728a1.82 1.82 0 1 0 1.863 1.776 1.82 1.82 0 0 0-1.863-1.776z"/><path class="c8" d="M273.928-29.919a1.18 1.18 0 0 0-1.152 1.208 1.18 1.18 0 0 0 1.208 1.152 1.18 1.18 0 0 0 1.152-1.208 1.181 1.181 0 0 0-1.208-1.152z"/><path class="c7" d="M268.721 74.989a2.615 2.615 0 1 0 2.676 2.552 2.615 2.615 0 0 0-2.676-2.552zM254.08 219.578a2.94 2.94 0 1 0 3.01 2.87 2.94 2.94 0 0 0-3.01-2.87zm14.949-11.895a1.487 1.487 0 1 0 1.522 1.451 1.488 1.488 0 0 0-1.522-1.451zM91.381 225.961a2.442 2.442 0 1 0 2.5 2.383 2.442 2.442 0 0 0-2.5-2.383zm-3.704-22.064a1.266 1.266 0 1 0-1.3-1.235 1.266 1.266 0 0 0 1.3 1.235zm83.277-87.136a1.5 1.5 0 1 0-1.459 1.53 1.495 1.495 0 0 0 1.459-1.53zm-73.322 55.271a2.1 2.1 0 1 0 2.154 2.054 2.1 2.1 0 0 0-2.154-2.054z"/><path class="c8" d="M71.995 191.961a1.329 1.329 0 1 0 1.36 1.3 1.329 1.329 0 0 0-1.36-1.3z"/><path class="c7" d="M134.093 199.047a2.985 2.985 0 1 0 3.055 2.914 2.985 2.985 0 0 0-3.055-2.914zm-23.97 19.685a2.505 2.505 0 1 0-2.568-2.441 2.5 2.5 0 0 0 2.568 2.441zm331.708 62.633a.777.777 0 1 0 .795.758.777.777 0 0 0-.795-.758zm-326.822-18.982a2.8 2.8 0 1 0 2.863 2.73 2.8 2.8 0 0 0-2.863-2.73zM400.402 24.05a2.809 2.809 0 0 0 2.741-2.875 2.809 2.809 0 0 0-2.875-2.742 2.809 2.809 0 0 0-2.742 2.875 2.809 2.809 0 0 0 2.876 2.742zm56.45 178.061a1.963 1.963 0 1 0 2.009 1.915 1.962 1.962 0 0 0-2.009-1.915zm-36.565 17.808a1.8 1.8 0 1 0 1.846 1.761 1.8 1.8 0 0 0-1.846-1.761zM314.562 193.97a1.5 1.5 0 1 0 1.539 1.467 1.5 1.5 0 0 0-1.539-1.467z"/><path class="c8" d="M357.769 110.544a1.373 1.373 0 1 0-1.405-1.34 1.374 1.374 0 0 0 1.405 1.34z"/><path class="c7" d="M312.617 34.619a2.331 2.331 0 1 0 2.386 2.275 2.331 2.331 0 0 0-2.386-2.275zM268.159 58.39a1.693 1.693 0 1 0 1.732 1.652 1.692 1.692 0 0 0-1.732-1.652zm24.565 5.408a1.649 1.649 0 1 0-1.688-1.61 1.65 1.65 0 0 0 1.688 1.61zm35.513-26.851a1.5 1.5 0 1 0-1.534-1.462 1.5 1.5 0 0 0 1.534 1.462zm-9.399 38.667a1.5 1.5 0 1 0-1.534-1.462 1.5 1.5 0 0 0 1.534 1.462zm142.02-64.178a1.43 1.43 0 0 0-1.4 1.463 1.43 1.43 0 0 0 1.464 1.4 1.43 1.43 0 0 0 1.4-1.463 1.429 1.429 0 0 0-1.464-1.4zm-19.123 14.878a1.278 1.278 0 1 0-1.247 1.307 1.278 1.278 0 0 0 1.247-1.307zM184.979 171.207a2.746 2.746 0 1 0 2.811 2.68 2.746 2.746 0 0 0-2.811-2.68z"/><path class="c8" d="M219.355 188.033a1.376 1.376 0 1 0 1.409 1.343 1.376 1.376 0 0 0-1.409-1.343z"/><path class="c7" d="M201.723 115.153a3.03 3.03 0 1 0-3.1-2.958 3.031 3.031 0 0 0 3.1 2.958zm-30.827 5.695a2.218 2.218 0 1 0 2.27 2.165 2.218 2.218 0 0 0-2.27-2.165zm51.932-68.426a2.614 2.614 0 1 0-2.676-2.551 2.614 2.614 0 0 0 2.676 2.551zm133.695 195.863a1.318 1.318 0 1 0 1.349 1.286 1.318 1.318 0 0 0-1.349-1.286zm-121.157-55.619a1.914 1.914 0 1 0 1.959 1.868 1.913 1.913 0 0 0-1.959-1.868zm6.567-33.716a2.675 2.675 0 1 0 2.738 2.611 2.675 2.675 0 0 0-2.738-2.611z"/><path class="c8" d="M273.008 142.704a1.783 1.783 0 1 0 1.825 1.74 1.783 1.783 0 0 0-1.825-1.74z"/><path class="c7" d="M445.784-24.232a2.512 2.512 0 0 0-2.452 2.571 2.512 2.512 0 0 0 2.571 2.452 2.511 2.511 0 0 0 2.452-2.571 2.512 2.512 0 0 0-2.571-2.452z"/><path class="c8" d="M482.295 4.984a1.443 1.443 0 0 0-1.408 1.477 1.443 1.443 0 0 0 1.477 1.408 1.442 1.442 0 0 0 1.408-1.477 1.443 1.443 0 0 0-1.477-1.408z"/><path class="c7" d="M54.358 182.171a1.07 1.07 0 1 0 1.1 1.044 1.07 1.07 0 0 0-1.1-1.044zM89.8 159.398a1.679 1.679 0 1 0 1.718 1.639 1.679 1.679 0 0 0-1.718-1.639zm68.352-74.74a1.777 1.777 0 1 0-1.819-1.734 1.776 1.776 0 0 0 1.819 1.734z"/><path class="c8" d="M315.631 76.962a2.05 2.05 0 1 0 2.1 2 2.049 2.049 0 0 0-2.1-2z"/><path class="c7" d="M312.153 92.564a1.921 1.921 0 1 0 1.966 1.875 1.921 1.921 0 0 0-1.966-1.875zm150.546 87.963a3.1 3.1 0 1 0 3.173 3.026 3.1 3.1 0 0 0-3.173-3.026zm-321.497-27.378a1.913 1.913 0 1 0 1.957 1.867 1.912 1.912 0 0 0-1.957-1.867zm143.931-7.311a1.514 1.514 0 1 0 1.55 1.478 1.515 1.515 0 0 0-1.55-1.478zm31.21 10.389a1.737 1.737 0 1 0 1.778 1.7 1.737 1.737 0 0 0-1.778-1.7z"/><path class="c8" d="M363.472 155.332a2.294 2.294 0 1 0-2.239 2.348 2.294 2.294 0 0 0 2.239-2.348z"/><path class="c7" d="M193.168 36.866a1.618 1.618 0 1 0-1.656-1.579 1.618 1.618 0 0 0 1.656 1.579zm13.947-46.979a2.516 2.516 0 0 0-2.456 2.575 2.517 2.517 0 0 0 2.575 2.456 2.517 2.517 0 0 0 2.456-2.578 2.516 2.516 0 0 0-2.575-2.453zm134.331 208.471a2.891 2.891 0 1 0-2.959-2.822 2.891 2.891 0 0 0 2.959 2.822zm-38.468-27.011a2.467 2.467 0 1 0-2.525-2.408 2.467 2.467 0 0 0 2.525 2.408zm-174.792 60.941a1.926 1.926 0 1 0 1.971 1.88 1.926 1.926 0 0 0-1.971-1.88zm243.924-11.274a2.232 2.232 0 1 0 2.284 2.178 2.232 2.232 0 0 0-2.284-2.178zM342.093 21.342a3.007 3.007 0 0 0 2.935-3.078 3.007 3.007 0 0 0-3.078-2.935 3.007 3.007 0 0 0-2.935 3.078 3.007 3.007 0 0 0 3.078 2.935zM225.649 213.474a1.645 1.645 0 1 0 1.684 1.605 1.645 1.645 0 0 0-1.684-1.605zm-137.29 40.227a3.282 3.282 0 1 0 3.359 3.2 3.282 3.282 0 0 0-3.359-3.2zm377.119-160.47a2.4 2.4 0 1 0 2.461 2.347 2.4 2.4 0 0 0-2.461-2.347zM318.32 295.764a2.936 2.936 0 1 0 3 2.865 2.936 2.936 0 0 0-3-2.865zm-72.293-48.854a4.309 4.309 0 1 0 4.41 4.206 4.309 4.309 0 0 0-4.41-4.206z"/><path class="c8" d="M351.59 146.322a1.849 1.849 0 1 0 1.892 1.8 1.849 1.849 0 0 0-1.892-1.8z"/><path class="c7" d="M435.06 193.647a1.486 1.486 0 1 0 1.521 1.45 1.485 1.485 0 0 0-1.521-1.45zM69.312 233.988a2 2 0 1 0 2.05 1.955 2 2 0 0 0-2.05-1.955zM399.8 273.515a2.56 2.56 0 1 0 2.62 2.5 2.56 2.56 0 0 0-2.62-2.5zM366.003-36.031a1.574 1.574 0 0 0-1.536 1.61 1.573 1.573 0 0 0 1.61 1.535 1.573 1.573 0 0 0 1.535-1.61 1.573 1.573 0 0 0-1.609-1.535zm78.072 106.062a1.6 1.6 0 1 0 1.566-1.642 1.6 1.6 0 0 0-1.566 1.642zM312.67 230.081a2.1 2.1 0 1 0-2.052 2.152 2.1 2.1 0 0 0 2.052-2.152zm38.475-116.605a2.537 2.537 0 1 0 2.6 2.476 2.537 2.537 0 0 0-2.6-2.476z"/><path class="c8" d="M344.452 121.219a1.492 1.492 0 1 0-1.456 1.528 1.492 1.492 0 0 0 1.456-1.528z"/><path class="c7" d="M226.153 88.961a2.061 2.061 0 1 0 2.011-2.11 2.061 2.061 0 0 0-2.011 2.11zm-31.461 40.226a1.771 1.771 0 1 0 1.812 1.728 1.772 1.772 0 0 0-1.812-1.728zm61.251-.26a3.225 3.225 0 1 0 3.3 3.147 3.225 3.225 0 0 0-3.3-3.147zm-5.799-53.896a3.266 3.266 0 1 0 3.343 3.188 3.266 3.266 0 0 0-3.343-3.188zm193.009 92.912a1.642 1.642 0 1 0 1.681 1.6 1.642 1.642 0 0 0-1.681-1.6zm-6.379-36.01a1.977 1.977 0 1 0 2.023 1.93 1.977 1.977 0 0 0-2.023-1.93zm-96.773 97.231a2.793 2.793 0 1 0 2.858 2.726 2.793 2.793 0 0 0-2.858-2.726z"/><path class="c8" d="M111.93 153.956a2.053 2.053 0 1 0 2.1 2 2.053 2.053 0 0 0-2.1-2z"/><path class="c7" d="M164.37 57.757a2.02 2.02 0 1 0-2.067-1.972 2.02 2.02 0 0 0 2.067 1.972zm31.877 5.927a2.275 2.275 0 1 0-2.22 2.328 2.275 2.275 0 0 0 2.22-2.328zm-48.331 76.226a1.494 1.494 0 1 0 1.529 1.457 1.495 1.495 0 0 0-1.529-1.457zm311.426 5.196a2.672 2.672 0 1 0-2.607 2.734 2.672 2.672 0 0 0 2.607-2.734zm-133.963-24.223a1.8 1.8 0 1 0 1.84 1.754 1.8 1.8 0 0 0-1.84-1.754z"/><path class="c8" d="M273.23 187.305a2.843 2.843 0 1 0 2.91 2.774 2.843 2.843 0 0 0-2.91-2.774z"/><path class="c7" d="M123.671 218.377a1.815 1.815 0 1 0 1.858 1.772 1.815 1.815 0 0 0-1.858-1.772zm249.506 40.51a.919.919 0 1 0 .94.9.919.919 0 0 0-.94-.9z"/><path class="c8" d="M403.46 210.672a1.249 1.249 0 1 0-1.219 1.279 1.249 1.249 0 0 0 1.219-1.279z"/><path class="c7" d="M478.124 189.784a.782.782 0 1 0-.763.8.781.781 0 0 0 .763-.8zm-81.623 18.005a2.651 2.651 0 1 0 2.714 2.587 2.651 2.651 0 0 0-2.714-2.587z"/><path d="M794.492 529.836a.622.622 0 1 0-.607.637.622.622 0 0 0 .607-.637z" transform="translate(-448.078 -300.893)" style="stroke:#b3b3b3;fill:#3a3a3a;stroke-width:2px;stroke-miterlimit:10"/><path class="c7" d="M347.97 223.355a1.456 1.456 0 1 0 1.49 1.421 1.456 1.456 0 0 0-1.49-1.421zM195.397-12.611a1.647 1.647 0 0 0-1.608 1.686 1.647 1.647 0 0 0 1.686 1.608 1.647 1.647 0 0 0 1.608-1.686 1.647 1.647 0 0 0-1.686-1.608z"/></g></g></svg>
