<svg xmlns="http://www.w3.org/2000/svg" width="41.968" height="41.968"><defs><style>.cls-1{fill:#5fc0e9}</style></defs><path class="cls-1" d="M20.984 0A20.983 20.983 0 0 0 8.552 37.887a21.651 21.651 0 0 0 2.5-4.579 143.847 143.847 0 0 1-.721-15.563c-.144-5.043.721-9.655 6.484-12.68a11.5 11.5 0 0 1 5.187-1.009c3.459 0 7.35.864 9.655 2.737 3.891 2.882 6.34 9.078 6.052 13.4a31.169 31.169 0 0 0 1.441 10.664c.041.135.088.259.13.392a20.981 20.981 0 0 0-18.3-31.25z"/><path class="cls-1" d="M28.921 26.391c-1.3-.289-3.17-1.585-4.035-1.729-.72-.144-1.153-5.043 1.585-5.187s3.314 3.17 2.738 4.467c-.721 1.3 0 1.729 1.441 1.3 1.153-.289.433-3.315.721-3.747-.721-4.179-2.45-4.755-4.323-5.044-6.917.576-3.747 8.07-4.467 7.349-1.009-1.009-3.891 0-3.891-.72 0-3.891-1.3-6.2-3.026-6.2-2.017 0-2.882 2.738-2.882 4.323-.144 1.441.865 4.611 1.585 4.467.432-.144 1.3-1.152.432-1.152-.432 0-1.153-1.009-1.153-2.306s.433-2.594 2.161-2.594c2.017.144 2.017 3.891 1.729 4.178a19.1 19.1 0 0 0-1.585 1.441c-.577 1.009-1.873 1.3-2.306 1.729-.865.865-1.009 1.873-.432 2.305 2.305 1.3 1.585 2.738 4.755 2.882a13.324 13.324 0 0 0 5.043-.72c1.153-.289 4.611-1.153 5.476-2.45a.716.716 0 0 1 1.009-.432c.432.288.577 1.153-.721 1.584a41.015 41.015 0 0 0-5.043 2.017 19.46 19.46 0 0 1-3.458 1.153c-3.314.576-5.764-1.153-3.459 1.009a3.961 3.961 0 0 0 3.315 1.153c4.179-.144 8.789-5.188 9.222-2.882.144.432-1.3 1.153-2.45 1.585-3.891 1.873-6.628 5.764-9.078 4.323-2.305-1.153-4.467-6.773-4.467-4.179 0 1.832-1.119 3.537-2.062 5.28a20.976 20.976 0 0 0 22.157-1.737c-1.3-2.576-2.425-2.95-2.8-5.128-.578-3.024 2.592-5.473-1.731-6.338zm-11.956-1.009c-.433 0-.433-1.153 1.153-1.009-1.013.145-.581 1.009-1.153 1.009zm5.619-.289c-.432.145-.577-.864-1.441-.576 1.438-.576 1.87.433 1.438.576z"/><path class="cls-1" d="M15.376 21.636c.288-.144.577.144.432.577-.144.576 0 1.009.433 1.009a.141.141 0 0 0 .144-.145c.144-1.3-.432-2.161-.721-2.161-.577-.145-.577.72-.288.72zm11.673-1.153c-.577 0-.433.432-.145.432.433.144.721.865.865 1.585 0 0 .577-.144.577-.288a1.635 1.635 0 0 0-1.297-1.729z"/></svg>
