<svg xmlns="http://www.w3.org/2000/svg" width="80" height="90"><defs><clipPath id="a"><path d="M0 0h80v90H0z" style="fill:none"/></clipPath></defs><g style="clip-path:url(#a)"><path d="M14.094 90a5.551 5.551 0 0 1-4.512-2.327 41.037 41.037 0 0 1-4.615-9.678 5.567 5.567 0 0 1-1.441-2.753l-1.71-8.574a5.381 5.381 0 0 1-.1-1.2A116 116 0 0 1 0 45a116.012 116.012 0 0 1 1.716-20.47 5.379 5.379 0 0 1 .1-1.2l1.71-8.573A5.568 5.568 0 0 1 4.968 12a41.053 41.053 0 0 1 4.611-9.667A5.555 5.555 0 0 1 14.094 0h51.3A5.549 5.549 0 0 1 69.9 2.333 41.516 41.516 0 0 1 74.515 12a5.573 5.573 0 0 1 1.441 2.755l1.71 8.573a5.361 5.361 0 0 1 .1 1.2A116 116 0 0 1 79.484 45a116.012 116.012 0 0 1-1.717 20.472 5.368 5.368 0 0 1-.1 1.2l-1.709 8.57a5.567 5.567 0 0 1-1.441 2.753 41.546 41.546 0 0 1-4.617 9.678A5.545 5.545 0 0 1 65.39 90z" style="fill:#ff931e"/><path d="M75.648 45a111 111 0 0 0-1.745-20.28 1.7 1.7 0 0 0 0-.633l-1.71-8.573a1.708 1.708 0 0 0-.945-1.207 39.68 39.68 0 0 0-4.47-9.742 1.706 1.706 0 0 0-1.389-.719h-51.3a1.708 1.708 0 0 0-1.392.718 39.737 39.737 0 0 0-4.47 9.742 1.708 1.708 0 0 0-.944 1.207l-1.71 8.573a1.712 1.712 0 0 0 0 .635A110.921 110.921 0 0 0 3.836 45 110.923 110.923 0 0 0 5.58 65.279a1.708 1.708 0 0 0 0 .635l1.71 8.574a1.708 1.708 0 0 0 .944 1.207 39.737 39.737 0 0 0 4.47 9.742 1.708 1.708 0 0 0 1.392.718h51.3a1.706 1.706 0 0 0 1.391-.718 39.68 39.68 0 0 0 4.47-9.742 1.708 1.708 0 0 0 .945-1.207l1.71-8.574a1.7 1.7 0 0 0 0-.633 110.984 110.984 0 0 0 1.745-20.28M61.591 82.725a60.451 60.451 0 0 0 2.145-6.86h3.8a41.889 41.889 0 0 1-3.091 6.859zm-39.994 0a51.211 51.211 0 0 1-2.292-6.859h8.342c.376 3.111.746 5.38 1.02 6.859zm-6.558 0a41.89 41.89 0 0 1-3.091-6.859h3.794a60.585 60.585 0 0 0 2.149 6.859zm2.853-75.449a60.584 60.584 0 0 0-2.149 6.859h-3.794a41.812 41.812 0 0 1 3.087-6.859zm39.995 0a51.361 51.361 0 0 1 2.291 6.859h-8.342c-.375-3.117-.746-5.383-1.02-6.859zm6.557 0a41.862 41.862 0 0 1 3.092 6.859h-3.8a60.607 60.607 0 0 0-2.144-6.859zm-1.663 65.16H10.366l-1.03-5.144h60.8l-1.018 5.144h-6.337zM7.255 45a107.524 107.524 0 0 1 1.566-18.862h4.688A148.91 148.91 0 0 0 12.384 45a148.9 148.9 0 0 0 1.125 18.862H8.821A107.512 107.512 0 0 1 7.255 45m9.448-27.436h52.415l1.025 5.144H9.336l1.025-5.144h6.337zM63.679 45a143.228 143.228 0 0 1-1.17 18.862h-9.623c.274-4.534.472-9.836.518-15.964a1.721 1.721 0 0 0-1.7-1.731h-.012a1.725 1.725 0 0 0-1.711 1.7 305.302 305.302 0 0 1-.524 16H30.024c-.319-5.2-.541-11.464-.541-18.862 0-7.46.226-13.733.54-18.862h19.44c.149 2.446.277 5.134.366 8.077a1.706 1.706 0 0 0 1.707 1.657h.068a1.715 1.715 0 0 0 1.642-1.765 279.842 279.842 0 0 0-.362-7.974h9.622A143.236 143.236 0 0 1 63.676 45m-47.875 0a143.235 143.235 0 0 1 1.17-18.862h9.619c-.314 5.227-.529 11.484-.529 18.862s.215 13.636.529 18.862h-9.616A143.228 143.228 0 0 1 15.804 45m50.17 18.862A148.763 148.763 0 0 0 67.1 45a148.779 148.779 0 0 0-1.126-18.862h4.688A107.449 107.449 0 0 1 72.229 45a107.438 107.438 0 0 1-1.567 18.862zM48.205 12.678c.06.45.123.94.186 1.458H31.098c.4-3.241.789-5.5 1.052-6.859h15.186c.205 1.046.514 2.812.873 5.4m-20.562 1.458h-8.342a51.2 51.2 0 0 1 2.292-6.859h7.07c-.274 1.48-.645 3.748-1.02 6.859m4.332 67.7a109.43 109.43 0 0 1-.883-5.968h17.3c-.409 3.246-.8 5.509-1.061 6.859H32.15c-.051-.258-.1-.549-.171-.892m19.85-5.968h8.349a51.361 51.361 0 0 1-2.291 6.859H50.81c.273-1.481.642-3.747 1.019-6.859m1.574-34.86a1.725 1.725 0 0 1-1.693 1.732h-.016a1.7 1.7 0 0 1-1.711-1.7v-.017a1.747 1.747 0 0 1 .478-1.2 1.709 1.709 0 0 1 1.2-.514h.012a1.742 1.742 0 0 1 1.728 1.7"/><path d="m23.619 52.956 1.7.08 1.729-16.486-1.7.053.133-1.36h9.017l-.133 1.36-2.82-.053-1.729 16.406h2.713l.532-5.948h3.351l-.767 7.228H23.486z"/><path d="m36.874 72.69 1.7.08 1.729-16.486-1.7.053.133-1.36h9.017l-.133 1.36-2.82-.053-1.729 16.406h2.713l.532-5.948h3.351L48.9 73.97H36.741z" style="stroke:#f7931e;stroke-miterlimit:10;stroke-width:6px;fill:none" transform="translate(-13.255 -19.734)"/><path d="m36.331 53.116 1.436.054 1.2-11.444-1.41.08.133-1.2h5.214l-1.3 12.564 1.33-.054-.106 1.121h-6.63zm3.139-16.565c.16-1.387.719-2.054 2.1-2.054s2.022.667 1.862 2.054c-.133 1.44-.665 2.107-2.048 2.107-1.41 0-2.048-.667-1.915-2.107"/><path d="m56.761 72.432 1.436.054 1.2-11.444-1.41.08.133-1.2h5.214l-1.3 12.564 1.33-.054-.106 1.121h-6.63zM59.9 55.867c.16-1.387.719-2.054 2.1-2.054s2.022.667 1.862 2.054c-.133 1.44-.665 2.107-2.048 2.107-1.409 0-2.047-.667-1.914-2.107z" style="stroke:#f7931e;stroke-miterlimit:10;stroke-width:6px;fill:none" transform="translate(-20.43 -19.316)"/><path d="M43.884 55.037h3.7c-.24 2.241.106 2.882 1.117 2.882.984 0 1.569-.747 1.782-2.962l.293-2.694a4.321 4.321 0 0 1-3.511 1.814c-2.154 0-3.67-1.467-3.112-6.775.612-5.789 2.713-6.936 4.894-6.936a3.527 3.527 0 0 1 2.846 1.227l-.026-.987h3.959l-1.436 13.71c-.346 3.388-2.022 4.722-5.612 4.722-3.7 0-5.213-1.121-4.894-4m7.341-7.922c.453-4.481.107-5.575-.984-5.575-1.144 0-1.649 1.094-2.1 5.575-.453 4.241-.16 5.282.957 5.282s1.676-1.094 2.128-5.282"/><path d="M68.628 77.638h3.7c-.24 2.241.106 2.882 1.117 2.882.984 0 1.569-.747 1.782-2.962l.293-2.694a4.321 4.321 0 0 1-3.511 1.814c-2.154 0-3.67-1.467-3.112-6.775.612-5.789 2.713-6.936 4.894-6.936a3.527 3.527 0 0 1 2.846 1.227l-.026-.987h3.959l-1.436 13.71c-.346 3.388-2.022 4.722-5.612 4.722-3.698.001-5.213-1.12-4.894-4.001zm7.341-7.922c.453-4.481.107-5.575-.984-5.575-1.144 0-1.649 1.094-2.1 5.575-.453 4.241-.16 5.282.957 5.282s1.675-1.098 2.127-5.283z" style="stroke:#f7931e;stroke-miterlimit:10;stroke-width:6px;fill:none" transform="translate(-24.744 -22.601)"/><path d="m55.586 53.115 1.091.054 1.888-18.086-1.383.08.133-1.2h5.214l-.851 8.109a4.883 4.883 0 0 1 3.7-1.708c2.287 0 2.793 1.441 2.554 3.735l-.958 9.07 1.25-.054-.106 1.121h-6.069l.133-1.121.958.054.851-8.136c.24-2.215.213-2.962-.771-2.962-.931 0-1.649 1.067-1.835 2.828l-.851 8.269.9-.054-.107 1.121h-5.874z"/><path d="m86.882 72.132 1.091.054L89.861 54.1l-1.383.08.133-1.2h5.214l-.851 8.109a4.883 4.883 0 0 1 3.7-1.708c2.287 0 2.793 1.441 2.554 3.735l-.958 9.07 1.25-.054-.106 1.121h-6.069l.133-1.121.958.054.851-8.136c.24-2.215.213-2.962-.771-2.962-.931 0-1.649 1.067-1.835 2.828l-.851 8.269.9-.054-.107 1.121h-5.874z" style="stroke:#f7931e;stroke-miterlimit:10;stroke-width:6px;fill:none" transform="translate(-31.296 -19.017)"/><path d="M73.643 54.476c-2.34 0-3.8-1.333-3.538-3.814l.931-8.883h-1.7l.133-1.174h1.782l.957-3.388h3.139l-.372 3.388h2.926l-.107 1.174h-2.925l-.984 9.176c-.16 1.76-.16 2.321.452 2.321.665 0 .9-.614 1.277-4.295h2.128c-.266 4.055-1.277 5.495-4.1 5.495"/><path d="M112.774 75.315c-2.34 0-3.8-1.333-3.538-3.814l.931-8.883h-1.7l.133-1.174h1.782l.957-3.388h3.139l-.372 3.388h2.926l-.107 1.174H114l-.984 9.176c-.16 1.76-.16 2.321.452 2.321.665 0 .9-.614 1.277-4.295h2.128c-.273 4.055-1.279 5.495-4.099 5.495z" style="stroke:#f7931e;stroke-miterlimit:10;stroke-width:6px;fill:none" transform="translate(-39.131 -20.839)"/><path d="m23.619 52.956 1.7.08 1.729-16.486-1.7.053.133-1.36h9.017l-.133 1.36-2.82-.053-1.729 16.406h2.713l.532-5.948h3.351l-.767 7.228H23.486zm12.712.16 1.436.054 1.2-11.444-1.41.08.133-1.2h5.214l-1.3 12.564 1.33-.054-.106 1.121h-6.63zm3.139-16.565c.16-1.387.719-2.054 2.1-2.054s2.022.667 1.862 2.054c-.133 1.44-.665 2.107-2.048 2.107-1.41 0-2.048-.667-1.915-2.107m4.415 18.486h3.7c-.24 2.241.106 2.882 1.117 2.882.984 0 1.569-.747 1.782-2.962l.293-2.694a4.321 4.321 0 0 1-3.511 1.814c-2.154 0-3.67-1.467-3.112-6.775.612-5.789 2.713-6.936 4.894-6.936a3.527 3.527 0 0 1 2.846 1.227l-.026-.987h3.959l-1.436 13.71c-.346 3.388-2.022 4.722-5.612 4.722-3.7 0-5.213-1.121-4.894-4m7.341-7.922c.453-4.481.107-5.575-.984-5.575-1.144 0-1.649 1.094-2.1 5.575-.453 4.241-.16 5.282.957 5.282s1.676-1.094 2.128-5.282m4.36 5.999 1.091.054 1.888-18.086-1.383.08.133-1.2h5.214l-.851 8.109a4.883 4.883 0 0 1 3.7-1.708c2.287 0 2.793 1.441 2.554 3.735l-.958 9.07 1.25-.054-.106 1.121h-6.069l.133-1.121.958.054.851-8.136c.24-2.215.213-2.962-.771-2.962-.931 0-1.649 1.067-1.835 2.828l-.851 8.269.9-.054-.107 1.121h-5.874zm18.057 1.361c-2.34 0-3.8-1.333-3.538-3.814l.931-8.883h-1.7l.133-1.174h1.782l.957-3.388h3.139l-.372 3.388h2.926l-.107 1.174h-2.925l-.984 9.176c-.16 1.76-.16 2.321.452 2.321.665 0 .9-.614 1.277-4.295h2.128c-.266 4.055-1.277 5.495-4.1 5.495"/></g></svg>
