<svg xmlns="http://www.w3.org/2000/svg" width="21.2" height="21.2"><defs><style>.c{fill:none;stroke:#5fc0e9;stroke-linejoin:round;stroke-width:1.2px}</style></defs><g transform="translate(-73.794 -495.93)"><circle class="c" cx="10" cy="10" r="10" transform="translate(74.394 496.53)"/><path class="c" d="M81.75 498.911a9.985 9.985 0 0 1-.362-1.921m7.97 9.05a10.163 10.163 0 0 1-6.088-3.993m11.082 3.552a8.787 8.787 0 0 1-1.515.442m-5.434 5.864a20.938 20.938 0 0 1-5.342 4.35m8.263-8.649a21.912 21.912 0 0 1-1.292 2.263m3.439-9.236a20.593 20.593 0 0 1-.805 3.766m-14.407 6.127c-.7-.162-1.6-.348-2.263-.554m8.094 1.286a32.487 32.487 0 0 1-4.166-.38m8.058.379c-.45.032-.839-.013-1.284 0m8.019-1.1a34.394 34.394 0 0 1-4.173.752m-8.881-10.626a9.946 9.946 0 0 1-2.915-1.225m11.93-1.02a10.369 10.369 0 0 1-5.556 2.515"/><path class="c" d="M85.154 512.319a18.482 18.482 0 0 1 1.971 3.805m-6.609-8.403a19.767 19.767 0 0 1 3.054 2.528m-9.123-4.743a15.054 15.054 0 0 1 2.88.716m.404 5.462a12.858 12.858 0 0 1-.873 1.425m1.858-4.458a11.892 11.892 0 0 1-.317 1.431m-1.81-9.84a10.662 10.662 0 0 1 2.143 4.908"/><circle class="c" cx="1.739" cy="1.739" r="1.739" transform="translate(80.644 498.813)"/><circle class="c" cx="1.739" cy="1.739" r="1.739" transform="translate(77.184 505.171)"/><circle class="c" cx=".87" cy=".87" r=".87" transform="translate(77.184 510.008)"/><circle class="c" cx="1.304" cy="1.304" r="1.304" transform="translate(83.089 509.954)"/><circle class="c" cx="1.304" cy="1.304" r="1.304" transform="translate(86.934 509.6)"/><circle class="c" cx="1.739" cy="1.739" r="1.739" transform="translate(89.358 504.302)"/></g></svg>
