<svg xmlns="http://www.w3.org/2000/svg" width="30" height="30"><path d="M26.857 3.99H11.143A7.151 7.151 0 0 0 4 11.133v15.714a7.151 7.151 0 0 0 7.143 7.143h15.714A7.151 7.151 0 0 0 34 26.847V11.133a7.151 7.151 0 0 0-7.143-7.143zM7.239 17.549a.715.715 0 0 1-.568-.835A12.148 12.148 0 0 1 18.6 6.854h.021a.729.729 0 0 1 .1-.019.876.876 0 0 1 .864.731l.641 3.844-.681 6.09a.875.875 0 0 1-1.734.047l-.64-3.847.275-2.472a7.871 7.871 0 0 0-6.676 7.111.716.716 0 0 1-.712.656L10 19a.714.714 0 0 1-.654-.771 9.307 9.307 0 0 1 8.129-8.445.718.718 0 0 1 .131.011l.164-1.47a10.715 10.715 0 0 0-9.694 8.661.715.715 0 0 1-.7.581.784.784 0 0 1-.137-.018zm16.489 9.19a9.289 9.289 0 0 1-12.671-2.325.724.724 0 0 1-.049-.107l-1.384.534c.039.06.074.124.115.183a10.728 10.728 0 0 0 12.88 3.909.714.714 0 0 1 .536 1.324 12.155 12.155 0 0 1-14.6-4.428q-.252-.37-.477-.759l-.12-.218a.762.762 0 0 1-.089-.108.826.826 0 0 1-.1-.355.6.6 0 0 1 0-.071.838.838 0 0 1 .023-.211v-.009a.836.836 0 0 1 .311-.456l2.727-2.164 5.6-2.589a.846.846 0 0 1 .784 1.481l-2.706 2.581-2.146.828a7.844 7.844 0 0 0 10.56 1.77.714.714 0 1 1 .79 1.19zm5.567-1.988a.714.714 0 0 1-.629.375.723.723 0 0 1-.264-.056.782.782 0 0 1-.107-.019l-3.5-1.274-4.739-3.423a.836.836 0 0 1 .775-1.463l3.431 1 1.838 1.417a7.836 7.836 0 0 0-3.575-9.117.715.715 0 0 1 .716-1.237 9.3 9.3 0 0 1 4.079 11.235.4.4 0 0 1-.021.038l1.179.906A10.745 10.745 0 0 0 29.311 19a10.617 10.617 0 0 0-3.346-7.779.714.714 0 0 1 .983-1.037 12.157 12.157 0 0 1 2.346 14.571z" style="fill:#5fc0e9" transform="translate(-4 -3.99)"/></svg>
