<svg xmlns="http://www.w3.org/2000/svg" width="22.157" height="16" viewBox="0 0 22.157 16"><path d="M9.96 22.21a.658.658 0 1 1-.658.658.657.657 0 0 1 .658-.658m10.176-4.015a.658.658 0 1 1 .658-.658.681.681 0 0 1-.658.658m0-2.665a2.009 2.009 0 0 0-2.008 2.008 1.96 1.96 0 0 0 .1.623l-6.611 3.531a2.005 2.005 0 0 0-1.661-.865 2.06 2.06 0 0 0-1.8 1.108l-5.949-3.117A2.579 2.579 0 0 1 1.168 16.5a1.253 1.253 0 0 1 .45-1 .6.6 0 0 1 .588.035l.035.035c1.592.831 6.75 3.531 6.957 3.634a1.074 1.074 0 0 0 1.108-.069l10.661-5.538a.488.488 0 0 0 .346-.45.536.536 0 0 0-.312-.45c-.623-.277-1.558-.727-2.458-1.142-1.938-.9-4.154-1.938-5.123-2.458a1.629 1.629 0 0 0-1.627 0l-.242.1C7.156 11.411 1.341 14.283 1 14.491a2.32 2.32 0 0 0-1 1.973 3.75 3.75 0 0 0 1.7 3.427L8 23.145a2.038 2.038 0 0 0 1.96 1.73 2 2 0 0 0 2.008-1.975l6.923-3.738a2.025 2.025 0 1 0 1.246-3.634" transform="translate(.013 -8.875)" style="fill:#5fc0e9"/></svg>
