<svg xmlns="http://www.w3.org/2000/svg" width="15" height="16.333"><defs><style>.c1{fill:none;stroke:#5fc0e9;stroke-linecap:round;stroke-linejoin:round}.c2{fill:#5fc0e9}</style></defs><g transform="translate(.167 .167)"><path class="c1" d="M.333 4.333h14v4h-14z"/><circle class="c1" cx=".333" cy=".333" r=".333" transform="translate(8 6)"/><circle class="c1" cx=".333" cy=".333" r=".333" transform="translate(10 6)"/><circle class="c1" cx=".333" cy=".333" r=".333" transform="translate(12 6)"/><circle class="c2" cx=".667" cy=".667" r=".667" transform="translate(1.667 5.667)"/><path class="c1" d="M.333.333h14v4h-14z"/><circle class="c1" cx=".333" cy=".333" r=".333" transform="translate(8 2)"/><circle class="c1" cx=".333" cy=".333" r=".333" transform="translate(10 2)"/><circle class="c1" cx=".333" cy=".333" r=".333" transform="translate(12 2)"/><circle class="c2" cx=".667" cy=".667" r=".667" transform="translate(1.667 1.667)"/><path class="c1" d="M.333 8.333v4h14v-4"/><circle class="c1" cx=".333" cy=".333" r=".333" transform="translate(8 10)"/><circle class="c1" cx=".333" cy=".333" r=".333" transform="translate(10 10)"/><circle class="c1" cx=".333" cy=".333" r=".333" transform="translate(12 10)"/><circle class="c2" cx=".667" cy=".667" r=".667" transform="translate(1.667 9.667)"/><path class="c1" d="M3 15.667h8.667M7.667 12.333v3.333"/><path class="c2" d="M.333 15.333a.333.333 0 1 0 .333.333.333.333 0 0 0-.333-.333M1.666 15.333a.333.333 0 1 0 .333.333.333.333 0 0 0-.333-.333M13 15.333a.333.333 0 1 0 .333.333.333.333 0 0 0-.333-.333M14.333 15.333a.333.333 0 1 0 .333.333.333.333 0 0 0-.333-.333"/></g></svg>
