<svg xmlns="http://www.w3.org/2000/svg" width="20.68" height="20.68"><defs><style>.c,.d{fill:none;stroke:#5fc0e9}.c{stroke-linejoin:round}.d{stroke-miterlimit:10}</style></defs><g transform="translate(.5 .5)"><circle class="c" cx="6.262" cy="6.262" r="6.262" transform="translate(3.578 3.578)"/><circle class="c" cx="9.84" cy="9.84" r="9.84"/><path class="d" d="M6.571 15.182a18.431 18.431 0 0 0 2.857 4.489m0-19.663a18.478 18.478 0 0 0-2.857 4.491"/><path class="c" d="M1.592 4.473h4.991M0 9.84h3.578m-2.505 4.473h4.385"/><path class="d" d="M13.109 15.182a18.462 18.462 0 0 1-2.856 4.489m0-19.663a18.509 18.509 0 0 1 2.856 4.491"/><path class="c" d="M18.089 4.473h-4.991M19.68 9.84h-3.578m2.505 4.473h-4.385"/></g><path d="M283.731 500.207h-2.873l.047-.455.606.029.616-5.862-.607.019.047-.483h2.456c1.471 0 2.143.369 2.021 1.546-.1 1.014-.683 1.461-1.774 1.556 1.261.047 1.783.351 1.631 1.527l-.18 1.319c-.047.284.038.388.227.369l.19-.019-.047.455h-.9c-.777 0-1.148-.36-1.014-1.176l.161-1.148c.123-.806-.047-1.062-.56-1.062h-.361l-.3 2.959.664-.029zm-.266-3.832h.294c.418 0 .655-.161.75-1.128.132-1.215-.076-1.3-.494-1.3h-.293z" transform="translate(-273.229 -486.647)" style="fill:#5fc0e9"/></svg>
