<svg xmlns="http://www.w3.org/2000/svg" width="22" height="16" viewBox="0 0 22 16"><path d="M17.994 1.609 21.56.044a.313.313 0 0 1 .415.173.334.334 0 0 1 .025.127v15.33a.321.321 0 0 1-.317.326.309.309 0 0 1-.139-.033l-3.574-1.822a.572.572 0 0 1-.312-.513V2.287a.821.821 0 0 1 .336-.678zm-13.652.677v11.252a.725.725 0 0 1-.386.688l-3.5 1.742a.308.308 0 0 1-.14.032.361.361 0 0 1-.316-.395V.418c0-.333.224-.47.385-.4s3.571 1.614 3.571 1.614a.635.635 0 0 1 .386.654zm6.906 1.181 3.488 2.082a.615.615 0 0 1 .317.516v4.189a.569.569 0 0 1-.27.493l-3.484 2.1a.541.541 0 0 1-.557 0l-3.518-2.1a.574.574 0 0 1-.276-.493V6.066a.618.618 0 0 1 .279-.517l3.5-2.082a.476.476 0 0 1 .521 0z"/></svg>
