<svg xmlns="http://www.w3.org/2000/svg" width="33.587" height="40.077"><path d="M-91.75 1970.342a10.056 10.056 0 0 1-2.542.4 11.207 11.207 0 0 1 1.873-6.223 9.34 9.34 0 0 1 6.022-3.546c0 .067.067.134.067.268s.067.2.067.267v.536a8.962 8.962 0 0 1-.669 3.278 9.706 9.706 0 0 1-2.208 3.345 7.151 7.151 0 0 1-2.61 1.675zm10.839 16.927a9.068 9.068 0 0 1-1.673-5.353 9.048 9.048 0 0 1 1.539-5.018 17.182 17.182 0 0 1 2.743-2.876 14.025 14.025 0 0 0-2.542-2.409 8.663 8.663 0 0 0-5.156-1.538 13.579 13.579 0 0 0-4.148.8 12.545 12.545 0 0 1-3.479.8 17.068 17.068 0 0 1-3.345-.736 16.855 16.855 0 0 0-4.282-.736 8.257 8.257 0 0 0-6.825 3.479 14.381 14.381 0 0 0-2.742 9.033 24.777 24.777 0 0 0 3.545 12.11c2.409 4.148 4.817 6.222 7.293 6.222a9.25 9.25 0 0 0 3.212-.8 9.208 9.208 0 0 1 3.412-.8 9.853 9.853 0 0 1 3.612.8 11 11 0 0 0 3.345.8c2.074 0 4.148-1.605 6.222-4.75a22.76 22.76 0 0 0 2.944-6.022 7.912 7.912 0 0 1-3.675-3.006z" transform="translate(110.818 -1960.975)" style="fill:#5fc0e9"/></svg>
