<svg xmlns="http://www.w3.org/2000/svg" width="20" height="20"><path d="M138.582 1946.334c1.938-.219 4.031-.937 4.031-4.312a3.428 3.428 0 0 0-.875-2.344 3.169 3.169 0 0 0-.094-2.312s-.719-.219-2.375.875a9.047 9.047 0 0 0-2.219-.312 8.645 8.645 0 0 0-2.219.313c-1.687-1.125-2.406-.875-2.406-.875a3.183 3.183 0 0 0-.094 2.313 3.287 3.287 0 0 0-.875 2.344c0 3.375 2.063 4.063 4.031 4.313a2.013 2.013 0 0 0-.562 1.188 1.876 1.876 0 0 1-2.562-.719 1.772 1.772 0 0 0-1.344-.875s-.875-.031-.063.531a2.273 2.273 0 0 1 .969 1.281s.531 1.688 2.969 1.156v1.5c0 .219-.187.5-.625.437a8.838 8.838 0 0 1-6-8.344 8.75 8.75 0 1 1 11.531 8.308.459.459 0 0 1-.625-.437v-2.437a2 2 0 0 0-.594-1.594zm8.438-3.844a10 10 0 1 0-10 10 9.989 9.989 0 0 0 10-10z" transform="translate(-127.02 -1932.49)" style="fill:#5fc0e9"/></svg>
