<svg xmlns="http://www.w3.org/2000/svg" width="33.064" height="40.707"><path d="M2.538 11.418A2.541 2.541 0 0 0 0 13.956v10.218a2.541 2.541 0 0 0 2.538 2.539 2.542 2.542 0 0 0 2.538-2.539V13.956a2.542 2.542 0 0 0-2.538-2.538zm27.988 0a2.541 2.541 0 0 0-2.538 2.538v10.218a2.541 2.541 0 0 0 2.538 2.539 2.542 2.542 0 0 0 2.538-2.539V13.956a2.5 2.5 0 0 0-2.538-2.538zM6.313 31.79h2.539v6.378a2.541 2.541 0 0 0 2.538 2.539 2.542 2.542 0 0 0 2.538-2.539V31.79h5.076v6.378a2.542 2.542 0 0 0 2.539 2.539 2.542 2.542 0 0 0 2.538-2.539V31.79h2.538V12.654H6.312zM22.519 3.216l1.3-2.278a.574.574 0 0 0-.26-.846.575.575 0 0 0-.847.261l-1.3 2.213a9.665 9.665 0 0 0-4.947-1.3 9.84 9.84 0 0 0-4.947 1.3l-1.3-2.213a.658.658 0 0 0-.846-.261.659.659 0 0 0-.261.846l1.3 2.278a10.048 10.048 0 0 0-4.165 8.2h20.372a9.658 9.658 0 0 0-4.099-8.2zm-9.828 4.361a1.305 1.305 0 0 1-1.3-1.3 1.306 1.306 0 0 1 1.3-1.3 1.306 1.306 0 0 1 1.3 1.3 1.305 1.305 0 0 1-1.299 1.3zm7.68 0a1.305 1.305 0 0 1-1.3-1.3 1.306 1.306 0 0 1 1.3-1.3 1.306 1.306 0 0 1 1.3 1.3 1.305 1.305 0 0 1-1.299 1.3z" style="fill:#5fc0e9"/></svg>
