<svg xmlns="http://www.w3.org/2000/svg" width="233" height="145.833"><path d="M15.719 136.546H0l.259-2.49 3.32.156 3.372-32.062-3.32.1.26-2.646h13.437c8.041 0 11.725 2.023 11.05 8.456-.571 5.551-3.735 7.99-9.7 8.508 6.9.26 9.754 1.92 8.923 8.353l-.985 7.211c-.26 1.556.207 2.127 1.244 2.023l1.037-.1-.259 2.49h-4.927c-4.254 0-6.277-1.971-5.551-6.433l.882-6.278c.674-4.41-.259-5.811-3.061-5.811h-1.97l-1.66 16.187 3.631-.156zm-1.452-20.96h1.608c2.282 0 3.58-.882 4.1-6.173.726-6.641-.415-7.108-2.7-7.108h-1.607zm17.844 14.165l1.816-17.536-2.438.208.259-2.387h9.909l-1.868 17.639c-.467 4.41-.467 5.966 1.4 5.966s3.268-2.075 3.631-5.447l1.66-15.979-2.957.156.259-2.335h10.376l-2.542 24.436 2.49-.1-.259 2.179H43.789l.415-2.905a8.816 8.816 0 01-6.9 3.372c-4.674-.005-5.659-2.702-5.193-7.267zm23.733 4.617l2.49.1 2.335-22.257-2.542.156.259-2.335h9.961l-.363 2.854a10.6 10.6 0 017.522-3.32c3.165 0 4.41 1.349 4.669 3.683 2.8-2.749 5.292-3.683 8.042-3.683 4.15 0 4.773 2.646 4.306 7l-1.867 17.9 2.438-.1-.207 2.179H81.109l.208-2.179 1.816.1 1.66-15.823c.467-4.461.364-5.759-1.3-5.759-1.712 0-3.165 1.816-3.528 5.344l-1.712 16.238 1.763-.1-.259 2.179h-11l.207-2.179 1.763.1 1.66-15.823c.467-4.461.311-5.759-1.452-5.759-1.608 0-3.061 1.816-3.424 5.344l-1.708 16.244 1.764-.1-.208 2.179H55.584zm51.305-1.297l-.259 3.476h-4.566l1.349-13.126h4.41c-.467 8.508.882 11.569 5.343 11.569 3.061 0 4.721-2.127 5.188-6.226 1.037-10.013-14.37-7.211-12.97-20.7.571-5.4 3.58-8.871 8.715-8.871 2.646 0 4.825.882 6.122 3.061l.155-2.646h4.41l-1.193 11.258h-4.2c.415-7.212-.518-9.7-4.2-9.7-2.8 0-4.2 1.712-4.566 5.6-1.037 9.857 14.319 6.589 12.97 20.181-.674 6.122-4.2 10.013-9.754 10.013a7.446 7.446 0 01-6.954-3.889zm19.402 5.499h5.447c-.415 4.1.1 5.655 2.542 5.655 2.282 0 3.476-1.816 3.891-5.655l.57-5.344a8.209 8.209 0 01-6.485 3.32c-3.942 0-5.136-2.386-4.669-7.211l1.816-17.276-2.594.155.207-1.816h7.989l-1.763 16.809c-.571 5.188-.363 6.8 1.712 6.8 2.438 0 3.943-2.335 4.358-6.278l1.66-15.667-3.476.1.155-1.764h8.923l-2.853 26.978c-.571 5.551-4.1 8.457-9.7 8.457-5.551-.002-8.301-1.972-7.73-7.263zm21.578-10.532h4.046c-.622 5.862.519 7.159 3.216 7.159 2.439 0 3.684-1.4 3.995-4.254.778-7.263-10.894-3.735-9.857-13.9.467-4.358 3.216-7.056 7.886-7.056s7.367 1.712 6.64 8.56h-4.3c.727-6.07-.467-6.9-2.542-6.9-1.763 0-2.8.882-3.164 4.046-.727 7.108 10.894 3.528 9.805 13.8a8.135 8.135 0 01-8.508 7.471c-5.297-.003-7.943-2.182-7.217-8.926zm25.265 8.923c-3.839 0-6.174-2.335-5.759-6.381l1.92-18.47h-2.958l.156-1.712h3.113l1.712-6.952h4.358l-.726 6.952h5.347l-.207 1.712h-5.293l-1.868 17.64c-.466 4.254-.466 5.551 1.09 5.551 1.608 0 2.231-1.4 3.009-8.975h3.061c-.471 7.73-2.235 10.635-6.955 10.635zm17.118 0c-5.6 0-9.287-2.283-8.093-13.489 1.245-11.621 5.447-13.489 9.7-13.489 5.551 0 8.4 2.179 7 12.3h-10.89c-.052.311-.1.674-.155.986-1.09 10.584.207 11.985 3.06 11.985 2.8 0 4.15-1.868 4.877-8.353h3.165c-.778 7.363-3.476 10.06-8.664 10.06zm-2.075-16.445h5.4c.778-6.745.726-8.872-1.556-8.872-1.925 0-2.91 1.038-3.844 8.872zm11.516 14.422l2.646.052 2.386-22.931-2.646.1.208-1.764h8.093l-.415 2.905a8.88 8.88 0 016.537-3.32c2.75 0 4.15 1.245 4.41 3.735 2.335-2.7 4.565-3.735 7-3.735 3.735 0 4.618 2.283 4.2 6.589l-1.971 18.417 2.594-.052-.207 1.608h-10.112l.208-1.608 2.075.052 1.712-16.29c.519-5.084.156-6.174-1.66-6.174-1.66 0-3.58 1.608-4.047 5.966l-1.712 16.5 2.075-.052-.156 1.608h-9.65l.156-1.608 2.075.052 1.712-16.29c.57-5.188.207-6.174-1.712-6.174-1.556 0-3.528 1.608-3.995 5.966l-1.712 16.5 1.972-.052-.156 1.608h-10.064zM146.77 35.141a94.486 94.486 0 00-1.495-17.317 1.456 1.456 0 000-.541l-1.464-7.321a1.459 1.459 0 00-.809-1.03 33.831 33.831 0 00-3.828-8.319A1.461 1.461 0 00137.983 0H94.057a1.464 1.464 0 00-1.192.613 33.864 33.864 0 00-3.828 8.319 1.459 1.459 0 00-.809 1.03l-1.464 7.321a1.454 1.454 0 000 .542 94.478 94.478 0 00-1.494 17.316 94.479 94.479 0 001.494 17.316 1.452 1.452 0 000 .542l1.464 7.321a1.459 1.459 0 00.809 1.03 33.864 33.864 0 003.828 8.319 1.464 1.464 0 001.192.613h43.927a1.461 1.461 0 001.191-.613 33.831 33.831 0 003.828-8.319 1.459 1.459 0 00.809-1.03l1.464-7.321a1.454 1.454 0 000-.541 94.487 94.487 0 001.494-17.317zm-12.038 32.213a51.545 51.545 0 001.84-5.857h3.25a35.7 35.7 0 01-2.647 5.857zm-34.249 0a43.627 43.627 0 01-1.963-5.857h7.144c.322 2.656.639 4.594.874 5.857zm-5.616 0a35.7 35.7 0 01-2.647-5.857h3.249a51.641 51.641 0 001.84 5.857zM97.31 2.928a51.642 51.642 0 00-1.84 5.857h-3.25a35.682 35.682 0 012.647-5.857zm34.25 0a43.746 43.746 0 011.962 5.857h-7.144c-.322-2.662-.639-4.6-.874-5.857zm5.615 0a35.658 35.658 0 012.647 5.857h-3.25a51.656 51.656 0 00-1.84-5.857zm-1.424 55.641H90.865l-.878-4.393h52.069l-.878 4.393h-5.427zm-47.55-23.428a91.547 91.547 0 011.339-16.106h4.015a135.082 135.082 0 000 32.213H89.54a91.538 91.538 0 01-1.34-16.107zm8.09-23.428h44.886l.878 4.392H89.986l.878-4.392h5.426zm40.229 23.428a121.94 121.94 0 01-1 16.107h-8.241c.235-3.872.4-8.4.443-13.632a1.471 1.471 0 00-1.453-1.478h-.011a1.475 1.475 0 00-1.464 1.45c-.042 5.3-.218 9.849-.449 13.661h-16.647c-.273-4.439-.463-9.79-.463-16.107 0-6.37.194-11.727.462-16.107h16.647c.128 2.089.237 4.384.314 6.9a1.459 1.459 0 001.464 1.42h.058a1.466 1.466 0 001.406-1.508 238.632 238.632 0 00-.31-6.809h8.24a121.946 121.946 0 011.004 16.103zm-41 0a121.946 121.946 0 011-16.107h8.237c-.269 4.463-.453 9.807-.453 16.107s.184 11.644.453 16.107H96.52a121.94 121.94 0 01-.999-16.107zm42.963 16.107a135.082 135.082 0 000-32.213h4.015a97.344 97.344 0 010 32.213zM123.269 7.541c.051.384.1.8.159 1.244h-14.809c.343-2.767.675-4.693.9-5.857h13c.178.893.443 2.401.75 4.613zm-17.606 1.244H98.52a43.62 43.62 0 011.963-5.857h6.057c-.238 1.264-.555 3.201-.877 5.857zm3.71 57.808c-.2-1.08-.47-2.772-.756-5.1h14.813c-.35 2.771-.684 4.7-.909 5.857h-13c-.046-.215-.089-.465-.148-.757zm17-5.1h7.149a43.744 43.744 0 01-1.962 5.857h-6.06c.233-1.26.55-3.195.872-5.852zm1.348-29.768a1.474 1.474 0 01-1.45 1.478h-.014a1.455 1.455 0 01-1.464-1.449v-.015a1.489 1.489 0 01.409-1.025 1.468 1.468 0 011.03-.439h.008a1.489 1.489 0 011.48 1.455z"/></svg>
