<svg xmlns="http://www.w3.org/2000/svg" width="33.283" height="39.5"><defs><clipPath id="a"><path style="fill:none" d="M0 0h33.283v39.5H0z"/></clipPath></defs><g style="clip-path:url(#a)"><path d="m32.45 20.517-.01-.007-.01-.007a1.88 1.88 0 0 0-1.022-.3 1.854 1.854 0 0 0-.742.153l-5.443 2.329h-.022a1.91 1.91 0 0 0-1.1 1.529v.025a1.878 1.878 0 0 0 .828 1.723l.067.045A3.933 3.933 0 0 1 22.92 27.2h-.062a1.233 1.233 0 0 1-1.232-1.232v-.078l-.7-9.785 2.9-1.736a1.884 1.884 0 0 0-.1-3.283l-.012-.006-.012-.006-1.673-.837a6.54 6.54 0 1 0-10.77 0l-1.674.837-.012.006-.012.006a1.918 1.918 0 0 0-1.01 1.579v.03a1.885 1.885 0 0 0 .919 1.676l2.887 1.729-.7 9.731v.133a1.233 1.233 0 0 1-1.232 1.236h-.033a4.3 4.3 0 0 1-2.384-1.5l.721-.831a1.874 1.874 0 0 0-.914-3.041L2.4 20.279a1.8 1.8 0 0 0-.52-.079 1.889 1.889 0 0 0-1.132.377A1.865 1.865 0 0 0 0 22.08v.077A12.516 12.516 0 0 0 .872 26.8v.017c1.82 3.731 3.922 6.34 6.245 7.754a41.929 41.929 0 0 0 4.648 2.329l.03.013.025.011a11.111 11.111 0 0 1 3.48 2.011l.007.007.007.007a1.884 1.884 0 0 0 1.692.509 1.667 1.667 0 0 0 .2-.053 1.4 1.4 0 0 0 .157-.054 1.525 1.525 0 0 0 .169-.083h-.006a1.489 1.489 0 0 0 .152-.086l.056-.036.026-.021a1.873 1.873 0 0 0 .191-.156l.019-.018.018-.019a11.291 11.291 0 0 1 3.507-2.032h.005a42.966 42.966 0 0 0 3.926-1.909 1.881 1.881 0 0 0 .956-1.7 1.894 1.894 0 0 0 .614.1 1.866 1.866 0 0 0 1.33-.547l.01-.01.01-.01a1.9 1.9 0 0 0 .527-1.309 1.857 1.857 0 0 0-.087-.556c.05 0 .1.011.151.011a1.886 1.886 0 0 0 1.563-.816 26.687 26.687 0 0 0 1.9-3.343v-.013a12.526 12.526 0 0 0 .873-4.639v-.079a1.888 1.888 0 0 0-.833-1.563" transform="translate(0 .001)" style="fill:#5fc0e9"/><path d="M27.552 30.971a.785.785 0 0 1 .225.544.8.8 0 0 1-.225.552.789.789 0 0 1-1.1 0l-.018-.022a.766.766 0 0 1-.208-.53.755.755 0 0 1 .225-.544.8.8 0 0 1 1.081-.018c.007.007.016.011.023.018m4.632-8.889v.062a11.509 11.509 0 0 1-.769 4.188 25.544 25.544 0 0 1-1.819 3.2.8.8 0 0 1-1.08.209l-.009-.007a.772.772 0 0 1-.2-1.065 25.929 25.929 0 0 0 1.71-3.007 8.6 8.6 0 0 0 .544-2.37l-2.973 1.268.42.28a.791.791 0 0 1 .288.94 6.7 6.7 0 0 1-5.44 4.072A3.9 3.9 0 0 1 18.973 26L18.2 15.141a.793.793 0 0 1 .373-.722l2.673-1.6-2.514-1.257a5.388 5.388 0 0 1-1.309.356v.839a.777.777 0 0 1-1.554 0v-.839a5.38 5.38 0 0 1-1.31-.356l-2.514 1.257 2.673 1.6a.8.8 0 0 1 .373.722l-.777 10.864a3.9 3.9 0 0 1-3.886 3.847 6.7 6.7 0 0 1-5.442-4.072.786.786 0 0 1 .139-.808l.8-.924-3.217-.925a8.927 8.927 0 0 0 .56 2.541c.552 1.15 2.541 5.043 5.23 6.629a33.506 33.506 0 0 0 4.227 2.13 20.863 20.863 0 0 1 3.139 1.592v-9.271a.777.777 0 0 1 1.554 0v9.269a20.654 20.654 0 0 1 3.124-1.584 37.127 37.127 0 0 0 3.582-1.748.794.794 0 0 1 1.057.285.131.131 0 0 0 .008.011.777.777 0 0 1-.3 1.057 42.179 42.179 0 0 1-3.834 1.866 12 12 0 0 0-3.862 2.277.9.9 0 0 1-.108.085l-.011.008c-.02.014-.043.023-.064.035s-.047.027-.072.038-.041.013-.061.019a.759.759 0 0 1-.083.025.785.785 0 0 1-.152.015.773.773 0 0 1-.552-.225 11.864 11.864 0 0 0-3.847-2.262A41.139 41.139 0 0 1 7.7 33.629c-2.145-1.305-4.1-3.761-5.828-7.3a11.5 11.5 0 0 1-.772-4.185v-.062a.775.775 0 0 1 .987-.746l5.439 1.554a.781.781 0 0 1 .536.528.766.766 0 0 1-.164.731l-1.273 1.468a5.32 5.32 0 0 0 3.8 2.681 2.339 2.339 0 0 0 2.332-2.331v-.055l.743-10.405-3.474-2.083a.786.786 0 0 1-.38-.7.812.812 0 0 1 .427-.669l2.943-1.472a5.44 5.44 0 1 1 7.247 0l2.943 1.472a.785.785 0 0 1 .054 1.368l-3.481 2.083.746 10.46a2.338 2.338 0 0 0 2.333 2.334h.062a5.292 5.292 0 0 0 3.661-2.541l-1.049-.7a.785.785 0 0 1-.342-.715.8.8 0 0 1 .466-.645l5.444-2.332a.773.773 0 0 1 1.08.715M17.825 10.239a3.863 3.863 0 1 0-1.183.186 3.862 3.862 0 0 0 1.183-.186M16.642 8.87a2.331 2.331 0 1 1 2.331-2.33 2.333 2.333 0 0 1-2.331 2.331m.777-2.331a.777.777 0 1 0-.777.777.778.778 0 0 0 .777-.777"/></g></svg>
