<svg xmlns="http://www.w3.org/2000/svg" width="62.027" height="65.975" viewBox="0 0 62.027 65.975">
  <defs>
    <style>
      .cls-1 {
        fill: #ff931e;
      }

      .cls-2 {
        fill: none;
        stroke: #ff931e;
        stroke-linejoin: round;
        stroke-width: 1.5px;
      }
    </style>
  </defs>
  <g id="组_13579" data-name="组 13579" transform="translate(-583.133 -1659.242)">
    <path id="路径_8" data-name="路径 8" class="cls-1" d="M8.412,23.51H8.283c-1.579,0-2.91-.973-2.91-2.121V20.026a2.319,2.319,0,1,0-4.637,0v1.363c0,3.727,3.384,6.758,7.548,6.758h.129c4.163,0,7.548-3.031,7.548-6.758V13.963H11.322v7.426c0,1.148-1.334,2.121-2.91,2.121" transform="translate(584.378 1682.904)"/>
    <path id="路径_9" data-name="路径 9" class="cls-1" d="M7.543,30.732H6.918a2.319,2.319,0,1,0,0,4.637h.625c5.907,0,10.711-3.859,10.711-8.6v-12.8H13.617v12.8c0,2.15-2.781,3.966-6.074,3.966" transform="translate(590.925 1682.904)"/>
    <path id="路径_10" data-name="路径 10" class="cls-1" d="M13.538,28.645a2.32,2.32,0,0,0,2.32-2.32V13.962h-4.64V26.325a2.32,2.32,0,0,0,2.32,2.32" transform="translate(602.143 1682.903)"/>
    <path id="路径_11" data-name="路径 11" class="cls-1" d="M16.579,22.842a2.32,2.32,0,0,0,2.32-2.32V13.963h-4.64v6.559a2.32,2.32,0,0,0,2.32,2.32" transform="translate(607.297 1682.904)"/>
    <path id="路径_12" data-name="路径 12" class="cls-1" d="M10.514,13.194A2.715,2.715,0,1,1,7.8,10.478a2.715,2.715,0,0,1,2.716,2.716" transform="translate(591.748 1676.999)"/>
    <path id="路径_13" data-name="路径 13" class="cls-1" d="M18.97,13.194a2.715,2.715,0,1,1-2.716-2.716,2.715,2.715,0,0,1,2.716,2.716" transform="translate(606.078 1676.999)"/>
    <path id="路径_16" data-name="路径 16" class="cls-1" d="M49.915,39a2.9,2.9,0,0,1-2.5-4.36l.366-.62a12.662,12.662,0,0,0,2.153-7.839c0-11.242-9.9-20.388-22.066-20.388S5.8,14.942,5.8,26.184c0,4.54,1.11,6.262,2.4,8.259L5.815,36.1,3.379,37.674A18.383,18.383,0,0,1,0,26.184C0,11.746,12.5,0,27.868,0S55.733,11.746,55.733,26.184a18.237,18.237,0,0,1-2.969,10.8l-.342.577A2.9,2.9,0,0,1,49.915,39" transform="translate(583.133 1659.242)"/>
    <path id="路径_10179" data-name="路径 10179" class="cls-2" d="M9.711,0,4.855,1.214,0,0V13.352L4.855,15.78l4.855-2.428Z" transform="translate(633.841 1702.493) rotate(43)"/>
    <path id="路径_10180" data-name="路径 10180" class="cls-2" d="M0,0,4.855,7.334,9.711,0" transform="translate(624.736 1712.256) rotate(43)"/>
    <path id="路径_10181" data-name="路径 10181" class="cls-2" d="M9.711,4.906,4.855,0,0,4.906" transform="translate(637.157 1698.941) rotate(43)"/>
    <line id="直线_223" data-name="直线 223" class="cls-2" y2="25.542" transform="translate(640.704 1702.251) rotate(43)"/>
  </g>
</svg>
