<svg xmlns="http://www.w3.org/2000/svg" width="44.832" height="20"><defs><clipPath id="a"><path style="fill:#5fc0e9" d="M0 0h44.832v20H0z"/></clipPath></defs><g style="clip-path:url(#a)"><path d="M9.3 4.907v3.268c0 2.793-1.62 4.134-4.581 4.134H2.011V19.6a.67.67 0 0 1-.754.726H.726A.649.649 0 0 1 0 19.6V1.5A.65.65 0 0 1 .726.773h3.995C7.681.773 9.3 2.114 9.3 4.907m-2.011.5c0-2.039-.81-2.821-2.681-2.821h-2.6v7.905h2.6c1.871 0 2.681-.782 2.681-2.821z" transform="translate(0 -.55)" style="fill:#5fc0e9"/><path d="M45.883 0h.224c2.961 0 4.581 1.341 4.581 4.134v11.732c0 2.793-1.62 4.134-4.581 4.134h-.224c-2.961 0-4.581-1.341-4.581-4.134V4.134C41.3 1.313 42.922 0 45.883 0m.112 18.184c1.871 0 2.681-.782 2.681-2.821V4.637c0-2.039-.81-2.821-2.681-2.821s-2.682.782-2.682 2.821v10.726c0 2.039.81 2.821 2.682 2.821" transform="translate(-29.375)" style="fill:#5fc0e9"/><path d="M94.514 20.327h-.587a.815.815 0 0 1-.838-.587L90.3 12.087h-2.881V19.6a.67.67 0 0 1-.754.726h-.531a.65.65 0 0 1-.726-.726V1.5a.649.649 0 0 1 .726-.726h3.994c2.961 0 4.581 1.341 4.581 4.134v3.045c0 2.039-.866 3.3-2.458 3.827l2.849 7.709a.572.572 0 0 1-.587.838M87.419 10.3h2.6c1.872 0 2.681-.782 2.681-2.821V5.411c0-2.039-.81-2.821-2.681-2.821h-2.6z" transform="translate(-60.743 -.55)" style="fill:#5fc0e9"/><path d="M132.748 1.5v.363a.662.662 0 0 1-.726.726h-2.849V19.6a.649.649 0 0 1-.726.726h-.559a.661.661 0 0 1-.726-.726V2.589h-2.822a.649.649 0 0 1-.726-.726V1.5a.65.65 0 0 1 .726-.726h7.681a.662.662 0 0 1 .726.726" transform="translate(-87.916 -.55)" style="fill:#5fc0e9"/></g></svg>
