<svg xmlns="http://www.w3.org/2000/svg" width="55.197" height="65"><path d="M33.138 65H1.054A1.054 1.054 0 0 1 0 63.946V17.155a1.053 1.053 0 0 1 .357-.791l18.3-16.1a1.055 1.055 0 0 1 .7-.263H54a1.054 1.054 0 0 1 1.054 1.051l.142 43.46a1.056 1.056 0 0 1-.241.674L39.271 64.2a1.055 1.055 0 0 1-1.868-.664l-.3-45.319H7.006a1.054 1.054 0 0 1-.7-1.842l6.125-5.44a.979.979 0 0 1 .712-.266l29.842.316a1.054 1.054 0 0 1 1.043 1.054v36.087l5.885-7.163-.245-35.425H20.835l-1.291 1.254h27.531a1.054 1.054 0 0 1 1.054 1.054v32.54a1.054 1.054 0 0 1-2.109 0V8.9H16.946a1.054 1.054 0 0 1-.734-1.81l3.461-3.362a1.054 1.054 0 0 1 .735-.3h30.306a1.054 1.054 0 0 1 1.054 1.047l.256 36.854a1.055 1.055 0 0 1-.24.676l-8 9.733a1.055 1.055 0 0 1-1.869-.67v-37.99l-28.392-.3-3.742 3.327h28.372a1.055 1.055 0 0 1 1.055 1.047l.285 43.461 13.594-16.476-.137-42.029h-33.2L2.109 17.632v45.26h31.03a1.054 1.054 0 1 1 0 2.108" style="fill:#ff931e"/></svg>
