<svg xmlns="http://www.w3.org/2000/svg" width="62.027" height="65.975"><defs><style>.cls-1{fill:#ff931e}.cls-2{fill:none;stroke:#ff931e;stroke-linejoin:round;stroke-width:1.5px}</style></defs><path d="M9.657 47.172h-.129c-1.579 0-2.91-.973-2.91-2.121v-1.363a2.319 2.319 0 1 0-4.637 0v1.363c0 3.727 3.384 6.758 7.548 6.758h.129c4.163 0 7.548-3.031 7.548-6.758v-7.426h-4.639v7.426c0 1.148-1.334 2.121-2.91 2.121" class="cls-1"/><path d="M15.335 54.394h-.625a2.319 2.319 0 1 0 0 4.637h.625c5.907 0 10.711-3.859 10.711-8.6v-12.8h-4.637v12.8c0 2.15-2.781 3.966-6.074 3.966m17.213-2.091a2.32 2.32 0 0 0 2.32-2.32V37.623h-4.64v12.363a2.32 2.32 0 0 0 2.32 2.32m8.195-5.802a2.32 2.32 0 0 0 2.32-2.32v-6.559h-4.64v6.559a2.32 2.32 0 0 0 2.32 2.32M19.129 30.951a2.715 2.715 0 1 1-2.714-2.716 2.715 2.715 0 0 1 2.716 2.716m22.784 0a2.715 2.715 0 1 1-2.716-2.716 2.715 2.715 0 0 1 2.716 2.716" class="cls-1"/><path d="M49.915 39a2.9 2.9 0 0 1-2.5-4.36l.366-.62a12.662 12.662 0 0 0 2.153-7.839c0-11.242-9.9-20.388-22.066-20.388S5.8 14.942 5.8 26.184c0 4.54 1.11 6.262 2.4 8.259L5.815 36.1l-2.436 1.574A18.383 18.383 0 0 1 0 26.184C0 11.746 12.5 0 27.868 0s27.865 11.746 27.865 26.184a18.237 18.237 0 0 1-2.969 10.8l-.342.577A2.9 2.9 0 0 1 49.915 39" class="cls-1"/><path d="m57.81 49.874-4.38-2.424-2.722-4.199-9.106 9.765 1.895 5.087 5.206 1.535Z" class="cls-2"/><path d="m41.603 53.014-1.451 8.675 8.553-2.052m9.075-9.727-.205-6.9-6.897.277m6.893-.278-17.42 18.68" class="cls-2"/></svg>
