<svg xmlns="http://www.w3.org/2000/svg" width="150.442" height="144.5"><defs><style>.c1{fill:#fff}.c3{fill:#999}</style></defs><path class="c1" d="M67.228 110.681 16.799 81.538c-.182-.107-.314-.236-.488-.348v13.375a8.942 8.942 0 0 0 1.142.822l50.429 29.143c.278.16.609.27.906.413V111.41a14.426 14.426 0 0 1-1.56-.729zm9.889 2.275a24.93 24.93 0 0 1-4.31-.4v13.673a23.719 23.719 0 0 0 5.474.325v-13.671c-.387.021-.78.073-1.164.073zm-62.821-37.62c0 1.807 1.19 3.491 3.35 4.738l50.426 29.143c5.348 3.086 14.745 2.685 20.955-.907l4.31-2.492a27.625 27.625 0 0 1-9.779 1.774 20.15 20.15 0 0 1-9.885-2.276l-50.429-29.14c-2.969-1.717-4.475-4.242-4.147-6.936v-.227c-3.047 1.795-4.801 4.094-4.801 6.323z"/><path class="c1" d="m73.867 90.005-2.245-1.3a27.8 27.8 0 0 1-9 1.527 20.148 20.148 0 0 1-9.885-2.276L22.946 70.741v3.148a9.079 9.079 0 0 0 1.139.823l50.432 29.14c.278.16.606.272.906.415V90.734a13.95 13.95 0 0 1-1.556-.729zm9.886 2.272a25.043 25.043 0 0 1-4.307-.4v13.671a23.561 23.561 0 0 0 5.474.326V92.207c-.39.017-.775.07-1.167.07zm11.911-4.645 48.322-27.924c3.123-1.8 4.913-4.137 4.913-6.4 0-1.807-1.19-3.487-3.348-4.736l-15.944-9.214-.138 12.186a.911.911 0 0 1-.064.55c-.387 2.649-2.408 5.124-5.7 7.029L75.381 87.048c-.556.323-1.176.572-1.776.848l1.106.636c5.346 3.094 14.746 2.69 20.953-.9z"/><path class="c1" d="M63.984 74.85c-.387.016-.78.07-1.164.07a24.762 24.762 0 0 1-4.31-.4v13.674a23.855 23.855 0 0 0 5.474.326zm-9.492-1.477a14.38 14.38 0 0 1-1.56-.729L2.503 43.501c-.182-.106-.314-.239-.488-.351v13.379a9.061 9.061 0 0 0 1.142.822l50.429 29.14c.278.163.609.272.906.415z"/><g style="fill:none"><path d="M-5.643 2301.507c0-1.807-1.19-3.491-3.35-4.739l-50.429-29.143a18.432 18.432 0 0 0-9.041-2.074 24.443 24.443 0 0 0-11.909 2.98l-48.327 27.924c-3.12 1.8-4.913 4.134-4.913 6.393 0 1.811 1.19 3.491 3.35 4.739l50.426 29.14c5.348 3.09 14.745 2.686 20.955-.9l48.322-27.925c3.126-1.808 4.916-4.14 4.916-6.395z" style="stroke:none" transform="translate(133.612 -2265.551)"/><path d="M-68.463 2266.05c-4.209 0-8.458 1.063-11.658 2.914l-48.327 27.924c-2.964 1.714-4.664 3.886-4.664 5.96 0 1.621 1.101 3.15 3.1 4.306l50.427 29.14c2.243 1.296 5.367 2.01 8.796 2.01 4.206 0 8.455-1.062 11.658-2.914l48.322-27.925c2.966-1.711 4.666-3.883 4.666-5.958 0-1.622-1.1-3.151-3.1-4.307l-50.43-29.143c-2.24-1.294-5.362-2.006-8.79-2.006m0-.5c3.395 0 6.63.681 9.04 2.074l50.43 29.143c2.16 1.248 3.35 2.932 3.35 4.739 0 2.255-1.79 4.587-4.916 6.39l-48.321 27.926c-6.21 3.59-15.607 3.994-20.955.904l-50.427-29.14c-2.16-1.249-3.35-2.929-3.35-4.74 0-2.258 1.793-4.587 4.913-6.392l48.328-27.924c3.406-1.97 7.775-2.98 11.908-2.98z" style="fill:#fff;stroke:none" transform="translate(133.612 -2265.551)"/></g><path class="c3" d="m63.047 30.039-8.313-4.711-1.742.956 8.313 4.712zm-10.001-5.67-4.154-2.355-1.742.957 4.154 2.357zm-.55-4.873-3.541-2.009-1.742.957 3.541 2.007z"/><path class="c1" d="m58.424 22.858-4.156-2.357-1.742.959 4.154 2.355z"/><path class="c3" d="m69.366 24.498-16.332-9.256-1.742.957 16.333 9.26zm16.132 13.319-4.157-2.355-1.741.956 4.154 2.356zm-17.337-9.315L60.3 24.046l-1.741.956 7.863 4.459zm5.739 7.66-9.113-5.166-1.741.957 9.113 5.165zM44.206 57.407l-16.33-9.258-1.742.958 16.332 9.257zM33.013 41.67l-4.156-2.355-1.743.957 4.157 2.355zm6.501 3.685-4.156-2.357-1.741.958 4.154 2.357zm9.75 5.526L41.4 46.422l-1.742.957 7.864 4.457zm-.382-4.775-4.157-2.355-1.742.957 4.156 2.355zm9.747 5.524-7.863-4.458-1.742.956 7.864 4.458zM42.265 37.799l-8.977-5.089-1.742.956 8.978 5.09zm6.01 3.402-4.157-2.357-1.742.957 4.157 2.356zm6.041 3.422-4.154-2.355-1.744.957 4.156 2.357zm9.747 5.527L56.2 45.693l-1.742.957 7.864 4.457zm6.239 3.535-4.156-2.355-1.742.958 4.156 2.355z"/><path class="c1" d="m25.311 46.306-7.864-4.458-1.741.957 7.863 4.458z"/><path class="c3" d="m59.82 38.625-4.157-2.355-1.741.957 4.154 2.355zm9.753 5.527-7.863-4.458-1.744.957 7.864 4.457zm-31.455-17.83-4.156-2.355-1.742.958 4.156 2.354zm6.041 3.424-4.156-2.355-1.742.957 4.156 2.355z"/><path class="c1" d="m53.909 35.272-7.864-4.456-1.743.957 7.864 4.456z"/><path class="c3" d="m41.122 32.586-3.75-2.125-1.742.958 3.749 2.125zm11.117 6.301-9.113-5.166-1.742.959 9.114 5.164zm11.12 6.302-9.114-5.164-1.742.956 9.114 5.166zM55.21 63.531l-9.114-5.167-1.741.958 9.113 5.165zM44.695 25.49l-2.8-1.585-1.744.957 2.8 1.587zm4.814 2.729-2.8-1.585-1.742.958 2.8 1.586zm8.901 5.046-6.886-3.9-1.742.958 6.887 3.9zm10.934 6.409-6.886-3.9-1.742.957 6.886 3.9zM24.636 32.36l-2.8-1.587-1.742.958 2.8 1.587zm8.901 5.045-6.886-3.9-1.742.958 6.884 3.9z"/><path class="c1" d="m42.631 42.561-6.886-3.9-1.742.957 6.886 3.9z"/><path class="c3" d="M32.616 45.885 28.46 43.53l-1.742.958 4.156 2.355zm9.75 5.526-7.864-4.457-1.742.958 7.863 4.457z"/><path class="c1" d="m72.006 50.093-6.886-3.9-1.742.956 6.886 3.9z"/><path class="c3" d="m26.365 42.343-6.886-3.9-1.742.958 6.886 3.9zm64.682-10.554-16.333-9.258-1.74.959 16.33 9.256zM79.852 16.053l-4.156-2.356-1.742.958 4.157 2.355z"/><path class="c1" d="m86.354 19.736-4.157-2.357-1.741.959 4.156 2.354z"/><path class="c3" d="m96.103 25.263-7.863-4.458-1.742.959 7.864 4.456zm-.379-4.778-4.157-2.354-1.742.958 4.156 2.355zm-23.573.203-7.864-4.457-1.741.956 7.864 4.459zm29.898 17.225-9.113-5.166-1.742.957 9.114 5.166zM71.475 6.744l-2.8-1.586-1.742.956 2.8 1.587z"/><path class="c1" d="m80.377 11.788-6.887-3.9-1.741.959 6.885 3.9z"/><path class="c3" d="m89.471 16.942-6.887-3.9-1.74.958 6.886 3.9zm-10.016 3.327-4.156-2.355-1.743.956 4.157 2.356zm9.75 5.525-7.864-4.457-1.741.958 7.863 4.456zm-15.999-9.068-6.886-3.9-1.743.957 6.886 3.9z"/><g transform="translate(7.232 92.351)"><path class="c1" d="M71.057 50.501a2.611 2.611 0 0 0-2.371 0 .718.718 0 0 0 0 1.363 2.612 2.612 0 0 0 2.371 0 .719.719 0 0 0 0-1.363zm-6.198-3.569a2.612 2.612 0 0 0-2.371 0 .718.718 0 0 0 0 1.363 2.63 2.63 0 0 0 2.371 0 .719.719 0 0 0 0-1.363z"/><ellipse class="c1" cx="1.677" cy=".965" rx="1.677" ry=".965" transform="translate(55.795 43.079)"/><path class="c1" d="M52.455 39.791a2.63 2.63 0 0 0-2.371 0 .72.72 0 0 0 0 1.366 2.636 2.636 0 0 0 2.371 0 .721.721 0 0 0 0-1.366zm-8.568-2.206a2.616 2.616 0 0 0 2.371 0 .719.719 0 0 0 0-1.363 2.616 2.616 0 0 0-2.371 0 .719.719 0 0 0 0 1.363z"/><ellipse class="c1" cx="1.676" cy=".965" rx="1.676" ry=".965" transform="translate(37.197 32.368)"/><path class="c1" d="M33.861 29.08a2.647 2.647 0 0 0-2.374 0 .722.722 0 0 0 0 1.367 2.641 2.641 0 0 0 2.374 0 .721.721 0 0 0 0-1.367zm-6.201-3.569a2.618 2.618 0 0 0-2.371 0 .722.722 0 0 0 0 1.367 2.636 2.636 0 0 0 2.371 0 .721.721 0 0 0 0-1.367zm-6.199-3.569a2.627 2.627 0 0 0-2.374 0 .72.72 0 0 0 0 1.365 2.624 2.624 0 0 0 2.374 0 .72.72 0 0 0 0-1.365zm-6.2-3.572a2.63 2.63 0 0 0-2.371 0 .721.721 0 0 0 0 1.367 2.636 2.636 0 0 0 2.371 0 .72.72 0 0 0 0-1.367zm-8.57-2.202a2.636 2.636 0 0 0 2.371 0 .721.721 0 0 0 0-1.366 2.63 2.63 0 0 0-2.371 0 .721.721 0 0 0 0 1.366zM.492 12.595a2.615 2.615 0 0 0 2.371 0 .719.719 0 0 0 0-1.363 2.615 2.615 0 0 0-2.371 0 .718.718 0 0 0 0 1.363zM83.51 50.462a2.632 2.632 0 0 0-2.371 0 .72.72 0 0 0 0 1.367 2.632 2.632 0 0 0 2.371 0 .721.721 0 0 0 0-1.367zm-6.199-3.569a2.637 2.637 0 0 0-2.374 0 .721.721 0 0 0 0 1.366 2.642 2.642 0 0 0 2.374 0 .721.721 0 0 0 0-1.366zm-6.201-3.568a2.63 2.63 0 0 0-2.371 0 .717.717 0 0 0 0 1.363 2.612 2.612 0 0 0 2.371 0 .718.718 0 0 0 0-1.363zm-6.198-3.57a2.615 2.615 0 0 0-2.371 0 .718.718 0 0 0 0 1.363 2.633 2.633 0 0 0 2.371 0 .719.719 0 0 0 0-1.363zm-6.201-3.572a2.638 2.638 0 0 0-2.371 0 .721.721 0 0 0 0 1.366 2.63 2.63 0 0 0 2.371 0 .721.721 0 0 0 0-1.366z"/><ellipse class="c1" cx="1.677" cy=".966" rx="1.677" ry=".966" transform="translate(49.65 32.33)"/><path class="c1" d="M46.312 29.048a2.609 2.609 0 0 0-2.371 0 .719.719 0 0 0 0 1.363 2.612 2.612 0 0 0 2.371 0 .718.718 0 0 0 0-1.363zm-6.202-3.573a2.612 2.612 0 0 0-2.371 0 .719.719 0 0 0 0 1.363 2.61 2.61 0 0 0 2.371 0 .719.719 0 0 0 0-1.363zm-6.191-3.572a2.635 2.635 0 0 0-2.371 0 .721.721 0 0 0 0 1.367 2.633 2.633 0 0 0 2.371 0 .722.722 0 0 0 0-1.367zm-6.205-3.569a2.635 2.635 0 0 0-2.371 0 .721.721 0 0 0 0 1.366 2.63 2.63 0 0 0 2.371 0 .72.72 0 0 0 0-1.366zm-6.199-3.57a2.615 2.615 0 0 0-2.371 0 .718.718 0 0 0 0 1.364 2.618 2.618 0 0 0 2.371 0 .719.719 0 0 0 0-1.364zm-6.199-3.569a2.618 2.618 0 0 0-2.371 0 .719.719 0 0 0 0 1.364 2.618 2.618 0 0 0 2.371 0 .72.72 0 0 0 0-1.364zM8.992 7.553zm0 0 .123.07.07.043z"/><path class="c1" d="M9.116 7.623a2.633 2.633 0 0 0-2.371 0 .721.721 0 0 0 0 1.367 2.632 2.632 0 0 0 2.371 0 .721.721 0 0 0 0-1.367zm.069.048zM.546 5.421a2.63 2.63 0 0 0 2.371 0C3.571 5.043 1.2 3.678.546 4.055a.72.72 0 0 0 0 1.366zM87.338 48.26a2.636 2.636 0 0 0 2.371 0 .721.721 0 0 0 0-1.366 2.632 2.632 0 0 0-2.371 0 .721.721 0 0 0 0 1.366zm-6.198-3.573a2.606 2.606 0 0 0 2.368 0 .717.717 0 0 0 0-1.363 2.624 2.624 0 0 0-2.368 0 .717.717 0 0 0 0 1.363zm-3.829-4.932a2.621 2.621 0 0 0-2.374 0 .719.719 0 0 0 0 1.363 2.639 2.639 0 0 0 2.374 0 .719.719 0 0 0 0-1.363zm-18.6-10.711c-.163-.1-.325-.188 0 0zm0 0c.328.189.163.093 0 0zm-6.2-3.57zm.001.001zm43.398 17.85a2.63 2.63 0 0 0-2.371 0 .717.717 0 0 0 0 1.363 2.612 2.612 0 0 0 2.371 0 .718.718 0 0 0 0-1.363zm-8.572-2.207a2.633 2.633 0 0 0 2.371 0 .719.719 0 0 0 0-1.363 2.615 2.615 0 0 0-2.371 0 .719.719 0 0 0 0 1.363zm-6.198-3.569a2.624 2.624 0 0 0 2.368 0 .72.72 0 0 0 0-1.366 2.632 2.632 0 0 0-2.368 0 .72.72 0 0 0 0 1.366zm20.971 2.206a2.615 2.615 0 0 0-2.371 0 .719.719 0 0 0 0 1.363 2.633 2.633 0 0 0 2.371 0 .719.719 0 0 0 0-1.363zm-6.202-3.572a2.644 2.644 0 0 0-2.374 0 .721.721 0 0 0 0 1.366 2.636 2.636 0 0 0 2.374 0 .721.721 0 0 0 0-1.366z"/><ellipse class="c1" cx="1.676" cy=".966" rx="1.676" ry=".966" transform="translate(86.847 32.331)"/><path class="c1" d="M108.307 36.183a2.638 2.638 0 0 0-2.371 0 .721.721 0 0 0 0 1.366 2.63 2.63 0 0 0 2.371 0 .72.72 0 0 0 0-1.366zm-6.196-3.57a2.635 2.635 0 0 0-2.371 0 .721.721 0 0 0 0 1.367 2.633 2.633 0 0 0 2.371 0 .722.722 0 0 0 0-1.367zm-8.575-2.205a2.618 2.618 0 0 0 2.374 0 .719.719 0 0 0 0-1.363 2.615 2.615 0 0 0-2.374 0 .719.719 0 0 0 0 1.363zm20.972 2.205a2.635 2.635 0 0 0-2.371 0 .721.721 0 0 0 0 1.367 2.633 2.633 0 0 0 2.371 0 .722.722 0 0 0 0-1.367zm-6.201-3.565a2.609 2.609 0 0 0-2.371 0 .719.719 0 0 0 0 1.363 2.612 2.612 0 0 0 2.371 0 .718.718 0 0 0 0-1.363zm-6.196-3.573a2.612 2.612 0 0 0-2.371 0 .719.719 0 0 0 0 1.363 2.61 2.61 0 0 0 2.371 0 .719.719 0 0 0 0-1.363zm18.595 3.573a2.609 2.609 0 0 0-2.371 0 .719.719 0 0 0 0 1.363 2.612 2.612 0 0 0 2.371 0 .719.719 0 0 0 0-1.363zm-6.198-3.573a2.612 2.612 0 0 0-2.371 0 .718.718 0 0 0 0 1.363 2.61 2.61 0 0 0 2.371 0 .719.719 0 0 0 0-1.363zm-8.572-2.205a2.633 2.633 0 0 0 2.371 0 .721.721 0 0 0 0-1.367 2.635 2.635 0 0 0-2.371 0 .722.722 0 0 0 0 1.367zm20.969 2.205a2.612 2.612 0 0 0-2.371 0 .719.719 0 0 0 0 1.363 2.61 2.61 0 0 0 2.371 0 .718.718 0 0 0 0-1.363zm-6.199-3.572a2.635 2.635 0 0 0-2.371 0 .722.722 0 0 0 0 1.367 2.633 2.633 0 0 0 2.371 0 .721.721 0 0 0 0-1.367zm-6.198-3.569a2.635 2.635 0 0 0-2.371 0 .72.72 0 0 0 0 1.366 2.63 2.63 0 0 0 2.371 0 .721.721 0 0 0 0-1.366z"/><path class="c1" d="M112.136 18.335c.654-.376-.657.376 0 0zm21.023 3.532a2.632 2.632 0 0 0-2.371 0 .721.721 0 0 0 0 1.366 2.633 2.633 0 0 0 2.371 0 .721.721 0 0 0 0-1.366zm-6.199-3.57a2.618 2.618 0 0 0-2.371 0 .718.718 0 0 0 0 1.364 2.615 2.615 0 0 0 2.371 0 .719.719 0 0 0 0-1.364zm-6.2-3.572a2.638 2.638 0 0 0-2.371 0 .722.722 0 0 0 0 1.367 2.618 2.618 0 0 0 2.371 0 .721.721 0 0 0 0-1.367zm12.399 0a2.638 2.638 0 0 0-2.371 0 .722.722 0 0 0 0 1.367 2.618 2.618 0 0 0 2.371 0 .722.722 0 0 0 0-1.367zm-8.57-2.203a2.633 2.633 0 0 0 2.371 0 .722.722 0 0 0 0-1.367 2.635 2.635 0 0 0-2.371 0 .721.721 0 0 0 0 1.367zm12.397 0a2.633 2.633 0 0 0 2.371 0 .721.721 0 0 0 0-1.367 2.635 2.635 0 0 0-2.371 0 .722.722 0 0 0 0 1.367zm-3.827-4.936a2.633 2.633 0 0 0-2.371 0 .72.72 0 0 0 0 1.365 2.619 2.619 0 0 0 2.371 0 .72.72 0 0 0 0-1.365zm3.828-3.569.135-.078c-.15.087-.568.325-.135.078z"/><path class="c1" d="M136.986 5.381a2.61 2.61 0 0 0 2.371 0 .718.718 0 0 0 0-1.363 2.612 2.612 0 0 0-2.371 0 .719.719 0 0 0 0 1.363zm.135-1.441zm5.901-3.831c.163-.1.326-.188 0 0zm0-.002c-.166.092-.328.188 0 0z"/></g></svg>
