<svg xmlns="http://www.w3.org/2000/svg" width="124.442" height="170.2"><defs><style>.c3{fill:#fff}</style></defs><g style="clip-path:url(#clip-path)"><path class="c3" d="M56.358 168.768a2.277 2.277 0 0 0-2.06 0 .625.625 0 0 0 0 1.186 2.277 2.277 0 0 0 2.06 0 .625.625 0 0 0 0-1.186m-5.387-3.103a2.287 2.287 0 0 0-2.06 0 .625.625 0 0 0 0 1.186 2.277 2.277 0 0 0 2.06 0 .625.625 0 0 0 0-1.186m-5.386-3.101a2.277 2.277 0 0 0-2.06 0 .625.625 0 0 0 0 1.186 2.277 2.277 0 0 0 2.06 0 .625.625 0 0 0 0-1.186m-7.449-1.917a2.287 2.287 0 0 0 2.06 0 .626.626 0 0 0 0-1.187 2.287 2.287 0 0 0-2.06 0 .626.626 0 0 0 0 1.187m-5.388-3.101a2.277 2.277 0 0 0 2.06 0 .625.625 0 0 0 0-1.186 2.277 2.277 0 0 0-2.06 0 .625.625 0 0 0 0 1.186m-3.325-4.289a2.291 2.291 0 0 0-2.062 0 .626.626 0 0 0 0 1.187 2.291 2.291 0 0 0 2.062 0 .627.627 0 0 0 0-1.187m-5.387-3.101a2.277 2.277 0 0 0-2.06 0 .625.625 0 0 0 0 1.186 2.277 2.277 0 0 0 2.06 0 .625.625 0 0 0 0-1.186m-5.388-3.102a2.277 2.277 0 0 0-2.06 0 .625.625 0 0 0 0 1.186 2.277 2.277 0 0 0 2.06 0 .625.625 0 0 0 0-1.186m-5.387-3.102a2.287 2.287 0 0 0-2.06 0 .625.625 0 0 0 0 1.186 2.277 2.277 0 0 0 2.06 0 .625.625 0 0 0 0-1.186m-7.447-1.917a2.277 2.277 0 0 0 2.06 0 .626.626 0 0 0 .001-1.191 2.287 2.287 0 0 0-2.06 0 .626.626 0 0 0 0 1.187m-5.389-3.097a2.277 2.277 0 0 0 2.06 0 .625.625 0 0 0 0-1.186 2.277 2.277 0 0 0-2.06 0 .625.625 0 0 0 0 1.186m61.363 26.699a2.287 2.287 0 0 0-2.06 0 .625.625 0 0 0 0 1.186 2.277 2.277 0 0 0 2.06 0 .625.625 0 0 0 0-1.186m-5.385-3.101a2.287 2.287 0 0 0-2.06 0 .626.626 0 0 0 0 1.187 2.287 2.287 0 0 0 2.06 0 .626.626 0 0 0 0-1.187m-5.386-3.105a2.277 2.277 0 0 0-2.06 0 .625.625 0 0 0 0 1.186 2.277 2.277 0 0 0 2.06 0 .625.625 0 0 0 0-1.186m-5.387-3.1a2.288 2.288 0 0 0-2.06 0 .626.626 0 0 0 0 1.187 2.287 2.287 0 0 0 2.06 0 .626.626 0 0 0 0-1.187m-5.388-3.102a2.277 2.277 0 0 0-2.06 0 .625.625 0 0 0 0 1.186 2.277 2.277 0 0 0 2.06 0 .625.625 0 0 0 0-1.186m-5.386-3.101a2.277 2.277 0 0 0-2.06 0 .625.625 0 0 0 0 1.186 2.277 2.277 0 0 0 2.06 0 .625.625 0 0 0 0-1.186m-5.388-3.103a2.287 2.287 0 0 0-2.06 0 .625.625 0 0 0 0 1.186 2.277 2.277 0 0 0 2.06 0 .625.625 0 0 0 0-1.186m-5.387-3.103a2.287 2.287 0 0 0-2.06 0 .626.626 0 0 0 0 1.187 2.287 2.287 0 0 0 2.06 0 .626.626 0 0 0 0-1.187m-5.391-3.101a2.277 2.277 0 0 0-2.06 0 .625.625 0 0 0 0 1.186 2.278 2.278 0 0 0 2.06 0 .625.625 0 0 0 0-1.186m-5.383-3.102a2.277 2.277 0 0 0-2.06 0 .625.625 0 0 0 0 1.186 2.277 2.277 0 0 0 2.06 0 .625.625 0 0 0 0-1.186m16.074 2.616a2.277 2.277 0 0 0-2.06 0 .625.625 0 0 0 0 1.186 2.277 2.277 0 0 0 2.06 0 .625.625 0 0 0 0-1.186m-5.388-3.104a2.287 2.287 0 0 0-2.06 0 .625.625 0 0 0 0 1.186 2.277 2.277 0 0 0 2.06 0 .625.625 0 0 0 0-1.186m-7.447-1.909a2.277 2.277 0 0 0 2.06 0 .626.626 0 0 0 0-1.187 2.287 2.287 0 0 0-2.06 0 .626.626 0 0 0 0 1.187m18.268 1.877a2.287 2.287 0 0 0-2.06 0 .626.626 0 0 0 0 1.187 2.287 2.287 0 0 0 2.06 0 .626.626 0 0 0 0-1.187m-5.389-3.101a2.277 2.277 0 0 0-2.06 0 .625.625 0 0 0 0 1.186 2.277 2.277 0 0 0 2.06 0 .625.625 0 0 0 0-1.186m-5.384-3.102a2.277 2.277 0 0 0-2.06 0 .625.625 0 0 0 0 1.186 2.277 2.277 0 0 0 2.06 0 .625.625 0 0 0 0-1.186m-16.224 3.559c-.074-.042-.058-.034 0 0"/><path class="c3" d="m7.814 134.55.106.061c.032.018.04.024.062.035l-.168-.1"/><path class="c3" d="M7.921 134.613a2.277 2.277 0 0 0-2.06 0 .626.626 0 0 0 0 1.187 2.287 2.287 0 0 0 2.06 0 .626.626 0 0 0 0-1.187m-7.447-1.917a2.287 2.287 0 0 0 2.06 0c.569-.327-1.492-1.514-2.06-1.187a.626.626 0 0 0 0 1.187m70.03 34.123a2.277 2.277 0 0 0 2.06 0 .625.625 0 0 0 0-1.186 2.277 2.277 0 0 0-2.06 0 .625.625 0 0 0 0 1.186m-3.326-4.287a2.287 2.287 0 0 0-2.06 0 .626.626 0 0 0 0 1.187 2.287 2.287 0 0 0 2.06 0 .626.626 0 0 0 0-1.187m8.714 1.185a2.287 2.287 0 0 0 2.06 0 .626.626 0 0 0 0-1.187 2.287 2.287 0 0 0-2.06 0 .626.626 0 0 0 0 1.187m-5.388-3.102a2.277 2.277 0 0 0 2.06 0 .625.625 0 0 0 0-1.186 2.277 2.277 0 0 0-2.06 0 .625.625 0 0 0 0 1.186m12.835-1.188a2.277 2.277 0 0 0-2.06 0 .625.625 0 0 0 0 1.186 2.277 2.277 0 0 0 2.06 0 .625.625 0 0 0 0-1.186m-7.447-1.913a2.287 2.287 0 0 0 2.06 0 .626.626 0 0 0 0-1.187 2.288 2.288 0 0 0-2.06 0 .626.626 0 0 0 0 1.187m12.835-1.187a2.281 2.281 0 0 0-2.062 0 .626.626 0 0 0 0 1.187 2.291 2.291 0 0 0 2.062 0 .626.626 0 0 0 0-1.187m-7.449-1.917a2.277 2.277 0 0 0 2.06 0 .625.625 0 0 0 0-1.186 2.277 2.277 0 0 0-2.06 0 .625.625 0 0 0 0 1.186m12.836-1.185a2.277 2.277 0 0 0-2.06 0 .625.625 0 0 0 0 1.186 2.277 2.277 0 0 0 2.06 0 .625.625 0 0 0 0-1.186m-5.387-3.102a2.291 2.291 0 0 0-2.062 0 .626.626 0 0 0 0 1.187 2.291 2.291 0 0 0 2.062 0 .626.626 0 0 0 0-1.187m-28.405 10.009a2.277 2.277 0 0 0 2.06 0 .625.625 0 0 0 0-1.186 2.277 2.277 0 0 0-2.06 0 .625.625 0 0 0 0 1.186m-5.386-3.102a2.277 2.277 0 0 0 2.06 0 .625.625 0 0 0 0-1.186 2.277 2.277 0 0 0-2.06 0 .625.625 0 0 0 0 1.186m12.834-1.187a2.287 2.287 0 0 0-2.06 0 .625.625 0 0 0 0 1.186 2.277 2.277 0 0 0 2.06 0 .625.625 0 0 0 0-1.186m-7.448-1.915a2.287 2.287 0 0 0 2.06 0 .626.626 0 0 0 0-1.187 2.287 2.287 0 0 0-2.06 0 .626.626 0 0 0 0 1.187m12.839-1.187a2.287 2.287 0 0 0-2.06 0 .626.626 0 0 0 0 1.187 2.287 2.287 0 0 0 2.06 0 .626.626 0 0 0 0-1.187m-5.391-3.101a2.277 2.277 0 0 0-2.06 0 .625.625 0 0 0 0 1.186 2.277 2.277 0 0 0 2.06 0 .625.625 0 0 0 0-1.186m10.774 0a2.277 2.277 0 0 0-2.06 0 .625.625 0 0 0 0 1.186 2.277 2.277 0 0 0 2.06 0 .625.625 0 0 0 0-1.186m-5.383-3.102a2.277 2.277 0 0 0-2.06 0 .626.626 0 0 0 0 1.187 2.287 2.287 0 0 0 2.06 0 .626.626 0 0 0 0-1.187m26.339 3.585a2.287 2.287 0 0 0-2.06 0 .626.626 0 0 0 0 1.187 2.287 2.287 0 0 0 2.06 0 .626.626 0 0 0 0-1.187m-7.447-1.916a2.287 2.287 0 0 0 2.06 0 .625.625 0 0 0 0-1.186 2.277 2.277 0 0 0-2.06 0 .625.625 0 0 0 0 1.186m12.833-1.185a2.277 2.277 0 0 0-2.06 0 .625.625 0 0 0 0 1.186 2.277 2.277 0 0 0 2.06 0 .625.625 0 0 0 0-1.186m-5.386-3.104a2.287 2.287 0 0 0-2.06 0 .625.625 0 0 0 0 1.186 2.277 2.277 0 0 0 2.06 0 .625.625 0 0 0 0-1.186"/><path class="c3" d="M97.44 143.918c.569-.327-.569.328 0 0m12.881-.033a2.277 2.277 0 0 0-2.06 0 .625.625 0 0 0 0 1.186 2.277 2.277 0 0 0 2.06 0 .625.625 0 0 0 0-1.186m-5.386-3.1a2.277 2.277 0 0 0-2.06 0 .625.625 0 0 0 0 1.186 2.277 2.277 0 0 0 2.06 0 .625.625 0 0 0 0-1.186m10.773-.001a2.287 2.287 0 0 0-2.06 0 .625.625 0 0 0 0 1.186 2.277 2.277 0 0 0 2.06 0 .625.625 0 0 0 0-1.186m-7.448-1.916a2.287 2.287 0 0 0 2.06 0 .626.626 0 0 0 0-1.187 2.287 2.287 0 0 0-2.06 0 .626.626 0 0 0 0 1.187m10.775 0a2.287 2.287 0 0 0 2.06 0 .626.626 0 0 0 0-1.187 2.287 2.287 0 0 0-2.06 0 .626.626 0 0 0 0 1.187m-3.327-4.287a2.277 2.277 0 0 0-2.06 0 .625.625 0 0 0 0 1.186 2.277 2.277 0 0 0 2.06 0 .625.625 0 0 0 0-1.186m3.327-3.104.117-.067-.117.067m0 1.187a2.287 2.287 0 0 0 2.06 0 .626.626 0 0 0 0-1.187 2.287 2.287 0 0 0-2.06 0 .626.626 0 0 0 0 1.187M38.519 52.905l.263.151v-5.573l-.787-.453a.525.525 0 0 1-.263-.455v6.482l.263-.151a.519.519 0 0 1 .524 0m12.125 1.125a.53.53 0 0 1-.263.07.524.524 0 0 1-.261-.07l-.263-.151v5.57l.787.453a.526.526 0 0 1 .263.453V53.88zm.262 29.044-.176-.1v3.571l.176-.1zm0-8.774v-6.982a.52.52 0 0 1-.263.453l-.787.455v4.419l.612.352a.527.527 0 0 1 .261.455v.95z"/><path class="c3" d="m38.781 47.483 11.077 6.4.261.151a.525.525 0 0 0 .526 0l.261-.151 11.013-6.359v-.945a.525.525 0 0 1 .262-.46l.295-.17-4.419-2.551-1.049.606 4.451 2.57-11.078 6.395-11.077-6.395 4.451-2.57-1.049-.606-4.712 2.72a.525.525 0 0 0 0 .91zm47.663 1.136a.528.528 0 0 1-.263-.455v-.687l-.011.006v37.073l.011-.006V67.058a.528.528 0 0 1 .263-.455l.775-.449v-4.721l-.775-.447a.528.528 0 0 1-.263-.455v-6.955a.526.526 0 0 1 .263-.455l.775-.449v-3.6z"/><path class="c3" d="M62.246 67.754a.519.519 0 0 1 .524 0l.2.114V47.482l2.575 1.485-3.36-1.94a.522.522 0 0 1 0-.908.523.523 0 0 0-.264.455v21.369zm12.736 44.493v4l.112-.064v-3.872zm-.937-29.133v3.5l.675.391a.52.52 0 0 1 .263.453v3.562l.112-.066v-8.547a.523.523 0 0 1-.2.215zm.937 16.766v3.5l.112-.066v-3.37zm-.085-25.123a.53.53 0 0 1 .2.215V53.879l-.268.151a.523.523 0 0 1-.264.07.512.512 0 0 1-.261-.07l-.263-.151v20.386z"/><path class="c3" d="m80.577 43.648 5.069 2.929-11.075 6.392-11.078-6.392 4.957-2.863-1.049-.606-4.93 2.842-.295.17a.525.525 0 0 0 0 .91l3.36 1.939 8.5 4.911.263.151a.522.522 0 0 0 .524 0l.263-.151 11.076-6.4.011-.006v-1.797l-4.555-2.631zm29.858 24.318v50.11l-11.077 6.4v.908a.511.511 0 0 1-.122.314v.059l11.986-6.92a.525.525 0 0 0 .263-.455V67.058a.52.52 0 0 1-.263.453zm-24.254-.908v17.491l.061-.034a.519.519 0 0 1 .524 0l.465.268V67.966l1.42.82-2.206-1.274a.525.525 0 0 1 0-.91.525.525 0 0 0-.263.455"/><path class="c3" d="M98.893 91.515a.528.528 0 0 1 .263.455v6.955a.528.528 0 0 1-.263.455l-.585.338v3.83l.585.338a.524.524 0 0 1 .263.453v6.957a.528.528 0 0 1-.263.455l-.585.336v4.231l.665.383a.527.527 0 0 1 .261.455v8.543a.5.5 0 0 0 .123-.314V74.362l-.263.151a.53.53 0 0 1-.263.07.524.524 0 0 1-.261-.07l-.263-.151v16.815z"/><path class="c3" d="m105.306 64.4 4.6 2.658-11.074 6.394-11.078-6.394 4.6-2.658-1.049-.606-4.089 2.36-.775.449a.524.524 0 0 0 0 .908l2.206 1.274 9.658 5.576.261.152a.525.525 0 0 0 .525 0l.263-.152 11.079-6.395.787-.455a.524.524 0 0 0 0-.908l-4.864-2.809zM49.944 87l.787-.455v-3.571l-.61-.352a.528.528 0 0 1-.263-.455v-6.956a.528.528 0 0 1 .263-.455l.61-.352v-.952a.525.525 0 0 1-.263.455l-.787.453v13.095a.528.528 0 0 1 .263-.455m-9.69-7.195-1.649.952zm-2.698 51.062-11.077-6.395v-.123a.527.527 0 0 1-.261.455l-.6.348c.027.024.045.058.077.077l11.864 6.849v-1.211zm1.047-7.621v-3.777l-.787-.455a.52.52 0 0 1-.262-.454v5.593a.525.525 0 0 1 .263-.455zM26.216 96.068l-.787.455v5.294l.787.455a.526.526 0 0 1 .263.455v-7.114a.528.528 0 0 1-.263.455m0-12.367-.787.455v3.592l.787.455a.528.528 0 0 1 .263.455v-5.412a.526.526 0 0 1-.263.455m0-7.865a.528.528 0 0 1 .263.455V74.36l-.787-.453a.525.525 0 0 1-.263-.455v1.929zm11.34 35.769a.525.525 0 0 1 .263-.455l.785-.453v-29.94l-.263.152a.53.53 0 0 1-.263.07.524.524 0 0 1-.261-.07l-4.114-2.376 3.852 2.224z"/><path class="c3" d="m26.478 74.361 7.226 4.173 4.114 2.374a.524.524 0 0 0 .261.07.53.53 0 0 0 .263-.07l.263-.151 1.649-.953 9.427-5.443.788-.455a.526.526 0 0 0 0-.908l-.612-.352-3.826-2.212-1.049.606 4.175 2.412-11.077 6.395-11.076-6.395 4.353-2.512-1.051-.606-4.614 2.664a.524.524 0 0 0 0 .908zm47.454 64.416v-.3l-11.077 6.4v.908a.527.527 0 0 1-.261.455l11.862-6.851-.261-.151a.525.525 0 0 1-.263-.455m.264-22.084.787-.455v-4l-.867-.5a.512.512 0 0 1-.183-.183v5.59a.528.528 0 0 1 .263-.455m-.079-12.814.867-.5v-3.5l-.867-.5a.525.525 0 0 1-.183-.183v4.867a.525.525 0 0 1 .183-.183m0-12.368.867-.5v-3.56a.524.524 0 0 1-.263.453l-.787.455v3.334a.525.525 0 0 1 .183-.183m-24.173 12.635a.527.527 0 0 1 .524 0l.263.151V88.363l-.787-.453a.528.528 0 0 1-.263-.455v16.847zm12.913 14.411a.525.525 0 0 1-.263.455l-.787.453v3.776l.787.455a.52.52 0 0 1 .263.453zm-.527-23.58a.529.529 0 0 1-.263-.07l-.261-.151v15.937l.787.453a.527.527 0 0 1 .261.455V94.759l-.261.151a.53.53 0 0 1-.263.07"/><path class="c3" d="M74.721 87.909a.524.524 0 0 0 0-.908l-.675-.391-3.03-1.748-1.049.606 3.442 1.988-11.076 6.4-11.077-6.4 3.617-2.091-1.048-.609-2.918 1.685-.176.1-.787.455a.526.526 0 0 0 0 .908l.787.455 11.077 6.397.263.152a.528.528 0 0 0 .263.069.522.522 0 0 0 .261-.069l.263-.152 11.077-6.394zM62.857 144.87v-20.716a.525.525 0 0 1-.263.455l-.787.453v20.413l-11.077 6.4v.908a.522.522 0 0 1-.261.453l12.125-7a.525.525 0 0 0 .263-.455z"/><path class="c3" d="M50.73 151.871v-20.413l-.263.152a.524.524 0 0 1-.261.07.53.53 0 0 1-.263-.07l-.263-.152v20.413l-11.077-6.4v-20.408l-.787-.455a.526.526 0 0 1 0-.908.522.522 0 0 0-.261.453v21.625a.527.527 0 0 0 .261.455l12.127 7a.529.529 0 0 0 .263.071.526.526 0 0 0 .524-.526z"/><path class="c3" d="m62.594 123.699-.787-.455-3.27-1.887-1.049.606 3.794 2.192-11.075 6.394-11.078-6.395 3.8-2.192-1.049-.606-3.272 1.889-.785.453a.527.527 0 0 0 0 .91l.787.453 11.077 6.4.263.151a.53.53 0 0 0 .263.071.524.524 0 0 0 .255-.072l.263-.151 11.077-6.4.786-.449a.524.524 0 0 0 0-.908m36.64-6.551a.525.525 0 0 1-.263.455l-.787.453v20.413l-11.077 6.4v.908a.522.522 0 0 1-.261.453l12.125-7a.525.525 0 0 0 .263-.455v-21.627z"/><path class="c3" d="M87.108 144.869v-20.413l-.263.152a.522.522 0 0 1-.261.069.528.528 0 0 1-.263-.069l-.263-.152v20.413l-11.071-6.396v-20.411l-.788-.455a.525.525 0 0 1-.261-.455v21.624a.527.527 0 0 0 .261.455l.263.151 11.86 6.848a.53.53 0 0 0 .263.07.526.526 0 0 0 .524-.526z"/><path class="c3" d="m98.308 116.315-3.664-2.115-1.049.606 4.066 2.347-11.074 6.396-11.076-6.4 3.986-2.3-1.049-.607-3.35 1.935-.112.064-.787.455a.524.524 0 0 0 0 .908l.787.453 11.077 6.4.263.152a.518.518 0 0 0 .261.069.528.528 0 0 0 .263-.069l.263-.152 11.074-6.396.788-.453a.526.526 0 0 0 0-.908zm12.127-61.831v5.744l-11.077 6.4v.908a.525.525 0 0 1-.263.455l6.213-3.587 1.048-.606 4.866-2.809a.525.525 0 0 0 .263-.455v-6.958a.52.52 0 0 1-.263.453z"/><path class="c3" d="M86.181 53.576v6.957a.52.52 0 0 0 .263.453l.775.449 4.089 2.36 1.049.607 6.212 3.586a.525.525 0 0 0 .525 0 .528.528 0 0 0 .263-.455V60.88l-.263.151a.525.525 0 0 1-.525 0l-.261-.151v5.744L87.23 60.23v-5.746l-.787-.453a.525.525 0 0 1 0-.91.525.525 0 0 0-.263.455"/><path class="c3" d="m106.272 51.476 3.637 2.1-11.077 6.4-11.077-6.4 3.635-2.1-1.049-.606-3.123 1.8-.774.449a.524.524 0 0 0 0 .908l.787.455 11.077 6.397.261.152a.525.525 0 0 0 .525 0l.263-.152 11.076-6.394.787-.455a.524.524 0 0 0 0-.908l-3.9-2.251zM62.928 40.523l-.859-.5c-.042-.024-.064-.066-.1-.1l-11.062 6.393v.91a.522.522 0 0 1-.261.453l6.364-3.672 1.048-.606 4.712-2.72a.512.512 0 0 0 .159-.157"/><path class="c3" d="m43.755 44.004 6.364 3.674a.524.524 0 0 0 .787-.453v-6.652l-.261.152a.525.525 0 0 1-.526 0l-.261-.152v5.745l-11.077-6.396v-5.744l-.787-.455a.52.52 0 0 1-.263-.453v6.955a.525.525 0 0 0 .263.455l4.712 2.72z"/><path class="c3" d="m38.781 34.177 11.077 6.4.261.151a.525.525 0 0 0 .526 0l.261-.151 10.9-6.293v-1.668a.514.514 0 0 1 .106-.3l-3.693-2.132-1.049.606 4.289 2.477-11.078 6.396-11.077-6.394 4.113-2.374-1.049-.606-4.374 2.525a.525.525 0 0 0 0 .91zm11.863 33.596a.524.524 0 0 0 .263-.453v-6.957a.52.52 0 0 1-.263.453l-.787.455v5.744l-11.081 6.396v.908a.525.525 0 0 1-.263.455l6.463-3.731 1.049-.606 3.828-2.209z"/><path class="c3" d="m31.356 70.94 6.639 3.832a.508.508 0 0 0 .261.07.513.513 0 0 0 .263-.07.524.524 0 0 0 .263-.453v-6.654l-.263.152a.53.53 0 0 1-.263.07.524.524 0 0 1-.261-.07l-.263-.152v5.745l-11.077-6.4v-5.741l-.787-.453a.528.528 0 0 1-.263-.455v6.957a.528.528 0 0 0 .263.455l4.438 2.562z"/><path class="c3" d="m26.655 61.27 11.077 6.4.261.152a.535.535 0 0 0 .526 0l.263-.152 11.076-6.4.787-.453a.525.525 0 0 0 .263-.455.524.524 0 0 0-.263-.453l-.787-.453-11.076-6.398-.263-.151a.522.522 0 0 0-.526 0l-.261.151-11.863 6.848a.525.525 0 0 0 0 .91zm22.679-.912-11.077 6.4-11.078-6.4 11.077-6.4zm62.15-12.192v-6.957a.523.523 0 0 1-.263.455l-.787.455v5.744l-11.077 6.4v.908a.527.527 0 0 1-.261.455l7.178-4.145 1.049-.606 3.9-2.251a.525.525 0 0 0 .263-.455"/><path class="c3" d="M86.181 47.477v.687a.525.525 0 0 0 .263.455l.775.447 3.123 1.8 1.048.61 7.179 4.141a.526.526 0 0 0 .788-.455v-6.65l-.263.152a.525.525 0 0 1-.525 0l-.261-.152v5.745l-11.077-6.4v-5.74l-.787-.455a.524.524 0 0 1 0-.908.525.525 0 0 0-.263.455v6.268z"/><path class="c3" d="M86.183 41.208a.525.525 0 0 0 .263.455l.785.453 11.079 6.4.26.151a.528.528 0 0 0 .264.07.522.522 0 0 0 .263-.07l.261-.151 11.076-6.4.786-.457a.525.525 0 0 0 0-.91l-12.123-7a.525.525 0 0 0-.527 0l-12.123 7a.525.525 0 0 0-.263.455m23.728 0-11.078 6.399-11.079-6.395 11.079-6.4zm-11.801 64.041v5.744l-11.077 6.4v.908a.527.527 0 0 1-.261.455l6.828-3.943 1.049-.606 3.661-2.118.585-.338a.525.525 0 0 0 .263-.455v-6.955a.52.52 0 0 1-.263.453z"/><path class="c3" d="M86.242 118.748a.53.53 0 0 0 .263.071.526.526 0 0 0 .524-.526v-6.65l-.263.151a.508.508 0 0 1-.261.07.514.514 0 0 1-.263-.07l-.263-.151v5.744l-11.076-6.4v-5.744l3.211 1.854-4-2.307a.527.527 0 0 1 0-.91.543.543 0 0 0-.261.455v6.955a.519.519 0 0 0 .079.272.525.525 0 0 0 .183.183l.867.5.112.066 3.35 1.934 1.049.606z"/><path class="c3" d="m93.945 102.237 3.637 2.1-11.077 6.4-11.076-6.4 3.635-2.1-1.049-.606-2.921 1.685-.111.066-.867.5a.524.524 0 0 0 0 .908l4 2.309 7.867 4.54.261.152a.525.525 0 0 0 .526 0l.263-.152 11.076-6.394.787-.455a.524.524 0 0 0 0-.908l-.585-.338-3.313-1.913z"/><path class="c3" d="M98.111 92.878v5.744l-11.077 6.4v.908a.527.527 0 0 1-.261.455l7.178-4.145 1.049-.606 3.311-1.916.585-.338a.523.523 0 0 0 .263-.455v-6.959a.525.525 0 0 1-.263.455z"/><path class="c3" d="m74.117 99.38.867.5.111.064 2.922 1.687 1.048.606 7.179 4.145a.524.524 0 0 0 .261.07.526.526 0 0 0 .525-.526v-6.652l-.263.151a.53.53 0 0 1-.263.071.524.524 0 0 1-.261-.071l-.263-.151v5.744l-11.077-6.4v-5.74l-.787-.455a.524.524 0 0 1 0-.908.549.549 0 0 0-.263.455v6.955a.549.549 0 0 0 .263.455"/><path class="c3" d="m74.984 91.015-.867.5a.525.525 0 0 0 0 .91l.787.453 11.077 6.4.263.151a.508.508 0 0 0 .261.071.513.513 0 0 0 .263-.071l.263-.151 11.076-6.4.788-.453a.527.527 0 0 0 0-.91l-.585-.336-11.077-6.4-.465-.268a.519.519 0 0 0-.524 0l-.061.035h-.011l-11.077 6.4zm22.6.955-11.077 6.4-11.076-6.4 11.076-6.4zm-35.777 20.542v5.744l-11.077 6.4v.908a.527.527 0 0 1-.261.455l7.019-4.053 1.049-.606 3.27-1.887.787-.455a.523.523 0 0 0 .263-.455v-6.959a.52.52 0 0 1-.263.453z"/><path class="c3" d="M49.944 126.015a.53.53 0 0 0 .263.071.526.526 0 0 0 .524-.525v-6.653l-.263.151a.508.508 0 0 1-.261.07.513.513 0 0 1-.263-.07l-.263-.151v5.744l-11.077-6.394v-5.746l-.787-.453a.527.527 0 0 1 0-.91.527.527 0 0 0-.261.455v6.957a.522.522 0 0 0 .261.453l.787.455 3.272 1.887 1.049.606z"/><path class="c3" d="m61.808 110.696-11.077-6.4-.263-.152a.527.527 0 0 0-.524 0l-.263.152-11.077 6.4-.785.453a.527.527 0 0 0 0 .91l.787.453 11.077 6.4.263.151a.513.513 0 0 0 .263.071.508.508 0 0 0 .261-.071l.263-.151 11.077-6.4.787-.455a.524.524 0 0 0 0-.908zm-22.678.908 11.077-6.4 11.076 6.4-11.076 6.395zm35.768-35.937-.787.453v5.747l-11.079 6.391v.909a.523.523 0 0 1-.261.455l7.2-4.154 1.051-.606 3.028-1.75.852-.49a.541.541 0 0 0 .2-.215.522.522 0 0 0 .064-.24V75.21a.53.53 0 0 1-.261.455"/><path class="c3" d="m53.824 84.76 1.049.606 7.373 4.257a.524.524 0 0 0 .261.07.526.526 0 0 0 .526-.526v-6.652l-.263.151a.514.514 0 0 1-.263.07.508.508 0 0 1-.261-.07l-.263-.151v5.744l-11.077-6.394v-5.746l-.787-.453a.525.525 0 0 1 0-.91.528.528 0 0 0-.263.455v6.957a.524.524 0 0 0 .263.453l.61.352.176.1z"/><path class="c3" d="M49.857 75.211a.528.528 0 0 0 .263.455l.787.453 11.077 6.4.263.151a.508.508 0 0 0 .261.07.514.514 0 0 0 .263-.07l.263-.151 11.076-6.4.788-.453a.527.527 0 0 0 .261-.455.566.566 0 0 0-.261-.455l-.852-.49-11.076-6.4-.2-.114a.519.519 0 0 0-.524 0l-.327.187-11.013 6.364-.176.1-.61.352a.528.528 0 0 0-.263.455m23.728 0-11.077 6.396-11.076-6.395 11.076-6.4zm12.474-41.684v5.744l-11.076 6.396v.908a.527.527 0 0 1-.261.455l5.856-3.382 1.049-.606 5.22-3.014a.525.525 0 0 0 .263-.455v-6.954a.52.52 0 0 1-.263.453z"/><path class="c3" d="M61.971 39.929a.53.53 0 0 0 .1.1l.857.493 4.475 2.584 1.049.606 5.744 3.318a.525.525 0 0 0 .788-.455v-6.654l-.263.152a.525.525 0 0 1-.526 0l-.261-.152v5.745l-11.077-6.4v-5.74l-.787-.455a.524.524 0 0 1 0-.908.6.6 0 0 0-.263.453v6.957a.511.511 0 0 0 .163.356"/><path class="c3" d="m81.899 30.518 3.637 2.1-11.077 6.4-11.077-6.4 3.637-2.1-1.049-.606-3.9 2.251a.524.524 0 0 0 0 .908l.787.453 11.077 6.4.261.152a.535.535 0 0 0 .526 0l.263-.152 11.076-6.398.787-.455a.524.524 0 0 0 0-.908l-3.9-2.251z"/><path class="c3" d="M86.059 21.159v5.744l-11.076 6.396v.912a.527.527 0 0 1-.261.455l7.178-4.145 1.049-.606 3.9-2.251a.52.52 0 0 0 .263-.453v-6.96a.52.52 0 0 1-.263.453z"/><path class="c3" d="M62.857 26.905v.3a.525.525 0 0 1-.263.455l-.261.151 3.635 2.1 1.049.606 7.179 4.143a.508.508 0 0 0 .261.07.513.513 0 0 0 .263-.07.524.524 0 0 0 .263-.453v-6.652l-.263.152a.53.53 0 0 1-.263.07.524.524 0 0 1-.261-.07l-.263-.152V33.3z"/><path class="c3" d="M62.857 20.251v.908l11.077 6.4.263.151a.508.508 0 0 0 .261.07.513.513 0 0 0 .263-.07l.263-.151 11.076-6.4.788-.453a.527.527 0 0 0 0-.91l-4.21-2.43-1.049.606 3.948 2.28-11.077 6.4-11.076-6.4 3.948-2.28-1.049-.606-3.948 2.28.261.151a.525.525 0 0 1 .263.455"/><path class="c3" d="M62.595 27.661a.526.526 0 0 0 .263-.455v-6.955a.524.524 0 0 1-.263.453l-.787.455v5.744l-11.077 6.4v.908a.525.525 0 0 1-.263.455l6.7-3.869 1.049-.607 4.115-2.379z"/><path class="c3" d="m43.415 30.894 6.526 3.768a.524.524 0 0 0 .787-.455v-6.652l-.261.151a.525.525 0 0 1-.525 0l-.263-.151v5.744l-11.076-6.4v-5.74l-.787-.455a.524.524 0 0 1 0-.908.525.525 0 0 0-.263.455v6.955a.525.525 0 0 0 .263.455l4.55 2.628z"/><path class="c3" d="M37.554 20.251a.528.528 0 0 0 .263.455l.787.453 11.077 6.4.263.151a.508.508 0 0 0 .261.07.513.513 0 0 0 .263-.07l.263-.151 11.076-6.4.788-.453a.527.527 0 0 0 0-.91l-.263-.151-11.865-6.848a.519.519 0 0 0-.524 0l-12.125 7a.524.524 0 0 0-.263.453m23.728 0-11.077 6.4-11.076-6.4 11.076-6.4zM86.059 8.433v5.744l-11.076 6.396v.908a.527.527 0 0 1-.261.455l6.861-3.965 1.051-.606 4.209-2.43a.523.523 0 0 0 .263-.455V7.528a.52.52 0 0 1-.263.453z"/><path class="c3" d="m67.329 17.971 6.867 3.964a.522.522 0 0 0 .524 0 .52.52 0 0 0 .263-.453v-6.654l-.263.152a.522.522 0 0 1-.524 0l-.263-.152v5.745l-11.077-6.4v-5.74l.146.083-.932-.538a.526.526 0 0 1 0-.908.524.524 0 0 0-.263.453v6.957a.528.528 0 0 0 .263.455l4.21 2.43z"/><path class="c3" d="M61.808 7.525a.528.528 0 0 0 .263.455l.932.538L73.93 14.83l.263.151a.508.508 0 0 0 .261.07.513.513 0 0 0 .263-.07l.263-.151 11.076-6.4.788-.453a.527.527 0 0 0 0-.91l-12.127-7a.519.519 0 0 0-.524 0l-12.127 7a.528.528 0 0 0-.263.455m23.728 0-11.077 6.4-11.076-6.4 11.076-6.4zM26.216 124.808a.526.526 0 0 0 .263-.455v-21.628a.528.528 0 0 1-.263.455l-.787.455v20.411l-11.077 6.4v.908a.525.525 0 0 1-.263.455l11.524-6.654z"/><path class="c3" d="M14.352 130.442v-20.413l-.263.152a.524.524 0 0 1-.261.07.53.53 0 0 1-.263-.07l-.263-.152v20.413l-11.076-6.4v-20.407l-.783-.455a.523.523 0 0 1-.261-.455v21.626a.524.524 0 0 0 .261.457l12.127 7a.53.53 0 0 0 .263.07.526.526 0 0 0 .524-.525z"/><path class="c3" d="m2.227 103.635 11.077 6.394.261.152a.525.525 0 0 0 .526 0l.261-.152 11.077-6.394.787-.455a.524.524 0 0 0 0-.908l-.787-.455-4.586-2.645-1.049.606 5.111 2.951-11.076 6.392-11.078-6.394 5.111-2.955-1.049-.6-5.37 3.1a.524.524 0 0 0 0 .908z"/><path class="c3" d="M26.216 96.068a.528.528 0 0 0 .263-.455v-6.955a.524.524 0 0 1-.263.453l-.787.455v5.744l-11.077 6.4v.908a.525.525 0 0 1-.263.455l5.706-3.298 1.049-.606 4.585-2.648z"/><path class="c3" d="m7.862 99.775 5.705 3.294a.518.518 0 0 0 .261.069.522.522 0 0 0 .526-.524v-6.652l-.263.151a.53.53 0 0 1-.263.07.519.519 0 0 1-.261-.07l-.263-.151v5.744l-11.077-6.4v-5.74l-.784-.455a.524.524 0 0 1-.263-.453v6.955a.528.528 0 0 0 .263.455l5.372 3.1z"/><path class="c3" d="m2.227 89.566 11.077 6.4.261.151a.525.525 0 0 0 .526 0l.261-.151 11.077-6.4.787-.455a.524.524 0 0 0 0-.908l-.787-.453-3.111-1.8-1.049.606 3.637 2.1-11.077 6.396-11.078-6.394 3.637-2.1-1.045-.606-3.9 2.252a.524.524 0 0 0 0 .908z"/><path class="c3" d="M26.216 83.701a.526.526 0 0 0 .263-.455v-6.955a.528.528 0 0 1-.263.455l-.787.453v5.744l-11.077 6.4v.908a.525.525 0 0 1-.263.455l7.178-4.145 1.049-.606 3.113-1.8z"/><path class="c3" d="m6.388 86.558 7.178 4.145a.528.528 0 0 0 .263.069.522.522 0 0 0 .524-.524v-6.653l-.263.151a.524.524 0 0 1-.261.07.53.53 0 0 1-.263-.07l-.263-.151v5.744L2.227 82.943v-5.744l-.784-.455a.52.52 0 0 1-.263-.453v6.955a.525.525 0 0 0 .263.455l3.9 2.251z"/><path class="c3" d="m2.227 77.2 11.077 6.4.263.151a.508.508 0 0 0 .261.07.513.513 0 0 0 .263-.07l.263-.151 11.076-6.4.788-.453a.527.527 0 0 0 0-.91l-.788-.453-11.339-6.547a.519.519 0 0 0-.524 0L1.443 75.836a.525.525 0 0 0 0 .91zm22.678-.908-11.076 6.394-11.076-6.395 11.076-6.4z"/></g></svg>
