<svg xmlns="http://www.w3.org/2000/svg" width="70" height="87.094"><defs><style>.c{fill:#fff}</style></defs><g transform="translate(-503.867 -1325.941)"><path class="c" d="M505.413 1398.902a1.418 1.418 0 0 0-1.28 0 .39.39 0 0 0 0 .74 1.417 1.417 0 0 0 1.28 0 .39.39 0 0 0 0-.74zm3.348-1.194a.39.39 0 0 0 0-.739 1.409 1.409 0 0 0-1.28 0 .39.39 0 0 0 0 .739 1.411 1.411 0 0 0 1.28 0zm-3.348-2.671a1.418 1.418 0 0 0-1.28 0 .391.391 0 0 0 0 .74 1.418 1.418 0 0 0 1.28 0 .39.39 0 0 0 0-.74zm30.289 17.106a1.418 1.418 0 0 0-1.28 0 .39.39 0 0 0 0 .74 1.416 1.416 0 0 0 1.28 0 .39.39 0 0 0 0-.74zm3.348-1.933a1.41 1.41 0 0 0-1.28 0 .39.39 0 0 0 0 .739 1.41 1.41 0 0 0 1.28 0 .39.39 0 0 0 0-.739zm-10.043 1.933a1.418 1.418 0 0 0-1.28 0 .39.39 0 0 0 0 .74 1.416 1.416 0 0 0 1.28 0 .39.39 0 0 0 0-.74zm3.347-1.933a1.41 1.41 0 0 0-1.28 0 .39.39 0 0 0 0 .739 1.41 1.41 0 0 0 1.28 0 .39.39 0 0 0 0-.739zm3.348-1.932a1.417 1.417 0 0 0-1.28 0 .389.389 0 0 0 0 .738 1.409 1.409 0 0 0 1.28 0 .389.389 0 0 0 0-.738zm3.348-1.934a1.417 1.417 0 0 0-1.28 0 .39.39 0 0 0 0 .74 1.419 1.419 0 0 0 1.28 0 .391.391 0 0 0 0-.74zm-13.391 3.866a1.41 1.41 0 0 0-1.28 0 .39.39 0 0 0 0 .739 1.41 1.41 0 0 0 1.28 0 .39.39 0 0 0 0-.739zm3.348-1.932a1.417 1.417 0 0 0-1.28 0 .389.389 0 0 0 0 .738 1.408 1.408 0 0 0 1.28 0 .389.389 0 0 0 0-.738zm-6.696 0a1.417 1.417 0 0 0-1.28 0 .389.389 0 0 0 0 .738 1.408 1.408 0 0 0 1.28 0 .389.389 0 0 0 0-.738zm3.348-1.934a1.417 1.417 0 0 0-1.28 0 .391.391 0 0 0 0 .74 1.419 1.419 0 0 0 1.28 0 .39.39 0 0 0 0-.74zm-6.724-.02a1.42 1.42 0 0 0-1.281 0 .391.391 0 0 0 0 .74 1.421 1.421 0 0 0 1.281 0 .391.391 0 0 0 0-.74zm2.067-1.193a1.41 1.41 0 0 0 1.28 0 .39.39 0 0 0 0-.739 1.41 1.41 0 0 0-1.28 0 .39.39 0 0 0 0 .739zm-5.416-.739a1.41 1.41 0 0 0-1.28 0 .39.39 0 0 0 0 .739 1.41 1.41 0 0 0 1.28 0 .39.39 0 0 0 0-.739zm3.349-1.933a1.421 1.421 0 0 0-1.281 0 .39.39 0 0 0 0 .739 1.413 1.413 0 0 0 1.281 0 .39.39 0 0 0 0-.739zm-6.695 0a1.421 1.421 0 0 0-1.281 0 .39.39 0 0 0 0 .739 1.413 1.413 0 0 0 1.281 0 .39.39 0 0 0 0-.739zm3.346-1.933a1.417 1.417 0 0 0-1.28 0 .39.39 0 0 0 0 .74 1.419 1.419 0 0 0 1.28 0 .39.39 0 0 0 0-.74zm-6.694 0a1.42 1.42 0 0 0-1.281 0 .391.391 0 0 0 0 .74 1.422 1.422 0 0 0 1.281 0 .391.391 0 0 0 0-.74zm3.348-1.933a1.414 1.414 0 0 0-1.281 0 .39.39 0 0 0 0 .739 1.411 1.411 0 0 0 1.281 0 .39.39 0 0 0 0-.739zm26.677-26.733a1.416 1.416 0 0 0-1.28 0 .391.391 0 0 0 0 .74c.354.203 1.634-.535 1.28-.74zm-4.625-1.193a1.412 1.412 0 0 0 1.281 0 .391.391 0 0 0 0-.74 1.419 1.419 0 0 0-1.281 0 .391.391 0 0 0 0 .74zm4.625-2.672a1.418 1.418 0 0 0-1.28 0 .391.391 0 0 0 0 .74 1.419 1.419 0 0 0 1.28 0 .39.39 0 0 0 0-.74zm-6.696.74a.391.391 0 0 0 0-.74 1.418 1.418 0 0 0-1.28 0 .39.39 0 0 0 0 .74 1.419 1.419 0 0 0 1.28 0zm2.071-1.934a1.421 1.421 0 0 0 1.281 0 .391.391 0 0 0 0-.74 1.421 1.421 0 0 0-1.281 0 .391.391 0 0 0 0 .74z"/><ellipse class="c" cx=".905" cy=".522" rx=".905" ry=".522" transform="translate(537.372 1363.976)"/><path class="c" d="M528.844 1366.781a.39.39 0 0 0 0-.74 1.418 1.418 0 0 0-1.28 0 .39.39 0 0 0 0 .74 1.42 1.42 0 0 0 1.28 0zm-3.346-1.937a.391.391 0 0 0 0-.74 1.416 1.416 0 0 0-1.281 0 .39.39 0 0 0 0 .739 1.421 1.421 0 0 0 1.281.001zm-3.348-1.929a.39.39 0 0 0 0-.739 1.413 1.413 0 0 0-1.281 0 .39.39 0 0 0 0 .739 1.411 1.411 0 0 0 1.281 0zm-7.976 0a1.411 1.411 0 0 0 1.281 0 .39.39 0 0 0 0-.739 1.413 1.413 0 0 0-1.281 0 .39.39 0 0 0 0 .739zm4.628-1.931a.391.391 0 0 0 0-.74 1.418 1.418 0 0 0-1.28 0 .39.39 0 0 0 0 .74 1.417 1.417 0 0 0 1.28 0zm-7.976 0a1.42 1.42 0 0 0 1.281 0 .391.391 0 0 0 0-.74 1.421 1.421 0 0 0-1.281 0 .391.391 0 0 0 0 .74zm3.348-1.934a1.412 1.412 0 0 0 1.281 0 .389.389 0 0 0 0-.738 1.411 1.411 0 0 0-1.281 0 .39.39 0 0 0 0 .738zm-3.348-1.932a1.419 1.419 0 0 0 1.281 0 .391.391 0 0 0 0-.74 1.42 1.42 0 0 0-1.281 0 .391.391 0 0 0 0 .74zm26.539 4.499c-.962-4.1-2.867-9.426-6.475-11.565l-1.909-1.138-.173-1.807c.116-.067.234-.136.349-.21l.112-.077a2.643 2.643 0 0 0 1.227-1.743l1.259-5.588c.04-.148.075-.3.124-.551l.064-.322-.021-.015a7.238 7.238 0 0 0 .057-.816 13.824 13.824 0 0 0-6.117-10.888c-1.646-.974-3.031-1.2-4.209-.7l-.282.113a3.072 3.072 0 0 0-.387.213l-2.836 1.565-.083.045-.016.033a4.715 4.715 0 0 0-1.952 4.2 6.791 6.791 0 0 0 .06 1.166l.028.242c.02.154.041.262.066.387l1.132 7.1a9.495 9.495 0 0 0 .491 1.806 3.1 3.1 0 0 0-1.281.29l-3.392 1.864v.005a8.08 8.08 0 0 0-2.958 4.238c-.5 1.391.462 3.616 1.943 4.493l19.663 11.661a2.176 2.176 0 0 0 1.1.337 1.416 1.416 0 0 0 .85-.273c.017-.012.025-.032.043-.045s.06-.008.086-.022l2.713-1.511a2.152 2.152 0 0 0 .724-2.487zm-15.876-34.255c.093-.062.193-.115.321-.185l.186-.064c.906-.385 2.008-.178 3.366.627a12.893 12.893 0 0 1 5.427 8.132l-2.072 1.311a13.989 13.989 0 0 0-5.844-8.617 6.658 6.658 0 0 0-2.076-.823zm-4.92 17.115.427-.219a2.205 2.205 0 0 1 1.28-.214 11.512 11.512 0 0 0 .762 1.414l-.145.962c-.093-.06-.192-.121-.293-.185a52.793 52.793 0 0 0-1.206-.748 5.378 5.378 0 0 0-1.531-.617zm16.657 20.427c-.194.141-.514.1-.876-.117l-19.663-11.661a3.4 3.4 0 0 1-1.522-3.322c.542-1.5 1.5-3.409 2.981-3.94a2.423 2.423 0 0 1 .83-.144 3.816 3.816 0 0 1 1.92.608c.355.212.784.482 1.183.734.359.226.7.438.94.583l.625.371.418-2.79-.108-.158a10.41 10.41 0 0 1-1.6-3.944l-1.106-6.961-.036-.185c-.02-.1-.039-.194-.053-.315l-.048-.322a6.783 6.783 0 0 1-.033-.954c.019-1.669.569-2.893 1.551-3.443s2.313-.387 3.748.464a12.734 12.734 0 0 1 5.639 10.034 6.6 6.6 0 0 1-.089.978l-.016.1a4.723 4.723 0 0 1-.091.4l-1.269 5.617a2.35 2.35 0 0 1-1.469 1.521l-.3.15.287 2.962 2.335 1.391c3.489 2.07 5.269 7.748 6.021 10.948.184.785.008 1.242-.2 1.391zm.4-4.326c-1.1-3.49-2.874-7.168-5.725-8.859l-1.879-1.119 2.026-1.131v.033l2.336 1.39c2.714 1.61 4.392 5.4 5.358 8.518zm-1.963 46.607c.031-.013.067-.008.1-.025l2.966-1.653a2.307 2.307 0 0 0 .765-2.68c-1.051-4.471-3.128-10.289-7.06-12.622l-2.108-1.255-.2-2.031c.136-.076.271-.157.406-.243l.121-.083a2.855 2.855 0 0 0 1.324-1.88l1.376-6.113c.043-.161.08-.325.108-.478l.092-.454-.021-.015a7.93 7.93 0 0 0 .065-.907 13.468 13.468 0 0 0-1.534-5.948 1.366 1.366 0 0 0 .81-.134.39.39 0 0 0 0-.74 1.416 1.416 0 0 0-1.257-.008 13.858 13.858 0 0 0-4.688-5.039c-1.786-1.059-3.294-1.3-4.563-.761l-.307.124a3.37 3.37 0 0 0-.421.23l-3.179 1.755-.008.015c-1.351.809-2.11 2.43-2.136 4.588a7.588 7.588 0 0 0 .067 1.272l.031.258c.021.178.045.3.075.447l1.237 7.748a10.25 10.25 0 0 0 .554 2.025 3.347 3.347 0 0 0-1.444.315l-3.661 2.022v.007c-1.629.934-2.664 2.979-3.26 4.632-.54 1.5.5 3.909 2.106 4.859l21.509 12.756a2.349 2.349 0 0 0 1.183.362 1.5 1.5 0 0 0 .9-.29c.023-.018.033-.042.052-.056zm-13.521-41.87c.106-.069.218-.129.362-.209l.2-.068c1.006-.427 2.221-.2 3.72.688a13.924 13.924 0 0 1 5.528 7.319l-2.4 1.392a14.967 14.967 0 0 0-5.9-7.729 7.065 7.065 0 0 0-2.383-.917zm-5.418 18.74.51-.262a2.437 2.437 0 0 1 1.458-.229 12.461 12.461 0 0 0 .845 1.572l-.169 1.139a49.46 49.46 0 0 1-.381-.239c-.446-.281-.922-.582-1.319-.817a5.732 5.732 0 0 0-1.775-.7zm18.311 22.4c-.225.166-.595.12-1.006-.126l-21.509-12.755c-1.184-.7-2.066-2.632-1.687-3.687.6-1.655 1.654-3.752 3.29-4.339a2.693 2.693 0 0 1 .921-.158 4.2 4.2 0 0 1 2.124.671c.391.231.86.527 1.3.8.391.249.758.48 1.027.639l.627.37.442-2.966-.109-.158a11.435 11.435 0 0 1-1.76-4.332l-1.211-7.618-.033-.176c-.024-.124-.045-.225-.064-.373l-.051-.35a7.578 7.578 0 0 1-.039-1.051c.021-1.842.632-3.192 1.722-3.805s2.563-.431 4.147.509a13.981 13.981 0 0 1 6.188 11.015 7.122 7.122 0 0 1-.1 1.078l-.019.118a5.89 5.89 0 0 1-.1.438l-1.381 6.135a2.607 2.607 0 0 1-1.631 1.7l-.3.15.307 3.187 2.535 1.509c3.831 2.271 5.784 8.5 6.608 12 .169.722.077 1.335-.238 1.569zm-5.872-14.419-2.077-1.236 2.307-1.289v.035l2.535 1.509c3.054 1.811 4.912 6.135 5.96 9.593l-2.388 1.337c-1.186-3.897-3.153-8.07-6.337-9.955zm14.802-2.864a1.41 1.41 0 0 0-1.28 0 .391.391 0 0 0 0 .74 1.418 1.418 0 0 0 1.28 0 .39.39 0 0 0 0-.74zm3.351-1.189a.391.391 0 0 0 0-.74 1.418 1.418 0 0 0-1.28 0 .391.391 0 0 0 0 .74 1.417 1.417 0 0 0 1.28 0zm-3.351-2.671a1.409 1.409 0 0 0-1.28 0 .39.39 0 0 0 0 .739 1.41 1.41 0 0 0 1.28 0 .39.39 0 0 0 0-.739zm30.289 17.105a1.415 1.415 0 0 0-1.279 0 .389.389 0 0 0 0 .739 1.407 1.407 0 0 0 1.279 0 .389.389 0 0 0 0-.739zm3.349-1.936a1.421 1.421 0 0 0-1.281 0 .391.391 0 0 0 0 .74 1.422 1.422 0 0 0 1.281 0 .391.391 0 0 0 0-.74zm-10.043 1.936a1.42 1.42 0 0 0-1.281 0 .391.391 0 0 0 0 .74 1.421 1.421 0 0 0 1.281 0 .391.391 0 0 0 0-.74zm3.348-1.936a1.421 1.421 0 0 0-1.281 0 .391.391 0 0 0 0 .74 1.422 1.422 0 0 0 1.281 0 .391.391 0 0 0 0-.74zm3.346-1.93a1.407 1.407 0 0 0-1.279 0 .389.389 0 0 0 0 .739 1.408 1.408 0 0 0 1.279 0 .389.389 0 0 0 0-.739zm2.068-1.193a1.421 1.421 0 0 0 1.281 0 .391.391 0 0 0 0-.74 1.421 1.421 0 0 0-1.281 0 .391.391 0 0 0 0 .74zm-12.108 3.123a1.421 1.421 0 0 0-1.281 0 .391.391 0 0 0 0 .74 1.422 1.422 0 0 0 1.281 0 .391.391 0 0 0 0-.74zm3.346-1.93a1.413 1.413 0 0 0-1.281 0 .39.39 0 0 0 0 .739 1.413 1.413 0 0 0 1.281 0 .39.39 0 0 0 0-.739zm-6.695 0a1.41 1.41 0 0 0-1.28 0 .39.39 0 0 0 0 .739 1.411 1.411 0 0 0 1.28 0 .39.39 0 0 0 0-.739zm3.349-1.93a1.421 1.421 0 0 0-1.281 0 .391.391 0 0 0 0 .74 1.421 1.421 0 0 0 1.281 0 .391.391 0 0 0 0-.74zm-6.726-.023a1.41 1.41 0 0 0-1.28 0 .39.39 0 0 0 0 .739 1.409 1.409 0 0 0 1.28 0 .39.39 0 0 0 0-.739zm2.067-1.193a1.417 1.417 0 0 0 1.28 0 .39.39 0 0 0 0-.74 1.419 1.419 0 0 0-1.28 0 .391.391 0 0 0 0 .74zm-5.415-.74a1.419 1.419 0 0 0-1.28 0 .391.391 0 0 0 0 .74 1.417 1.417 0 0 0 1.28 0 .39.39 0 0 0 0-.74zm3.348-1.933a1.409 1.409 0 0 0-1.28 0 .389.389 0 0 0 0 .738 1.408 1.408 0 0 0 1.28 0 .39.39 0 0 0 0-.738zm-6.696 0a1.409 1.409 0 0 0-1.28 0 .389.389 0 0 0 0 .738 1.408 1.408 0 0 0 1.28 0 .389.389 0 0 0 0-.738zm3.348-1.932a1.417 1.417 0 0 0-1.28 0 .39.39 0 0 0 0 .74 1.417 1.417 0 0 0 1.28 0 .39.39 0 0 0 0-.74zm-6.691 0a1.417 1.417 0 0 0-1.28 0 .39.39 0 0 0 0 .74 1.417 1.417 0 0 0 1.28 0 .39.39 0 0 0 0-.74zm3.343-1.933a1.409 1.409 0 0 0-1.28 0 .39.39 0 0 0 0 .739 1.418 1.418 0 0 0 1.28 0 .39.39 0 0 0 0-.739zm19.423 8.592c.032-.013.068-.009.1-.025l2.966-1.654a2.308 2.308 0 0 0 .765-2.678c-1.051-4.471-3.13-10.289-7.06-12.622l-2.108-1.255-.2-2.032a6.03 6.03 0 0 0 .406-.242l.122-.084a2.843 2.843 0 0 0 1.323-1.879l1.376-6.112c.044-.161.081-.325.109-.479l.092-.452-.021-.015a8.249 8.249 0 0 0 .065-.907 15.07 15.07 0 0 0-6.67-11.869c-1.786-1.059-3.294-1.3-4.561-.761l-.307.123a3.309 3.309 0 0 0-.421.232l-3.18 1.754-.007.015c-1.352.81-2.112 2.431-2.137 4.589a7.6 7.6 0 0 0 .067 1.272l.031.258c.023.178.047.3.076.447l1.236 7.748a10.347 10.347 0 0 0 .555 2.025 3.334 3.334 0 0 0-1.445.315l-3.664 2.016v.007c-1.629.934-2.662 2.979-3.259 4.63-.542 1.5.5 3.91 2.106 4.86l21.509 12.756a2.353 2.353 0 0 0 1.183.361 1.5 1.5 0 0 0 .9-.289c.025-.013.035-.038.053-.053zm-13.52-41.874c.106-.069.217-.129.362-.209l.2-.068c1.006-.427 2.221-.2 3.722.687a13.937 13.937 0 0 1 5.527 7.321l-2.4 1.392a14.969 14.969 0 0 0-5.9-7.729 7.038 7.038 0 0 0-2.382-.917zm-5.419 18.74.511-.264a2.441 2.441 0 0 1 1.457-.227 12.309 12.309 0 0 0 .846 1.571l-.169 1.139a22.435 22.435 0 0 1-.381-.241c-.446-.281-.922-.58-1.32-.816a5.73 5.73 0 0 0-1.775-.7zm18.313 22.4c-.226.166-.6.12-1.007-.126l-21.509-12.755c-1.184-.7-2.065-2.632-1.686-3.687.6-1.655 1.653-3.752 3.289-4.34a2.732 2.732 0 0 1 .921-.158 4.213 4.213 0 0 1 2.125.672c.39.232.86.527 1.3.8.393.247.758.479 1.027.639l.627.37.442-2.966-.108-.16a11.461 11.461 0 0 1-1.762-4.332l-1.21-7.616-.035-.176c-.024-.125-.044-.226-.063-.374l-.052-.349a7.777 7.777 0 0 1-.037-1.051c.021-1.841.632-3.192 1.722-3.805s2.561-.431 4.146.51a13.977 13.977 0 0 1 6.188 11.014 7.107 7.107 0 0 1-.1 1.077l-.019.12a5.031 5.031 0 0 1-.1.438l-1.382 6.135a2.606 2.606 0 0 1-1.631 1.7l-.3.15.307 3.185 2.536 1.51c3.829 2.271 5.784 8.5 6.606 12 .17.724.078 1.342-.236 1.573zm-5.872-14.419-2.077-1.237 2.306-1.288v.033l2.536 1.509c3.054 1.812 4.911 6.136 5.958 9.595l-2.383 1.334c-1.192-3.89-3.157-8.06-6.341-9.953z"/></g></svg>
