<svg xmlns="http://www.w3.org/2000/svg" width="64.536" height="68.284"><defs><style>.c{fill:#fff}</style></defs><g transform="translate(-135.952 -2262.188)"><path class="c" d="M179.37 2329.546a1.475 1.475 0 0 0-1.328 0 .4.4 0 0 0 0 .767 1.461 1.461 0 0 0 1.328 0 .4.4 0 0 0 0-.767zm3.473-2.007a1.464 1.464 0 0 0-1.328 0 .4.4 0 0 0 0 .767 1.47 1.47 0 0 0 1.328 0 .4.4 0 0 0 0-.767zm3.475-2.005a1.47 1.47 0 0 0-1.328 0 .4.4 0 0 0 0 .767 1.472 1.472 0 0 0 1.328 0 .405.405 0 0 0 0-.767zm3.472-2.005a1.464 1.464 0 0 0-1.328 0 .405.405 0 0 0 0 .767 1.472 1.472 0 0 0 1.328 0 .4.4 0 0 0 0-.767zm3.475-2.005a1.464 1.464 0 0 0-1.328 0 .4.4 0 0 0 0 .767 1.472 1.472 0 0 0 1.328 0 .4.4 0 0 0 0-.767z"/><ellipse class="c" cx=".94" cy=".542" rx=".94" ry=".542" transform="translate(195.135 2319.359)"/><path class="c" d="M200.214 2317.512a1.461 1.461 0 0 0-1.328 0 .4.4 0 0 0 0 .767 1.472 1.472 0 0 0 1.328 0 .405.405 0 0 0 0-.767zm-27.793 12.034a1.475 1.475 0 0 0-1.328 0 .405.405 0 0 0 0 .767 1.461 1.461 0 0 0 1.328 0 .4.4 0 0 0 0-.767zm3.474-2.006a1.472 1.472 0 0 0-1.328 0 .4.4 0 0 0 0 .767 1.47 1.47 0 0 0 1.328 0 .4.4 0 0 0 0-.767zm3.475-2.006a1.47 1.47 0 0 0-1.328 0 .4.4 0 0 0 0 .767 1.472 1.472 0 0 0 1.328 0 .4.4 0 0 0 0-.767zm3.473-2.005a1.464 1.464 0 0 0-1.328 0 .4.4 0 0 0 0 .767 1.472 1.472 0 0 0 1.328 0 .4.4 0 0 0 0-.767zm3.475-2.005a1.464 1.464 0 0 0-1.328 0 .4.4 0 0 0 0 .767 1.472 1.472 0 0 0 1.328 0 .405.405 0 0 0 0-.767zm3.472-2.005a1.458 1.458 0 0 0-1.328 0 .4.4 0 0 0 0 .766 1.47 1.47 0 0 0 1.328 0 .4.4 0 0 0 0-.766zm3.475-2.007a1.461 1.461 0 0 0-1.328 0 .4.4 0 0 0 0 .767 1.472 1.472 0 0 0 1.328 0 .4.4 0 0 0 0-.767zm3.474-2.007a1.473 1.473 0 0 0-1.328 0 .406.406 0 0 0 0 .768 1.47 1.47 0 0 0 1.328 0 .406.406 0 0 0 0-.768zm3.475-2.003a1.473 1.473 0 0 0-1.328 0 .4.4 0 0 0 0 .767 1.463 1.463 0 0 0 1.328 0 .405.405 0 0 0 0-.767zm-34.74 16.044a1.475 1.475 0 0 0-1.328 0 .4.4 0 0 0 0 .767 1.461 1.461 0 0 0 1.328 0 .405.405 0 0 0 0-.767zm3.474-2.006a1.472 1.472 0 0 0-1.328 0 .4.4 0 0 0 0 .767 1.47 1.47 0 0 0 1.328 0 .405.405 0 0 0 0-.767zm3.473-2.006a1.47 1.47 0 0 0-1.328 0 .405.405 0 0 0 0 .767 1.472 1.472 0 0 0 1.328 0 .4.4 0 0 0 0-.767z"/><ellipse class="c" cx=".94" cy=".543" rx=".94" ry=".543" transform="translate(174.291 2323.37)"/><path class="c" d="M179.37 2321.524a1.464 1.464 0 0 0-1.328 0 .4.4 0 0 0 0 .767 1.472 1.472 0 0 0 1.328 0 .4.4 0 0 0 0-.767zm3.473-2.005a1.458 1.458 0 0 0-1.328 0 .4.4 0 0 0 0 .766 1.47 1.47 0 0 0 1.328 0 .4.4 0 0 0 0-.766zm3.475-2.007a1.461 1.461 0 0 0-1.328 0 .4.4 0 0 0 0 .767 1.472 1.472 0 0 0 1.328 0 .405.405 0 0 0 0-.767zm3.472-2.007a1.473 1.473 0 0 0-1.328 0 .406.406 0 0 0 0 .768 1.47 1.47 0 0 0 1.328 0 .406.406 0 0 0 0-.768zm3.475-2.003a1.473 1.473 0 0 0-1.328 0 .4.4 0 0 0 0 .767 1.463 1.463 0 0 0 1.328 0 .4.4 0 0 0 0-.767zm3.474-2.007a1.47 1.47 0 0 0-1.328 0 .4.4 0 0 0 0 .767 1.464 1.464 0 0 0 1.328 0 .4.4 0 0 0 0-.767z"/><ellipse class="c" cx=".94" cy=".542" rx=".94" ry=".542" transform="translate(198.609 2309.33)"/><path class="c" d="M158.525 2329.546a1.475 1.475 0 0 0-1.328 0 .405.405 0 0 0 0 .767 1.461 1.461 0 0 0 1.328 0 .4.4 0 0 0 0-.767z"/><ellipse class="c" cx=".939" cy=".543" rx=".939" ry=".543" transform="translate(160.396 2327.381)"/><ellipse class="c" cx=".94" cy=".543" rx=".94" ry=".543" transform="translate(163.87 2325.376)"/><ellipse class="c" cx=".939" cy=".543" rx=".939" ry=".543" transform="translate(167.344 2323.37)"/><path class="c" d="M196.739 2307.483a1.473 1.473 0 0 0-1.328 0 .4.4 0 0 0 0 .767 1.47 1.47 0 0 0 1.328 0 .4.4 0 0 0 0-.767zm2.146-1.238a1.466 1.466 0 0 0 1.328 0 .405.405 0 0 0 0-.767 1.47 1.47 0 0 0-1.328 0 .4.4 0 0 0 0 .767zm-43.832 21.295a1.475 1.475 0 0 0-1.33 0 .405.405 0 0 0 0 .767 1.466 1.466 0 0 0 1.33 0 .405.405 0 0 0 0-.767z"/><ellipse class="c" cx=".94" cy=".543" rx=".94" ry=".543" transform="translate(156.922 2325.376)"/><path class="c" d="M161.999 2323.529a1.472 1.472 0 0 0-1.328 0 .4.4 0 0 0 0 .767 1.473 1.473 0 0 0 1.328 0 .4.4 0 0 0 0-.767zm34.74-20.056a1.46 1.46 0 0 0-1.328 0 .4.4 0 0 0 0 .767 1.47 1.47 0 0 0 1.328 0 .4.4 0 0 0 0-.767z"/><ellipse class="c" cx=".94" cy=".543" rx=".94" ry=".543" transform="translate(149.974 2325.376)"/><path class="c" d="M155.053 2323.529a1.475 1.475 0 0 0-1.33 0 .405.405 0 0 0 0 .767 1.476 1.476 0 0 0 1.33 0 .4.4 0 0 0 0-.767zm41.686-24.064a1.463 1.463 0 0 0-1.328 0 .4.4 0 0 0 0 .767 1.472 1.472 0 0 0 1.328 0 .4.4 0 0 0 0-.767zm-48.635 24.064a1.472 1.472 0 0 0-1.328 0 .4.4 0 0 0 0 .767 1.473 1.473 0 0 0 1.328 0 .405.405 0 0 0 0-.767z"/><ellipse class="c" cx=".939" cy=".542" rx=".939" ry=".542" transform="translate(149.974 2321.365)"/><ellipse class="c" cx=".939" cy=".542" rx=".939" ry=".542" transform="translate(143.026 2321.365)"/><path class="c" d="M148.104 2319.519a1.458 1.458 0 0 0-1.328 0 .4.4 0 0 0 0 .766 1.47 1.47 0 0 0 1.328 0 .4.4 0 0 0 0-.766z"/><ellipse class="c" cx=".939" cy=".542" rx=".939" ry=".542" transform="translate(139.522 2319.338)"/><path class="c" d="M143.271 2318.258a1.472 1.472 0 0 0 1.328 0 .4.4 0 0 0 0-.767 1.47 1.47 0 0 0-1.328 0 .4.4 0 0 0 0 .767zm-5.618-.767a1.47 1.47 0 0 0-1.328 0 .4.4 0 0 0 0 .767 1.463 1.463 0 0 0 1.328 0 .4.4 0 0 0 0-.767z"/><ellipse class="c" cx=".939" cy=".542" rx=".939" ry=".542" transform="translate(139.522 2315.327)"/><path class="c" d="M137.653 2313.481a1.461 1.461 0 0 0-1.328 0 .4.4 0 0 0 0 .767 1.47 1.47 0 0 0 1.328 0 .4.4 0 0 0 0-.767zm-.096-3.433a.406.406 0 0 0 0-.769 1.475 1.475 0 0 0-1.33 0 .406.406 0 0 0 0 .769 1.473 1.473 0 0 0 1.33 0zm31.582 6.842v-.887c-.991.068-2 .11-3.017.11-.323 0-.637-.023-.958-.03v4.737c.321.007.635.03.958.03 1.022 0 2.026-.045 3.017-.114zm-27.81-10.734c-.25-.2-.5-.405-.738-.616a19.054 19.054 0 0 1-.9-.87v.009c0 8.176 9.977 14.938 22.868 16.007v-4.734c-9.456-.775-17.39-4.575-21.23-9.796zm48.583 1.244-.068.071.049-.034z"/><path class="c" d="M192.149 2296.369a11.39 11.39 0 0 0-1.169-2.726c-.065.059-.14.114-.207.172-.175.155-.359.3-.543.453v1.532c0 9.391-12.242 17.03-27.288 17.03a37.383 37.383 0 0 1-18.6-4.6c4.771 4.239 12.748 7.027 21.777 7.027 14.574 0 26.431-7.254 26.431-16.171a10.1 10.1 0 0 0-.401-2.717z"/><path class="c" d="M136.512 2295.801c0 8.176 9.979 14.937 22.868 16.007v-4.735c-11.164-.915-20.2-6.047-22.886-12.747.007.024.012.047.017.07zm25.473 11.403v4.738c.32.007.634.031.958.031 1.022 0 2.026-.045 3.017-.115v-4.733c-.991.068-2 .11-3.017.11-.324-.001-.638-.024-.958-.031zm24.748-8.681c-.022.023-.048.046-.069.07l.049-.034z"/><path class="c" d="M162.943 2306.376c11.1 0 20.608-4.216 24.518-10.163a34.947 34.947 0 0 1-13.68 4.451 34.023 34.023 0 0 1-10.838 1.712c-10.948 0-20.018-4.778-21.607-10.984l-.007-.01c-.006-.023-.007-.042-.013-.064a7.771 7.771 0 0 1-.163-.829 6.809 6.809 0 0 1-.09-1.03 7.938 7.938 0 0 1 .572-2.889 10.793 10.793 0 0 1-.356-2.614v-2.987a13.677 13.677 0 0 0-4.363 6.519 10.128 10.128 0 0 0-.4 2.717c-.004 8.917 11.857 16.171 26.427 16.171z"/><path class="c" d="M171.584 2300.012v-4.733c-.993.068-2 .11-3.018.11-.323 0-.637-.023-.958-.031v4.738c.321.008.635.031.958.031a46.012 46.012 0 0 0 3.018-.115zm-3.018-37.824c-13.056 0-23.9 5.829-26.026 13.453a10.143 10.143 0 0 0-.4 2.719c0 8.918 11.857 16.172 26.429 16.172S195 2287.278 195 2278.36a10.062 10.062 0 0 0-.4-2.716c-2.129-7.626-12.975-13.456-26.034-13.456zm21.88 15.427a6.826 6.826 0 0 1-.088 1.029 8.236 8.236 0 0 1-.161.813c-.007.029-.009.052-.016.08l-.007.009c-1.587 6.207-10.657 10.987-21.608 10.987s-20.015-4.778-21.605-10.982l-.007-.012c-.007-.025-.007-.045-.013-.068a7.655 7.655 0 0 1-.165-.822 6.855 6.855 0 0 1-.088-1.033c0-4.9 4.639-9.165 11.459-11.356a35.551 35.551 0 0 1 20.841 0c6.82 2.191 11.459 6.459 11.459 11.356zm1.841 9.131.051-.035.02-.038c-.022.026-.048.049-.071.073z"/><path class="c" d="m142.119 2282.479.017.072v1.4c0 8.176 9.977 14.937 22.868 16.006v-4.735c-11.163-.909-20.199-6.042-22.885-12.743zm26.446-13.287c-.6 0-1.2.018-1.8.048a9.748 9.748 0 0 1 1.955.5v3.02l-2.414 1.867.608.34a19.844 19.844 0 0 1 6.788-1.316 11.145 11.145 0 0 1 5.08 1.41c1.8 1 2.8 2.211 2.969 3.587.006.041-.006.081 0 .121l.026.011v2.679l-.137.592a3.9 3.9 0 0 1-.34.837l1.02.48v2.9l-2.4 1.434-2.561-1.43a14.037 14.037 0 0 1-5.611 1.236 16.12 16.12 0 0 1-6.3-1.279l-.268-.108v-2.893l1.205-.708 1.83-1.352-.059-.033a17.641 17.641 0 0 1-6.267.987 11.883 11.883 0 0 1-5.276-1.451c-1.648-.92-2.537-2.039-2.642-3.325l-.01-2.646.038-.02a3.3 3.3 0 0 1 .566-1.587v-.785c-3.519 1.819-5.992 4.308-6.743 7.141 1.548 5.78 10.249 10.225 20.75 10.225s19.2-4.443 20.751-10.223c-1.558-5.854-10.444-10.259-20.758-10.259z"/><path class="c" d="M174.811 2266.098a35.579 35.579 0 0 0-6.245-.542c-1.215 0-2.4.072-3.561.187v2.759a37.728 37.728 0 0 1 3.561-.169c9.961 0 18.4 3.846 21.021 9.356v-.073c.001-5.405-6.224-9.989-14.776-11.518zm-17.784 11.613a11.043 11.043 0 0 0 4.9 1.344 16.91 16.91 0 0 0 6.131-1l.179-.061 6.995 3.906-1.111.242a8.652 8.652 0 0 1-1.068.142 10.726 10.726 0 0 1-1.56.011 10.16 10.16 0 0 1-2.642-.531l-2.363 1.745c.22.079.438.137.658.207a14.367 14.367 0 0 0 4.586.73 13.164 13.164 0 0 0 5.46-1.247l.2-.092 2.511 1.4.456-.271.848-.5-1.577-.765-1.111-.54.5-.4c1.375-1.094 2.006-2.189 1.881-3.257a.091.091 0 0 0 0-.019c-.135-1.089-.988-2.079-2.535-2.943a10.315 10.315 0 0 0-4.694-1.3 19.618 19.618 0 0 0-6.658 1.333l-.182.063-4.681-2.615-1.888-1.055 1.064-.257a6.859 6.859 0 0 1 3.891.2l1.366-1.051 1.019-.786a13.108 13.108 0 0 0-4.273-.456 12.025 12.025 0 0 0-4.8 1.178l-.2.094-1.356-.755-1.13.673.482.269.835.466-.544.4a6.55 6.55 0 0 0-.535.454 3.46 3.46 0 0 0-1.208 1.818 2.158 2.158 0 0 0-.055.592c.083.972.824 1.863 2.209 2.634zm19.708 3a3.135 3.135 0 0 1-.246.258l-.227.2-4.859-2.713-1.686-.942.922-.307a8.25 8.25 0 0 1 2.962-.5 5.244 5.244 0 0 1 2.34.631 2.463 2.463 0 0 1 1.391 1.7 1.947 1.947 0 0 1-.598 1.672zm-11.347-4.312-1.061.26a9.014 9.014 0 0 1-1 .188 7.58 7.58 0 0 1-.954.064c-.182 0-.36-.008-.535-.024a4.916 4.916 0 0 1-1.981-.557 2.655 2.655 0 0 1-.958-.859 1.907 1.907 0 0 1-.243-.506 1.776 1.776 0 0 1 .418-1.688l.229-.275z"/></g></svg>
