<svg xmlns="http://www.w3.org/2000/svg" width="43.141" height="80.85"><defs><style>.c{fill:#fff}</style></defs><g transform="translate(-46.246 -2256.162)"><path class="c" d="M78.677 2297.338v-2.295a8.689 8.689 0 0 1-3.238-.995l-25.545-14.788a4.669 4.669 0 0 1-1.228-1.028 2.462 2.462 0 0 0 .074 1.736v31.878a2.673 2.673 0 0 0 1.588 2.377l17.04 9.865a25.419 25.419 0 0 0 7.527 2.882l.06.013a3.089 3.089 0 0 0 3.722-3.022zm-13.027 7.949a1.859 1.859 0 0 1-.2.2 2 2 0 0 1-1.252.4v6.79l-2.634-1.521v-6.64a6.976 6.976 0 0 1-1.988-4.512 2.465 2.465 0 0 1 1.075-2.271 2.151 2.151 0 0 1 1.781-.116 3.726 3.726 0 0 1 .721.321 6.853 6.853 0 0 1 3.144 5.444 3.206 3.206 0 0 1-.263 1.315 2.12 2.12 0 0 1-.384.59zm22.925 20.397.134.007zm-.285-35.875a2.731 2.731 0 0 0-1.6-2.257l-4.226-2.446v2.765a2.574 2.574 0 0 1-2.572 2.572h-1.959a2.574 2.574 0 0 1-2.572-2.572v-6.877l-13.185-7.633v2.8a2.575 2.575 0 0 1-2.572 2.571h-1.957a2.576 2.576 0 0 1-2.573-2.571v-4.263a11.128 11.128 0 0 0-3.993 1.3c-1.5.863-2.354 1.975-2.354 3.052a2.075 2.075 0 0 0 .358 1.12 3.543 3.543 0 0 0 1.242 1.135l25.546 14.79c2.567 1.482 7.08 1.287 10.062-.435a4.915 4.915 0 0 0 2.156-2.16 2.287 2.287 0 0 0 .199-.891z"/><path class="c" d="M57.646 2277.864h.77v-10.437a5.863 5.863 0 0 1 .9-3.126 5.205 5.205 0 0 1 2.593-2.106l1.463-.542-.016.019a2.815 2.815 0 0 1 .886-.149 6.641 6.641 0 0 1 3.182 1.025c4.77 2.754 8.8 9.736 8.8 15.244v10.079a1.707 1.707 0 0 0 1.705 1.705h.745v-11.964a5.449 5.449 0 0 1 2.313-4.472 24.2 24.2 0 0 0-.865-2.77c-1.951-5.149-5.66-9.957-10.014-12.472-3.525-2.034-7.118-2.293-9.857-.709s-4.314 4.823-4.314 8.891v10.079a1.707 1.707 0 0 0 1.709 1.705zm-3.34 45.676a1.347 1.347 0 0 0-1.222 0 .372.372 0 0 0 0 .7 1.349 1.349 0 0 0 1.222 0 .372.372 0 0 0 0-.7zm3.192-1.143a.373.373 0 0 0 0-.705 1.355 1.355 0 0 0-1.222 0 .373.373 0 0 0 0 .705 1.353 1.353 0 0 0 1.222 0zm-3.192-2.547a1.346 1.346 0 0 0-1.222 0 .372.372 0 0 0 0 .7 1.346 1.346 0 0 0 1.222 0 .372.372 0 0 0 0-.7z"/><ellipse class="c" cx=".863" cy=".498" rx=".863" ry=".498" transform="translate(81.714 2336.015)"/><path class="c" d="M86.38 2334.318a1.355 1.355 0 0 0-1.222 0 .373.373 0 0 0 0 .705 1.353 1.353 0 0 0 1.222 0 .373.373 0 0 0 0-.705zm-9.577 1.843a1.352 1.352 0 0 0-1.221 0 .372.372 0 0 0 0 .705 1.35 1.35 0 0 0 1.221 0 .372.372 0 0 0 0-.705zm3.192-1.843a1.355 1.355 0 0 0-1.222 0 .373.373 0 0 0 0 .705 1.353 1.353 0 0 0 1.222 0 .372.372 0 0 0 0-.705zm3.192-1.843a1.346 1.346 0 0 0-1.222 0 .372.372 0 0 0 0 .7 1.346 1.346 0 0 0 1.222 0 .372.372 0 0 0 0-.7zm5.947-.021a1.343 1.343 0 0 0-1.221 0 .372.372 0 0 0 0 .7 1.344 1.344 0 0 0 1.221 0 .372.372 0 0 0 0-.7zm-15.523 1.864a1.355 1.355 0 0 0-1.222 0 .373.373 0 0 0 0 .705 1.353 1.353 0 0 0 1.222 0 .372.372 0 0 0 0-.705zm3.192-1.843a1.343 1.343 0 0 0-1.221 0 .371.371 0 0 0 0 .7 1.343 1.343 0 0 0 1.221 0 .371.371 0 0 0 0-.7zm-6.384 0a1.343 1.343 0 0 0-1.221 0 .371.371 0 0 0 0 .7 1.343 1.343 0 0 0 1.221 0 .372.372 0 0 0 0-.7zm3.192-1.844a1.356 1.356 0 0 0-1.222 0 .373.373 0 0 0 0 .706 1.356 1.356 0 0 0 1.222 0 .372.372 0 0 0 0-.706zm-6.412-.018a1.343 1.343 0 0 0-1.221 0 .371.371 0 0 0 0 .7 1.343 1.343 0 0 0 1.221 0 .371.371 0 0 0 0-.7zm1.972-1.138a1.353 1.353 0 0 0 1.221 0 .373.373 0 0 0 0-.706 1.352 1.352 0 0 0-1.221 0 .373.373 0 0 0 0 .706zm-5.164-.705a1.352 1.352 0 0 0-1.221 0 .373.373 0 0 0 0 .706 1.353 1.353 0 0 0 1.221 0 .373.373 0 0 0 0-.706zm3.192-1.843a1.343 1.343 0 0 0-1.221 0 .371.371 0 0 0 0 .7 1.343 1.343 0 0 0 1.221 0 .371.371 0 0 0 0-.7zm-6.384 0a1.343 1.343 0 0 0-1.221 0 .371.371 0 0 0 0 .7 1.343 1.343 0 0 0 1.221 0 .371.371 0 0 0 0-.7zm3.192-1.843a1.352 1.352 0 0 0-1.221 0 .372.372 0 0 0 0 .705 1.35 1.35 0 0 0 1.221 0 .372.372 0 0 0 0-.705zm-6.385 0a1.352 1.352 0 0 0-1.221 0 .372.372 0 0 0 0 .705 1.35 1.35 0 0 0 1.221 0 .372.372 0 0 0 0-.705zm-9.902-5.377a1.343 1.343 0 0 0-1.221 0 .371.371 0 0 0 0 .7 1.35 1.35 0 0 0 1.221 0 .371.371 0 0 0 0-.7zm3.193-1.138a.373.373 0 0 0 0-.706 1.356 1.356 0 0 0-1.222 0 .373.373 0 0 0 0 .706 1.358 1.358 0 0 0 1.222 0zm-3.193-2.549a1.35 1.35 0 0 0-1.221 0 .372.372 0 0 0 0 .705 1.35 1.35 0 0 0 1.221 0 .372.372 0 0 0 0-.705zm3.318 5.236a1.344 1.344 0 0 0-1.221 0 .371.371 0 0 0 0 .7 1.344 1.344 0 0 0 1.221 0 .371.371 0 0 0 0-.7z"/><ellipse class="c" cx=".863" cy=".498" rx=".863" ry=".498" transform="translate(59.341 2323.095)"/></g></svg>
