<svg xmlns="http://www.w3.org/2000/svg" width="41.14" height="70.202"><defs><style>.c{fill:#fff}</style></defs><g transform="translate(7.815 55.98)"><path class="c" d="M11.854 12.593a.253.253 0 0 1 0 .479.915.915 0 0 1-.828 0 .253.253 0 0 1 0-.479.912.912 0 0 1 .828 0z"/><ellipse class="c" cx=".586" cy=".338" rx=".586" ry=".338" transform="translate(13.021 11.243)"/><ellipse class="c" cx=".586" cy=".338" rx=".586" ry=".338" transform="translate(15.188 9.992)"/><path class="c" d="M9.687 11.342a.253.253 0 0 1 0 .479.915.915 0 0 1-.828 0 .253.253 0 0 1 0-.479.921.921 0 0 1 .828 0zm2.167-1.25a.252.252 0 0 1 0 .478.914.914 0 0 1-.828 0 .252.252 0 0 1 0-.478.912.912 0 0 1 .828 0zm2.168-1.251a.252.252 0 0 1 0 .478.915.915 0 0 1-.83 0 .252.252 0 0 1 0-.478.916.916 0 0 1 .83 0zM7.52 10.092a.252.252 0 0 1 0 .478.914.914 0 0 1-.828 0 .252.252 0 0 1 0-.478.912.912 0 0 1 .828 0zm2.167-1.251a.252.252 0 0 1 0 .478.912.912 0 0 1-.828 0 .252.252 0 0 1 0-.478.914.914 0 0 1 .828 0zm2.167-1.252a.253.253 0 0 1 0 .479.915.915 0 0 1-.828 0 .253.253 0 0 1 0-.479.914.914 0 0 1 .828 0zm-6.5 1.252a.252.252 0 0 1 0 .478.915.915 0 0 1-.829 0 .252.252 0 0 1 0-.478.916.916 0 0 1 .829 0zM7.52 7.589a.253.253 0 0 1 0 .479.915.915 0 0 1-.828 0 .253.253 0 0 1 0-.479.914.914 0 0 1 .828 0zm2.167-1.252a.253.253 0 0 1 0 .479.915.915 0 0 1-.828 0 .253.253 0 0 1 0-.479.923.923 0 0 1 .828 0zm-6.5 1.252a.253.253 0 0 1 0 .479.918.918 0 0 1-.83 0 .253.253 0 0 1 0-.479.916.916 0 0 1 .83 0zm2.167-1.252a.253.253 0 0 1 0 .479.918.918 0 0 1-.829 0 .253.253 0 0 1 0-.479.925.925 0 0 1 .829 0z"/><ellipse class="c" cx=".586" cy=".338" rx=".586" ry=".338" transform="translate(6.52 4.988)"/><path class="c" d="M1.001 6.326a.252.252 0 0 1 0 .478.918.918 0 0 1-.83 0 .252.252 0 0 1 0-.478.916.916 0 0 1 .83 0zm2.167-1.255a.252.252 0 0 1 0 .478.912.912 0 0 1-.828 0 .252.252 0 0 1 0-.478.915.915 0 0 1 .828 0zm2.167-1.248a.252.252 0 0 1 0 .478.916.916 0 0 1-.828 0 .253.253 0 0 1 0-.479.914.914 0 0 1 .828.001zm-4.334 0a.253.253 0 0 1 0 .479.922.922 0 0 1-.83 0 .253.253 0 0 1 0-.479.916.916 0 0 1 .83 0z"/><ellipse class="c" cx=".586" cy=".338" rx=".586" ry=".338" transform="translate(2.167 2.473)"/><path class="c" d="M1.001 1.321a.252.252 0 0 1 0 .478.918.918 0 0 1-.83 0 .252.252 0 0 1 0-.478.916.916 0 0 1 .83 0z"/><ellipse class="c" cx=".586" cy=".338" rx=".586" ry=".338" transform="translate(17.44 13.546)"/><path class="c" d="M20.607 12.393a.253.253 0 0 1 0 .479.914.914 0 0 1-.828 0 .253.253 0 0 1 0-.479.912.912 0 0 1 .828 0zm-6.501 1.252a.252.252 0 0 1 0 .478.916.916 0 0 1-.829 0 .252.252 0 0 1 0-.478.916.916 0 0 1 .829 0zm2.167-1.252a.253.253 0 0 1 0 .479.914.914 0 0 1-.828 0 .253.253 0 0 1 0-.479.912.912 0 0 1 .828 0zm2.167-1.251a.253.253 0 0 1 0 .479.915.915 0 0 1-.828 0 .253.253 0 0 1 0-.479.921.921 0 0 1 .828 0zm-.075-2.285a.252.252 0 0 1 0 .478.918.918 0 0 1-.83 0 .252.252 0 0 1 0-.478.916.916 0 0 1 .83 0z"/><ellipse class="c" cx=".586" cy=".338" rx=".586" ry=".338" transform="translate(19.529 7.506)"/><ellipse class="c" cx=".586" cy=".338" rx=".586" ry=".338" transform="translate(21.696 6.255)"/><path class="c" d="M24.863 5.103a.253.253 0 0 1 0 .479.914.914 0 0 1-.828 0 .253.253 0 0 1 0-.479.914.914 0 0 1 .828 0zm2.167-1.251a.252.252 0 0 1 0 .478.914.914 0 0 1-.828 0 .252.252 0 0 1 0-.478.914.914 0 0 1 .828 0zM15.364 7.607a.918.918 0 0 1 .828 0 .253.253 0 0 1 0 .479.917.917 0 0 1-.828 0 .253.253 0 0 1 0-.479zm3.001-1.253a.253.253 0 0 1 0 .479.922.922 0 0 1-.83 0 .253.253 0 0 1 0-.479.918.918 0 0 1 .83 0zm2.164-1.251a.253.253 0 0 1 0 .479.914.914 0 0 1-.828 0 .252.252 0 0 1 0-.479.914.914 0 0 1 .828 0z"/><ellipse class="c" cx=".586" cy=".338" rx=".586" ry=".338" transform="translate(21.696 3.753)"/><ellipse class="c" cx=".586" cy=".338" rx=".586" ry=".338" transform="translate(23.863 2.502)"/><path class="c" d="M27.031 1.35a.253.253 0 0 1 0 .479.924.924 0 0 1-.829 0 .253.253 0 0 1 0-.479.918.918 0 0 1 .829 0zM24.863.098a.253.253 0 0 1 0 .479.914.914 0 0 1-.828 0 .253.253 0 0 1 0-.479.92.92 0 0 1 .828 0zM21.951 11.16a.912.912 0 0 1 .828 0 .252.252 0 0 1 0 .478.913.913 0 0 1-.828 0 .253.253 0 0 1 0-.478zm2.997-1.253a.253.253 0 0 1 0 .479.912.912 0 0 1-.828 0 .253.253 0 0 1 0-.479.912.912 0 0 1 .828 0zm2.167-1.25a.252.252 0 0 1 0 .478.915.915 0 0 1-.83 0 .252.252 0 0 1 0-.478.916.916 0 0 1 .83 0zm-7.333 1.252a.916.916 0 0 1 .829 0 .252.252 0 0 1 0 .478.909.909 0 0 1-.828 0 .252.252 0 0 1-.001-.478zm2.994-1.252a.252.252 0 0 1 0 .478.912.912 0 0 1-.828 0 .252.252 0 0 1 0-.478.914.914 0 0 1 .828 0zm2.172-1.251a.252.252 0 0 1 0 .478.914.914 0 0 1-.828 0 .252.252 0 0 1 0-.478.914.914 0 0 1 .828 0zm2.167-1.252a.253.253 0 0 1 0 .479.925.925 0 0 1-.83 0 .253.253 0 0 1 0-.479.918.918 0 0 1 .83 0z"/></g><path class="c" d="m9.995 54.608-1.136-.71c-.883-.391-1.331-1.513-1.331-3.329a10.155 10.155 0 0 1 1.461-5.326 11.593 11.593 0 0 1 3.792-3.732l-.869-.5a12.287 12.287 0 0 0-3.69 3.769 11.038 11.038 0 0 0-1.589 5.788c0 2.057.553 3.4 1.632 4.017l1.2-.284z"/><path class="c" d="m19.293 59.973-9.3-5.365-.53-.306-1.2.283-.07.017 12.656 7.3a2.923 2.923 0 0 1-1.556-1.929zM30.73 47.108l-.442-.255a2.561 2.561 0 0 1 .4.323zm-6.861-2.914 4 2.3a3.273 3.273 0 0 1 2.089.17l-5.192-2.985zM.194 16.213 0 16.455l.224-.278zm38.413-8.53-.4-.228a4.464 4.464 0 0 1 .374.248zM1.236 16.352A53.914 53.914 0 0 1 15.595 3.644c4.108-2.371 7.349-3.207 9.625-2.5a4.415 4.415 0 0 1 .815.353l9.1 5.223a6.757 6.757 0 0 1 2.068.294 5.505 5.505 0 0 1 .872.361L26.743.869l-.277-.154a5.328 5.328 0 0 0-.982-.423c-2.562-.807-5.944.037-10.339 2.573A55.023 55.023 0 0 0 .452 15.899zm19.772 29.495-.334.193.334-.193zm-.334.19-.447-.256V44.75L9.403 38.542v-2.573a16.1 16.1 0 0 1 1.11-5.944 19.258 19.258 0 0 1 1.116-2.265l-.775-.444a20.164 20.164 0 0 0-1.172 2.38 16.962 16.962 0 0 0-1.173 6.272v3.091l3.4 1.952.869.5z"/><path class="c" d="M27.868 46.493a8.987 8.987 0 0 0-2.627 1.082 14.465 14.465 0 0 0-2.577 1.888 11.481 11.481 0 0 0-2.074 2.508 10.925 10.925 0 0 0-1.193 2.78 11.359 11.359 0 0 0-.4 3.008 7.456 7.456 0 0 0 .292 2.216 2.923 2.923 0 0 0 1.56 1.925l.01.006a3.118 3.118 0 0 0 1.267.255 7.429 7.429 0 0 0 3.558-1.2 12.575 12.575 0 0 0 4.478-4.294 10.851 10.851 0 0 0 1.651-5.791 5.067 5.067 0 0 0-1.131-3.7 2.561 2.561 0 0 0-.4-.323 2.3 2.3 0 0 0-.243-.155c-.027-.014-.06-.023-.088-.036a3.273 3.273 0 0 0-2.083-.169zm10.715-38.79a4.4 4.4 0 0 0-.374-.248c-.044-.025-.086-.052-.131-.076a5.5 5.5 0 0 0-.872-.361 6.757 6.757 0 0 0-2.068-.294 10.251 10.251 0 0 0-2.259.3 22.874 22.874 0 0 0-6.013 2.57 55.039 55.039 0 0 0-14.707 13.052l-8.864-5.1-2.06-1.186-.781-.449H.448l-.225.278-.224.278 4.182 7.037 6.671 3.827.775.444 4.7 2.7.447-.525c3.7-4.369 6.979-7.4 9.742-9a4.136 4.136 0 0 1 2.526-.77c.352.058.71.238.71 1.123a7.557 7.557 0 0 1-.961 3.474 36.649 36.649 0 0 1-3.282 4.88 29.584 29.584 0 0 0-4.109 6.777 16.959 16.959 0 0 0-1.173 6.273v3.09l.447.256.335-.193 2.863-1.652.894-.517 5.111-2.95v-1.937a5.881 5.881 0 0 1 .708-2.686 47.737 47.737 0 0 1 3.707-5.373 40.589 40.589 0 0 0 5.2-8.586 20.616 20.616 0 0 0 1.646-8c.002-3.155-.866-5.302-2.555-6.456zM2.351 18.663l-.555-.934.9.518 9.236 5.3 1.182 1.987.259.436 1.594 2.68-10.14-5.818-1.595-2.682z"/></svg>
