<svg xmlns="http://www.w3.org/2000/svg" width="349.602" height="309.178"><defs><style>.c2{clip-path:url(#clip-path)}.c3{clip-path:url(#clip-path-3)}.c8{fill:#fff}.c10{clip-path:url(#clip-path-8)}.c11{clip-path:url(#clip-path-9)}.c13{clip-path:url(#clip-path-12)}.c18{clip-path:url(#clip-path-19)}.c19{clip-path:url(#clip-path-20)}.c20{clip-path:url(#clip-path-23)}.c29{fill:#5fc0e9}.c31{opacity:.61;mix-blend-mode:multiply;isolation:isolate}.c33{fill:#dcdddd}.c35{fill:#221815}.c38{fill:#231815}.c41{opacity:.2}.c43{fill:#f2f2f2}.c47{fill:#2165ab}.c48{fill:#2164aa}.c49{fill:#2063a9}.c50{fill:#2063a8}.c51{fill:#2062a7}.c52{fill:#1f61a6}.c53{fill:#1f60a5}.c54{fill:#1f60a4}.c55{fill:#1e5fa3}.c56{fill:#1e5ea2}.c57{fill:#1d5da1}.c58{fill:#1d5da0}.c59{fill:#1d5c9f}.c60{fill:#1c5b9e}.c61{fill:#1c5a9d}.c62{fill:#1c5a9c}.c63{fill:#1b599b}.c64{fill:#1b589a}.c65{fill:#1b5799}.c66{fill:#1a5698}.c67{fill:#1a5697}.c68{fill:#1a5596}.c69{fill:#195495}.c70{fill:#195394}.c71{fill:#195393}.c72{fill:#185292}.c73{fill:#185190}.c74{fill:#17508f}.c75{fill:#17508e}.c76{fill:#174f8d}.c77{fill:#164e8c}.c78{fill:#164d8b}.c79{fill:#164d8a}.c80{fill:#154c89}.c81{fill:#154b88}.c82{fill:#154a87}.c83{fill:#144986}.c84{fill:#144985}.c85{fill:#144884}.c86{fill:#134783}.c87{fill:#134682}.c88{fill:#134681}.c89{fill:#124580}.c90{fill:#12447f}.c91{fill:#11437e}.c92{fill:#11437d}.c93{fill:#11427c}.c94{fill:#10417b}.c95{fill:#10407a}.c96{fill:#104079}.c97{fill:#0f3f78}.c98{fill:#0f3e77}</style></defs><g class="c2"><g class="c2"><g class="c3"><g style="opacity:.24"><g style="clip-path:url(#clip-path-4)" transform="translate(25.785 117.981)"><g style="clip-path:url(#clip-path-5)" transform="translate(1.476 .843)"><path d="M33.521 210.9 224.97 320.96l114.294-64.786-191.449-110.063z" transform="translate(-33.521 -146.111)" style="fill:#797978"/></g><path class="c8" d="m192.922 176.535-.363-.208L0 65.626 115.773.003l.362.208 192.56 110.7zM2.953 65.634 192.927 174.85l112.815-63.947L115.768 1.686z"/></g></g><g class="c3"><path class="c8" d="M349.6 235.126v-.831l-.054-1.161-.01-.093a11.7 11.7 0 0 0-.05-.427v-.034c-.022-.15-.045-.307-.074-.475 0-.02-.006-.038-.009-.054l-.6.12.574-.243c-.025-.128-.051-.264-.079-.39l-.1-.407-.592.149.56-.273a10.953 10.953 0 0 0-.592-1.655 10 10 0 0 0-.255-.528l-.075-.137-.233-.416-.525.309c.067.16.148.319.2.481l.051-.025-.047.035a6.216 6.216 0 0 1 .324 1.986c0 .09-.019.179-.023.269l.589-.142-.568.244.094.386c.023.1.047.227.076.379l.017.092c0 .013 0 .026.006.037.026.147.048.289.06.345a1.062 1.062 0 0 0 .01.113c.017.13.031.255.05.442l.052 1.966v.028a11.349 11.349 0 0 1-.505 3.347l.581.183-.607-.106a11.09 11.09 0 0 1-.301.81l-.133.3a8.932 8.932 0 0 1-.5.935 7.545 7.545 0 0 1-.291.447 10.749 10.749 0 0 1-1.475 1.67 8.581 8.581 0 0 1-.729.614c-.31.225-.693.485-1.063.727l-.075.049c-.175.115-.346.224-.487.311l-104.806 60.51a.624.624 0 0 0-.2.083.643.643 0 0 0-.192.145l-.02.011c-.335.19-.651.355-.929.491l-.022.011a15.46 15.46 0 0 1-1.012.456l-.107.042-.239.094c-.242.1-.5.2-.717.268l-.346.113c-.262.085-.542.177-.773.244a24.218 24.218 0 0 1-1.658.414l-.257.055c-.2.041-.4.078-.611.115l-.1.017a25.724 25.724 0 0 1-2.975.335l.034.609-.135-.6c-.206.011-.413.02-.628.026-.426.015-.791.022-1.333.011-.2 0-.4-.009-.6-.016h-.092l-.012.61-.084-.612-.155-.01a33.738 33.738 0 0 1-.7-.045l-.394-.028a14.36 14.36 0 0 1-.418-.044l-1.329-.172-.094.6-.011-.619c-.184-.028-.366-.06-.547-.093l-.041-.007c-.4-.073-.789-.154-1.23-.26-.342-.082-.776-.186-1.133-.3a30.401 30.401 0 0 1-.741-.237l-1.413-.523a7.204 7.204 0 0 1-.384-.164 7.743 7.743 0 0 1-.525-.246l-.151-.074c-.191-.094-.42-.221-.636-.34L6.769 184.324c-.145-.09-.3-.193-.468-.3l-.128-.083a29.37 29.37 0 0 1-1-.69 6.917 6.917 0 0 1-.659-.552 13.339 13.339 0 0 1-1.034-1.074l-.084-.1-.081-.1c-.111-.139-.2-.263-.285-.377l-.284-.424c-.093-.148-.181-.3-.289-.494s-.216-.413-.323-.653l-.061-.137c-.046-.107-.089-.216-.133-.326l-.033-.091-.114-.319-.032-.1-.048.016a.54.54 0 0 0 0-.115l.013-.007-.033-.1-.122-.438c-.089-.343-.15-.661-.2-.965l-.048-.326v-.04l-.011-.087a10.783 10.783 0 0 1-.074-.934l-.013-1.279v-.146h-.018c0-.016.007-.031.009-.047a.632.632 0 0 0 .007-.079l.041-.789.012-.137c.011-.107.023-.216.037-.329l-.605-.077.621-.049c.015-.113.034-.229.054-.348l.015-.089.1-.507c.027-.119.064-.233.1-.349-.007-.121-.029-.24-.029-.362 0-2.718 1.793-5.245 5.037-7.118l105.136-60.7a24.342 24.342 0 0 1 12.757-2.758l-.018-.146a21.804 21.804 0 0 0-.618-.016c-.43-.011-.753-.006-1.267 0v.009a.64.64 0 0 0-.089-.007v.074l-.015-.074h-.048c-.212.007-.42.017-.626.028l-.111.006a27.462 27.462 0 0 0-3.108.351l-.114.021c-.216.037-.429.076-.632.119l-.276.059c-.188.041-.374.081-.555.124-.362.088-.83.207-1.178.308-.162.046-.346.1-.522.163s-.343.106-.522.167l-.107.037c-.25.079-.552.2-.853.319l-.254.1s-.232.089-.58.247a8.332 8.332 0 0 0-1.4.7l-.13.072-.05.028-.038.024-.014.007-.028.02-.009.006L6.178 163.798c-.164.094-.315.185-.444.266-.159.1-.316.194-.5.328a.467.467 0 0 0-.04.03c-.163.116-.34.244-.543.4-.281.208-.638.481-.925.746l-.271.252-.087.083a10.713 10.713 0 0 0-1.088 1.213l-.288.391a10.723 10.723 0 0 0-1.683 3.86c0 .01-.018.085-.02.094l-.069.346v.023l-.033.194a8.799 8.799 0 0 0-.06.394l-.017.13c-.015.124-.029.245-.047.429l-.063.937a.369.369 0 0 0 0 .042v.261l.015 1.355c.007.186.013.28.033.526.011.152.027.311.048.482l.02.15v.037c.011.087.028.194.054.367.047.285.115.64.217 1.034l.122.439c0 .007.024.081.027.086l.031.1.02-.007a.554.554 0 0 0 .048.067l-.041.021.033.1.139.39.568-.224-.538.3c.047.127.1.249.148.366l.081.182c.112.25.23.49.38.762.1.177.2.349.3.515.048.076.1.159.159.246s.11.162.165.239c.09.126.2.266.32.424l.124.155.054.068a14.569 14.569 0 0 0 1.137 1.185 8.37 8.37 0 0 0 .786.657c.3.221.68.477 1.045.719l.13.085c.171.112.338.22.507.324l208.041 120.9.316.172c.231.128.476.262.687.367l.142.069c.215.109.38.185.577.271.153.069.3.135.441.187l1.125.43.346.114c.26.085.537.176.783.25.348.111.816.225 1.252.331.4.1.814.181 1.2.25l.041.009h.01c.2.037.394.07.581.1l.613.092.089.013.816.094c.152.018.3.033.5.05l.34.025c.241.018.484.034.716.046l.227.011.023-.609.117.612c.21.009.419.015.637.018.155 0 .308.007.446.007a29.22 29.22 0 0 0 1.59-.045l.1-.007a27 27 0 0 0 3.108-.35l.111-.02c.216-.038.433-.078.635-.12l.27-.058c.193-.041.385-.083.568-.128a31.44 31.44 0 0 0 1.174-.307c.242-.071.539-.167.813-.256l.337-.11c.241-.076.529-.19.847-.316l.2-.077-.228-.566.312.533s.455-.176 1.091-.49a.477.477 0 0 0 .062-.03c.294-.143.625-.317.967-.511l.05-.028.044-.025.013-.007 105.147-60.708c.163-.1.342-.216.531-.339l.072-.047a29.87 29.87 0 0 0 1.11-.76 9.913 9.913 0 0 0 .843-.709 11.923 11.923 0 0 0 1.658-1.883c.129-.185.237-.354.321-.493a10.224 10.224 0 0 0 .564-1.054c.049-.1.1-.214.15-.337.041-.1.084-.2.122-.3.074-.188.146-.393.216-.608l.029-.09a12.71 12.71 0 0 0 .564-3.754v-.052z"/></g><path class="c8" d="M371.658 246.993a10.111 10.111 0 0 1 4.431 4.6l.476-.386-.076-.125-.036-.054a8.953 8.953 0 0 0-.327-.481l-.054-.077a11.36 11.36 0 0 0-.762-.924l-.1-.107c-.254-.27-.472-.476-.616-.611a13.63 13.63 0 0 0-2.1-1.579 18.73 18.73 0 0 0-.432-.262l-208.041-120.9-.3-.162c-.237-.13-.49-.27-.7-.373l-.149-.073c-.215-.109-.38-.185-.58-.272a8.086 8.086 0 0 0-.437-.185l-.259-.1a45.533 45.533 0 0 0-.6-.231l-.367-.135-.035-.01-.2-.067a34.606 34.606 0 0 0-.787-.251 18.367 18.367 0 0 0-1.255-.331l-.737-.164a23.407 23.407 0 0 0-4.456-.531v.146a23.063 23.063 0 0 1 10.471 2.759z" transform="translate(-28.604 -23.008)" style="clip-path:url(#clip-path-7)"/><path class="c8" d="M111.736 103.093 6.601 163.792c-3.244 1.873-5.033 4.4-5.037 7.118 0 .122.022.241.028.362.148 2.562 1.875 4.935 4.936 6.714l208.023 120.891a25.695 25.695 0 0 0 23.291 0l105.135-60.7c3.137-1.811 4.9-4.235 5.016-6.849 0-.09.022-.178.022-.269a6.2 6.2 0 0 0-.324-1.986v-.01c-.054-.163-.134-.32-.2-.481a10.115 10.115 0 0 0-4.431-4.6L135.031 103.095a23.064 23.064 0 0 0-10.472-2.759h-.065a24.339 24.339 0 0 0-12.757 2.759m103.428 194.727L7.141 176.932c-2.813-1.635-4.361-3.773-4.357-6.02 0-2.264 1.575-4.417 4.427-6.064l105.135-60.7a24.351 24.351 0 0 1 22.071 0L342.441 225.04c2.812 1.634 4.358 3.771 4.355 6.016 0 2.265-1.575 4.418-4.428 6.064l-105.135 60.7c-6.105 3.524-16 3.526-22.068 0"/><g class="c10"><path class="c8" d="m337.162 242.866.167.353h.011z"/></g><path class="c8" d="M336.923 244.334a.961.961 0 0 0 .445-.124 1.372 1.372 0 0 0 .635-1.117.69.69 0 0 0-.324-.6.713.713 0 0 0-.7.011l-.054.029a1.338 1.338 0 0 0-.638 1.114.691.691 0 0 0 .323.6.606.606 0 0 0 .317.086m.239-1.468.177.355h-.011z"/><g class="c11"><path class="c8" d="M334.965 245.495a.957.957 0 0 0 .44-.123 1.351 1.351 0 0 0 .639-1.119.69.69 0 0 0-.323-.6.722.722 0 0 0-.708.009l-.05.028a1.371 1.371 0 0 0-.639 1.122.691.691 0 0 0 .328.594.606.606 0 0 0 .313.085"/></g><g class="c10"><path class="c8" d="m333.42 245.543-.177-.355z"/></g><path class="c8" d="M333.007 246.655a.966.966 0 0 0 .445-.124 1.356 1.356 0 0 0 .635-1.121.7.7 0 0 0-.329-.6.719.719 0 0 0-.7.013l-.051.028a1.344 1.344 0 0 0-.64 1.119.688.688 0 0 0 .324.6.613.613 0 0 0 .316.085m.413-1.113-.174-.355.177.355z"/><path class="c8" d="M407.6 303.357h.006" transform="translate(-76.122 -56.653)" style="clip-path:url(#clip-path-11)"/><path class="c8" d="M331.051 247.818a.958.958 0 0 0 .441-.122 1.359 1.359 0 0 0 .636-1.116.691.691 0 0 0-.324-.6.725.725 0 0 0-.709.009l-.051.029a1.368 1.368 0 0 0-.636 1.121.7.7 0 0 0 .329.594.619.619 0 0 0 .315.083m.43-1.113h-.006"/><g class="c13"><path class="c8" d="M329.089 248.98a.963.963 0 0 0 .443-.124 1.363 1.363 0 0 0 .639-1.123.691.691 0 0 0-.329-.591.723.723 0 0 0-.705.011l-.05.028a1.334 1.334 0 0 0-.636 1.117.691.691 0 0 0 .324.6.609.609 0 0 0 .314.085"/></g><g class="c10"><path class="c8" d="m327.546 249.026-.177-.355z"/></g><path class="c8" d="M327.135 250.141a.958.958 0 0 0 .442-.124 1.357 1.357 0 0 0 .636-1.117.691.691 0 0 0-.324-.6.716.716 0 0 0-.7.011l-.053.028a1.359 1.359 0 0 0-.639 1.124.7.7 0 0 0 .328.592.621.621 0 0 0 .314.084m.411-1.114-.174-.354.177.355"/><path class="c8" d="M399.7 308.569a.949.949 0 0 0 .439-.122 1.361 1.361 0 0 0 .642-1.122.7.7 0 0 0-.329-.594.724.724 0 0 0-.7.011l-.05.028a1.354 1.354 0 0 0-.636 1.117.692.692 0 0 0 .324.6.6.6 0 0 0 .315.085" transform="translate(-74.527 -57.267)" style="clip-path:url(#clip-path-14)"/><path class="c8" d="M397.293 310a.952.952 0 0 0 .442-.124 1.351 1.351 0 0 0 .639-1.118.689.689 0 0 0-.325-.6.716.716 0 0 0-.7.01l-.052.028a1.356 1.356 0 0 0-.639 1.119.69.69 0 0 0 .324.6.612.612 0 0 0 .315.085" transform="translate(-74.077 -57.534)" style="clip-path:url(#clip-path-15)"/><path class="c8" d="M394.888 311.426a.955.955 0 0 0 .441-.123 1.372 1.372 0 0 0 .639-1.123.7.7 0 0 0-.329-.594.715.715 0 0 0-.7.011l-.051.028a1.36 1.36 0 0 0-.643 1.126.689.689 0 0 0 .329.59.614.614 0 0 0 .315.085" transform="translate(-73.627 -57.8)" style="clip-path:url(#clip-path-16)"/><path class="c8" d="m414.275 300.813-.048.026a1.371 1.371 0 0 0-.642 1.126.7.7 0 0 0 .33.593.613.613 0 0 0 .313.083.957.957 0 0 0 .438-.121 1.354 1.354 0 0 0 .64-1.12.691.691 0 0 0-.325-.6.731.731 0 0 0-.706.01" transform="translate(-77.239 -56.16)" style="clip-path:url(#clip-path-17)"/><g class="c13"><path class="c8" d="m335.081 245.815-.052.028a1.352 1.352 0 0 0-.64 1.119.691.691 0 0 0 .323.6.617.617 0 0 0 .318.085.969.969 0 0 0 .445-.124 1.374 1.374 0 0 0 .635-1.12.7.7 0 0 0-.329-.6.716.716 0 0 0-.7.012"/></g><g class="c18"><path class="c8" d="M333.51 247.689h.006l-.207-.352z"/></g><path class="c8" d="m333.117 246.976-.051.03a1.372 1.372 0 0 0-.635 1.121.693.693 0 0 0 .329.594.62.62 0 0 0 .312.082.951.951 0 0 0 .441-.122 1.353 1.353 0 0 0 .639-1.12.69.69 0 0 0-.325-.6.725.725 0 0 0-.709.01m.188.362.207.352h-.006z"/><g class="c19"><path class="c8" d="m331.166 248.14-.052.029a1.352 1.352 0 0 0-.64 1.119.689.689 0 0 0 .324.6.616.616 0 0 0 .318.085.96.96 0 0 0 .44-.122 1.366 1.366 0 0 0 .64-1.123.7.7 0 0 0-.329-.594.725.725 0 0 0-.7.011"/></g><g class="c18"><path class="c8" d="M329.595 250.011h.006l-.207-.352z"/></g><path class="c8" d="m329.202 249.299-.052.03a1.372 1.372 0 0 0-.635 1.121.7.7 0 0 0 .329.6.614.614 0 0 0 .314.083.961.961 0 0 0 .442-.123 1.356 1.356 0 0 0 .636-1.117.692.692 0 0 0-.325-.6.721.721 0 0 0-.708.009m.187.362.207.352h-.006z"/><g class="c11"><path class="c8" d="M327.247 250.462a.284.284 0 0 0-.051.028 1.358 1.358 0 0 0-.636 1.117.7.7 0 0 0 .324.6.609.609 0 0 0 .314.084.958.958 0 0 0 .44-.122 1.37 1.37 0 0 0 .643-1.126.691.691 0 0 0-.329-.591.722.722 0 0 0-.7.011"/></g><g class="c20"><path class="c8" d="m325.681 252.335-.2-.353z"/></g><path class="c8" d="m325.292 251.62-.053.032a1.359 1.359 0 0 0-.639 1.118.691.691 0 0 0 .324.6.621.621 0 0 0 .317.085.956.956 0 0 0 .444-.124 1.338 1.338 0 0 0 .636-1.117.689.689 0 0 0-.324-.6.717.717 0 0 0-.7.008m.188.362.2.353z"/><path class="c8" d="M398.061 311.708z" transform="translate(-74.339 -58.212)" style="clip-path:url(#clip-path-24)"/><path class="c8" d="m323.331 252.782-.051.029a1.376 1.376 0 0 0-.639 1.123.7.7 0 0 0 .329.594.619.619 0 0 0 .315.083.958.958 0 0 0 .441-.122 1.377 1.377 0 0 0 .639-1.123.7.7 0 0 0-.329-.6.726.726 0 0 0-.7.011m.39.713"/><path class="c8" d="M395.607 313.057h.007l-.207-.353z" transform="translate(-73.843 -58.399)" style="clip-path:url(#clip-path-25)"/><path class="c8" d="m321.374 253.946-.049.027a1.351 1.351 0 0 0-.639 1.119.69.69 0 0 0 .324.6.608.608 0 0 0 .315.085.968.968 0 0 0 .443-.124 1.363 1.363 0 0 0 .639-1.119.693.693 0 0 0-.324-.6.723.723 0 0 0-.708.01m.186.362.207.353h-.01z"/><g class="c20"><path class="c8" d="m268.001 283.32-.2-.354z"/></g><path class="c8" d="M267.565 284.433a.959.959 0 0 0 .445-.124 1.369 1.369 0 0 0 .634-1.116.691.691 0 0 0-.323-.6.715.715 0 0 0-.7.009l-.054.03a1.339 1.339 0 0 0-.639 1.114.69.69 0 0 0 .324.6.6.6 0 0 0 .316.085m.238-1.468.2.354z"/><g class="c13"><path class="c8" d="M265.606 285.594a.96.96 0 0 0 .441-.123 1.352 1.352 0 0 0 .638-1.119.69.69 0 0 0-.323-.6.724.724 0 0 0-.708.009l-.051.028a1.372 1.372 0 0 0-.638 1.123.694.694 0 0 0 .329.594.6.6 0 0 0 .312.084"/></g><g class="c11"><path class="c8" d="M263.65 286.756a.971.971 0 0 0 .445-.124 1.353 1.353 0 0 0 .634-1.121.7.7 0 0 0-.329-.6.72.72 0 0 0-.7.011l-.053.03a1.345 1.345 0 0 0-.638 1.118.69.69 0 0 0 .324.6.614.614 0 0 0 .317.085"/></g><path class="c8" d="M322.072 352.231z" transform="translate(-60.148 -65.781)" style="clip-path:url(#clip-path-29)"/><g class="c13"><path class="c8" d="M261.693 287.917a.963.963 0 0 0 .441-.122 1.357 1.357 0 0 0 .635-1.116.692.692 0 0 0-.324-.6.721.721 0 0 0-.708.011l.187.36-.239-.333a1.37 1.37 0 0 0-.635 1.121.7.7 0 0 0 .329.594.614.614 0 0 0 .315.084"/></g><g class="c13"><path class="c8" d="M259.732 289.08a.971.971 0 0 0 .444-.124 1.364 1.364 0 0 0 .638-1.123.692.692 0 0 0-.329-.592.723.723 0 0 0-.705.011l-.051.028a1.337 1.337 0 0 0-.635 1.117.693.693 0 0 0 .323.6.613.613 0 0 0 .316.085"/></g><g class="c20"><path class="c8" d="m258.214 289.127-.2-.354z"/></g><path class="c8" d="M257.776 290.241a.961.961 0 0 0 .443-.124 1.353 1.353 0 0 0 .635-1.117.691.691 0 0 0-.323-.6.717.717 0 0 0-.7.009l-.055.03a1.36 1.36 0 0 0-.638 1.123.694.694 0 0 0 .329.593.613.613 0 0 0 .313.083m.237-1.468.2.354z"/><g class="c13"><path class="c8" d="M255.817 291.402a.959.959 0 0 0 .439-.123 1.364 1.364 0 0 0 .642-1.121.7.7 0 0 0-.329-.6.726.726 0 0 0-.7.011l-.051.028a1.353 1.353 0 0 0-.635 1.117.7.7 0 0 0 .323.6.616.616 0 0 0 .316.085"/></g><path class="c8" d="m312.651 358.3-.2-.354z" transform="translate(-58.351 -66.847)" style="clip-path:url(#clip-path-34)"/><path class="c8" d="M253.859 292.564a.941.941 0 0 0 .441-.123 1.348 1.348 0 0 0 .639-1.118.69.69 0 0 0-.324-.6.716.716 0 0 0-.7.007l-.054.03a1.355 1.355 0 0 0-.639 1.119.691.691 0 0 0 .324.6.618.618 0 0 0 .316.085m.239-1.469.2.354z"/><path class="c8" d="M310.2 359.724a.184.184 0 0 1 .031 0h.013l-.2-.354z" transform="translate(-57.902 -67.114)" style="clip-path:url(#clip-path-35)"/><path class="c8" d="M251.901 293.725a.949.949 0 0 0 .442-.122 1.375 1.375 0 0 0 .638-1.123.694.694 0 0 0-.329-.594.721.721 0 0 0-.7.009l-.055.031a1.363 1.363 0 0 0-.642 1.125.691.691 0 0 0 .329.591.621.621 0 0 0 .315.083m.239-1.468.2.354h-.013a.177.177 0 0 0-.031 0z"/><g class="c10"><path class="c8" d="m267.865 285.114.169.354h.008z"/></g><path class="c8" d="m267.678 284.753-.048.026a1.367 1.367 0 0 0-.642 1.126.7.7 0 0 0 .33.593.606.606 0 0 0 .313.084.951.951 0 0 0 .438-.123 1.349 1.349 0 0 0 .639-1.12.689.689 0 0 0-.324-.6.727.727 0 0 0-.706.01m.187.361.177.355h-.008z"/><g class="c19"><path class="c8" d="m265.724 285.913-.053.029a1.353 1.353 0 0 0-.64 1.12.692.692 0 0 0 .325.6.615.615 0 0 0 .316.084.969.969 0 0 0 .445-.124 1.379 1.379 0 0 0 .635-1.121.7.7 0 0 0-.329-.6.721.721 0 0 0-.7.011"/></g><g class="c11"><path class="c8" d="m263.759 287.075-.052.029a1.378 1.378 0 0 0-.635 1.121.7.7 0 0 0 .329.594.62.62 0 0 0 .312.083.957.957 0 0 0 .44-.123 1.35 1.35 0 0 0 .639-1.12.689.689 0 0 0-.324-.6.726.726 0 0 0-.71.011"/></g><path class="c8" d="m322.362 355.223-.2-.354z" transform="translate(-60.165 -66.273)" style="clip-path:url(#clip-path-39)"/><path class="c8" d="m261.809 288.232-.054.03a1.349 1.349 0 0 0-.639 1.12.69.69 0 0 0 .324.6.621.621 0 0 0 .317.085.958.958 0 0 0 .442-.122 1.366 1.366 0 0 0 .638-1.124.7.7 0 0 0-.328-.593.724.724 0 0 0-.7.009m.186.362.2.354z"/><path class="c8" d="m319.357 355.834-.052.029a1.377 1.377 0 0 0-.635 1.121.693.693 0 0 0 .331.6.6.6 0 0 0 .312.084.966.966 0 0 0 .442-.123 1.36 1.36 0 0 0 .635-1.116.692.692 0 0 0-.324-.6.726.726 0 0 0-.71.01" transform="translate(-59.513 -66.435)" style="clip-path:url(#clip-path-40)"/><g class="c11"><path class="c8" d="m257.887 290.56-.051.028a1.362 1.362 0 0 0-.636 1.117.694.694 0 0 0 .324.6.6.6 0 0 0 .315.085.959.959 0 0 0 .44-.123 1.369 1.369 0 0 0 .642-1.126.69.69 0 0 0-.329-.591.724.724 0 0 0-.705.011"/></g><g class="c11"><path class="c8" d="m255.935 291.721-.054.03a1.364 1.364 0 0 0-.64 1.119.692.692 0 0 0 .325.6.615.615 0 0 0 .316.084.972.972 0 0 0 .444-.123 1.346 1.346 0 0 0 .636-1.117.693.693 0 0 0-.324-.6.719.719 0 0 0-.7.009"/></g><path class="c8" d="m312.137 360.118-.051.028a1.375 1.375 0 0 0-.638 1.121.693.693 0 0 0 .329.6.6.6 0 0 0 .314.085.968.968 0 0 0 .442-.122 1.38 1.38 0 0 0 .638-1.123.7.7 0 0 0-.329-.6.724.724 0 0 0-.7.011" transform="translate(-58.164 -67.235)" style="clip-path:url(#clip-path-43)"/><g class="c11"><path class="c8" d="m252.013 294.046-.048.026a1.354 1.354 0 0 0-.639 1.12.694.694 0 0 0 .325.6.613.613 0 0 0 .313.084.972.972 0 0 0 .445-.124 1.367 1.367 0 0 0 .638-1.12.69.69 0 0 0-.324-.6.726.726 0 0 0-.71.011"/></g><path class="c8" d="M308.395 260.136a1.267 1.267 0 0 0-1.283.069 3.334 3.334 0 0 0-1.609 2.649 1.248 1.248 0 0 0 .533 1.15.989.989 0 0 0 .349.12 1.063 1.063 0 0 0 .184.024 1.6 1.6 0 0 0 .751-.213 3.018 3.018 0 0 0 .991-.922 3.2 3.2 0 0 0 .618-1.727 1.25 1.25 0 0 0-.533-1.15m-2.089 3.419a.757.757 0 0 1-.279-.695 2.849 2.849 0 0 1 1.335-2.195.789.789 0 0 1 .763-.081.756.756 0 0 1 .279.694 2.849 2.849 0 0 1-1.334 2.2.791.791 0 0 1-.764.081m-2.997-.267a.771.771 0 0 0-.776.017 1.532 1.532 0 0 0-.747 1.234.761.761 0 0 0 .345.69.678.678 0 0 0 .352.1.882.882 0 0 0 .424-.115 1.523 1.523 0 0 0 .747-1.233.761.761 0 0 0-.344-.688m-12.751 6.953a.755.755 0 0 0-.76.028l-9.657 5.457a1.648 1.648 0 0 0-.8 1.324l-.032 1.869a.741.741 0 0 0 .328.673.639.639 0 0 0 .332.09.907.907 0 0 0 .429-.119l9.654-5.455a1.642 1.642 0 0 0 .805-1.325l.033-1.869a.741.741 0 0 0-.328-.673m-10.63 8.686.032-1.868a1.039 1.039 0 0 1 .48-.788l9.654-5.456a.29.29 0 0 1 .127-.041h.011a.206.206 0 0 1 .028.131l-.033 1.869a1.039 1.039 0 0 1-.484.79l-9.655 5.455a.229.229 0 0 1-.137.041.209.209 0 0 1-.028-.132m55.462-54.224L142.807 113.266a2.459 2.459 0 0 0-2.457 0L24.581 180.104a2.455 2.455 0 0 0 0 4.251L217.162 295.8a2.454 2.454 0 0 0 2.458 0l115.768-66.834a2.455 2.455 0 0 0 0-4.251m-.612 3.194-115.767 66.837a1.236 1.236 0 0 1-1.236 0L25.19 183.298a1.235 1.235 0 0 1 0-2.138l115.77-66.839a1.235 1.235 0 0 1 1.234 0l192.585 111.445a1.235 1.235 0 0 1 0 2.138M70.702 142.473a12.682 12.682 0 0 0 11.487 0 4.313 4.313 0 0 0 2.519-3.573 4.267 4.267 0 0 0-2.48-3.55 12.682 12.682 0 0 0-11.49 0 3.788 3.788 0 0 0-.036 7.123m.442-6.42a11.782 11.782 0 0 1 10.675 0 3.508 3.508 0 0 1 2.075 2.846 3.553 3.553 0 0 1-2.112 2.87 11.776 11.776 0 0 1-10.672 0 3.508 3.508 0 0 1-2.075-2.847 3.548 3.548 0 0 1 2.11-2.868"/></g><path class="c29" d="M81.018 180.505c-2.707-.165-4.837-1.493-4.748-2.961s2.365-2.527 5.071-2.362 4.837 1.493 4.748 2.959-2.364 2.528-5.071 2.363m.238-3.917c-1.277-.078-2.35.423-2.392 1.113s.962 1.32 2.239 1.4 2.35-.422 2.393-1.116-.963-1.317-2.24-1.4m-3.208 24.47c-2.988-.182-5.355-1.367-5.277-2.645s2.571-2.164 5.559-1.982 5.355 1.368 5.278 2.642-2.571 2.166-5.56 1.984m.207-3.405c-1.409-.086-2.585.335-2.622.934s1.08 1.163 2.489 1.249 2.586-.333 2.623-.938-1.08-1.16-2.489-1.246m54.804-2.315c-2.6-.159-4.644-1.485-4.554-2.961s2.279-2.543 4.88-2.384 4.645 1.487 4.555 2.959-2.279 2.545-4.881 2.386m.24-3.934c-1.226-.075-2.259.431-2.3 1.125s.921 1.323 2.148 1.4 2.26-.429 2.3-1.127-.921-1.321-2.149-1.4m21.228 3.019c-2.433-.149-4.348-1.33-4.269-2.635s2.124-2.244 4.557-2.095 4.349 1.33 4.27 2.633-2.124 2.245-4.558 2.1m.212-3.481c-1.147-.07-2.111.375-2.149.988s.865 1.173 2.013 1.243 2.113-.372 2.15-.989-.866-1.172-2.014-1.242m3.666 43.047c-2.592-.158-4.626-1.52-4.533-3.035s2.276-2.619 4.868-2.46 4.627 1.518 4.535 3.033-2.276 2.619-4.87 2.462m.246-4.043c-1.222-.075-2.253.447-2.3 1.16s.916 1.357 2.138 1.432 2.254-.445 2.3-1.161-.916-1.356-2.14-1.431m70.306 12.722c-2.759-.168-4.915-1.721-4.809-3.464s2.436-3.02 5.193-2.853 4.917 1.722 4.811 3.462-2.437 3.023-5.2 2.854m.283-4.648c-1.3-.079-2.4.525-2.449 1.345s.968 1.555 2.268 1.634 2.4-.523 2.451-1.347-.968-1.552-2.27-1.632m-39.846 11.907c-2.88-.176-5.117-2.05-4.987-4.181s2.577-3.717 5.458-3.542 5.119 2.05 4.989 4.178-2.58 3.72-5.46 3.544m.346-5.682c-1.357-.083-2.512.667-2.573 1.67s.994 1.891 2.351 1.974 2.515-.665 2.576-1.674-.995-1.887-2.354-1.97"/><path class="c29" d="m232.353 272.113-38.893-23.337.753-1.255 38.15 22.89 59.34-34.638-63.828-36.3 11.246-7.095.782 1.238-9.182 5.792 63.914 36.35z"/><path class="c29" d="m225.79 238.045-41.082-24.649 44.1-26.564.756 1.253-42.014 25.311 38.993 23.4z"/><path class="c29" d="m160.625 230.526-.72-1.274 11.555-6.532-12.086-7.141 59.406-34.887.742 1.262-57.263 33.628 12.128 7.166zm9.693-31.2-12.509-5.934.628-1.323 11.818 5.607 39.015-22.373.728 1.27zm-40.662-7.488-5.846-3.1 30.358-17.553 23.653 12.1 22.075-13.5.764 1.248-22.776 13.927-23.674-12.113-27.379 15.834 3.509 1.857z"/><path class="c29" d="m81.683 197.585-.777-1.24 64.457-40.389 32.757 16.029 12.729-7.636.753 1.255-13.41 8.046-32.742-16.018z"/><path class="c29" d="m77.775 176.973-9.219-5.116 58.155-33.312.353.183 47.9 24.667 7.36-4.206.726 1.27-8.049 4.6-48.256-24.848-55.209 31.625 6.948 3.856z"/><path d="m183.075 160.549-1.385-.4v-80.76l1.386.355zm8.535 5.245-1.433-.417V84.808l1.433.367zm9.08 5.495-1.484-.432v-80.88l1.484.381zm9.399 5.501-1.535-.446v-81.2l1.535.393zm9.737 5.508-1.591-.463v-81.534l1.591.408zm10.095 5.513-1.651-.48v-81.88l1.651.424zm10.468 5.521-1.712-.5v-82.235l1.712.452z" style="fill-rule:evenodd;fill:#5fc0e9"/><g class="c31"><path class="c33" d="m130.876 300.391-9.556-5.554c.385-3.913 1.892-4.843 1.892-4.843a30.256 30.256 0 0 1 21.36-8.594 6.038 6.038 0 0 0 2.278 4.225 8.362 8.362 0 0 0 2.125 1.208l.043.016a10.379 10.379 0 0 0 .874.304q.316.1.64.179l.215.053c.2.048.406.091.612.132.081.015.162.033.244.047.207.037.416.07.627.1l.232.035c.285.037.571.07.858.1l-6.687 5.267-13.649 3.528a2.827 2.827 0 0 0-2.089 2.349 5.431 5.431 0 0 0-.019 1.452" transform="translate(-22.657 -52.549)" style="clip-path:url(#clip-path-45)"/></g><g class="c31"><path class="c33" d="M145.888 300.908c2.341-3.369 11.09-12.467 11.09-12.467l10.139-.739a13.615 13.615 0 0 1-4.828 10.236 72.13 72.13 0 0 0-7.717 7.772s.853 3.349 1.374 7.1l-10.436-6.065c-.534-2.341-.631-4.386.379-5.84" transform="translate(-27.101 -53.73)" style="clip-path:url(#clip-path-46)"/></g><path class="c8" d="M99.504 241.326c-.263-7.44 2.275-8.788 2.275-8.788a97.535 97.535 0 0 1 20.48-6.791c.2 4.188 3.871 5.885 7.808 6.493l-6.562 4.535-15.424 2.976a56.865 56.865 0 0 1 .35 7.614c-.175 2.976-2.188 12.866-2.188 12.866-2.1 2.45-6.758.438-6.758.438s.281-11.9.019-19.342"/><path class="c35" d="M103.148 262.058a11.035 11.035 0 0 1-3.907-.83.61.61 0 0 1-.368-.574c0-.119.279-11.971.02-19.306-.268-7.6 2.306-9.192 2.6-9.348a99.323 99.323 0 0 1 20.657-6.853.62.62 0 0 1 .489.123.613.613 0 0 1 .229.448c.153 3.206 2.606 5.2 7.292 5.92a.611.611 0 0 1 .255 1.105l-6.562 4.535a.6.6 0 0 1-.232.1l-14.874 2.87a53.059 53.059 0 0 1 .294 7.157c-.176 2.985-2.116 12.547-2.2 12.952a.618.618 0 0 1-.135.276 4.494 4.494 0 0 1-3.557 1.43m-3.045-1.805c1.058.376 4.069 1.252 5.574-.307.263-1.3 1.986-9.925 2.144-12.617a56.751 56.751 0 0 0-.347-7.51.61.61 0 0 1 .491-.667l15.3-2.952 5.261-3.636c-4.041-.944-6.373-3.026-6.809-6.086a101.319 101.319 0 0 0-19.686 6.615c.009 0-2.157 1.409-1.917 8.211.232 6.575.037 16.742-.01 18.948"/><g class="c31"><path class="c33" d="M148.339 282.611h.006a11.417 11.417 0 0 0 5.924 2.408l-6.562 4.535-15.424 2.976a57.01 57.01 0 0 1 .35 7.614c-.175 2.976-2.188 12.866-2.188 12.866a3.16 3.16 0 0 1-.856.7c.242-3.193.664-8.4.943-9.861.283-1.477.178-7.514.084-11.156a4.1 4.1 0 0 1 2.558-3.907z" transform="translate(-24.201 -52.779)" style="clip-path:url(#clip-path-47)"/></g><path class="c8" d="M93.377 263.294c1.663-.875 6.107-2.626 6.107-2.626s4.657 2.014 6.758-.437l.088 1.216s-.263 1.5-4.026 1.936-2.362 4.988-8.052 4.026-2.538-3.238-.875-4.113"/><path class="c35" d="M95.705 268.152a9.316 9.316 0 0 1-1.554-.143c-2.389-.4-3.579-1.079-3.747-2.126-.22-1.375 1.591-2.55 2.689-3.129 1.673-.88 5.985-2.581 6.168-2.654a.609.609 0 0 1 .464.008c.043.017 4.273 1.8 6.054-.275a.61.61 0 0 1 1.072.354l.087 1.215a.6.6 0 0 1-.007.148c-.035.2-.459 1.961-4.556 2.436a3.338 3.338 0 0 0-2.51 1.791 4.558 4.558 0 0 1-4.161 2.374m3.778-6.826c-.921.366-4.419 1.77-5.821 2.509-1.356.713-2.11 1.5-2.053 1.857.011.068.181.681 2.746 1.115 2.907.492 3.656-.543 4.522-1.744a4.515 4.515 0 0 1 3.358-2.287c2.323-.27 3.125-.939 3.386-1.273-2.191 1.179-5.253.161-6.137-.177"/><path class="c8" d="M90.996 265.661c0 .682.812 1.337 3.254 1.75 5.689.963 4.289-3.588 8.052-4.026s4.026-1.936 4.026-1.936v1.41s-2.538 1.575-3.851 1.663-1.226-.35-2.014.525-1.487 4.026-7.177 3.063c0 0-2.487-.262-2.293-2.45"/><path class="c35" d="M95.268 268.899a12.49 12.49 0 0 1-2.081-.189 2.922 2.922 0 0 1-2.8-3.107.608.608 0 0 1 .607-.555.611.611 0 0 1 .61.608c0 .255.579.784 2.745 1.151 2.9.491 3.655-.543 4.522-1.744a4.513 4.513 0 0 1 3.357-2.286c3.136-.365 3.5-1.457 3.5-1.468a.6.6 0 0 1 .651-.486.624.624 0 0 1 .554.625v1.41a.61.61 0 0 1-.289.519c-.273.169-2.708 1.657-4.131 1.753a5.757 5.757 0 0 1-1-.018 1.765 1.765 0 0 0-.228-.013 1.722 1.722 0 0 0-.371.356 4.043 4.043 0 0 0-.342.505 5.485 5.485 0 0 1-5.31 2.94"/><path class="c8" d="M139.849 232.137a13.584 13.584 0 0 1-5.445 9.891 71.946 71.946 0 0 0-8.167 7.259s1.543 8.146.908 13.238-.908 10.536-.908 10.536-3.267 4.356-7.8 1.905c0 0 1.8-8.892.944-14.972s-4.029-12.819-1.488-16.028 11.818-11.724 11.818-11.724z"/><path class="c35" d="M121.203 276.323a6.371 6.371 0 0 1-3.056-.82.61.61 0 0 1-.308-.657c.018-.089 1.766-8.863.937-14.767a55.513 55.513 0 0 0-1.2-5.631c-1.08-4.323-2.1-8.407-.158-10.861 2.541-3.209 11.5-11.445 11.885-11.794a.606.606 0 0 1 .406-.16l10.14-.106a.532.532 0 0 1 .436.176.61.61 0 0 1 .181.433 14.09 14.09 0 0 1-5.677 10.371 76.634 76.634 0 0 0-7.888 6.972c.277 1.557 1.434 8.493.856 13.12-.625 5.012-.9 10.437-.9 10.491a.618.618 0 0 1-.121.336c-.028.037-2.221 2.9-5.525 2.9m-2.079-1.7c3.421 1.55 5.959-1.13 6.518-1.794.056-1.029.338-5.871.9-10.384.616-4.936-.886-12.968-.9-13.049a.616.616 0 0 1 .148-.524 72.047 72.047 0 0 1 8.241-7.33 13.4 13.4 0 0 0 5.161-8.793l-9.241.1c-1.277 1.178-9.287 8.6-11.581 11.5-1.57 1.983-.62 5.784.385 9.807a57.035 57.035 0 0 1 1.23 5.757c.756 5.391-.5 12.793-.861 14.717"/><path class="c8" d="M114.807 280.594a48.993 48.993 0 0 1 3.811-4.879l.39-.471c4.235 1.806 7.228-2.18 7.228-2.18l-.091 2a8.722 8.722 0 0 1-1.905 1.905c-.908.544-1 2.449-2.359 4.083s-3.357 3.721-5.9 2.994-1.634-2.45-1.18-3.448"/><path class="c35" d="M117.012 284.797a4.317 4.317 0 0 1-1.194-.171 2.871 2.871 0 0 1-1.972-1.425 3.31 3.31 0 0 1 .351-2.745l.054-.117a45.593 45.593 0 0 1 3.905-5.025l.381-.46a.637.637 0 0 1 .2-.157.616.616 0 0 1 .516-.017c3.734 1.587 6.391-1.84 6.5-1.987a.61.61 0 0 1 1.1.4l-.091 2a.609.609 0 0 1-.118.333 9.217 9.217 0 0 1-2.083 2.068 3.113 3.113 0 0 0-.756 1.335 9.5 9.5 0 0 1-1.451 2.605c-.886 1.06-2.8 3.36-5.341 3.36m-1.65-3.952-.056.121c-.242.527-.573 1.248-.352 1.726a1.779 1.779 0 0 0 1.2.763c2.084.6 3.83-1.081 5.261-2.8a8.291 8.291 0 0 0 1.256-2.3 3.674 3.674 0 0 1 1.258-1.919 7.48 7.48 0 0 0 1.618-1.6l.011-.241a6.433 6.433 0 0 1-6.36 1.368l-.112.136a44.448 44.448 0 0 0-3.725 4.741"/><path class="c8" d="M115.987 284.04c2.541.726 4.537-1.361 5.9-2.994s1.452-3.539 2.359-4.083a8.743 8.743 0 0 0 1.905-1.905l.09 1.089s-1.452.239-2.359 2.479-1.814 4.714-4.355 5.564-4.586 1.262-5.152-1.3a2.206 2.206 0 0 0 1.612 1.155"/><path class="c35" d="M116.596 285.45a2.919 2.919 0 0 1-1.465-.346 2.987 2.987 0 0 1-1.352-2.087.61.61 0 0 1 1.162-.359c.135.336.543.6 1.213.8 2.083.591 3.83-1.08 5.262-2.8a8.318 8.318 0 0 0 1.256-2.3 3.67 3.67 0 0 1 1.258-1.919 7.94 7.94 0 0 0 1.727-1.743.609.609 0 0 1 1.1.31l.091 1.089a.609.609 0 0 1-.508.653c-.035.007-1.143.253-1.893 2.105l-.108.27c-.9 2.221-1.914 4.739-4.618 5.643a10.45 10.45 0 0 1-3.124.682"/><path class="c8" d="M104.177 202.308z"/><path class="c35" d="M104.189 202.918a.614.614 0 0 1-.614-.61.607.607 0 0 1 .606-.61h.008a.61.61 0 1 1 0 1.22"/><path class="c8" d="m106.767 204.902 1.715 4.332 1.735-.886z"/><path class="c35" d="M108.478 209.844a.579.579 0 0 1-.216-.04.6.6 0 0 1-.351-.346l-1.712-4.333a.61.61 0 0 1 1-.655l3.445 3.446a.61.61 0 0 1-.153.974l-1.734.886a.612.612 0 0 1-.278.067m-.063-2.432.385.973.389-.2z"/><path class="c8" d="m108.363 206.498.311.311z"/><path class="c35" d="M108.674 207.42a.6.6 0 0 1-.432-.18l-.311-.311a.609.609 0 0 1 0-.862.609.609 0 0 1 .862 0l.311.311a.61.61 0 0 1-.432 1.04"/><path class="c33" d="m108.478 209.234 1.734-.886 1.31 1.31s3.209.53 4.8-1.8a16.876 16.876 0 0 0 1-1.656l-.249 3.509-2.275 1.124c-5.045.822-7.167-1.6-7.167-1.6l.342-1.28z"/><path class="c35" d="M112.776 211.615c-3.821 0-5.524-1.884-5.6-1.979a.608.608 0 0 1-.13-.559l.342-1.279a.61.61 0 0 1 .554-.452.585.585 0 0 1 .6.385l.259.654 1.135-.58a.612.612 0 0 1 .709.111l1.16 1.16c.651.055 2.87.116 4.015-1.565a16.085 16.085 0 0 0 .963-1.6.61.61 0 0 1 1.148.328l-.249 3.508a.61.61 0 0 1-.338.5l-2.275 1.124a.609.609 0 0 1-.172.054 13.062 13.062 0 0 1-2.118.179m-3.643-2.03a8.634 8.634 0 0 0 5.476.661l1.879-.928.053-.742c-1.848 2.193-4.979 1.705-5.119 1.684a.614.614 0 0 1-.332-.171l-1-1z"/><path class="c8" d="M119.71 198.53a10.832 10.832 0 0 1-.208 1.8c1.8 2.223-1.272 3.607-1.272 3.607a12.03 12.03 0 0 1-1.908 3.921 3.945 3.945 0 0 1-.382.469c.846 1.287 1.813 2.188 2.714 2.075 2.544-.318 5.3-4.134 5.511-8.093s-4.454-3.778-4.455-3.778"/><path class="c35" d="M118.493 211.021c-1 0-2.031-.793-3.062-2.36a.61.61 0 0 1 .065-.753 3.274 3.274 0 0 0 .323-.4 11.742 11.742 0 0 0 1.814-3.7.615.615 0 0 1 .346-.433c.346-.158 1.283-.726 1.452-1.445a1.419 1.419 0 0 0-.4-1.221.611.611 0 0 1-.121-.52 10.3 10.3 0 0 0 .194-1.687.609.609 0 0 1 .587-.586 5.98 5.98 0 0 1 4.056 1.413 3.813 3.813 0 0 1 1.03 3.008c-.222 4.168-3.1 8.3-6.045 8.665a1.905 1.905 0 0 1-.237.015m-1.785-2.657c.7.965 1.391 1.481 1.871 1.431 2.086-.261 4.772-3.673 4.977-7.52a2.617 2.617 0 0 0-.68-2.088 4.257 4.257 0 0 0-2.593-1.026c-.038.438-.091.789-.131 1.017a2.47 2.47 0 0 1 .466 2.04 3.677 3.677 0 0 1-1.866 2.136 13.935 13.935 0 0 1-1.926 3.847 2.84 2.84 0 0 1-.119.163"/><path class="c33" d="M134.976 202.982c-5.193-4.452-15.461-7.022-15.461-7.022a10.841 10.841 0 0 1 .2 2.571s4.667-.181 4.455 3.778-2.968 7.775-5.511 8.093c-.9.113-1.868-.787-2.713-2.075a4.029 4.029 0 0 1-1.269.9v.008c-.273 5.829 7.267 8.692 7.9 9.645s-4.027 6.89-4.027 6.89c.53 11.129 21.3 7.737 21.3 7.737l.53-9.751c.53-9.752-.212-16.323-5.406-20.774"/><path class="c35" d="M133.138 234.613c-4.155 0-9.243-.6-12.359-3.126a7.486 7.486 0 0 1-2.841-5.688.608.608 0 0 1 .13-.406c1.9-2.422 3.9-5.437 3.956-6.219a12.625 12.625 0 0 0-1.162-.772c-2.455-1.528-7.026-4.373-6.8-9.2a.621.621 0 0 1 .354-.535 3.374 3.374 0 0 0 1.079-.762.61.61 0 0 1 .955.081c.789 1.2 1.59 1.875 2.128 1.8 2.087-.26 4.773-3.673 4.978-7.52a2.612 2.612 0 0 0-.682-2.088 4.767 4.767 0 0 0-3.136-1.038.552.552 0 0 1-.272-.05.61.61 0 0 1-.364-.583 10.378 10.378 0 0 0-.185-2.423.609.609 0 0 1 .6-.733c.075 0 10.494 2.571 15.86 7.169 5.413 4.64 6.159 11.312 5.617 21.27l-.529 9.751a.612.612 0 0 1-.511.569 46.363 46.363 0 0 1-6.812.5m6.713-1.106zm-20.682-7.544a6.2 6.2 0 0 0 2.377 4.574c4.812 3.9 15.343 2.756 17.722 2.436l.5-9.251c.521-9.577-.161-15.966-5.193-20.277-4.141-3.551-11.728-5.916-14.318-6.65q.062.561.068 1.144a7.569 7.569 0 0 1 2.124.516 3.736 3.736 0 0 1 2.322 3.885c-.223 4.168-3.1 8.3-6.045 8.665-.948.115-1.917-.475-2.894-1.767a4.765 4.765 0 0 1-.56.365c.067 3.926 4.057 6.41 6.232 7.763a5.5 5.5 0 0 1 1.576 1.175c.216.324.868 1.3-3.913 7.421"/><path class="c33" d="M137.511 207.83a4.138 4.138 0 0 0-6.406-.062c-1.17 1.351-2.208 3.586-1.959 7.212l.53 7.719h9.433v-9.221a9.772 9.772 0 0 0-1.6-5.648"/><path class="c35" d="M139.109 223.305h-9.433a.609.609 0 0 1-.608-.568l-.53-7.719c-.22-3.211.488-5.785 2.105-7.654a4.975 4.975 0 0 1 3.834-1.7 4.584 4.584 0 0 1 3.516 1.785 10.3 10.3 0 0 1 1.725 6.047v9.194a.61.61 0 0 1-.61.61m-8.864-1.22h8.254v-8.61a9.234 9.234 0 0 0-1.471-5.275 3.326 3.326 0 0 0-2.585-1.31 3.653 3.653 0 0 0-2.877 1.275c-1.4 1.616-2.009 3.894-1.811 6.77z"/><path class="c8" d="m103.39 235.923 2.367 1.93h3.926a6.09 6.09 0 0 0 0-1.8c-.172-.424-1.522-.848-2.916-1.272s-.938-.786-.938-.786h3.854a11.347 11.347 0 0 1 2.982 1.527 12.316 12.316 0 0 0 3.275 1.59l15.432-4.451-.848-9.963h8.055v8.637c0 6.943-3.391 7.366-3.391 7.366l-19.248 1.272-3.644.954s-3.394.107-4.666 0-4.557-2.862-5.193-4.345.954-.658.954-.658"/><path class="c35" d="M109.416 241.583c-.71 0-1.392-.012-1.837-.05-1.612-.135-5.022-3.122-5.7-4.714-.288-.673-.26-1.175.083-1.494.52-.483 1.37-.123 1.713.055a.609.609 0 0 1 .1.069l2.2 1.792h3.155a3.87 3.87 0 0 0-.012-.965 14.213 14.213 0 0 0-2.528-.914c-.605-.185-1.314-.473-1.427-1.069a.811.811 0 0 1 .287-.778.614.614 0 0 1 .38-.133h3.855a.618.618 0 0 1 .189.03 11.869 11.869 0 0 1 3.168 1.626 11.148 11.148 0 0 0 2.911 1.433l14.771-4.261-.805-9.465a.609.609 0 0 1 .607-.662h8.055a.61.61 0 0 1 .61.61v8.638c0 7.4-3.766 7.952-3.926 7.971l-19.225 1.272-3.589.939a.576.576 0 0 1-.135.02c-.092 0-1.544.047-2.9.047m-6.377-5.153c.673 1.367 3.706 3.81 4.642 3.888 1.124.094 4.043.014 4.527 0l3.578-.936a.61.61 0 0 1 .113-.019l19.248-1.272c-.015 0 2.823-.526 2.823-6.758v-8.03h-6.782l.792 9.3a.611.611 0 0 1-.438.638l-15.434 4.462a.606.606 0 0 1-.349 0 12.8 12.8 0 0 1-3.47-1.7 10.558 10.558 0 0 0-2.707-1.4h-1.35c1.194.4 1.818.731 2.016 1.217a5.591 5.591 0 0 1 .041 2.108.61.61 0 0 1-.605.533h-3.926a.611.611 0 0 1-.385-.137l-2.313-1.884-.02-.01"/><path d="M129.78 287.768c1.393.424 2.743.848 2.916 1.272a6.09 6.09 0 0 1 0 1.8h-3.926l-2.367-1.93-3.18-5.171h6.556l1.722 3.242h-2.661s-.455.362.938.786" transform="translate(-23.013 -52.99)" style="fill:#656464"/><path class="c38" d="M109.684 238.461h-3.926a.611.611 0 0 1-.385-.137l-2.367-1.929a.593.593 0 0 1-.134-.154l-3.18-5.171a.61.61 0 0 1 .519-.93h6.556a.61.61 0 0 1 .538.324l1.722 3.242a.61.61 0 0 1-.538.9h-.261c1.194.4 1.818.731 2.016 1.217a5.591 5.591 0 0 1 .041 2.108.609.609 0 0 1-.605.533m-3.709-1.22h3.157a3.87 3.87 0 0 0-.012-.965 14.2 14.2 0 0 0-2.528-.915c-.605-.184-1.314-.472-1.427-1.068a.811.811 0 0 1 .287-.778.609.609 0 0 1 .38-.133h1.646l-1.074-2.023h-5.1l2.554 4.155z"/><path class="c8" d="m104.524 221.105 3.839-8.5-.068-2.82a8.784 8.784 0 0 0 6.5 1.051c.277 5.2-.808 5.131-.808 5.131l-5.523 5.844a1.032 1.032 0 0 0 .176 1.566l1.039.7v4.134s-1.242.5-1.192-.848c.1-2.75-1.639-2.209-1.639-2.209l-.705 3.124.509 1.336a.35.35 0 0 1-.183.446 5.411 5.411 0 0 1-.7.245c-.741.211-1.448-1.745-1.448-1.745l-2.367-.468a.943.943 0 0 1-.749-.782l-.257-1.66z"/><path class="c35" d="M105.645 230.93c-.857 0-1.459-1.1-1.768-1.84l-2.037-.4a1.558 1.558 0 0 1-1.235-1.287l-.255-1.66a.613.613 0 0 1 .123-.471l3.525-4.481 3.751-8.307-.064-2.682a.611.611 0 0 1 .952-.52 8.205 8.205 0 0 0 6.061.954.609.609 0 0 1 .708.569c.161 3.019-.089 4.811-.768 5.48a1.074 1.074 0 0 1-.316.219l-5.411 5.727a.422.422 0 0 0 .072.641l1.04.7a.611.611 0 0 1 .27.507v4.134a.608.608 0 0 1-.384.566 1.689 1.689 0 0 1-1.481-.1 1.454 1.454 0 0 1-.548-1.34 1.952 1.952 0 0 0-.368-1.522.467.467 0 0 0-.167-.079l-.563 2.493.444 1.165a.961.961 0 0 1-.508 1.221 6.223 6.223 0 0 1-.777.272 1.09 1.09 0 0 1-.3.041m-4.049-5.115.215 1.4a.338.338 0 0 0 .266.277l2.367.468a.609.609 0 0 1 .455.39 3.707 3.707 0 0 0 .777 1.347c.123-.037.229-.072.32-.1l-.419-1.1a.621.621 0 0 1-.024-.351l.705-3.125a.609.609 0 0 1 .413-.448 1.817 1.817 0 0 1 1.582.279 2.371 2.371 0 0 1 .821 1.712v-2.159l-.77-.517a1.643 1.643 0 0 1-.278-2.492l5.522-5.844a.613.613 0 0 1 .259-.163c.11-.147.511-.9.411-3.852a9.831 9.831 0 0 1-5.287-.7l.042 1.757a.61.61 0 0 1-.054.265l-3.839 8.5a.62.62 0 0 1-.076.126zm2.927-4.709zm9.507-5.749zm0 0zm0 0zm0 0z"/><path class="c8" d="M101.958 228.087a.943.943 0 0 1-.749-.782l-.256-1.66h3.727l-.355 1.489v1.422z"/><path class="c35" d="M104.325 229.166a.582.582 0 0 1-.118-.012l-2.367-.468a1.558 1.558 0 0 1-1.235-1.287l-.255-1.66a.61.61 0 0 1 .6-.7h3.728a.609.609 0 0 1 .593.751l-.339 1.419v1.35a.611.611 0 0 1-.61.61m-2.661-2.911.148.957a.337.337 0 0 0 .265.277l1.638.324v-.679a.591.591 0 0 1 .017-.142l.176-.738z"/><path class="c8" d="M120.869 198.533c-2.833-1.622-4.181 3.917-4.181 3.917h-1.618c-2.968-2.7-3.1-.136-10.115 0a4.52 4.52 0 0 1-3.144-.95l8.905 8.907s4.084.674 6.107-2.293a15.326 15.326 0 0 0 2.428-4.99s3.911-1.761 1.618-4.59"/><path class="c35" d="M111.743 211.084a7.481 7.481 0 0 1-1.126-.076.606.606 0 0 1-.332-.171l-8.906-8.908a.61.61 0 0 1 .826-.9 3.986 3.986 0 0 0 2.737.805 20.808 20.808 0 0 0 5.743-.856c1.705-.473 2.753-.762 4.616.858h.922c.311-1.031 1.165-3.353 2.732-4.026a2.409 2.409 0 0 1 2.216.19.62.62 0 0 1 .171.145 3.124 3.124 0 0 1 .784 2.75 4.634 4.634 0 0 1-2.353 2.642 17.264 17.264 0 0 1-2.447 4.916 6.577 6.577 0 0 1-5.585 2.628m-.744-1.258c.771.075 3.774.211 5.321-2.057a15.015 15.015 0 0 0 2.332-4.769.619.619 0 0 1 .346-.434c.462-.21 1.711-.97 1.943-1.952a1.893 1.893 0 0 0-.473-1.605 1.144 1.144 0 0 0-1.03-.076c-1.156.5-1.95 2.811-2.158 3.66a.611.611 0 0 1-.593.466h-1.615a.61.61 0 0 1-.411-.159c-1.478-1.343-1.982-1.2-3.647-.743a21.888 21.888 0 0 1-6.046.9c-.26 0-.513 0-.756-.023z"/><path d="M123.484 243.041c-1.385-2.747.01-7.186.01-7.186 5.4-10.924 15.779-6.069 15.779-6.069 6.069 3.237 4.182 11.46 4.182 11.46-2.833-1.623-4.182 3.917-4.182 3.917h-1.618c-2.323-2.112-2.911-1-6.425-.353a19.483 19.483 0 0 1-4.8 1.885c-2.22.342-4.825-.688-5.5-2.831a2.929 2.929 0 0 0 2.55-.823" transform="translate(-22.585 -42.713)" style="fill:#949495"/><path class="c38" d="M103.005 204.655c-2.2 0-4.552-1.128-5.238-3.322a.61.61 0 0 1 .708-.779 2.179 2.179 0 0 0 1.678-.407c-1.139-2.924.119-7.006.176-7.187a.54.54 0 0 1 .035-.087c5.594-11.327 16.476-6.4 16.585-6.352 6.436 3.432 4.537 12.063 4.518 12.15a.613.613 0 0 1-.351.422.6.6 0 0 1-.548-.03 1.189 1.189 0 0 0-1.126-.128c-1.156.5-1.95 2.811-2.158 3.66a.61.61 0 0 1-.592.465h-1.618a.608.608 0 0 1-.411-.159c-1.479-1.344-1.981-1.207-3.649-.742-.572.158-1.279.354-2.163.52a19.8 19.8 0 0 1-4.911 1.905 6.079 6.079 0 0 1-.932.07m-3.673-2.881a4.748 4.748 0 0 0 4.419 1.606 19.177 19.177 0 0 0 4.606-1.821.614.614 0 0 1 .176-.061c.875-.161 1.553-.35 2.152-.515 1.7-.473 2.753-.762 4.617.857h.921c.311-1.031 1.166-3.353 2.733-4.026a2.26 2.26 0 0 1 1.436-.124c.27-1.988.588-7.636-3.991-10.079-.374-.173-9.859-4.434-14.923 5.755-.133.45-1.222 4.331-.035 6.687a.61.61 0 0 1-.133.725 3.852 3.852 0 0 1-1.979.995"/><path transform="translate(141.372 114.054)" style="stroke:#fff;stroke-miterlimit:10;fill:none" d="M0 0v4.953"/><g class="c41"><path class="c43" d="M190.14 24.747a10.738 10.738 0 0 1 2.9-.919c3.459-.594 7.587.282 12.018 2.842.689.4 1.358.826 2.027 1.277.532-6.154 2.847-10.684 6.373-13.259a13.533 13.533 0 0 0-1.683-.1 11.563 11.563 0 0 0-5.035 1.094z" transform="translate(-35.51 -2.724)" style="clip-path:url(#clip-path-48)"/></g><path class="c8" d="M171.584 25.63a.4.4 0 0 1-.228-.069 34.395 34.395 0 0 0-2-1.262c-4.2-2.425-8.263-3.391-11.746-2.793a10.3 10.3 0 0 0-2.8.885.407.407 0 0 1-.372-.723l16.6-9.068a11.969 11.969 0 0 1 5.229-1.144 14.057 14.057 0 0 1 1.733.106.406.406 0 0 1 .189.732c-3.553 2.6-5.7 7.078-6.208 12.966a.407.407 0 0 1-.23.332.4.4 0 0 1-.175.04m-11.906-5.11a20.5 20.5 0 0 1 10.083 3.076c.468.27.957.572 1.484.915.584-5.345 2.528-9.539 5.657-12.227q-.311-.015-.627-.015a11.16 11.16 0 0 0-4.859 1.054l-13.356 7.294a13.409 13.409 0 0 1 1.618-.1"/><g class="c41"><path class="c43" d="m319.548 79.627-16.6 9.068c.562.264 1.129.559 1.7.888 10.855 6.272 19.655 21.444 19.655 33.9 0 6.316-2.262 10.716-5.909 12.7l16.728-9.136c.017-.008.035-.019.05-.027l.128-.076c3.467-2.062 5.61-6.39 5.61-12.532 0-12.451-8.8-27.629-19.655-33.894a23.92 23.92 0 0 0-1.705-.893" transform="translate(-56.578 -14.871)" style="clip-path:url(#clip-path-49)"/></g><path class="c8" d="M261.824 121.723a.407.407 0 0 1-.194-.764l.02-.011c3.661-2.006 5.677-6.386 5.677-12.334 0-12.3-8.727-27.352-19.452-33.55a24.853 24.853 0 0 0-1.674-.872.406.406 0 0 1-.021-.725l16.6-9.067a.4.4 0 0 1 .369-.011c.624.3 1.191.593 1.735.908 10.95 6.321 19.858 21.684 19.858 34.246 0 6.049-2.041 10.607-5.75 12.847a.3.3 0 0 1-.05.034l-.128.077a2.236 2.236 0 0 1-.084.045l-16.684 9.113-.024.013a.409.409 0 0 1-.194.05m-14.571-47.917c.345.176.687.362 1.023.555 10.952 6.328 19.86 21.693 19.86 34.254 0 4.374-1.057 7.952-3.037 10.447l13.364-7.3a.351.351 0 0 1 .049-.038c3.49-2.075 5.411-6.4 5.411-12.183 0-12.3-8.726-27.35-19.451-33.542-.47-.272-.96-.53-1.491-.787z"/><g class="c41"><path class="c43" d="m236.842 2.285-16.148 8.82c.1-.055.207-.108.312-.161a15.055 15.055 0 0 1 10.1-.912 27.688 27.688 0 0 1 7.788 3.142c8.145 4.7 15.425 13.171 20.236 22.636l16.6-9.064c-4.809-9.465-12.089-17.932-20.23-22.636-7.177-4.146-13.68-4.587-18.411-1.958v-.006l-.058.037c-.063.034-.122.069-.183.1" transform="translate(-41.216 -.095)" style="clip-path:url(#clip-path-50)"/></g><path class="c8" d="M217.918 36.122a.41.41 0 0 1-.363-.223c-4.971-9.781-12.288-17.969-20.076-22.468a27.294 27.294 0 0 0-7.673-3.1 14.748 14.748 0 0 0-9.835.878l-.3.155a.406.406 0 0 1-.385-.716l16.148-8.82h.007l.174-.1a.454.454 0 0 1 .063-.028c5.069-2.815 11.748-2.119 18.812 1.962 7.919 4.573 15.352 12.885 20.394 22.8a.405.405 0 0 1-.168.541l-16.6 9.064a.4.4 0 0 1-.194.05m-31.998-27.04a18.737 18.737 0 0 1 4.059.463 28.119 28.119 0 0 1 7.9 3.186c7.822 4.518 15.168 12.678 20.2 22.432l15.895-8.675c-4.967-9.626-12.2-17.674-19.9-22.117-6.806-3.93-13.2-4.624-18.009-1.954l-.044.02-.02.012-.184.1-12.285 6.713a15.519 15.519 0 0 1 2.388-.18"/></g><g style="clip-path:url(#clip-path-51)" transform="translate(179.004 11.148)"><path class="c47" d="M.006.125.221.001v.124zm-.001 0L.22.001z"/><path class="c48" d="M.005.125.22.001z"/><path class="c49" d="M.005.124.221 0z"/><path class="c50" d="M.004.124.219 0z"/><path class="c51" d="M.004.124.219 0z"/><path class="c52" d="M.004.125.22.001z"/><path class="c53" d="M.003.125.219.001z"/><path class="c54" d="M.003.125.218.001z"/><path class="c55" d="M.003.125.219.001z"/><path class="c56" d="M.002.125.218.001z"/><path class="c57" d="M.002.125.218.001z"/><path class="c58" d="M.002.125.217.001z"/><path class="c59" d="M.002.125.217.001z"/><path class="c60" d="M.002.125.218.001z"/><path class="c61" d="M.002.125.218.001z"/><path class="c62" d="M.002.125.217.001z"/><path class="c63" d="M.001.125.217.001z"/><path class="c64" d="M.001.125.217.001z"/><path class="c65" d="M0 .125.216.001z"/><path class="c66" d="M0 .124.216 0z"/><path class="c67" d="M0 .124.216 0z"/><path class="c68" d="M0 .124.215 0z"/><path class="c69" d="M0 .124.215 0z"/><path class="c70" d="M0 .124.215 0z"/><path class="c71" d="M0 .124.214 0z"/><path class="c72" d="M0 .124.214 0z"/><path class="c73" d="M0 .124.214 0z"/><path class="c74" d="M0 .123.213 0z"/><path class="c75" d="M0 .123.213 0z"/><path class="c76" d="M0 .123.213 0z"/><path class="c77" d="M0 .123.212 0z"/><path class="c78" d="M0 .123.212 0z"/><path class="c79" d="M0 .123.212.001z"/><path class="c80" d="M0 .122.211 0z"/><path class="c81" d="M0 .122.211 0z"/><path class="c82" d="M0 .122.211 0z"/><path class="c83" d="M0 .122.211 0z"/><path class="c84" d="M0 .122.211 0z"/><path class="c85" d="M0 .121.211 0z"/><path class="c86" d="M0 .121.21 0z"/><path class="c87" d="M0 .121.21 0z"/><path class="c88" d="M0 .121.21 0z"/><path class="c89" d="M0 .121.209 0z"/><path class="c90" d="M0 .12.209 0z"/><path class="c91" d="M0 .12.209 0z"/><path class="c92" d="M0 .12.208 0z"/><path class="c93" d="M0 .12.208 0z"/><path class="c94" d="M0 .12.208 0z"/><path class="c95" d="M0 .12.207 0z"/><path class="c96" d="M0 .12.207 0z"/><path class="c97" d="M0 .12.207 0z"/><path class="c98" d="m0 .119.207-.12zM.207 0 0 .12V0z"/></g><g class="c2"><g class="c41"><path class="c43" d="M267.961 41.751c3.025-.856 6.789-.228 10.862 2.124a27.86 27.86 0 0 1 2.428 1.585c8.864 6.476 15.7 19.137 15.7 29.677a19.644 19.644 0 0 1-.538 4.723l16.6-9.068a19.622 19.622 0 0 0 .537-4.718c0-11.487-8.114-25.489-18.124-31.267-4.079-2.353-7.843-2.982-10.867-2.121z" transform="translate(-50.043 -6.036)" style="clip-path:url(#clip-path-53)"/></g><path class="c8" d="M246.374 74.231a.407.407 0 0 1-.394-.505 19.356 19.356 0 0 0 .525-4.624c0-10.261-6.678-22.878-15.535-29.349a27.492 27.492 0 0 0-2.393-1.56c-3.855-2.226-7.5-2.949-10.548-2.085a.41.41 0 0 1-.487-.237.405.405 0 0 1 .182-.511l16.6-9.065a.371.371 0 0 1 .083-.034c3.256-.929 7.122-.181 11.181 2.159 10.106 5.833 18.328 20.018 18.328 31.619a20.093 20.093 0 0 1-.549 4.816.408.408 0 0 1-.2.259l-16.6 9.067a.4.4 0 0 1-.194.05m-25.714-39.29a16.9 16.9 0 0 1 8.324 2.548 28.431 28.431 0 0 1 2.464 1.606c9.048 6.611 15.87 19.511 15.87 30.007a20.9 20.9 0 0 1-.355 3.938l15.657-8.554a19.512 19.512 0 0 0 .483-4.448c0-11.342-8.04-25.211-17.921-30.914-3.845-2.218-7.481-2.941-10.509-2.095l-14.5 7.922q.245-.011.493-.011"/></g><g style="clip-path:url(#clip-path-54)" transform="translate(250.199 32.297)"><path class="c47" d="m1.558 1.566.084-.048z"/><path class="c48" d="m1.474 1.566.168-.1v.049l-.084.048z"/><path class="c49" d="m1.391 1.567.251-.145v.048l-.168.1z"/><path class="c50" d="m1.308 1.571.335-.194v.049l-.251.145z"/><path class="c51" d="m1.223 1.567.419-.242v.048l-.335.194z"/><path class="c52" d="m1.139 1.567.5-.29v.049l-.419.242z"/><path class="c53" d="m1.056 1.567.586-.338v.048l-.5.29z"/><path class="c54" d="m.973 1.566.67-.387v.049l-.586.338z"/><path class="c55" d="m.889 1.566.754-.435v.048l-.67.387z"/><path class="c56" d="m.805 1.566.838-.484v.049l-.754.435z"/><path class="c57" d="m.721 1.566.921-.532v.048l-.838.484z"/><path class="c58" d="m.638 1.566 1.005-.58v.048l-.921.532z"/><path class="c59" d="M.554 1.571 1.643.942v.049l-1.005.58z"/><path class="c60" d="M.47 1.567 1.643.89v.048l-1.089.629z"/><path class="c61" d="M.386 1.567 1.642.842v.051L.469 1.57z"/><path class="c62" d="m.303 1.567 1.34-.773v.048l-1.256.725z"/><path class="c63" d="M.219 1.566 1.643.744v.049l-1.34.773z"/><path class="c64" d="m.135 1.566 1.508-.87v.048l-1.424.822z"/><path class="c65" d="M.051 1.566 1.642.647v.049l-1.508.87z"/><path class="c66" d="M0 1.548 1.642.6v.048l-1.591.918H0z"/><path class="c67" d="M0 1.499 1.642.551V.6L0 1.547z"/><path class="c68" d="M0 1.451 1.642.503v.049L0 1.499z"/><path class="c69" d="M0 1.403 1.642.455v.049L0 1.451z"/><path class="c70" d="M0 1.355 1.642.407v.049L0 1.403z"/><path class="c71" d="M0 1.304 1.642.356v.048L0 1.351z"/><path class="c72" d="M0 1.258 1.642.31v.049L0 1.306z"/><path class="c73" d="M0 1.209 1.642.261V.31L0 1.257z"/><path class="c74" d="M0 1.161 1.642.213v.049L0 1.209z"/><path class="c75" d="M0 1.112 1.642.164v.049L0 1.16z"/><path class="c76" d="M0 1.059 1.642.111v.048L0 1.107z"/><path class="c77" d="M0 1.015 1.645.07v.049l-1.642.947z"/><path class="c78" d="M0 .968 1.642.02v.049L0 1.016z"/><path class="c79" d="M0 .919 1.591 0h.05v.02L-.001.967z"/><path class="c80" d="m0 .871 1.508-.87h.084L.001.919z"/><path class="c81" d="M0 .822 1.424 0h.084L0 .87z"/><path class="c82" d="M0 .774 1.34.001h.084L0 .822z"/><path class="c83" d="M0 .726 1.256.001h.089L.005.774z"/><path class="c84" d="M0 .678 1.173.001h.084L.001.726z"/><path class="c85" d="M0 .629 1.089 0h.084L0 .677z"/><path class="c86" d="m0 .581 1.005-.58h.084L0 .629z"/><path class="c87" d="M0 .532.921 0h.084L0 .58z"/><path class="c88" d="M0 .486.838.002h.084L.001.534z"/><path class="c89" d="M0 .436.754.001h.084L0 .484z"/><path class="c90" d="m0 .386.67-.387h.084L0 .434z"/><path class="c91" d="M0 .339.586.001H.67L0 .387z"/><path class="c92" d="m0 .286.5-.29h.084l-.586.338z"/><path class="c93" d="M0 .242.419 0h.084l-.5.29z"/><path class="c94" d="M0 .194.335 0h.084L0 .242z"/><path class="c95" d="M0 .146.251.001h.084L0 .194z"/><path class="c96" d="m0 .097.168-.1h.084L.001.142z"/><path class="c97" d="M0 .049.084.001h.084L0 .101z"/><path class="c98" d="M0 .001h.084L0 .049z"/></g><g style="clip-path:url(#clip-path-55)" transform="translate(153.461 25.307)"><path class="c55" d="M.894.014.883-.001h.011z"/><path class="c56" d="M.898.04.869-.001h.019l.011.015z"/><path class="c57" d="M.903.066.855-.001h.019L.903.04z"/><path class="c58" d="M.898.092.831-.002H.85l.048.068z"/><path class="c59" d="m.898.119-.085-.12h.019l.067.094z"/><path class="c60" d="m.898.145-.1-.146h.02l.085.12z"/><path class="c61" d="M.898.171.774-.001h.019l.1.146z"/><path class="c62" d="m.898.197-.142-.2h.019l.124.172z"/><path class="c63" d="M.898.224.737 0h.019l.142.2z"/><path class="c64" d="M.898.25.718 0h.019l.161.224z"/><path class="c65" d="m.898.276-.2-.277h.019l.18.25z"/><path class="c66" d="M.898.302.68.002H.7l.2.277z"/><path class="c67" d="M.898.328.661-.001H.68l.218.3z"/><path class="c68" d="M.898.355.643 0h.019l.237.329z"/><path class="c69" d="M.898.382.624.001h.019l.255.355z"/><path class="c70" d="M.898.407.605-.001h.019l.274.382z"/><path class="c71" d="M.898.433.586-.001h.02l.293.408z"/><path class="c72" d="M.898.46.567 0h.019l.312.434z"/><path class="c73" d="m.898.482-.35-.486h.019l.331.46z"/><path class="c74" d="M.898.512.53-.001h.019l.35.487z"/><path class="c75" d="M.898.538.511-.001H.53l.368.513z"/><path class="c76" d="M.898.565.492 0h.019l.387.539z"/><path class="c77" d="M.898.591.473 0h.02l.406.565z"/><path class="c78" d="M.894.617.45-.001h.019l.425.592z"/><path class="c79" d="M.898.643.435-.001h.019l.444.618z"/><path class="c80" d="M.902.67.421 0H.44l.463.644z"/><path class="c81" d="m.899.696-.5-.7h.019l.481.67z"/><path class="c82" d="M.898.722.379-.001h.019l.5.7z"/><path class="c83" d="M.898.748.36-.001h.02l.519.723z"/><path class="c84" d="M.898.775.341 0H.36l.538.749z"/><path class="c85" d="m.898.801-.576-.8h.019l.557.775z"/><path class="c86" d="M.883.806.304 0h.019l.576.8z"/><path class="c87" d="M.864.806.285 0h.019l.579.806z"/><path class="c88" d="M.845.806.266 0h.019l.579.806z"/><path class="c89" d="M.826.806.247 0h.019l.579.806z"/><path class="c90" d="M.808.806.229 0h.017l.579.806z"/><path class="c91" d="M.789.806.21 0h.019l.579.806z"/><path class="c92" d="M.769.806.19 0h.019l.579.806z"/><path class="c93" d="M.751.806.172 0h.019L.77.806z"/><path class="c94" d="M.732.806.153 0h.019l.579.806z"/><path class="c95" d="M.713.806.134 0h.019l.579.806z"/><path class="c96" d="M.695.806.116 0h.019l.579.806z"/><path class="c97" d="M.676.806.097 0h.019l.579.806z"/><path class="c98" d="M.656.806.077 0h.019l.579.806z"/><path class="c98" d="m.077-.001.579.806h-.658v-.806z"/></g><g class="c2"><g class="c41"><path class="c8" d="M296.442 123.388c.18-.18.347-.369.516-.573a7.01 7.01 0 0 1-5.746 2.693 13.088 13.088 0 0 1-4.571-.946 17.238 17.238 0 0 1-1.747-.766c-.382-.191-80.312-46.337-80.611-46.515A43.274 43.274 0 0 1 190.58 62.4c-3.925-6.786-6.09-13.978-6.09-20.272 0-4.635 1.158-8.193 3.279-10.383 0 .07-.013.142-.013.223 0 7.6 2.622 16.287 7.349 24.472 4.5 7.744 10.328 14.062 16.538 17.964.3.191 60.7 35.063 84.8 48.98" transform="translate(-34.454 -5.929)" style="clip-path:url(#clip-path-57)"/></g><path class="c8" d="M256.838 123.128c-4.521-.344-5.751-1.126-6.565-1.644a3.1 3.1 0 0 0-.6-.325l-.091-.041c-9.789-5.491-63.023-36.132-76.743-44.037-17.306-8.254-27.458-29.8-25.721-43.962.853-6.952 4.505-11.429 10.283-12.606 3.657-.782 9.156.7 13.676 3.633.936-7.984 4.679-11.7 7.721-13.427 4.626-2.616 10.771-2.4 16.855.6 9.1 4.531 16.489 12.289 22.589 23.713 12.177-2 23.211 12.2 27.2 23.09a31.617 31.617 0 0 1 2.046 12.2 4.073 4.073 0 0 1-.281 2.088c-.307.936-.25 1.012.013 1.153 14.589 7.28 23.236 27.781 20.66 39.9-1.271 5.979-5.194 9.413-11.045 9.669m-6.7-3.1a4.345 4.345 0 0 1 .787.425c.712.452 1.788 1.137 5.931 1.457 6.647-.3 9.022-4.9 9.833-8.706 2.472-11.625-6.284-31.7-20.028-38.56-1.251-.671-.866-1.842-.611-2.617a2.95 2.95 0 0 0 .233-1.513l-.019-.079v-.082a30.082 30.082 0 0 0-1.974-11.828c-3.886-10.6-14.608-24.528-26.265-22.219l-.446.087-.211-.4c-6.016-11.406-13.3-19.12-22.26-23.583-5.715-2.815-11.443-3.044-15.712-.629-4.18 2.366-6.673 7.032-7.21 13.495l-.088 1.067-.873-.621c-4.339-3.086-10.048-4.775-13.576-4.016h-.006c-5.224 1.063-8.534 5.169-9.318 11.559-1.688 13.75 8.2 34.682 25.076 42.734 13.741 7.915 66.841 38.479 76.733 44.029"/></g></g></svg>
