<svg xmlns="http://www.w3.org/2000/svg" width="116.237" height="214.986"><defs><style>.c32{fill:none}.c2{clip-path:url(#clip-path)}.c3{opacity:.1}.c5{fill:#fff}.c32{stroke:#000;stroke-linecap:round;stroke-linejoin:round;stroke-width:0}</style></defs><g class="c2"><g class="c2"><g class="c3"><path class="c5" d="M95.537 71.173a16.36 16.36 0 0 1-1.054 1.33c-.046.053-.094.1-.142.157a20.864 20.864 0 0 1-2.607 2.423c-.1.075-.188.15-.284.224q-.708.54-1.487 1.055c-.1.069-.213.136-.32.2l-.259.166q1.89.7 3.682 1.512a22.344 22.344 0 0 0 7.566-7.795 18.812 18.812 0 0 0-2.97-3.928 12.8 12.8 0 0 1-2.083 4.59l-.043.062" transform="translate(5.009 3.728)" style="clip-path:url(#clip-path-3)"/></g><g class="c3"><path class="c5" d="M74.106 88.614a26.59 26.59 0 0 1-1.576 1.3 39.585 39.585 0 0 0 4.159 2.765 49.664 49.664 0 0 0 6.064 2.947 44.289 44.289 0 0 0 9.461-3.991 24.035 24.035 0 0 0 9.212-8.652A39.85 39.85 0 0 0 97.7 80.55a47.317 47.317 0 0 0-3.283-1.718c-.5.326-1.021.647-1.561.959a49.569 49.569 0 0 1-15.619 5.5 27.612 27.612 0 0 1-3.134 3.325" transform="translate(4.065 4.418)" style="clip-path:url(#clip-path-4)"/></g><g class="c3"><path class="c5" d="M34.866 64.609c1.571-3.126 4.518-5.946 8.7-8.259 13.07-7.219 34.332-7.219 47.4 0 4.186 2.313 7.133 5.132 8.7 8.257-.262-4.423-3.546-8.588-9.329-11.783-6.362-3.513-14.719-5.271-23.076-5.271S50.559 49.309 44.2 52.825c-5.784 3.195-9.068 7.362-9.329 11.784" transform="translate(1.954 2.665)" style="clip-path:url(#clip-path-5)"/></g><g class="c3"><path class="c5" d="M94.787 61.663q1.442.832 2.712 1.735a21 21 0 0 0-7.26-6.165c-12.724-7.029-33.429-7.029-46.153 0a21.01 21.01 0 0 0-7.26 6.167q1.27-.9 2.71-1.734c15.232-8.795 40.019-8.794 55.251 0" transform="translate(2.064 2.912)" style="clip-path:url(#clip-path-6)"/></g><g class="c3"><path class="c5" d="M87.1 76.355c-1.872-.6-3.8-1.122-5.772-1.561a14.477 14.477 0 0 1-.846 4.237 38.655 38.655 0 0 0 6.618-2.676" transform="translate(4.51 4.192)" style="clip-path:url(#clip-path-7)"/></g><g class="c3"><path class="c5" d="M29.5 71.376c.112-.265.238-.527.365-.788-.1-.19-.183-.381-.271-.572-.029-.062-.067-.122-.094-.184z" transform="translate(1.653 3.914)" style="clip-path:url(#clip-path-8)"/></g><g class="c3"><path class="c5" d="M29.136 174.506a29.544 29.544 0 0 1-3.247-4.092l.829-.545a28.576 28.576 0 0 0 2.614 3.384 15.73 15.73 0 0 1 2.7-6.046 7.819 7.819 0 0 1-.42-5.293l1.109-3.725.021.006a7.266 7.266 0 0 1 1.521-2.557l-12-6.951v16.237c-.1 5.168 2.418 10.112 7.2 14.361a13.134 13.134 0 0 1-.324-4.78" transform="translate(1.247 8.333)" style="clip-path:url(#clip-path-9)"/></g><g class="c3"><path class="c5" d="M108.175 90.743a37.365 37.365 0 0 0-2.587-7.86 24.4 24.4 0 0 1-1.293 2.605 23.372 23.372 0 0 1 3.88 5.255" transform="translate(5.845 4.645)" style="clip-path:url(#clip-path-10)"/></g><g class="c3"><path class="c5" d="M51.514 153.011c.442.132.87.282 1.3.431a17.285 17.285 0 0 1 1.389-4.226 72.964 72.964 0 0 1-10.259-1.716 15.267 15.267 0 0 1-1.538 4.444 25.837 25.837 0 0 1 9.108 1.068" transform="translate(2.376 8.266)" style="clip-path:url(#clip-path-11)"/></g><g class="c3"><path class="c5" d="M106.194 168.96a17.632 17.632 0 0 1-3.916 7.482 13.367 13.367 0 0 1-.253 5.345c4.8-4.263 7.316-9.226 7.2-14.406V104.1c-.012.029-.027.055-.039.083q-.337.813-.76 1.609c-.071.133-.149.264-.224.4q-.347.624-.747 1.237c-.1.148-.19.3-.29.442-.3.442-.625.88-.968 1.313z" transform="translate(5.718 5.835)" style="clip-path:url(#clip-path-12)"/></g><g class="c3"><path class="c5" d="M42.013 76.429c-.1-.062-.2-.125-.294-.188q-.79-.521-1.508-1.07c-.089-.068-.173-.136-.26-.2a20.778 20.778 0 0 1-2.635-2.448l-.12-.133a16.808 16.808 0 0 1-1.07-1.35l-.026-.038a13.982 13.982 0 0 1-1.284-2.207 28.868 28.868 0 0 0-3.22 2.493 23.3 23.3 0 0 0 7.004 6.829q1.792-.813 3.683-1.512l-.274-.175" transform="translate(1.77 3.855)" style="clip-path:url(#clip-path-13)"/></g><g class="c3"><path class="c5" d="m96.273 72.56.177-.192c.344-.387.665-.778.956-1.177.02-.026.037-.053.056-.079a11.835 11.835 0 0 0 1.931-4.068 10.9 10.9 0 0 0-.577-1.667 31.47 31.47 0 0 0-4.431-3.077c-7.479-4.318-17.3-6.477-27.13-6.477S47.607 57.987 40.128 62.3a31.59 31.59 0 0 0-4.43 3.069 10.931 10.931 0 0 0-.578 1.67 11.844 11.844 0 0 0 1.942 4.085l.037.052c.3.407.622.8.973 1.2.051.057.1.113.155.169.353.384.726.762 1.13 1.132.017.016.036.031.053.045.383.348.8.687 1.226 1.022.088.069.173.137.264.206q.656.5 1.38.971l.3.192c.35.223.719.438 1.09.653a69.27 69.27 0 0 1 12.6-2.923 27.579 27.579 0 0 1 2.866-2.995c7.118-6.376 16.106-8.01 20.24-3.753l.017-.016 2.593 2.895a7.791 7.791 0 0 1 1.874 4.874 65.7 65.7 0 0 1 6.983 1.919c.365-.211.729-.422 1.073-.642.111-.07.223-.139.332-.211q.71-.466 1.357-.954c.1-.076.2-.153.294-.229.412-.321.808-.647 1.176-.981l.092-.079c.4-.363.762-.735 1.109-1.111" transform="translate(1.968 3.129)" style="clip-path:url(#clip-path-14)"/></g><g class="c3"><path class="c5" d="M101.623 71.38v-1.55c-.034.075-.079.148-.113.223-.084.178-.164.358-.255.534.128.263.256.527.368.793" transform="translate(5.675 3.914)" style="clip-path:url(#clip-path-15)"/></g><g class="c3"><path class="c5" d="M96.987 80.1a41.015 41.015 0 0 1 3.689 2.4 13.148 13.148 0 0 0 1.343-5.7v-1.879a13.517 13.517 0 0 0-.963-3.365c-.181.3-.377.6-.58.891-.049.071-.092.142-.142.212-.295.417-.615.829-.953 1.236-.092.111-.192.221-.287.331q-.4.458-.827.905c-.117.122-.234.244-.356.364-.353.351-.72.7-1.107 1.037-.048.041-.09.084-.137.126-.435.378-.894.747-1.37 1.11-.137.1-.279.207-.418.31-.239.176-.476.353-.724.525.968.474 1.918.968 2.83 1.5" transform="translate(5.277 4.01)" style="clip-path:url(#clip-path-16)"/></g><g class="c3"><path class="c5" d="M37.341 79.243c-.821.411-1.628.835-2.409 1.285a39.771 39.771 0 0 0-3.723 2.436 18.551 18.551 0 0 0 2.757 3.691q.467-.325.971-.648a17.522 17.522 0 0 1 2.4-6.764" transform="translate(1.75 4.441)" style="clip-path:url(#clip-path-17)"/></g><g class="c3"><path class="c5" d="M34.5 86.952c.045.044.094.088.139.131 0-.079.016-.158.019-.238-.053.036-.107.071-.158.107" transform="translate(1.933 4.867)" style="clip-path:url(#clip-path-18)"/></g><g class="c3"><path class="c5" d="M60.168 143.338c7.117-6.376 16.106-8.01 20.239-3.753l.017-.015.185.2 2.409 2.689a7.167 7.167 0 0 1 1.465 2.616c1.686-.351 3.355-.748 4.976-1.237 3.557-1.073 3.41 1.824-.265 3.192a66.176 66.176 0 0 1-4.3 1.415 17.812 17.812 0 0 1-3.157 8.757c.118.027.232.063.351.093 8.082-1.136 15.171 1.561 16.679 6.629l.022-.005.423 1.667a18.405 18.405 0 0 1 6.021 9.131 16.406 16.406 0 0 0 3.2-6.183l-.005-58.518c-.163.182-.332.361-.5.541-.137.144-.277.284-.417.426q-.57.58-1.193 1.142c-.118.108-.23.215-.351.322q-.79.694-1.659 1.362c-.143.11-.293.215-.437.324q-.7.523-1.445 1.028a42.21 42.21 0 0 1-2.531 1.595l-.048.03c-10.676 6.164-25.258 8.718-39.183 7.675a73.064 73.064 0 0 1-16.248-3.027v20.116a67.075 67.075 0 0 0 13.7 3.838 27.967 27.967 0 0 1 2.048-2.05" transform="translate(2.489 6.166)" style="clip-path:url(#clip-path-19)"/></g><g class="c3"><path class="c5" d="M88.92 76.81c-.125.071-.242.144-.369.214a39.959 39.959 0 0 1-8.541 3.41 22.405 22.405 0 0 1-1.942 3.436A47.468 47.468 0 0 0 91.9 78.787c.272-.157.531-.321.8-.482q-1.839-.808-3.78-1.5" transform="translate(4.376 4.305)" style="clip-path:url(#clip-path-20)"/></g><g class="c3"><path class="c5" d="M29.5 74.907V76.8a13.148 13.148 0 0 0 1.343 5.7 40.846 40.846 0 0 1 3.688-2.4 50.492 50.492 0 0 1 2.829-1.5c-.25-.173-.489-.352-.73-.529-.136-.1-.275-.2-.408-.3a29.088 29.088 0 0 1-1.378-1.117 1.049 1.049 0 0 1-.1-.1 25.742 25.742 0 0 1-1.474-1.41c-.3-.312-.589-.627-.865-.946-.084-.1-.173-.2-.256-.295a20.535 20.535 0 0 1-.973-1.261c-.034-.048-.062-.1-.1-.145a17.583 17.583 0 0 1-.618-.946 13.549 13.549 0 0 0-.96 3.35" transform="translate(1.653 4.01)" style="clip-path:url(#clip-path-21)"/></g><g class="c3"><path class="c5" d="M99.032 56.236a53.387 53.387 0 0 0-6.942-1.994c3.706 3.087 5.7 6.73 5.7 10.563A10.955 10.955 0 0 1 97.713 66a20.7 20.7 0 0 1 3.295 4.062 13.036 13.036 0 0 0 1.127-5.254 14.111 14.111 0 0 0-3.1-8.569" transform="translate(5.161 3.04)" style="clip-path:url(#clip-path-22)"/></g><g class="c3"><path class="c5" d="M102.551 79.524c-.04.176-.079.353-.127.528s-.108.372-.165.557-.1.343-.164.513c-.067.191-.144.381-.219.57-.064.162-.124.324-.193.485-.1.219-.2.436-.309.653a2.315 2.315 0 0 0-.046.1c.862.679 1.67 1.377 2.414 2.1a23.208 23.208 0 0 0 1.427-3.058 27.522 27.522 0 0 0-2.369-3.832c-.012.1-.033.2-.048.294-.026.178-.054.357-.087.535s-.075.371-.117.555" transform="translate(5.679 4.379)" style="clip-path:url(#clip-path-23)"/></g><g class="c3"><path class="c5" d="M104.179 85.594a30.676 30.676 0 0 0-2.358-2.078c-.076.13-.145.262-.223.391-.09.148-.191.293-.286.438-.124.189-.244.379-.375.566-.109.154-.226.305-.34.458-.132.176-.263.353-.4.528-.122.153-.252.3-.38.455-.146.171-.291.342-.444.511a37.244 37.244 0 0 1-.901.947c-.148.147-.3.293-.454.438q-.26.244-.529.485c-.158.14-.318.281-.482.42a67.315 67.315 0 0 1-1.085.88c-.21.163-.428.321-.646.479-.172.125-.34.251-.516.374-.242.169-.493.333-.742.5-.166.109-.326.22-.5.326a35.46 35.46 0 0 1-1.085.658c-.073.043-.14.088-.213.13a44.338 44.338 0 0 1-8.23 3.6c1.608.59 3.27 1.111 4.966 1.575 5.914-2.529 11.662-6.348 15.224-12.08" transform="translate(4.707 4.681)" style="clip-path:url(#clip-path-24)"/></g><g class="c3"><path class="c5" d="M100.2 116.927q.806-.466 1.567-.949c.109-.07.211-.143.319-.212.389-.253.776-.508 1.147-.768.163-.114.315-.233.475-.35.3-.219.606-.438.9-.662.178-.138.345-.281.519-.42.256-.207.514-.413.759-.623.177-.153.343-.309.515-.465.225-.2.453-.4.667-.609.171-.164.329-.331.492-.5.2-.2.4-.4.595-.608.159-.17.306-.344.458-.516.18-.2.361-.407.531-.612.1-.121.191-.245.288-.368v-.479c-18.176 7.975-44.2 7.186-60.8-2.394-8.456-4.882-12.944-11.179-13.5-17.57-.113-.1-.221-.2-.331-.295q-.306-.271-.6-.546a9.741 9.741 0 0 1-.329-.315c-6.6 4.969-7.316 9.764-7.325 9.823v7l15.676 9.083v5.589l3.189 1.849v.326a73.881 73.881 0 0 0 22.315 3.335c11.758 0 23.516-2.584 32.468-7.752" transform="translate(1.488 4.913)" style="clip-path:url(#clip-path-25)"/></g><g class="c3"><path class="c5" d="M30.146 82.927a15.87 15.87 0 0 1-.365-.772c-.048-.11-.087-.221-.131-.329-.1-.243-.2-.486-.281-.73-.046-.133-.084-.267-.127-.4-.072-.224-.14-.449-.2-.675a8.174 8.174 0 0 1-.1-.432 11.474 11.474 0 0 1-.211-1.105c-.017-.115-.041-.229-.055-.344a33.25 33.25 0 0 0-5.543 12.877 25.891 25.891 0 0 1 7.017-8.09" transform="translate(1.296 4.379)" style="clip-path:url(#clip-path-26)"/></g><g class="c3"><path class="c5" d="M33.415 87.18c-.091-.1-.18-.194-.267-.291-.176-.194-.344-.39-.51-.587-.107-.127-.214-.252-.318-.38a20.838 20.838 0 0 1-.478-.628c-.09-.119-.182-.239-.267-.359-.17-.242-.327-.485-.484-.73-.059-.092-.124-.184-.181-.277-.082-.136-.157-.275-.235-.411-4.574 3.644-7.416 7.87-8.281 12.341a35.224 35.224 0 0 0-.13 2.123l-.007.514v.071a15.123 15.123 0 0 0 .512 3.832l3.033 1.757v-6.493c.037-.31.781-5.32 7.608-10.481" transform="translate(1.247 4.681)" style="clip-path:url(#clip-path-27)"/></g><g class="c3"><path class="c5" d="M105.87 99.332h.992v.756c.984.02 1.967.018 2.951 0 .005-.054.014-.107.018-.159.018-.2.029-.41.038-.615.015-.322.029-.644.023-.968l-.012-.541h.008a34.755 34.755 0 0 0-.13-2.1 19.322 19.322 0 0 0-5.206-9.532c-3.463 5.449-8.827 9.192-14.435 11.755a75.734 75.734 0 0 0 15.753 2.134z" transform="translate(5.051 4.829)" style="clip-path:url(#clip-path-28)"/></g><path class="c5" d="M63.77 214.037a1.5 1.5 0 0 0-1.362 0 .415.415 0 0 0 0 .787 1.51 1.51 0 0 0 1.362 0 .415.415 0 0 0 0-.787m3.562-2.056a1.5 1.5 0 0 0-1.362 0 .415.415 0 0 0 0 .787 1.51 1.51 0 0 0 1.362 0 .415.415 0 0 0 0-.787m3.561-1.271a.415.415 0 0 0 0-.787 1.51 1.51 0 0 0-1.362 0 .415.415 0 0 0 0 .787 1.5 1.5 0 0 0 1.362 0m3.562-2.056a.415.415 0 0 0 0-.787 1.51 1.51 0 0 0-1.362 0 .415.415 0 0 0 0 .787 1.5 1.5 0 0 0 1.362 0m-14.247 3.327a1.5 1.5 0 0 0-1.362 0 .415.415 0 0 0 0 .787 1.51 1.51 0 0 0 1.362 0 .415.415 0 0 0 0-.787m3.562-2.056a1.5 1.5 0 0 0-1.362 0 .415.415 0 0 0 0 .787 1.51 1.51 0 0 0 1.362 0 .415.415 0 0 0 0-.787m3.562-2.056a1.5 1.5 0 0 0-1.362 0 .415.415 0 0 0 0 .787 1.51 1.51 0 0 0 1.362 0 .415.415 0 0 0 0-.787m-14.246 4.112a1.5 1.5 0 0 0-1.362 0 .415.415 0 0 0 0 .787 1.51 1.51 0 0 0 1.362 0 .415.415 0 0 0 0-.787m3.561-2.056a1.5 1.5 0 0 0-1.362 0 .415.415 0 0 0 0 .787 1.51 1.51 0 0 0 1.362 0 .415.415 0 0 0 0-.787m3.561-2.056a1.5 1.5 0 0 0-1.362 0 .415.415 0 0 0 0 .787 1.51 1.51 0 0 0 1.362 0 .415.415 0 0 0 0-.787m-10.684 2.056a1.5 1.5 0 0 0-1.362 0 .415.415 0 0 0 0 .787 1.51 1.51 0 0 0 1.362 0 .415.415 0 0 0 0-.787m3.562-2.056a1.5 1.5 0 0 0-1.362 0 .415.415 0 0 0 0 .787 1.51 1.51 0 0 0 1.362 0 .415.415 0 0 0 0-.787m2.199-2.055a.415.415 0 0 0 0 .787 1.51 1.51 0 0 0 1.362 0 .415.415 0 0 0 0-.787 1.1 1.1 0 0 0-.2-.077l-.353-.072a1.434 1.434 0 0 0-.807.149m-9.325 2.055a1.5 1.5 0 0 0-1.362 0 .415.415 0 0 0 0 .787 1.51 1.51 0 0 0 1.362 0 .415.415 0 0 0 0-.787m3.562-2.055a1.5 1.5 0 0 0-1.362 0 .415.415 0 0 0 0 .787 1.51 1.51 0 0 0 1.362 0 .415.415 0 0 0 0-.787m-7.154-.024a1.5 1.5 0 0 0-1.362 0 .415.415 0 0 0 0 .786 1.5 1.5 0 0 0 1.362 0 .415.415 0 0 0 0-.786m2.199-1.271a1.5 1.5 0 0 0 1.362 0 .415.415 0 0 0 0-.787 1.51 1.51 0 0 0-1.362 0 .415.415 0 0 0 0 .787m-5.761-.785a1.5 1.5 0 0 0-1.362 0 .415.415 0 0 0 0 .787 1.51 1.51 0 0 0 1.362 0 .415.415 0 0 0 0-.787m3.562-2.056a1.5 1.5 0 0 0-1.362 0 .415.415 0 0 0 0 .787 1.51 1.51 0 0 0 1.362 0 .415.415 0 0 0 0-.787m-7.124 0a1.5 1.5 0 0 0-1.362 0 .415.415 0 0 0 0 .787 1.51 1.51 0 0 0 1.362 0 .415.415 0 0 0 0-.787m3.562-2.056a1.5 1.5 0 0 0-1.362 0 .415.415 0 0 0 0 .787 1.51 1.51 0 0 0 1.362 0 .415.415 0 0 0 0-.787m-7.123 0a1.5 1.5 0 0 0-1.362 0 .415.415 0 0 0 0 .787 1.51 1.51 0 0 0 1.362 0 .415.415 0 0 0 0-.787m3.562-2.057a1.5 1.5 0 0 0-1.362 0 .415.415 0 0 0 0 .787 1.51 1.51 0 0 0 1.362 0 .415.415 0 0 0 0-.787m-3.562-2.056a1.5 1.5 0 0 0-1.362 0 .415.415 0 0 0 0 .787 1.51 1.51 0 0 0 1.362 0 .415.415 0 0 0 0-.787m0-4.112a1.5 1.5 0 0 0-1.362 0 .415.415 0 0 0 0 .787 1.51 1.51 0 0 0 1.362 0 .415.415 0 0 0 0-.787m57.156 20.255a1.5 1.5 0 0 0-1.362 0 .415.415 0 0 0 0 .787 1.51 1.51 0 0 0 1.362 0 .416.416 0 0 0 0-.787m3.562-2.057a1.5 1.5 0 0 0-1.362 0 .415.415 0 0 0 0 .787 1.51 1.51 0 0 0 1.362 0 .415.415 0 0 0 0-.787m3.562-2.056a1.5 1.5 0 0 0-1.362 0 .415.415 0 0 0 0 .787 1.51 1.51 0 0 0 1.362 0 .415.415 0 0 0 0-.787m3.561-2.056a1.5 1.5 0 0 0-1.362 0 .415.415 0 0 0 0 .787 1.51 1.51 0 0 0 1.362 0 .415.415 0 0 0 0-.787m3.558-2.056a1.5 1.5 0 0 0-1.362 0 .415.415 0 0 0 0 .787 1.51 1.51 0 0 0 1.362 0 .415.415 0 0 0 0-.787m3.565-2.057a1.5 1.5 0 0 0-1.362 0 .415.415 0 0 0 0 .787 1.51 1.51 0 0 0 1.362 0 .415.415 0 0 0 0-.787m3.562-2.056a1.5 1.5 0 0 0-1.362 0 .415.415 0 0 0 0 .787 1.51 1.51 0 0 0 1.362 0 .415.415 0 0 0 0-.787m3.561-2.054a1.5 1.5 0 0 0-1.362 0 .415.415 0 0 0 0 .787 1.51 1.51 0 0 0 1.362 0 .415.415 0 0 0 0-.787M78.16 213.708a1.5 1.5 0 0 0-1.362 0 .415.415 0 0 0 0 .787 1.51 1.51 0 0 0 1.362 0 .415.415 0 0 0 0-.787m3.557-2.056a1.5 1.5 0 0 0-1.362 0 .415.415 0 0 0 0 .787 1.51 1.51 0 0 0 1.362 0 .415.415 0 0 0 0-.787m3.562-2.057a1.5 1.5 0 0 0-1.362 0 .415.415 0 0 0 0 .787 1.51 1.51 0 0 0 1.362 0 .415.415 0 0 0 0-.787m3.562-2.056a1.5 1.5 0 0 0-1.362 0 .415.415 0 0 0 0 .787 1.51 1.51 0 0 0 1.362 0 .416.416 0 0 0 0-.787m3.562-2.056a1.5 1.5 0 0 0-1.362 0 .415.415 0 0 0 0 .787 1.51 1.51 0 0 0 1.362 0 .415.415 0 0 0 0-.787m3.562-2.056a1.5 1.5 0 0 0-1.362 0 .415.415 0 0 0 0 .787 1.51 1.51 0 0 0 1.362 0 .415.415 0 0 0 0-.787m3.561-2.057a1.5 1.5 0 0 0-1.362 0 .415.415 0 0 0 0 .787 1.51 1.51 0 0 0 1.362 0 .415.415 0 0 0 0-.787m3.558-2.056a1.5 1.5 0 0 0-1.362 0 .415.415 0 0 0 0 .787 1.51 1.51 0 0 0 1.362 0 .415.415 0 0 0 0-.787m3.565-2.054a1.5 1.5 0 0 0-1.362 0 .415.415 0 0 0 0 .787 1.51 1.51 0 0 0 1.362 0 .415.415 0 0 0 0-.787m3.562-2.058a1.5 1.5 0 0 0-1.362 0 .415.415 0 0 0 0 .787 1.51 1.51 0 0 0 1.362 0 .415.415 0 0 0 0-.787m-39.178 18.506a1.5 1.5 0 0 0-1.362 0 .415.415 0 0 0 0 .787 1.51 1.51 0 0 0 1.362 0 .415.415 0 0 0 0-.787m3.561-2.056a1.5 1.5 0 0 0-1.362 0 .415.415 0 0 0 0 .787 1.51 1.51 0 0 0 1.362 0 .415.415 0 0 0 0-.787m3.566-2.057a1.5 1.5 0 0 0-1.362 0 .415.415 0 0 0 0 .787 1.51 1.51 0 0 0 1.362 0 .415.415 0 0 0 0-.787m3.557-2.056a1.5 1.5 0 0 0-1.362 0 .415.415 0 0 0 0 .787 1.51 1.51 0 0 0 1.362 0 .415.415 0 0 0 0-.787m3.562-2.056a1.5 1.5 0 0 0-1.362 0 .415.415 0 0 0 0 .787 1.51 1.51 0 0 0 1.362 0 .415.415 0 0 0 0-.787m20.009-11.551a1.5 1.5 0 0 0 1.362 0 .415.415 0 0 0 0-.787 1.506 1.506 0 0 0-1.346-.005l-.3.4a.478.478 0 0 0 .282.393m8.493-.76a1.507 1.507 0 0 0-1.362 0 .415.415 0 0 0 0 .787 1.507 1.507 0 0 0 1.362 0 .415.415 0 0 0 0-.787m-3.562-2.056a1.507 1.507 0 0 0-1.362 0 .415.415 0 0 0 0 .787 1.507 1.507 0 0 0 1.362 0 .415.415 0 0 0 0-.787M99.35 76.388l-.013.014c-.378.418-.775.832-1.209 1.235l-.034.032c-.417.387-.869.762-1.339 1.132l-.013.011a20.864 20.864 0 0 0 2.607-2.423m-56.733 1.496c.081.063.161.128.244.19l.008.006-.264-.206.012.01m-3.576-3.613.021.03.007.008c-.014-.017-.025-.035-.038-.053l.01.015m53.892 7.057c.127-.07.244-.143.369-.214-.114.065-.223.133-.34.2l-.029.014M46.154 55.49c-5.786 3.2-9.069 7.363-9.33 11.787.261-4.423 3.545-8.59 9.329-11.784m-1.897 23.563c.092.061.187.12.28.18l.014.007-.3-.191h.008m-2.928-2.24.027.024.02.017-.052-.045zm55.119 2.229q-.7.532-1.469 1.041l-.008.006q.779-.515 1.487-1.055l-.009.007m-56.404-3.526c.045.051.092.1.138.15l.011.012c-.052-.057-.1-.113-.155-.17l.006.008m60.543-.675a12.794 12.794 0 0 0 2.083-4.59 12.8 12.8 0 0 1-2.075 4.579l-.008.014m-5.952 5.46a9.118 9.118 0 0 1-.244.156c.088-.055.172-.11.259-.166l-.015.008m5.901-5.388a16.574 16.574 0 0 1-1.039 1.312l-.006.008a16.345 16.345 0 0 0 1.053-1.33l-.007.009M81.913 50.317a41.891 41.891 0 0 1 11.012 4.043c6.462 3.569 10.022 8.358 10.022 13.484a10.968 10.968 0 0 1-.073 1.193 10.95 10.95 0 0 0 .073-1.193c0-3.832-1.991-7.476-5.7-10.564a27.606 27.606 0 0 0-4.324-2.921 41.9 41.9 0 0 0-11.013-4.043m-.338-.069c.09.02.183.033.272.053-.09-.02-.183-.033-.272-.053m16.909 33.001c-.5.327-1.017.651-1.557.962.54-.312 1.056-.633 1.561-.959M32.732 76.51c-.22-.317-.417-.638-.611-.96l-.005.014c.192.319.4.634.617.946m67.425 5.579c-.239.176-.488.347-.736.52l.012.005c.248-.172.486-.348.724-.525"/><path class="c5" d="M31.155 67.858v-.014c0-5.731 3.913-11.145 11.017-15.247 7.459-4.307 17.257-6.46 27.054-6.46s19.6 2.153 27.056 6.46a26.286 26.286 0 0 1 7.913 6.678 14.107 14.107 0 0 1 3.1 8.569h1.29c0-6.212-4.141-12.022-11.661-16.364-15.277-8.819-40.126-8.818-55.4 0-7.519 4.342-11.661 10.153-11.661 16.364v.015zm2.9 10.356c.276.319.563.635.865.946q-.451-.467-.865-.946m62.223 4.878c.272-.157.531-.32.8-.482-.264.162-.523.324-.8.482m-11.289.131a38.786 38.786 0 0 0 6.621-2.676 38.74 38.74 0 0 1-6.618 2.676m13.084-1.25a22.354 22.354 0 0 0 7.567-7.794 22.354 22.354 0 0 1-7.567 7.794M36.395 80.57q-.6-.527-1.147-1.075c.365.364.746.723 1.147 1.075m-4.866-6.089c-.094-.184-.2-.366-.281-.552.088.191.174.383.271.572l.01-.02m75.655-.515c-.081.173-.175.344-.263.516l.008.019c.091-.177.171-.357.255-.535m-3.992 5.539q-.529.526-1.107 1.037.578-.51 1.107-1.037m-64.16 3.104c-.25-.174-.5-.346-.742-.524.241.177.479.356.731.53l.011-.006m67.298-7.054c-.183.3-.371.605-.576.9.2-.295.4-.591.581-.891l-.005-.013m-2.784 3.591q.431-.447.827-.905-.4.458-.827.905m-59.762 1.143.274.175h.013c-.093-.058-.194-.112-.286-.171m52.08-2.428c-.1.076-.193.153-.294.229.1-.076.2-.153.294-.229m-1.651 1.182a14.31 14.31 0 0 1-.332.211c.111-.07.223-.139.332-.211m5.218-4.803-.056.079.056-.079m-57.911 9.97a36.208 36.208 0 0 1-1.557-.961c.5.326 1.021.647 1.561.959m1.337-6.133c-.083-.063-.163-.127-.244-.19.081.063.161.127.244.19"/><path class="c5" d="M92.925 54.36a41.891 41.891 0 0 0-11.012-4.042l-.069-.02c-.09-.02-.183-.033-.272-.053-12.049-2.627-26.317-1.261-36.047 4.113-6.462 3.57-10.022 8.36-10.022 13.485a10.968 10.968 0 0 0 .073 1.193c.241-.233.5-.461.752-.69.143-.362.314-.718.491-1.072.262-4.424 3.545-8.591 9.331-11.787 6.363-3.516 14.718-5.272 23.076-5.272s16.715 1.757 23.076 5.271c5.783 3.2 9.067 7.361 9.329 11.783.18.356.352.714.494 1.078.255.227.509.454.749.686a10.932 10.932 0 0 0 .073-1.192c0-5.126-3.559-9.915-10.021-13.485m-48.389 24.88c-.093-.059-.188-.118-.28-.178.092.06.187.119.28.178m-3.18-2.4-.027-.024.027.024m59.241-2.008a12.8 12.8 0 0 0 2.073-4.577l-.017.071a12.957 12.957 0 0 1-2.056 4.506m-7.304 6.287h-.006c-.114.064-.216.134-.333.2.116-.065.225-.132.339-.2m6.205-4.892q.566-.645 1.039-1.311a16.611 16.611 0 0 1-1.039 1.311m-5.117 4.233h.011c.082-.052.164-.1.245-.157-.082.053-.172.1-.256.153m.599-.369q.77-.509 1.469-1.041-.7.534-1.469 1.041m-55.894-3.71a20.708 20.708 0 0 0 2.635 2.449 20.627 20.627 0 0 1-2.635-2.449m-1.19-1.482a16.843 16.843 0 0 0 1.069 1.35 16.659 16.659 0 0 1-1.069-1.35m-2.098-4.573-.017-.072a11.978 11.978 0 0 0 .808 2.4 13.99 13.99 0 0 0 1.285 2.207 12.981 12.981 0 0 1-2.076-4.535m6.183 8.709q.716.548 1.507 1.069-.79-.521-1.507-1.069M39.06 74.3l-.021-.03.021.03m1.125 1.365-.138-.15.138.15m4.978 5.448h-.008c.125.071.243.144.37.213a39.853 39.853 0 0 0 8.452 3.388 39.844 39.844 0 0 1-8.45-3.388c-.127-.07-.238-.146-.362-.216m63.296 37.508q-.792.694-1.659 1.363.866-.668 1.659-1.363m-76.302-30.01c-.083-.136-.155-.275-.234-.413.079.137.153.276.237.412m74.365-.41c-.075.13-.143.262-.222.391.079-.129.148-.26.223-.39m1.028-2.126c.075-.19.153-.379.22-.57-.067.191-.145.38-.22.57m3.366 30.116v-.023c-.168.188-.325.379-.5.564.171-.178.339-.359.5-.541m4.009-13.553.011.54v-.013h.151a15.263 15.263 0 0 0-.281-2.629 35 35 0 0 1 .131 2.1zm-11.269-10.643q-.236.249-.484.5.247-.247.484-.5m6.343 25.163q-.572.578-1.194 1.142.623-.562 1.194-1.142m-2.067-32.168c.057-.185.115-.37.165-.555-.05.186-.108.371-.165.555m7.003 18.189c.006.324-.008.646-.022.968 0-.124.02-.246.022-.37zm-92.722.014h.148a17.187 17.187 0 0 1 2.059-7.794 33.242 33.242 0 0 1 5.543-12.878c.014.116.038.23.056.345a13.891 13.891 0 0 1-.161-2.053v-.234c-7.744 9.22-7.657 22.049-7.65 22.593v.165-.143zm88.414 11.359c-.17.206-.352.409-.531.613.18-.2.361-.407.531-.613m-41.408 15.044c11.758 0 23.517-2.584 32.469-7.752q.806-.464 1.566-.949-.76.485-1.567.949c-8.952 5.168-20.71 7.752-32.468 7.752m39.332-12.811c-.214.206-.442.407-.667.609.225-.2.453-.4.667-.609m-2.46 2.117c-.288.224-.594.442-.9.662.3-.22.607-.438.9-.662m1.277-1.044c-.244.21-.5.416-.759.623.256-.207.515-.413.759-.623m1.214-37.274v.227a13.932 13.932 0 0 1-.154 2c.015-.1.036-.194.048-.293a27.36 27.36 0 0 1 2.367 3.824c.052-.134.114-.261.163-.4l.932.339c-.154.427-.336.832-.511 1.242a37.371 37.371 0 0 1 2.588 7.86 17.231 17.231 0 0 1 2.061 7.765h.15v.229-.209c.008-.545.093-13.372-7.648-22.591m-2.216 39.73q-.7.523-1.447 1.029.748-.505 1.447-1.029M35.694 92.897c.193.184.393.365.6.546-.2-.181-.4-.362-.6-.546m-4.251-5.592a15.94 15.94 0 0 1-.001.001m81.438 26.398c-.3.44-.627.874-.968 1.305v.007c.343-.433.664-.87.968-1.313m1.261-2.076q.421-.8.76-1.609-.337.813-.76 1.609m-.97 1.635q.4-.613.747-1.237-.347.624-.747 1.237M30.665 85.475c.086.245.183.487.281.73-.1-.243-.2-.485-.281-.73m65.609 10.583a44.344 44.344 0 0 1-9.461 3.992 62.175 62.175 0 0 1-17.589 2.468c9.8 0 19.6-2.153 27.056-6.46a24.042 24.042 0 0 0 9.212-8.652 24.035 24.035 0 0 1-9.218 8.652m-49.365 31.547a72.971 72.971 0 0 0 16.247 3.027 73.043 73.043 0 0 1-16.247-3.027m60.387-46.794a13.133 13.133 0 0 1-1.343 5.7 13.146 13.146 0 0 0 1.343-5.7v-1.745zm-3.218 10.733c.152-.169.3-.34.442-.511-.145.171-.29.342-.442.511m1.566-1.951c.132-.187.252-.377.375-.566-.122.189-.243.379-.375.566m-.742.986c.138-.175.27-.352.4-.528-.132.176-.264.353-.4.528m2.151-3.369c.107-.218.214-.434.309-.653-.1.219-.2.435-.309.653m-8.335 8.849c.25-.165.5-.329.742-.5-.241.168-.492.333-.742.5m-75.209 7.134v-.016l.006-.514c.013-.446.045-1.18.13-2.123a15.345 15.345 0 0 0-.281 2.654z"/><path class="c5" d="M83.734 102.182a65.314 65.314 0 0 1-14.513 1.606c-10.031 0-20.063-2.2-27.7-6.614q-.68-.393-1.322-.8.643.407 1.321.8c11.398 6.58 28.114 8.24 42.214 5.008m28.178 10.643c.136-.2.275-.4.4-.608-.127.2-.265.406-.4.608M38.968 95.547c.293.2.6.4.9.605-.306-.2-.609-.4-.9-.605m75.913 9.213c0 .053-.013.107-.018.159-.016.171-.034.341-.056.511.03-.223.055-.447.074-.671m-1.879 6.26c-.112.212-.234.422-.355.633.12-.21.243-.42.355-.633m.586-1.22c-.093.215-.2.428-.3.641.1-.213.207-.426.3-.641m.483-1.238a15.51 15.51 0 0 1-.244.652c.084-.216.169-.433.244-.652m-90.56-5.369h-.152c0 .093-.012.186-.012.279a15.4 15.4 0 0 0 .4 3.452l.27.156a15.115 15.115 0 0 1-.511-3.832zm6.597 84.009.615.489-.015-.072c-4.78-4.25-7.3-9.193-7.2-14.36v-16.237l-1.289-.748v16.973c-.118 6 3.015 11.695 8.917 16.423-.024-.055-.056-.109-.079-.165zm72.231-64.247.049-.031a40.606 40.606 0 0 0 2.53-1.594q.748-.505 1.447-1.028c.145-.109.295-.215.436-.324q.866-.668 1.659-1.363c.121-.106.232-.214.351-.321q.623-.562 1.194-1.142.211-.212.415-.426c.175-.186.333-.377.5-.564v-.2a34.508 34.508 0 0 1-8.657 6.872c-9.108 5.259-21.073 7.889-33.038 7.889a75.382 75.382 0 0 1-22.316-3.268v.152a73.032 73.032 0 0 0 16.246 3.027c13.925 1.042 28.51-1.512 39.183-7.675M33.31 189.7c-.133-.1-.262-.193-.393-.29.131.1.261.194.393.29m35.822 11.256c-11.961-.014-23.915-2.649-33.02-7.9a61.066 61.066 0 0 0 21.458 7.056 80.235 80.235 0 0 0 11.563.848m34.551-10.258c.241-.157.479-.316.713-.477q-.35.241-.713.477m-.576.375c-.46.29-.928.578-1.414.857a51.631 51.631 0 0 1-9.344 4.157 51.6 51.6 0 0 0 9.345-4.157c.482-.278.951-.565 1.413-.857m2.024-1.37c.146-.1.286-.211.429-.318-.143.107-.283.213-.429.318"/><path class="c5" d="M101.767 121.973a32.458 32.458 0 0 0 9.154-7.543v-.248c-.1.122-.188.246-.287.368-.171.206-.352.409-.531.613-.152.173-.3.346-.459.517-.19.2-.394.406-.593.607-.164.166-.322.332-.493.5-.214.206-.442.407-.667.609-.172.155-.337.312-.515.465-.244.21-.5.416-.759.623-.173.139-.34.282-.519.42-.288.225-.592.444-.9.663-.159.116-.312.234-.475.35-.371.26-.758.513-1.147.767-.108.07-.209.143-.319.212q-.76.485-1.566.949c-8.951 5.168-20.71 7.752-32.468 7.752a73.888 73.888 0 0 1-22.314-3.337v.159c17.5 5.6 40.023 4.121 54.858-4.444m14.314-18.822c0 .106.014.21.014.317a18.248 18.248 0 0 1-4.183 11.3v.239c.341-.431.666-.866.968-1.305.1-.147.2-.295.291-.442q.4-.613.747-1.238c.074-.132.153-.263.223-.4q.421-.8.76-1.609c.013-.027.029-.054.039-.082v63.28c.119 5.18-2.4 10.142-7.2 14.406l-.017.074.617-.491-.949 2.3c-.023.056-.055.11-.079.166 5.922-4.744 9.056-10.455 8.918-16.469v-70.047zm-93.486 3.1a16.334 16.334 0 0 1-.24-2.782c0-.094.01-.187.012-.28h-.148v2.845z"/><path class="c5" d="M114.939 103.175v.6c0 .124-.018.246-.022.37a13.93 13.93 0 0 1-.112 1.287c-.026.2-.055.407-.089.609a18.115 18.115 0 0 1-.271 1.264 14.8 14.8 0 0 1-.188.659c-.06.2-.12.4-.188.594-.076.219-.161.434-.245.652-.077.2-.153.392-.238.586-.094.215-.2.428-.3.641-.093.193-.185.387-.286.579-.112.212-.234.422-.356.633-.109.189-.215.378-.333.566-.127.2-.265.406-.4.608v.269a16.854 16.854 0 0 0 3.189-9.626c0-.1-.011-.2-.013-.306h-.148zm-6.596 84.029-.617.49c-1.226 4.816-5.052 9.245-11.077 12.722-7.56 4.366-17.494 6.55-27.424 6.55s-19.863-2.183-27.424-6.55c-6.027-3.479-9.854-7.91-11.078-12.726l-.615-.489.95 2.3c.023.056.055.11.079.166 1.735 4.068 5.338 7.775 10.448 10.725a48.689 48.689 0 0 0 14.506 5.269l.353.072a65.791 65.791 0 0 0 12.78 1.26c.723 0 1.444-.037 2.165-.06h.124c9.233-.31 18.313-2.472 25.351-6.537a27.6 27.6 0 0 0 8.14-6.855l.3-.4a17.553 17.553 0 0 0 2.012-3.47c.023-.055.056-.109.079-.165z"/><path class="c5" d="M105.133 189.706c-.242.175-.488.347-.736.519s-.472.319-.713.477a40.81 40.81 0 0 1-.576.375c-.463.291-.932.579-1.414.857a51.664 51.664 0 0 1-9.344 4.157q-1.06.356-2.146.676c-15.874 4.7-35.531 3.717-49.82-2.952a47.486 47.486 0 0 1-3.628-1.881q-.713-.413-1.4-.847c-.211-.134-.418-.271-.626-.408s-.445-.294-.662-.444q-.388-.266-.764-.538c-.132-.1-.262-.192-.392-.29-.271-.2-.542-.407-.8-.613 1.49 4.034 4.974 7.753 10.181 10.761 14.85 8.572 39.009 8.572 53.856 0 5.207-3.007 8.69-6.724 10.181-10.758-.251.2-.511.395-.772.589-.143.107-.284.213-.429.318m-.192 1.715a24.906 24.906 0 0 1-8.721 7.856c-7.807 4.507-18.184 6.627-28.436 6.4-9.289-.2-18.477-2.32-25.552-6.4a24.9 24.9 0 0 1-8.72-7.856c.065.044.139.086.206.13.77.516 1.564 1.02 2.394 1.5 9.106 5.257 21.06 7.891 33.02 7.9h.187c11.961-.014 23.914-2.647 33.021-7.9l.03-.019c.813-.47 1.593-.964 2.35-1.472.071-.048.15-.09.221-.138M36.186 84.11a41.077 41.077 0 0 0-3.688 2.4q.214.45.461.892a39.849 39.849 0 0 1 3.723-2.436c.779-.45 1.588-.873 2.409-1.285.29-.146.579-.293.873-.433-.324-.209-.633-.425-.942-.64l-.012.006c-.967.474-1.916.967-2.829 1.494m73.422 6.893a19.318 19.318 0 0 1 5.206 9.532 15.489 15.489 0 0 1 .281 2.63c0 .1.013.2.013.306a16.854 16.854 0 0 1-3.189 9.626v1.675a18.251 18.251 0 0 0 4.182-11.3c0-.106-.012-.21-.014-.316a17.213 17.213 0 0 0-2.065-7.771 23.339 23.339 0 0 0-3.88-5.255c-.172.3-.355.582-.538.868m-.713-.721c.18-.29.366-.574.535-.874a33.537 33.537 0 0 0-2.414-2.1c-.149.3-.312.6-.481.89a30.672 30.672 0 0 1 2.358 2.078m-14.49-9.809h-.012c-.355.223-.718.442-1.094.657h.006q1.939.687 3.78 1.5.512-.315 1-.638-1.792-.814-3.682-1.512m-8.557-1.482c1.972.439 3.9.96 5.772 1.561.228-.119.471-.223.695-.346.177-.1.335-.2.507-.3a65.945 65.945 0 0 0-6.983-1.918c.019.329.021.665.008 1.007m15.934 5.98a39.639 39.639 0 0 1 3.723 2.437c.166-.3.319-.593.463-.892a40.847 40.847 0 0 0-3.688-2.4 50.175 50.175 0 0 0-2.83-1.5l-.012-.005c-.309.215-.618.431-.942.64a47.317 47.317 0 0 1 3.283 1.718m-43.529-7.994a69.271 69.271 0 0 0-12.6 2.923c.173.1.331.2.509.3.223.124.466.228.693.346a68.253 68.253 0 0 1 10.51-2.447c.28-.379.578-.754.885-1.126m-13.069 4.144a31.634 31.634 0 0 1-1.094-.656h-.012q-1.891.7-3.683 1.512.488.323 1 .638 1.839-.809 3.78-1.5h.008m57.1 41.725a34.529 34.529 0 0 0 8.657-6.871v-1.532a32.427 32.427 0 0 1-9.154 7.544c-14.835 8.565-37.358 10.041-54.858 4.444v1.036a75.387 75.387 0 0 0 22.315 3.268c11.966 0 23.931-2.631 33.039-7.89m-78.903-19.639a15.322 15.322 0 0 1 .281-2.653c.867-4.471 3.708-8.7 8.281-12.342a16.014 16.014 0 0 1-.479-.89 25.887 25.887 0 0 0-7.017 8.09 17.218 17.218 0 0 0-2.059 7.795c0 .094-.012.187-.012.28a16.334 16.334 0 0 0 .24 2.782l1.157.671a15.4 15.4 0 0 1-.4-3.452c0-.093.01-.186.012-.279m83.934-24.263v-3.637c-.112-.266-.24-.53-.368-.793l-.008-.019c-.184.36-.377.718-.591 1.072l.005.013a13.558 13.558 0 0 1 .962 3.365M31.153 75.29v3.628a13.549 13.549 0 0 1 .96-3.35l.006-.014a16.389 16.389 0 0 1-.591-1.073l-.01.021c-.128.261-.253.523-.365.788m38.072-16.333c9.825 0 19.65 2.159 27.13 6.478a31.366 31.366 0 0 1 4.431 3.07 12.533 12.533 0 0 0-1.222-2.2q-1.274-.9-2.713-1.734c-15.233-8.794-40.019-8.794-55.252.006q-1.44.83-2.71 1.733a12.435 12.435 0 0 0-1.223 2.2 31.4 31.4 0 0 1 4.433-3.075c7.48-4.319 17.305-6.478 27.129-6.478m33.646 10.079c-.24-.232-.494-.459-.749-.687a12.142 12.142 0 0 1 .529 1.677l.034.146-.018.075a18.849 18.849 0 0 1 2.97 3.928c.191-.357.37-.716.528-1.079a20.7 20.7 0 0 0-3.295-4.06m-67.092 1.21-.017-.074.034-.145a11.847 11.847 0 0 1 .53-1.679c-.257.228-.512.456-.753.69a20.735 20.735 0 0 0-3.295 4.06c.158.363.336.722.528 1.079a18.849 18.849 0 0 1 2.97-3.928M27.14 178.747a29.466 29.466 0 0 0 3.247 4.092q.068-.63.2-1.254a28.575 28.575 0 0 1-2.614-3.384z"/><path class="c5" d="M70.092 195.302c-.245.008-20.581.793-34.427-9.182a32.113 32.113 0 0 1-4.236-3.633 12.73 12.73 0 0 0-.118 1.283 33.66 33.66 0 0 0 4.087 3.377c12.112 8.52 28.777 9.165 33.469 9.165.785 0 1.236-.018 1.27-.02 18.467-.848 28.813-5.788 34.595-10.723a27.484 27.484 0 0 0 2.388-2.284 12.819 12.819 0 0 0-.2-1.415c-.3.347-.626.7-.971 1.057-5.145 5.325-15.443 11.438-35.857 12.375m41.825-82.207v-8.933h-1v12.026l.006 58.517a16.427 16.427 0 0 1-3.2 6.184 13.905 13.905 0 0 1 .272 1.386 17.626 17.626 0 0 0 3.916-7.481v-61.7zM35.368 92.582q-.364-.356-.7-.721c-6.826 5.161-7.571 10.171-7.609 10.481v6.495l.99.573v-7c.008-.059.722-4.855 7.325-9.823m5.795-3.53-.44-.89a40.484 40.484 0 0 0-4.041 2.281c-.335.215-.66.432-.972.648.23.243.466.484.713.722l.158-.107a38.045 38.045 0 0 1 4.582-2.655m67.717 1.219c-3.562 5.732-9.31 9.551-15.224 12.08a68.95 68.95 0 0 1-21.468 4.95l.037.993a69.408 69.408 0 0 0 22.936-5.537c5.607-2.564 10.971-6.307 14.435-11.756.183-.286.365-.572.538-.868a24.408 24.408 0 0 0 1.293-2.605c.175-.411.356-.816.511-1.243l-.932-.339c-.05.136-.112.262-.164.4a23.071 23.071 0 0 1-1.426 3.058c-.169.3-.356.584-.535.874m-40.993 18.014-.048-.991a50.962 50.962 0 0 1-12.852-1.032l-.2.971a51.759 51.759 0 0 0 10.652 1.111q1.226 0 2.45-.059m16.682 55.174c-.118-.03-.231-.065-.35-.093-.037.055-.08.11-.117.165.155-.024.312-.05.467-.072"/><path class="c5" d="M107.997 182.275a13.924 13.924 0 0 0-.272-1.387 18.405 18.405 0 0 0-6.021-9.131l.453 1.785a19.181 19.181 0 0 1 3.061 3.9 14.656 14.656 0 0 1 1.33 2.976 13.292 13.292 0 0 1 .371 1.448 12.815 12.815 0 0 1 .2 1.415c.027.336.043.674.043 1.012a12.932 12.932 0 0 1-.829 4.5c-1.491 4.034-4.973 7.751-10.18 10.758-14.848 8.572-39.007 8.572-53.856 0-5.208-3.008-8.691-6.727-10.181-10.761a12.912 12.912 0 0 1-.827-4.5c0-.176.015-.352.022-.527a12.778 12.778 0 0 1 .117-1.284 14.317 14.317 0 0 1 2.348-5.908 11.114 11.114 0 0 1-.5-1.039 15.737 15.737 0 0 0-2.7 6.046q-.127.623-.2 1.254a13.156 13.156 0 0 0 .323 4.78l.016.072c1.224 4.817 5.052 9.248 11.078 12.726 7.562 4.367 17.491 6.55 27.424 6.55s19.864-2.184 27.424-6.55c6.025-3.478 9.851-7.907 11.077-12.722l.017-.074a13.367 13.367 0 0 0 .253-5.345M85.835 78.986c.013-.342.011-.678-.008-1.007a7.789 7.789 0 0 0-1.874-4.874L81.36 70.21l-.017.015c.065.068.139.123.2.191a7.039 7.039 0 0 1 1.152 1.78l1.715 1.83.9 2.04.223 4.031-.916 3.246c.126-.037.244-.082.369-.12a14.477 14.477 0 0 0 .846-4.237m-6.396 12.542-.233-.261c-.447.46-.91.913-1.4 1.354-.155.139-.316.263-.473.4l.219.245-1.337 1.024-.191-.214c-6.654 5.035-14.359 6.081-17.878 2.152l-.6-.675c-.014-.008-.026-.019-.039-.027a7.11 7.11 0 0 1-2.178-1.617l2.409 2.689c3.753 4.19 11.928 3.1 18.866-2.259a30.903 30.903 0 0 0 1.576-1.3 27.53 27.53 0 0 0 3.134-3.325c-.162.031-.32.069-.482.1zm4.777-6.745-2.144 3.467c.125-.025.25-.049.374-.075a22.406 22.406 0 0 0 1.942-3.436c-.057.016-.115.029-.172.044m-29.077 8.918.185.206c-.062-.07-.109-.149-.168-.221z"/><path class="c5" d="M55.321 93.906a7.11 7.11 0 0 0 2.178 1.617c4.173 2.066 10.725.641 16.483-3.725l-.3-.335 1.457-.89.15.168c.094-.08.189-.155.282-.238-.318.031-.636.055-.954.08-6.865 5.717-15.181 7.083-18.881 2.954a6.509 6.509 0 0 1-.977-1.48 7.9 7.9 0 0 1-.767-3.018c-.187-.045-.368-.1-.553-.148a7.909 7.909 0 0 0 1.716 4.794c.059.071.106.151.168.221m-.822-9.055c-.174-.046-.353-.086-.526-.134a14.187 14.187 0 0 0-.519 2.855c.18.048.355.1.534.144a13.418 13.418 0 0 1 .51-2.864m27.83-4.366 1.11-4.505v-.064l-.994-3.986.248.265a7.043 7.043 0 0 0-1.152-1.779c-.062-.07-.137-.125-.2-.192-4.134-4.257-13.122-2.624-20.239 3.754a27.578 27.578 0 0 0-2.866 2.995c-.307.372-.605.746-.885 1.126a22.1 22.1 0 0 0-2.971 5.4c.173.049.353.089.528.135a24.13 24.13 0 0 1 6.563-9.242c6.274-5.621 14-7.488 18.3-4.737a6.5 6.5 0 0 1 1.363 1.131c2.794 3.12 2.175 8.519-1.062 13.646l.153-.03zm-5.348 8.302 2.425-2.87.036-.062c-.133.024-.263.055-.4.077a26.578 26.578 0 0 1-2.862 3.247c.305-.033.606-.071.909-.108.025-.025.046-.052.071-.077z"/><path class="c5" d="M78.624 72.386c-1.341-1.5-3.476-2.065-5.938-1.793 2.462-.271 4.6.3 5.938 1.793m-9.247-.99a14.218 14.218 0 0 1 3.31-.8 14.218 14.218 0 0 0-3.31.8M56.743 84.104a16.005 16.005 0 0 1 1.474-3.273 16.005 16.005 0 0 0-1.474 3.273m-.314 1.24a8.789 8.789 0 0 0-.135 2.889 8.789 8.789 0 0 1 .135-2.889m18.831 1.091c-.27.027-.545.041-.816.065-.364.372-.74.739-1.139 1.1a23.146 23.146 0 0 1-2.451 1.909c.332-.008.663-.015.994-.027a23.908 23.908 0 0 0 1.828-1.47 23.578 23.578 0 0 0 1.585-1.575m3.764-13.519c.092.14.182.291.272.458a4.989 4.989 0 0 0-.272-.458M58.519 92.002a6.258 6.258 0 0 1-.433-.325 5.2 5.2 0 0 0 .433.325m-1.882-2.397a5.323 5.323 0 0 0 .4.835 5.323 5.323 0 0 1-.4-.835m22.688-16.174.015.661-.415-.309c-.017-.011-.036-.019-.053-.03 1.438 2.84.142 7.333-3.189 11.36.269-.031.533-.075.8-.109 3.207-4.112 4.363-8.647 2.84-11.573M58.931 91.619c.01.018.015.038.024.056l.294.561-.686-.2c2.624 1.755 6.984 1.225 11.246-1.225h-1.142c-3.757 1.933-7.458 2.3-9.736.808"/><path class="c5" d="M57.599 91.22a4.42 4.42 0 0 0 .487.458c.132.108.274.215.433.324l.036.027h.007l.687.2-.3-.561c-.01-.018-.015-.038-.024-.056a5.342 5.342 0 0 1-.508-1.672c-.083-.014-.169-.021-.252-.036l.54 1.893-1.459-1.385-.207-.725-.4-.081a5.312 5.312 0 0 0 .4.834 5.017 5.017 0 0 0 .564.78m1.298-5.388c-.084-.015-.167-.033-.25-.049l-.116.249-.314 2.589.129.024a10.372 10.372 0 0 1 .551-2.814m-.722-4.388 2.48-3.534.488-.437.143.158c.509-.554 1.048-1.1 1.632-1.622a23.2 23.2 0 0 1 2.138-1.7c5.083-3.578 10.649-4.347 13.153-1.55l.031.036c-3.631-1.519-9.341.265-14.127 4.553a24.307 24.307 0 0 0-1.639 1.614l.187.209-.191.248a10.7 10.7 0 0 1 1.169-.862c.272-.269.552-.536.844-.8 4.955-4.439 11.122-6.148 14.386-4 .016.012.035.019.052.03l.416.309-.016-.661v-.007c-.009-.018-.019-.03-.027-.048a6.856 6.856 0 0 0-.272-.458 4.455 4.455 0 0 0-.4-.53c-1.341-1.5-3.476-2.064-5.938-1.792a14.14 14.14 0 0 0-3.31.8 21.461 21.461 0 0 0-6.825 4.2 22.145 22.145 0 0 0-4.335 5.236 15.973 15.973 0 0 0-1.473 3.273c.116.025.23.053.347.079zm-1.666 6.402.215-2.431-.3-.069a8.753 8.753 0 0 0-.134 2.884l.35.071z"/><path class="c5" d="m59.005 82.854 1.012-.228a8.276 8.276 0 0 1 1.871-2.686c.185-.174.383-.352.587-.526l.191-.249-.187-.208-1.188-1.326-.143-.158-.489.437-2.48 3.534-1.089 2.74c.438.1.888.17 1.332.256l.116-.093zm-.355 2.931c-.644-.118-1.289-.231-1.922-.371l-.215 2.431.131.459c.526.106 1.044.226 1.577.318l.314-2.588zm-1.404 4.627 1.463 1.389-.54-1.892c-.381-.063-.752-.151-1.13-.222zm12.181-6.739.043-.01.081-.394.139-.055a6.171 6.171 0 0 0 .658-.317l-1.282.288-.06.107a12.573 12.573 0 0 1-1.511 2.133c.241.007.482.015.722.019a13.531 13.531 0 0 0 1.209-1.772m6.64-1.492 1.847-.415.538-1.723-.95-1.06-.192.615.521.581-.35 1.118-1.81.408-.056.13a8.494 8.494 0 0 1-2.086 2.95 7.378 7.378 0 0 1-.676.567c.317-.019.632-.051.948-.075.033-.03.07-.055.1-.084a9.076 9.076 0 0 0 2.164-3.01m-.41-3.863.007.009a1.756 1.756 0 0 1 .314.683l.525-.156a2.479 2.479 0 0 0-.2-.548l-.188-.344-1.153-1.287-.017.006a2.381 2.381 0 0 1 .71 1.637"/><path class="c5" d="m58.421 84.439.082.017.035-.11zm12.959-4.368 1.446-.324a.905.905 0 0 0-.038-.233 2.478 2.478 0 0 0-.3.043 3.27 3.27 0 0 0-1.106.513m-1.789 6.664.552.617.175-.063a11.767 11.767 0 0 0 1.391-.609c-.705.029-1.412.052-2.118.056m-4.573-7.704.484.54-.351 1.9.588-.132.356-1.936-.95-1.061zm1.131 7.632a7.014 7.014 0 0 1-2.593 1.215 2.349 2.349 0 0 1-2.184-.307l-.072-.079c-.032-.018-.068-.029-.1-.048a2.148 2.148 0 0 1-1.176-.548 1.933 1.933 0 0 1-.183-.231l-.01.026 1.142 1.267a2.845 2.845 0 0 0 2.7.46 7.658 7.658 0 0 0 3.16-1.574c.059-.049.116-.109.175-.159-.288-.01-.577-.007-.864-.022"/><path class="c5" d="M61.205 87.444a4.1 4.1 0 0 0 1.525-.087 7.305 7.305 0 0 0 2.011-.8 55.34 55.34 0 0 1-1.079-.086 6.593 6.593 0 0 1-1.053.344 2.339 2.339 0 0 1-2.2-.322 1.378 1.378 0 0 1-.226-.305 1.443 1.443 0 0 1-.079-.15c-.209-.033-.419-.061-.628-.1a2 2 0 0 0 .37.721 1.932 1.932 0 0 0 .183.231 2.14 2.14 0 0 0 1.176.548m8.828-3.766a6.56 6.56 0 0 0 1.5-.882 6.9 6.9 0 0 0 .745-.677 5.469 5.469 0 0 0 .452-.528l.43-.594-5.042 1.133-.06.107a10.912 10.912 0 0 1-2.506 3.114c.257.016.51.036.767.049a11.9 11.9 0 0 0 2.16-2.782l3.262-.733a7.4 7.4 0 0 1-.549.476h-.005a6.95 6.95 0 0 1-1.494.856l-.138.054-.082.395-.3 1.437-.117.365c.2 0 .4-.005.607-.006zm3.309-3.474.024-.193a2.121 2.121 0 0 0 .008-.229 1.252 1.252 0 0 0-.434-1.058 1.584 1.584 0 0 0-1.4-.221 3.377 3.377 0 0 0-1.4.7 5.329 5.329 0 0 0-1.209 1.514l-.31.545 1.216-.274zm-2.847-.569a2.841 2.841 0 0 1 1.166-.592 1.076 1.076 0 0 1 .931.111.593.593 0 0 1 .1.14.674.674 0 0 1 .1.226.963.963 0 0 1 .038.232l-1.446.325-1 .225-.618.138a4.168 4.168 0 0 1 .728-.806m-7.121 5.308a3.187 3.187 0 0 0 1.192-.585c.09-.068.18-.142.266-.22a4.737 4.737 0 0 0 .431-.44 5.939 5.939 0 0 0 .4-.522l.4-.581-4.386.986.008.23a1.146 1.146 0 0 0 .525.992 1.252 1.252 0 0 0 .347.119 1.667 1.667 0 0 0 .818.02m-1.101-.927 2.462-.553a3.721 3.721 0 0 1-.5.453l-.036.022a2.623 2.623 0 0 1-.945.465.984.984 0 0 1-.751-.069l-.014-.012a.5.5 0 0 1-.216-.306"/><path class="c5" d="m75.112 81.12 1.845-.415.272-.871.074-.237.191-.615-.3-.334-.7.207-.525.157-.21.062-.129.038a4.506 4.506 0 0 0 .018-.794 2.379 2.379 0 0 0-.71-1.637.653.653 0 0 0-.051-.059 3.265 3.265 0 0 0-2.971-.446 7.2 7.2 0 0 0-3.049 1.509 12.855 12.855 0 0 0-2.694 3.554l-.438.1-.588.132-1.007.227-.962.215a4.056 4.056 0 0 1 1.325-.827l.149-.051.318-1.727.05-.275.127-.687-.35-.391a6.255 6.255 0 0 0-1.153.6 10.354 10.354 0 0 0-1.169.861c-.2.175-.4.352-.587.527a8.251 8.251 0 0 0-1.87 2.686l-1.013.227-.465 1.492-.035.11c.494.1.982.2 1.483.283.017-.131.025-.253.055-.394l.092-.423-.6.135-.347.077.253-.809.977-.221.055-.13a7.734 7.734 0 0 1 1.8-2.632 8.456 8.456 0 0 1 2.249-1.62l-.152.815-.2 1.093a4.433 4.433 0 0 0-1.965 1.578l-.4.582 1.36-.306 3.375-.758.06-.109a12.65 12.65 0 0 1 2.625-3.506 6.648 6.648 0 0 1 2.815-1.4 2.769 2.769 0 0 1 2.486.323l.006.01a2.47 2.47 0 0 1 .5 2.375l-.07.408.767-.22 1.088-.31-.19.606-.1.326-1.81.408-.055.13a8.513 8.513 0 0 1-2.088 2.95 9.3 9.3 0 0 1-2.519 1.626c-.083.037-.163.076-.247.111.441 0 .882-.02 1.321-.035a9.728 9.728 0 0 0 1.818-1.292 9.109 9.109 0 0 0 2.165-3.01m9.101 3.664a51.44 51.44 0 0 1-4.769 1.069l-.036.065-2.423 2.871.182.2.054.06c1.642-.2 3.258-.475 4.85-.8zm1.322-4.683-.223-4.03-.9-2.041-1.714-1.832-.247-.265.994 3.984.006.026-.008.038-1.11 4.505-2.107 3.916c1.5-.295 2.974-.638 4.4-1.058zm-6.099 11.427 1.388-1.723c-.853.152-1.716.272-2.582.391l.961 1.072zm-3.417 2.547.191.213 1.337-1.024-.219-.245-1.657-1.849-.382-.428-.15-.167-1.457.89.3.335.382.427zm25.239 76.023c.026.089.067.172.09.263a7.019 7.019 0 0 1 .2 2.112l.668 2.417-.146 2.226-1.669 3.675-3.337 3.537-3.546 2.1-3.818 1.665-.087-.34c-.609.2-1.229.389-1.868.551-.2.051-.4.087-.6.133l.08.319-1.661.29-.071-.278c-8.23 1.379-15.541-1.263-16.84-6.375l-.224-.878-.022-.042a7.126 7.126 0 0 1-1.182-2.445c-.022-.091-.026-.183-.046-.275l-.021.006.957 3.766c1.492 5.872 10.359 8.7 19.767 6.313 8.617-2.189 14.724-8.012 14.547-13.488a7.021 7.021 0 0 0-.191-1.494l-.08-.315-.453-1.785-.423-1.667z"/><path class="c5" d="M83.663 164.168c7.418-1.33 14.128.617 16.463 4.693a6.535 6.535 0 0 1 .683 1.634c1.416 5.576-4.845 11.995-13.957 14.309s-17.677-.337-19.093-5.912a6.5 6.5 0 0 1-.18-1.764v-.143l-.448 1.5c.015.088.025.176.044.264s.023.183.046.274a7.124 7.124 0 0 0 1.18 2.442c2.743 3.764 9.209 5.537 16.334 4.335l-.11-.435 1.7-.114.056.218c.2-.046.4-.081.6-.133.639-.162 1.26-.347 1.869-.548l-.068-.265 3.48-1.419 5.107-3.461 3.07-3.479c.009-.019.022-.037.032-.056l.965-3.992.1.35a6.988 6.988 0 0 0-.2-2.112c-.022-.09-.063-.173-.09-.263-1.507-5.068-8.6-7.765-16.68-6.629-.155.022-.312.048-.467.072-.142.211-.295.42-.445.629m-15.751 10.35c.01.238-.007.473-.021.71.073-.246.147-.493.243-.738-.074.012-.148.018-.222.029"/><path class="c5" d="M97.604 170.051c-1-2.391-3.833-3.978-7.494-4.46 3.66.482 6.489 2.069 7.494 4.46m.351 1.359c.017.167.026.342.029.532a4.962 4.962 0 0 0-.029-.532m-.489.718c-.01-.018-.022-.033-.033-.051-.051 3.86-4.785 8.021-11.349 9.689s-12.713.27-14.6-3.1v.695l-.516-.5c1.98 3.629 8.409 5.175 15.255 3.435s11.757-6.168 11.763-10.3l-.293.594zm-26.452 1.633a5.725 5.725 0 0 0-.525 3.941 5.727 5.727 0 0 1 .525-3.942m-.071 5.066a5.994 5.994 0 0 1-.235-.492 5 5 0 0 0 .235.492"/><path class="c5" d="M71.482 178.731v-.061c.02-1.89 1.171-3.839 3.083-5.535l-.052-.2-.8.608-2.064 3-.453 2.188-.653-1.907.539-2.616.4-.618c-.157.057-.315.118-.472.171a5.721 5.721 0 0 0-.525 3.942 4.315 4.315 0 0 0 .218.628c.068.158.144.32.235.492l.017.037.006.005.515.5zm9.893-11.792c.29-.086.579-.174.878-.25a23.225 23.225 0 0 1 2.684-.519c6.162-.815 11.45 1.081 12.375 4.719 0 .015.006.031.011.045-2.514-3.028-8.4-4.091-14.628-2.509-.758.192-1.493.418-2.2.672l.069.27-.285.133a10.379 10.379 0 0 1 1.435-.223c.366-.113.739-.22 1.117-.316 6.447-1.638 12.706-.3 14.6 3.117.01.017.023.033.032.051l.225.467.294-.594v-.06c0-.19-.013-.365-.029-.532a4.523 4.523 0 0 0-.109-.658 4.883 4.883 0 0 0-.244-.7c-1-2.39-3.833-3.977-7.494-4.46a21.465 21.465 0 0 0-7.993.561l-.02.005c-.231.264-.476.523-.721.781"/><path class="c5" d="m71.09 174.209-.539 2.616.653 1.907.453-2.188 2.064-3 .8-.609-.1-.4-.3-.08a22.716 22.716 0 0 1-2.624 1.143zm8.424-4.516c.245-.069.5-.134.765-.193l.284-.133-.069-.27-.26-1.024c-.171.162-.333.327-.509.486a27.545 27.545 0 0 1-3.38 2.578l.267.071a8.281 8.281 0 0 1 2.9-1.513m3.632.093-.432.551.178.7-1.19 1.523.582.155 1.212-1.551zm9.894 4.744-.426-1.675h-.017a2.386 2.386 0 0 1-.13 1.78v.012a1.762 1.762 0 0 1-.039.751l.539.1a2.474 2.474 0 0 0 .079-.578zm-9.456 5.579a10.4 10.4 0 0 0 4.143-.2 9.055 9.055 0 0 0 3.313-1.665l1.828.488 1.276-1.279-.461-1.813.11.434-.455.455.192.756-.828.829-1.792-.477-.11.09a8.5 8.5 0 0 1-3.216 1.647 9.476 9.476 0 0 1-3.738.212l-.208-.818c-.135-.015-.267-.019-.4-.038l-.185-.026.351 1.381z"/><path class="c5" d="m75.149 172.725-.74-.2.1.4.052.2.125.49a3.5 3.5 0 0 1 .462-.9m-.152 3.664a2.844 2.844 0 0 0 2.181 1.66 7.647 7.647 0 0 0 3.529.069 11.373 11.373 0 0 0 3.761-1.613l.043.012.255-.312.148.016a6.049 6.049 0 0 0 .731.024l-1.27-.338-.1.067a10.992 10.992 0 0 1-3.674 1.6 7.124 7.124 0 0 1-3.277-.062 2.346 2.346 0 0 1-1.793-1.283l-.022-.086c-.024-.036-.05-.071-.072-.108a2.136 2.136 0 0 1-.787-1.029 1.954 1.954 0 0 1-.055-.29l-.02.019zm12.867-2.172 1.432.381a.9.9 0 0 0 .074-.223 2.364 2.364 0 0 0-.288-.1 3.286 3.286 0 0 0-1.218-.057"/><path class="c5" d="m74.413 172.529.74.2a3.5 3.5 0 0 0-.462.9 2.134 2.134 0 0 0-.1 1.082 1.942 1.942 0 0 0 .056.289 2.137 2.137 0 0 0 .787 1.03 4.1 4.1 0 0 0 1.394.63 7.689 7.689 0 0 0 3.529.07 11.389 11.389 0 0 0 3.761-1.613l3.23.861q-.333.1-.706.168h-.009a6 6 0 0 1-.992.091 6.246 6.246 0 0 1-.73-.024l-.148-.016-.256.312-.929 1.135-.641.635.106.428.185.025c.136.019.268.024.4.038.091.011.182.018.272.025a10.247 10.247 0 0 0 3.467-.264 9.054 9.054 0 0 0 3.313-1.665l1.828.488.645-.646.174-.175.455-.456-.11-.434-.714-.138-.539-.1-.216-.042-.13-.025a4.6 4.6 0 0 0 .383-.7 2.384 2.384 0 0 0 .13-1.779c-.01-.024-.008-.052-.018-.076a3.265 3.265 0 0 0-2.427-1.771 7.18 7.18 0 0 0-3.4-.075 12.794 12.794 0 0 0-4.035 1.9l-.435-.116-.582-.155-1-.266-.953-.253a4.052 4.052 0 0 1 1.557-.119l.154.017 1.081-1.383.171-.219.432-.552-.13-.508a6.374 6.374 0 0 0-1.3 0 10.344 10.344 0 0 0-1.434.223c-.262.059-.52.125-.765.193a8.281 8.281 0 0 0-2.9 1.513l-.267-.071a25.639 25.639 0 0 1-2.235 1.312zm2.33-.714.11-.09a7.722 7.722 0 0 1 2.813-1.5 8.434 8.434 0 0 1 2.744-.394l-.513.653-.686.873a4.434 4.434 0 0 0-2.465.493l-.623.331 1.348.359 3.342.891.1-.069a12.627 12.627 0 0 1 3.952-1.89 6.649 6.649 0 0 1 3.142.068 2.762 2.762 0 0 1 2.054 1.442v.012a2.47 2.47 0 0 1-.659 2.335l-.25.328.78.161 1.108.229-.45.448-.243.242-1.792-.477-.11.091a8.505 8.505 0 0 1-3.216 1.646 9.3 9.3 0 0 1-2.983.272c-.148-.008-.294-.011-.444-.025l1.2-1.467a6.55 6.55 0 0 0 1.736-.087 7.1 7.1 0 0 0 .974-.256 5.475 5.475 0 0 0 .645-.259l.656-.327-4.993-1.331-.1.067a10.886 10.886 0 0 1-3.675 1.6 7.124 7.124 0 0 1-3.277-.062 2.34 2.34 0 0 1-1.8-1.3 1.31 1.31 0 0 1-.059-.379 2.236 2.236 0 0 1 .466-1.33 4.364 4.364 0 0 1 .263-.368l.278-.334-.6-.158-.343-.092.6-.6z"/><path class="c5" d="m89.544 175.227.11-.161a1.926 1.926 0 0 0 .114-.2 1.252 1.252 0 0 0 .106-1.138 1.585 1.585 0 0 0-1.139-.846 3.377 3.377 0 0 0-1.562-.022 5.308 5.308 0 0 0-1.773.783l-.528.339 1.2.32zm-.953-1.809a1.073 1.073 0 0 1 .774.53.584.584 0 0 1 .025.171.657.657 0 0 1-.017.246.93.93 0 0 1-.075.224l-1.432-.382-.99-.264-.613-.163a4.128 4.128 0 0 1 1.019-.377 2.819 2.819 0 0 1 1.307.015m-11.044-.394a1.143 1.143 0 0 0 .006 1.122 1.233 1.233 0 0 0 .252.267 1.652 1.652 0 0 0 .716.4 3.177 3.177 0 0 0 1.327.035c.111-.019.224-.042.338-.071a4.858 4.858 0 0 0 .586-.192 5.854 5.854 0 0 0 .595-.277l.622-.331-4.344-1.157zm2.171 1.276a2.61 2.61 0 0 1-1.054-.026.988.988 0 0 1-.634-.408.112.112 0 0 1-.006-.017.5.5 0 0 1-.052-.373l2.438.649a3.764 3.764 0 0 1-.652.171h-.041m21.732-2.175-.965 3.993-.006.026-.025.029-3.071 3.479-5.107 3.461-3.479 1.42.068.265.14.554.611 2.4.086.34 3.819-1.665 3.546-2.1 3.334-3.534 1.67-3.675.146-2.226-.668-2.418zm-15.056 13.353-.055-.218-1.7.113.11.436.142.554.603 2.407.071.278 1.659-.288-.081-.319-.61-2.407zm-3.477-39.74-.017.015c.064.067.138.121.2.191zm-14.491 28.701a18.606 18.606 0 0 0 2.59-.674c.157-.053.315-.114.473-.171a22.787 22.787 0 0 0 2.623-1.143 25.639 25.639 0 0 0 2.235-1.312 27.676 27.676 0 0 0 3.38-2.578c.177-.158.338-.324.509-.486q.592-.558 1.142-1.135c.245-.258.49-.516.72-.78q.565-.646 1.074-1.308c.173-.225.334-.453.5-.68.15-.209.3-.418.445-.629.038-.055.08-.11.117-.166a17.826 17.826 0 0 0 3.157-8.756 9.532 9.532 0 0 0-.412-3.371 7.182 7.182 0 0 0-1.466-2.617l-2.409-2.684a7.006 7.006 0 0 1 1.151 1.781l1.713 1.832.9 2.041.224 4.03-1.318 4.676-2.17 3.504-2.613 3.244-.233-.261c-.447.46-.91.913-1.4 1.353-.155.139-.316.264-.473.4l.22.245-1.338 1.024-.19-.213a22.032 22.032 0 0 1-9.723 4.375c.021.18.049.359.056.538.075-.012.148-.017.223-.029.1-.016.2-.031.294-.049"/><path class="c5" d="m75.535 167.324-.3-.335 1.458-.89.15.168c.156-.135.318-.259.473-.4.49-.439.955-.891 1.4-1.352l-.183-.2 2.426-2.869 2.923-5.433 1.109-4.505v-.064l-.994-3.984.248.265a7.065 7.065 0 0 0-1.151-1.78c-.062-.069-.136-.124-.2-.19-4.133-4.257-13.122-2.623-20.24 3.753a28.161 28.161 0 0 0-2.047 2.05 24.447 24.447 0 0 0-4.032 5.928 17.267 17.267 0 0 0-1.39 4.227c.173.061.35.117.521.182.69-3.91 3.249-8.33 7.317-11.973 6.275-5.62 14-7.488 18.3-4.737a6.5 6.5 0 0 1 1.362 1.131c3.838 4.284 1.263 12.874-5.74 19.146a24.08 24.08 0 0 1-9.982 5.527c.081.169.155.337.227.506a23.713 23.713 0 0 0 8.343-4.165"/><path class="c5" d="M80.178 147.912c-2.108-2.353-6.175-2.408-10.394-.525 4.219-1.883 8.286-1.828 10.394.525m-18.945 6.286a18.674 18.674 0 0 0-2.54 4.329 18.674 18.674 0 0 1 2.54-4.329m-2.928 5.4a10.524 10.524 0 0 0-.525 3.174 10.524 10.524 0 0 1 .525-3.174m16.92 3.938c5.261-4.713 7.563-10.912 5.654-14.579l.015.661-.415-.309c-.017-.012-.036-.019-.053-.03 1.744 3.444-.525 9.325-5.571 13.844a18.531 18.531 0 0 1-9.885 4.884c.14.161.265.325.4.489a19.3 19.3 0 0 0 9.858-4.96m-14.578-2.728-.14-.156-.422.908-.276 2.278c.037.022.077.042.114.064a11.049 11.049 0 0 1 .724-3.094"/><path class="c5" d="m58.318 160.53 1.415-3.561 2.48-3.534.489-.437.143.158a23.36 23.36 0 0 1 1.631-1.623 23.364 23.364 0 0 1 2.138-1.7c5.084-3.578 10.649-4.347 13.153-1.55l.032.036c-3.632-1.519-9.341.265-14.128 4.553q-.873.783-1.638 1.614l.186.208-.19.25a10.371 10.371 0 0 1 1.169-.863c.272-.27.552-.536.843-.8 4.956-4.439 11.123-6.148 14.386-4 .017.011.036.018.052.03l.416.309-.015-.661v-.008c-.009-.018-.019-.031-.029-.049a6.557 6.557 0 0 0-.27-.456 4.514 4.514 0 0 0-.4-.532c-2.108-2.353-6.174-2.408-10.394-.525a22.15 22.15 0 0 0-5.679 3.735 23.274 23.274 0 0 0-2.872 3.076 18.658 18.658 0 0 0-2.54 4.33q-.219.539-.388 1.07a10.524 10.524 0 0 0-.525 3.174c.109.051.218.1.325.156z"/><path class="c5" d="m60.084 161.56.422-.908-.277-.309-.309.07.1-.307-.091-.1.163-.13.466-1.492 1.012-.228a8.289 8.289 0 0 1 1.87-2.687c.186-.174.383-.351.587-.525l.191-.249-.187-.208-1.188-1.327-.142-.158-.489.438-2.48 3.532-1.415 3.561-.212 2.4q.884.431 1.707.909z"/><path class="c5" d="m60.981 160.173-.747.168.277.309.14.157.338.376a3.494 3.494 0 0 1-.008-1.011m16.227-6.327.007.01a1.756 1.756 0 0 1 .314.683l.525-.156a2.479 2.479 0 0 0-.2-.548l-.188-.344-1.153-1.287-.017.006a2.381 2.381 0 0 1 .71 1.637m-10.633.711.484.539-.351 1.9.588-.132.356-1.936-1.3-1.452.35.391zm-6.643 5.445.09.1.073-.231zm11.175-1.206.138-.055a5.983 5.983 0 0 0 .658-.317l-1.281.288-.06.107a10.975 10.975 0 0 1-2.514 3.122 7.129 7.129 0 0 1-2.933 1.466 2.349 2.349 0 0 1-2.184-.307l-.072-.079c-.032-.018-.068-.029-.1-.048a2.137 2.137 0 0 1-1.176-.548 1.831 1.831 0 0 1-.183-.231l-.01.026 1.143 1.266a2.844 2.844 0 0 0 2.7.46 7.658 7.658 0 0 0 3.16-1.574 11.4 11.4 0 0 0 2.586-3.171l.042-.01zm7.749-3.673.521.581-.35 1.118-1.81.408-.056.13a8.483 8.483 0 0 1-2.087 2.95 9.461 9.461 0 0 1-3.215 1.92l-.343-.382-.221-.247c-.127.051-.246.108-.375.154l-.175.062.95 1.061.175-.063a10.386 10.386 0 0 0 3.578-2.1 9.05 9.05 0 0 0 2.165-3.01l1.846-.415.538-1.723-.949-1.06zm-5.92.474 1.446-.325a.921.921 0 0 0-.038-.232 2.7 2.7 0 0 0-.3.043 3.272 3.272 0 0 0-1.106.514"/><path class="c5" d="M63.441 155.466a8.292 8.292 0 0 0-1.871 2.686l-1.012.228-.466 1.492-.072.231-.1.307.309-.069.747-.169a3.532 3.532 0 0 0 .008 1.011 2.124 2.124 0 0 0 .411 1.007 2.007 2.007 0 0 0 .184.231 2.14 2.14 0 0 0 1.175.547 4.1 4.1 0 0 0 1.526-.087 7.664 7.664 0 0 0 3.16-1.573 11.389 11.389 0 0 0 2.59-3.165l3.261-.734a7.151 7.151 0 0 1-.548.476 6.912 6.912 0 0 1-1.5.855l-.138.055-.082.394-.3 1.437-.274.86.291.331.175-.062c.13-.046.249-.1.375-.154l.253-.1a10.282 10.282 0 0 0 2.951-1.842 9.046 9.046 0 0 0 2.164-3.009l1.847-.415.271-.872.074-.237.192-.615-.3-.334-.7.208-.525.156-.212.063-.127.038a4.614 4.614 0 0 0 .018-.794 2.379 2.379 0 0 0-.71-1.637c-.019-.018-.032-.042-.052-.06a3.267 3.267 0 0 0-2.97-.446 7.193 7.193 0 0 0-3.049 1.51 12.762 12.762 0 0 0-2.7 3.554l-.438.1-.587.132-1.009.227-.962.216a4.038 4.038 0 0 1 1.325-.827l.144-.056.317-1.728.051-.273.127-.689-.35-.39a6.25 6.25 0 0 0-1.153.6 10.237 10.237 0 0 0-1.169.862c-.2.174-.4.352-.587.526m2.479-.4-.2 1.092a4.435 4.435 0 0 0-1.956 1.58l-.4.582 1.361-.306 3.374-.759.06-.109a12.683 12.683 0 0 1 2.625-3.506 6.65 6.65 0 0 1 2.816-1.394 2.76 2.76 0 0 1 2.485.323l.006.01a2.468 2.468 0 0 1 .5 2.375l-.07.407.766-.219 1.089-.312-.192.606-.1.326-1.81.408-.055.131a8.507 8.507 0 0 1-2.087 2.948 9.3 9.3 0 0 1-2.518 1.623c-.135.061-.266.127-.407.184l.385-1.855a6.6 6.6 0 0 0 1.5-.882 7 7 0 0 0 .743-.678 4.967 4.967 0 0 0 .452-.528l.431-.593-5.043 1.134-.059.107a10.91 10.91 0 0 1-2.514 3.122 7.14 7.14 0 0 1-2.934 1.464 2.342 2.342 0 0 1-2.2-.323 1.318 1.318 0 0 1-.225-.305 2.218 2.218 0 0 1-.2-1.4c.017-.147.029-.288.062-.449l.092-.423-.6.135-.347.078.253-.81.976-.22.056-.131a7.739 7.739 0 0 1 1.8-2.631 8.419 8.419 0 0 1 2.249-1.621z"/><path class="c5" d="m74.891 155.725.024-.193a2.116 2.116 0 0 0 .008-.229 1.252 1.252 0 0 0-.434-1.058 1.587 1.587 0 0 0-1.4-.222 3.393 3.393 0 0 0-1.4.7 5.314 5.314 0 0 0-1.209 1.514l-.31.545 1.216-.274zm-2.847-.569a2.84 2.84 0 0 1 1.166-.592 1.08 1.08 0 0 1 .931.111.593.593 0 0 1 .1.14.674.674 0 0 1 .1.226.954.954 0 0 1 .038.232l-1.446.325-1 .225-.618.138a4.168 4.168 0 0 1 .728-.806m-8.805 4.176a1.148 1.148 0 0 0 .525.993 1.325 1.325 0 0 0 .347.119 1.668 1.668 0 0 0 .818.019 3.168 3.168 0 0 0 1.191-.585c.091-.068.181-.14.267-.219a4.614 4.614 0 0 0 .43-.441 5.729 5.729 0 0 0 .4-.521l.4-.582-4.386.986zm3.048-.35a3.724 3.724 0 0 1-.5.453l-.035.022a2.609 2.609 0 0 1-.946.465.989.989 0 0 1-.751-.068l-.015-.013a.5.5 0 0 1-.218-.306zm18.711-7.539.006.026-.008.038-1.11 4.505-2.922 5.432-2.426 2.87.183.2.381.426 1.656 1.849.233.261 2.613-3.244 2.168-3.507 1.318-4.676-.223-4.03-.9-2.041-1.716-1.826-.247-.266zm-7.771 15.253-.382-.427-.15-.168-1.457.89.3.335.382.427 1.657 1.848.19.213 1.338-1.024-.22-.245zm-39.211 14.734a25.653 25.653 0 0 0 8.579 4.368c9.3 2.769 18.277.3 20-5.508l.535-1.8.448-1.506.042-.14.083-.282-.021-.007c-.023.091-.032.183-.058.272a7.016 7.016 0 0 1-.913 1.914l-.664 2.419-1.266 1.836-3.317 2.3-4.674 1.326-4.123-.012-4.132-.527.1-.335c-.626-.14-1.256-.3-1.887-.486-.2-.059-.39-.131-.586-.194l-.094.315-1.574-.6.082-.276c-7.774-3.033-12.7-9.049-11.194-14.1l.258-.868v-.046a7.111 7.111 0 0 1 .238-2.7c.026-.09.071-.171.1-.259l-.021-.006-1.109 3.725a7.819 7.819 0 0 0 .42 5.293 11.113 11.113 0 0 0 .5 1.039 16.232 16.232 0 0 0 4.24 4.85"/><path class="c5" d="M33.884 166.787a7.111 7.111 0 0 0-.238 2.7c.426 4.636 5.07 9.473 11.8 12.092l.128-.43 1.522.775-.064.215c.2.063.387.135.587.2.63.188 1.26.346 1.886.487l.078-.262 3.714.564 6.159-.355 4.42-1.414.056-.031 2.875-2.934-.1.35a7.016 7.016 0 0 0 .913-1.914c.027-.09.035-.182.058-.272.027-.11.048-.222.07-.333a6.962 6.962 0 0 0 .13-1c.013-.237.03-.472.02-.71-.007-.178-.035-.358-.055-.538a8.777 8.777 0 0 0-.487-2.037c-.055-.15-.11-.3-.173-.448a10.734 10.734 0 0 0-.226-.506 13.214 13.214 0 0 0-1.6-2.489c-.131-.164-.256-.328-.4-.489a20.572 20.572 0 0 0-5.044-4.1l-.115-.065q-.821-.48-1.707-.909c-.108-.053-.215-.1-.325-.156q-.825-.39-1.7-.731c-.126-.049-.246-.1-.373-.151-.171-.063-.347-.119-.52-.181-.428-.15-.855-.3-1.3-.431a25.836 25.836 0 0 0-9.089-1.073c-.112.2-.228.387-.352.568a25.281 25.281 0 0 1 9.3 1.03c8.073 2.4 13.709 8 13.617 13.109a6.5 6.5 0 0 1-.25 1.753c-1.641 5.514-10.306 7.817-19.317 5.136s-15.006-9.348-13.366-14.862a6.538 6.538 0 0 1 .751-1.606 7.153 7.153 0 0 1 .823-1.087l-.483-.28a7.266 7.266 0 0 0-1.521 2.557c-.03.088-.074.169-.1.259"/><path class="c5" d="M64.595 174.536c.4-3.382-2.611-7.174-7.412-9.621 4.8 2.447 7.815 6.237 7.412 9.621m-27.414-6.022c.009-.193.027-.372.051-.542a4.894 4.894 0 0 0-.051.542m27.238 6.862a4.858 4.858 0 0 0 .12-.584 4.858 4.858 0 0 1-.12.584m-.241.617a6.387 6.387 0 0 1-.247.471 5.128 5.128 0 0 0 .247-.471m-.789.367v-.06c-2.021 3.289-8.219 4.435-14.712 2.5s-11.055-6.282-10.948-10.141c-.011.018-.025.033-.035.051l-.324.545-.189-.691c-.158 4.129 4.569 8.752 11.339 10.766s13.257.73 15.38-2.816l-.554.359zm-26.022-9.04c.737-2.476 3.317-4.123 6.761-4.694-3.444.571-6.024 2.217-6.761 4.694"/><path class="c5" d="M37.367 167.319v.005a4.4 4.4 0 0 0-.134.648 6.5 6.5 0 0 0-.051.542v.05l.188.69.324-.545.035-.05c.985-1.614 2.973-2.7 5.483-3.173l.06-.2-.995.115-3.313 1.518-1.51 1.647.417-1.973 1.8-1.969 2.552-1.273 3.775-.659 4.308.262.629.187-.061.2c.738.143 1.485.317 2.237.54a23.569 23.569 0 0 1 2.57.93c5.71 2.457 9.278 6.8 8.208 10.395l-.014.044c-.607-3.888-5.117-7.818-11.275-9.651-.75-.223-1.5-.406-2.234-.551l-.079.268-.314-.023a10.347 10.347 0 0 1 1.346.544c.373.092.747.19 1.12.3 6.376 1.9 11.063 6.256 10.943 10.16v.06l-.045.515.555-.359h.006c.01-.018.015-.033.025-.05.1-.164.176-.319.247-.47a4.384 4.384 0 0 0 .244-.621 4.859 4.859 0 0 0 .121-.584c.014-.084.041-.167.052-.252.4-3.384-2.611-7.174-7.412-9.621a23.212 23.212 0 0 0-3.912-1.556 20.755 20.755 0 0 0-9.143-.734c-3.444.571-6.024 2.218-6.761 4.7"/><path class="c5" d="m43.388 164.888-.221-.227.312-.079.039-.13.2.07 1.514-.384.724.742a8.266 8.266 0 0 1 3.267.188c.246.067.5.143.756.225l.312.032.08-.267.508-1.708.06-.2-.628-.188-4.309-.262-3.775.659-2.551 1.273-1.8 1.97-.417 1.974 1.51-1.649 3.312-1.52.995-.116z"/><path class="c5" d="m43.923 165.437-.534-.548-.118.4-.06.2-.145.485a3.543 3.543 0 0 1 .858-.536m13.887 10.511v.011a1.759 1.759 0 0 1-.418.625l.408.365a2.464 2.464 0 0 0 .364-.454l.194-.341.493-1.657-.014-.011a2.387 2.387 0 0 1-1.023 1.462m-14.296-11.497-.039.13.235-.059zm8.115 2.811-.207.694-1.8.7.42.431 1.836-.711.406-1.364zm5.954 10.76-.222.748-1.136.287-1.295-1.328-.14.021a8.494 8.494 0 0 1-3.605-.233 9.471 9.471 0 0 1-3.319-1.734l.147-.492.094-.317c-.109-.082-.22-.153-.326-.24l-.146-.117-.407 1.365.146.117a10.4 10.4 0 0 0 3.661 1.95 9.08 9.08 0 0 0 3.7.268l1.32 1.355 1.75-.445.397-1.361zm-2.49-4.13a3.283 3.283 0 0 0-1.017-.673l1.035 1.061a.918.918 0 0 0 .177-.154 2.551 2.551 0 0 0-.2-.234m-4.695-.552.119.09a5.953 5.953 0 0 0 .615.395l-.918-.941h-.121a10.971 10.971 0 0 1-3.976-.508 7.109 7.109 0 0 1-2.783-1.732 2.349 2.349 0 0 1-.882-2.021l.025-.084c0-.043-.007-.087-.007-.129a2.14 2.14 0 0 1-.148-1.287 2.109 2.109 0 0 1 .1-.277l-.026.005-.48 1.637a2.843 2.843 0 0 0 1.022 2.543 7.66 7.66 0 0 0 2.995 1.868 11.4 11.4 0 0 0 4.055.543l.032.031z"/><path class="c5" d="M49.222 165.068a8.266 8.266 0 0 0-3.267-.188l-.724-.742-1.515.384-.234.059-.313.08.222.227.534.548a3.543 3.543 0 0 0-.858.536 2.124 2.124 0 0 0-.642.877 1.936 1.936 0 0 0-.1.278 2.137 2.137 0 0 0 .149 1.286 4.088 4.088 0 0 0 .873 1.257 7.684 7.684 0 0 0 2.995 1.868 11.392 11.392 0 0 0 4.055.542l2.334 2.4a7.403 7.403 0 0 1-.694-.218h-.005a6.986 6.986 0 0 1-1.512-.826l-.119-.09-.378.137-1.38.5-.875.216-.129.422.146.117c.107.087.219.158.326.24l.221.162a10.272 10.272 0 0 0 3.114 1.549 9.062 9.062 0 0 0 3.7.268l1.32 1.356.885-.225.24-.061.624-.158.128-.429-.542-.486-.408-.365-.165-.147-.1-.089a4.522 4.522 0 0 0 .685-.4 2.378 2.378 0 0 0 1.022-1.462c.006-.026.02-.049.024-.075a3.268 3.268 0 0 0-1.175-2.765 7.191 7.191 0 0 0-2.882-1.806 12.832 12.832 0 0 0-4.44-.436l-.314-.321-.42-.432-.72-.739-.689-.706a4.048 4.048 0 0 1 1.4.7l.124.092 1.637-.633.26-.1.653-.253.15-.5a6.3 6.3 0 0 0-1.116-.669 10.29 10.29 0 0 0-1.346-.544 16.21 16.21 0 0 0-.755-.225m2.415 1.6-.775.3-1.037.4a4.432 4.432 0 0 0-2.369-.84l-.705-.036.974 1 2.413 2.477.125-.006a12.661 12.661 0 0 1 4.361.4 6.667 6.667 0 0 1 2.663 1.67 2.765 2.765 0 0 1 1.025 2.285v.012c-.119.682-.711 1.244-1.764 1.667l-.382.154.587.538.834.764-.616.155-.333.083-1.298-1.338-.14.021a8.527 8.527 0 0 1-3.605-.233 9.307 9.307 0 0 1-2.7-1.3c-.124-.083-.248-.161-.37-.249l1.783-.644a6.578 6.578 0 0 0 1.537.815 6.873 6.873 0 0 0 .966.279 5.246 5.246 0 0 0 .686.109l.731.056-3.606-3.7-.121.005a10.9 10.9 0 0 1-3.976-.508 7.129 7.129 0 0 1-2.783-1.732 2.343 2.343 0 0 1-.877-2.042 1.339 1.339 0 0 1 .144-.355 2.231 2.231 0 0 1 1.081-.9 4.464 4.464 0 0 1 .414-.182l.409-.144-.43-.441-.248-.256.823-.208.7.716.14-.021a7.716 7.716 0 0 1 3.183.155 8.418 8.418 0 0 1 2.559 1.068"/><path class="c5" d="M54.175 171.711a5.315 5.315 0 0 0-1.924-.237l-.626.021.869.891 2.5 2.571.177-.08a2.246 2.246 0 0 0 .2-.113 1.26 1.26 0 0 0 .675-.924 1.586 1.586 0 0 0-.546-1.31 3.383 3.383 0 0 0-1.33-.821m-.093 1.513-.715-.734-.442-.454a4.126 4.126 0 0 1 1.068.2 2.835 2.835 0 0 1 1.115.682 1.078 1.078 0 0 1 .394.852.626.626 0 0 1-.065.161.674.674 0 0 1-.142.2.894.894 0 0 1-.178.154zm-8.254-6.304a1.147 1.147 0 0 0-.569.967 1.243 1.243 0 0 0 .07.394 1.741 1.741 0 0 0 .422.672 3.177 3.177 0 0 0 1.122.71c.106.041.214.078.327.112a4.793 4.793 0 0 0 .6.136 6.018 6.018 0 0 0 .654.068l.7.035-3.136-3.221zm1.895 2.414a3.662 3.662 0 0 1-.646-.187c-.014-.005-.024-.013-.038-.019a2.6 2.6 0 0 1-.891-.562.987.987 0 0 1-.335-.675v-.019a.505.505 0 0 1 .147-.346zm.921 16.419-.1.336 4.131.527 4.123.011 4.674-1.325 3.317-2.3 1.266-1.837.664-2.419.1-.35-2.875 2.934-.019.019-.037.013-4.42 1.413-6.159.355-3.714-.564-.078.263-.164.548zm-4.058-1.237-.081.275 1.572.6.094-.315.709-2.38.163-.549.064-.215-1.522-.776-.128.431-.164.549zm57.048-117.241c-1.571-3.125-4.518-5.944-8.7-8.256-13.069-7.22-34.332-7.22-47.4 0-4.187 2.313-7.134 5.133-8.7 8.258-.178.354-.35.71-.491 1.071a11.848 11.848 0 0 0-.53 1.679l-.034.146.017.073.017.072a12.953 12.953 0 0 0 2.073 4.536l.026.038a16.657 16.657 0 0 0 1.069 1.35l.12.133a20.713 20.713 0 0 0 2.636 2.449c.087.068.171.137.26.2q.716.546 1.507 1.069c.1.063.2.126.295.188s.192.114.285.172a33.3 33.3 0 0 0 1.094.656c.125.071.236.147.362.216a39.867 39.867 0 0 0 8.45 3.388c.173.049.352.088.526.135.147.039.3.075.444.113.494.129.981.266 1.484.38l.3.069c.633.139 1.279.253 1.922.371.084.016.167.034.251.049.192.035.381.078.574.111.209.035.42.063.629.1l.055.007c1.154.178 2.323.317 3.5.426.359.033.72.059 1.08.086.229.017.456.04.685.055s.483.037.725.05c.287.015.576.013.864.023.736.026 1.472.058 2.209.058.123 0 .244-.009.366-.009.706 0 1.412-.027 2.117-.056.916-.037 1.825-.1 2.732-.178.272-.023.546-.038.816-.065q1.915-.192 3.789-.5c.134-.022.264-.053.4-.077q2.443-.429 4.769-1.069c.057-.016.116-.029.172-.044a39.962 39.962 0 0 0 8.541-3.411l.03-.017c.116-.064.219-.134.333-.2.376-.214.738-.434 1.094-.656.082-.052.173-.1.255-.153l.016-.01.319-.2.01-.007q.768-.507 1.468-1.041l.01-.006c.1-.074.19-.15.285-.224l.013-.012c.469-.37.921-.745 1.338-1.131l.035-.032c.433-.4.831-.816 1.208-1.236l.013-.013c.048-.053.1-.1.143-.157l.006-.008a16.375 16.375 0 0 0 1.039-1.312l.008-.01.043-.062.008-.015a12.958 12.958 0 0 0 2.055-4.507l.017-.07.017-.075-.034-.146a12.091 12.091 0 0 0-.528-1.677 12.005 12.005 0 0 0-.5-1.078m-5.771 10.581c-.1.076-.193.153-.294.229q-.646.488-1.357.954a26.907 26.907 0 0 1-1.405.852c-.172.1-.331.206-.508.3-.223.124-.466.228-.694.346a38.657 38.657 0 0 1-6.618 2.677c-.125.038-.243.082-.369.119-1.424.42-2.9.765-4.4 1.059l-.153.03q-1.769.344-3.585.573c-.268.034-.532.078-.8.108-.626.07-1.257.113-1.888.163-.316.024-.63.056-.947.075s-.611.036-.918.051c-.266.012-.533.013-.8.021-.441.014-.882.031-1.323.035h-.145c-.2 0-.4.007-.607.007-.28 0-.559-.017-.837-.022-.241 0-.482-.012-.722-.019-.21-.006-.42-.008-.63-.017-.183-.006-.365-.005-.547-.014-.258-.013-.511-.034-.768-.05a60.118 60.118 0 0 1-1.809-.144c-.336-.032-.673-.057-1.006-.094-.923-.1-1.841-.223-2.748-.37-.5-.081-.988-.188-1.482-.283l-.083-.016c-.444-.086-.893-.161-1.331-.257-.117-.025-.232-.053-.347-.079-.461-.106-.909-.232-1.363-.35-.157-.04-.316-.078-.471-.12-.175-.046-.354-.087-.528-.135a43.606 43.606 0 0 1-3.117-.993 36.486 36.486 0 0 1-4.421-1.96c-.228-.118-.471-.223-.694-.346-.178-.1-.336-.2-.509-.3-.371-.214-.74-.429-1.09-.652l-.014-.008a19.143 19.143 0 0 1-.28-.178l-.008-.005q-.724-.475-1.38-.97l-.008-.006c-.083-.062-.163-.127-.244-.19l-.012-.01c-.43-.335-.843-.674-1.226-1.022l-.02-.016-.029-.024v-.005c-.4-.37-.777-.748-1.13-1.132l-.011-.011-.138-.15-.006-.008a15.076 15.076 0 0 1-.973-1.2l-.007-.008-.021-.03-.008-.015a11.84 11.84 0 0 1-1.942-4.084 10.817 10.817 0 0 1 .578-1.67 12.562 12.562 0 0 1 1.223-2.194 21 21 0 0 1 7.26-6.164c12.724-7.029 33.429-7.029 46.152 0a21.011 21.011 0 0 1 7.261 6.165 12.57 12.57 0 0 1 1.223 2.2 10.9 10.9 0 0 1 .577 1.667 11.834 11.834 0 0 1-1.937 4.074l-.056.079c-.29.4-.611.791-.956 1.176-.058.065-.118.129-.177.193-.346.376-.712.748-1.109 1.111l-.092.079c-.369.334-.765.66-1.176.981"/><path class="c5" d="M30.024 82.865c.022.149.045.3.073.447.04.22.088.439.138.658.034.144.065.288.1.432.06.225.129.45.2.674.042.134.08.267.127.4.086.245.182.488.281.73.044.11.083.221.131.329.112.259.239.515.366.772.149.3.31.6.48.89.078.137.15.277.233.413.057.093.121.184.181.277.156.245.314.488.484.729.086.121.177.24.267.36.155.21.313.42.478.628.1.128.211.253.318.38a17.553 17.553 0 0 0 .777.878q.341.363.705.721c.107.1.219.209.328.314.194.184.395.366.6.547.111.1.219.2.332.294.027.024.058.046.086.071.214.183.436.363.66.542.144.115.285.229.431.342.242.187.492.37.745.552.14.1.277.2.419.3.294.2.6.4.9.6.113.073.222.149.337.222q.642.409 1.321.8c7.637 4.41 17.669 6.614 27.7 6.614a65.31 65.31 0 0 0 14.512-1.606c1.7-.39 3.349-.869 4.959-1.4a44.339 44.339 0 0 0 8.229-3.606c.073-.042.14-.088.213-.13.369-.215.732-.434 1.085-.658.169-.107.329-.218.494-.326.25-.165.5-.329.742-.5.176-.124.345-.249.517-.374a19.024 19.024 0 0 0 1.146-.879c.2-.159.394-.319.585-.48.164-.139.322-.28.48-.42q.271-.241.53-.485.231-.219.453-.438c.166-.164.326-.328.484-.5a15.946 15.946 0 0 0 .86-.958c.129-.151.259-.3.38-.455.14-.175.271-.352.4-.529.114-.152.231-.3.339-.457.132-.187.252-.377.376-.566.1-.146.2-.291.285-.438.079-.13.148-.261.222-.392.17-.295.332-.591.48-.89.017-.032.031-.064.046-.1.106-.216.214-.433.309-.653.07-.161.129-.323.193-.484.075-.19.152-.38.219-.571.06-.17.111-.342.164-.513s.116-.37.165-.557.088-.352.127-.528.082-.37.117-.555.061-.357.087-.535a13.956 13.956 0 0 0 .154-2V67.846h-1.29a13.036 13.036 0 0 1-1.127 5.254c-.158.363-.337.722-.528 1.079a22.329 22.329 0 0 1-7.567 7.795q-.488.323-1 .637c-.263.162-.522.324-.8.482a47.459 47.459 0 0 1-13.836 5.085l-.374.075c-1.593.326-3.208.6-4.85.8l-.125.018c-.3.036-.6.075-.909.108a64.4 64.4 0 0 1-4.339.3c-.332.014-.662.019-.994.027a65.451 65.451 0 0 1-12.5-.86c-.043-.008-.084-.018-.128-.025-.532-.092-1.051-.212-1.577-.318l-.351-.071c-.662-.136-1.322-.271-1.973-.43-.111-.027-.219-.06-.328-.089-.181-.044-.356-.1-.535-.143a45.7 45.7 0 0 1-11.287-4.48c-.272-.157-.531-.32-.8-.482q-.512-.315-1-.638a23.314 23.314 0 0 1-7.007-6.833 16.515 16.515 0 0 1-1.087-2.042 13.041 13.041 0 0 1-1.126-5.239h-1.273v12.955a14.038 14.038 0 0 0 .161 2.054m1.506-8.383a18.851 18.851 0 0 0 1.201 2.033c.034.048.062.1.1.145.3.426.627.846.973 1.261.082.1.171.2.256.294q.412.478.865.946c.108.113.215.225.327.336.365.363.746.722 1.147 1.075a.944.944 0 0 1 .1.1c.437.38.9.752 1.378 1.118.133.1.271.2.408.3.24.177.492.35.742.524.309.215.617.431.941.64.5.326 1.017.649 1.557.961a47.04 47.04 0 0 0 11.911 4.681c.186.048.368.1.553.148.088.021.171.049.259.07.786.187 1.587.34 2.388.5.135.026.268.056.4.081.378.071.749.157 1.13.222.083.014.169.021.252.035a66.586 66.586 0 0 0 10.245.865h1.141c1.609-.013 3.214-.1 4.811-.223.318-.025.636-.05.954-.079s.624-.044.934-.078c.584-.062 1.157-.153 1.737-.232a62.148 62.148 0 0 0 2.581-.39c.163-.029.32-.067.482-.1a49.61 49.61 0 0 0 15.62-5.5 36.794 36.794 0 0 0 1.556-.961c.324-.209.633-.425.942-.64.248-.172.5-.343.736-.52a28.138 28.138 0 0 0 1.788-1.42c.048-.041.09-.084.137-.126a25.107 25.107 0 0 0 1.463-1.4c.288-.3.563-.6.827-.905.1-.111.2-.22.287-.332.338-.407.658-.818.954-1.236.049-.07.092-.141.14-.212.2-.3.392-.6.576-.9.213-.354.408-.712.59-1.072.088-.172.183-.342.263-.516.035-.074.08-.147.114-.222v7.065a13.147 13.147 0 0 1-1.344 5.7q-.214.448-.461.892a24.05 24.05 0 0 1-9.212 8.652c-7.459 4.306-17.258 6.459-27.055 6.459s-19.595-2.153-27.054-6.459a29.773 29.773 0 0 1-5.6-4.109c-.046-.043-.094-.087-.139-.131a21.99 21.99 0 0 1-.713-.722 18.5 18.5 0 0 1-2.757-3.69q-.247-.444-.461-.892a13.142 13.142 0 0 1-1.343-5.7v-7.072c.027.062.064.123.094.184.086.186.187.369.281.552M43.351 2.996l-.164.222c.055-.075.124-.136.182-.209zm5.32 22.423c7.807 5.768 17.087 6.5 20.686 1.625l2.31-3.126-.018-.014c-.053.077-.091.161-.146.237a7.078 7.078 0 0 1-1.51 1.488l-1.448 2.05-1.815 1.3-3.9 1.035-4.849-.343-3.874-1.413-3.706-1.9.208-.282a26.362 26.362 0 0 1-1.609-1.1c-.168-.124-.322-.256-.486-.382l-.2.264-1.275-1.1.171-.23c-6.278-5.5-8.863-12.83-5.729-17.072l.539-.729c.005-.015.012-.029.018-.043a7.1 7.1 0 0 1 1.147-2.463l-2.144 2.9c-3.6 4.872-.177 13.528 7.63 19.3"/><path class="c5" d="M42.043 5.679c-1.177 4.505 1.545 10.633 6.987 15.387l.267-.361 1.167 1.247-.133.181c.164.127.318.259.485.383.53.391 1.068.755 1.608 1.1l.163-.22 3.3 1.793L61.8 26.95l4.636.174.063-.011 3.7-1.78-.209.3a7.059 7.059 0 0 0 1.51-1.489c.055-.075.093-.158.146-.235 3.332-4.911-.09-13.381-7.776-19.061S47.084-1.617 43.369 3.01c-.058.073-.127.134-.183.209a7.1 7.1 0 0 0-1.142 2.458m9.1 16.391c-7.56-5.584-10.927-13.893-7.512-18.52a6.525 6.525 0 0 1 1.251-1.256c4.025-3.142 11.886-2.008 18.66 3s10.168 12.189 8.346 16.958a6.49 6.49 0 0 1-.832 1.564c-3.418 4.627-12.35 3.845-19.912-1.741"/><path class="c5" d="M52.022 2.562a14.343 14.343 0 0 1 3.371.489 14.343 14.343 0 0 0-3.371-.489m13.709 6.822a20.379 20.379 0 0 1 1.657 2.014 20.379 20.379 0 0 0-1.659-2.012m1.946 12.87.019-.057c-3.019 2.4-9.238 1.375-14.686-2.65s-8.259-9.668-6.847-13.26c-.016.013-.035.022-.05.035l-.49.4.057-.714c-1.554 3.829 1.32 9.784 7 13.981s12.224 5.198 15.424 2.586l-.644.149zm.866-.079a5.925 5.925 0 0 1-.393.359 5.054 5.054 0 0 0 .393-.359M45.697 5.967c.075-.18.152-.341.231-.492a4.973 4.973 0 0 0-.231.492m23.741 14.961c1.005-2.028.658-4.732-.772-7.473 1.43 2.74 1.777 5.445.772 7.473M52.022 2.562a7.177 7.177 0 0 0-5.179 1.7 7.177 7.177 0 0 1 5.179-1.7"/><path class="c5" d="M68.666 13.455a16.943 16.943 0 0 0-1.276-2.059 20.378 20.378 0 0 0-1.659-2.012 23.257 23.257 0 0 0-3.149-2.793 21.489 21.489 0 0 0-7.19-3.54 14.23 14.23 0 0 0-3.371-.488 7.176 7.176 0 0 0-5.18 1.7 5.03 5.03 0 0 0-.564.641 4.367 4.367 0 0 0-.35.569 6.34 6.34 0 0 0-.231.492c-.006.014-.013.024-.018.038v.008l-.057.713.49-.4c.015-.013.034-.022.05-.035 1.475-1.182 3.713-1.525 6.236-1.119l.125-.169-.975-.229-3.631.3-1.981 1.039 1.063-1.714 2.366-1.239 2.832-.329 3.774.665 3.963 1.712.527.39-.127.172c.261.155.523.308.783.477q.572.374 1.137.791a23.526 23.526 0 0 1 2.1 1.749c4.533 4.253 6.412 9.548 4.182 12.566-.008.014-.019.025-.027.038.751-3.864-2.153-9.094-7.32-12.911A23.95 23.95 0 0 0 59.274 7.2l-.166.225-.287-.136a10.27 10.27 0 0 1 1.081.969q.48.318.951.664c5.351 3.954 8.274 9.647 6.835 13.278l-.019.057-.219.47.644-.15h.007l.04-.037c.146-.121.276-.241.393-.359a4.4 4.4 0 0 0 .441-.5 5.089 5.089 0 0 0 .456-.753c1.005-2.028.658-4.732-.772-7.473"/><path class="c5" d="m52.769 4.667-.131-.289.321.032.08-.11.161.133 1.556.153.429.945a8.273 8.273 0 0 1 3.008 1.289c.208.146.421.3.634.468l.283.136.166-.225 1.062-1.432.127-.172-.527-.39-3.967-1.712-3.774-.664-2.832.328-2.367 1.24-1.06 1.713 1.981-1.036 3.631-.3.975.229zm9.801 15.304-.008.01a1.756 1.756 0 0 1-.606.445l.26.483a2.446 2.446 0 0 0 .5-.3l.3-.255 1.026-1.39-.008-.015a2.387 2.387 0 0 1-1.459 1.026m-.922 1.873-.164.221-.3.407-1.166-.116-.766-1.69-.139-.027a8.525 8.525 0 0 1-3.311-1.446 9.473 9.473 0 0 1-2.531-2.76l.305-.413.2-.266c-.074-.113-.154-.219-.226-.336l-.1-.159-.846 1.147.1.159a10.392 10.392 0 0 0 2.778 3.079 9.064 9.064 0 0 0 3.386 1.509l.78 1.725 1.8.176 1.113-1.5-.266.36z"/><path class="c5" d="m53.084 5.365-.319-.697-.247.334-.125.169-.3.407a3.543 3.543 0 0 1 .988-.212M53.039 4.3l-.08.109.241.024zm6.68 5.403-.43.583-1.934.042.249.548 1.967-.043.847-1.146zm.27 6.44.611 1.35a.9.9 0 0 0 .22-.083 2.435 2.435 0 0 0-.1-.287 3.267 3.267 0 0 0-.727-.979m-3.508-1.145.081.125a5.938 5.938 0 0 0 .444.581l-.542-1.2-.117-.037a10.972 10.972 0 0 1-3.565-1.829 7.121 7.121 0 0 1-2.028-2.576 2.345 2.345 0 0 1-.142-2.2l.063-.087c.011-.034.014-.072.026-.106a2.137 2.137 0 0 1 .3-1.263 1.855 1.855 0 0 1 .19-.226h-.027l-1.01 1.374a2.842 2.842 0 0 0 .1 2.738 7.673 7.673 0 0 0 2.182 2.776 11.4 11.4 0 0 0 3.63 1.889l.018.04z"/><path class="c5" d="M58.191 6.819a8.272 8.272 0 0 0-3.007-1.287l-.428-.945-1.557-.155-.241-.024-.321-.032.131.289.317.7a3.5 3.5 0 0 0-.988.213 2.112 2.112 0 0 0-.9.606 1.947 1.947 0 0 0-.189.226 2.137 2.137 0 0 0-.3 1.263 4.1 4.1 0 0 0 .394 1.476 7.664 7.664 0 0 0 2.181 2.775 11.385 11.385 0 0 0 3.63 1.889l1.378 3.045a7.84 7.84 0 0 1-.578-.44 6.911 6.911 0 0 1-1.142-1.29l-.081-.125h-1.87l-.9-.1-.264.354.1.159c.072.117.152.223.227.336.05.077.1.152.152.227a10.255 10.255 0 0 0 2.4 2.517 9.075 9.075 0 0 0 3.386 1.51l.78 1.723.908.09.247.024.641.063.266-.36-.345-.641-.259-.483-.1-.194-.063-.116a4.618 4.618 0 0 0 .781-.144 2.387 2.387 0 0 0 1.459-1.026c.014-.023.035-.039.048-.062a3.265 3.265 0 0 0-.165-3 7.19 7.19 0 0 0-2.1-2.679 12.787 12.787 0 0 0-4.027-1.92l-.185-.409-.248-.549-.427-.941-.407-.9a4.044 4.044 0 0 1 1.078 1.13l.083.129 1.756-.039.278-.006.7-.015.312-.421a6.268 6.268 0 0 0-.823-1.007 10.377 10.377 0 0 0-1.08-.971 16.36 16.36 0 0 0-.635-.469m1.727 2.33-.83.017-1.111.021a4.443 4.443 0 0 0-1.942-1.6l-.652-.272.576 1.27 1.429 3.161.119.037a12.655 12.655 0 0 1 3.965 1.861 6.656 6.656 0 0 1 1.936 2.474 2.765 2.765 0 0 1 .187 2.5l-.007.01a2.474 2.474 0 0 1-2.225.968l-.413.015.37.705.525 1-.633-.064-.34-.035-.766-1.69-.139-.027a8.5 8.5 0 0 1-3.311-1.446 9.288 9.288 0 0 1-2.1-2.136c-.088-.12-.178-.235-.262-.361h1.9a6.509 6.509 0 0 0 1.167 1.288 6.751 6.751 0 0 0 .814.591 5.324 5.324 0 0 0 .608.337l.668.3-2.139-4.705-.116-.037a10.91 10.91 0 0 1-3.566-1.83 7.121 7.121 0 0 1-2.028-2.576 2.344 2.344 0 0 1-.13-2.219 1.373 1.373 0 0 1 .255-.283 2.225 2.225 0 0 1 1.325-.485 4.025 4.025 0 0 1 .451-.03h.434l-.255-.562-.147-.324.845.083.413.912.139.027a7.744 7.744 0 0 1 2.94 1.228 8.437 8.437 0 0 1 2.043 1.874"/><path class="c5" d="M54.369 7.403a1.147 1.147 0 0 0-.865.716 1.23 1.23 0 0 0-.069.394 1.753 1.753 0 0 0 .168.775 3.189 3.189 0 0 0 .814 1.049c.086.075.174.148.269.218a4.9 4.9 0 0 0 .519.332 6.026 6.026 0 0 0 .591.286l.649.271-1.854-4.1zm.386 2.487a2.629 2.629 0 0 1-.647-.832.993.993 0 0 1-.086-.749l.014-.019a.508.508 0 0 1 .256-.276l1.041 2.3a3.745 3.745 0 0 1-.545-.4l-.029-.03m5.833 4.868a5.334 5.334 0 0 0-1.729-.878l-.6-.193.513 1.134 1.482 3.271.193-.016c.069-.005.126-.021.189-.032a1.27 1.27 0 0 0 .986-.645 1.585 1.585 0 0 0-.068-1.418 3.388 3.388 0 0 0-.972-1.223m.229 2.657a.943.943 0 0 1-.22.084l-.603-1.35-.422-.934-.262-.577a4.112 4.112 0 0 1 .937.549 2.825 2.825 0 0 1 .816 1.022 1.075 1.075 0 0 1 .08.935.579.579 0 0 1-.116.128.661.661 0 0 1-.2.143m5.675 9.705-.024.012h-.039l-4.636-.174-5.913-1.761-3.3-1.793-.163.22-.34.46-1.474 2-.208.282 3.706 1.9 3.874 1.413 4.846.342 3.9-1.035 1.815-1.3 1.448-2.05.209-.3zm-16.169-4.982.133-.181-1.167-1.246-.266.361-.341.46-1.474 2-.17.231 1.274 1.1.2-.264 1.475-2zM33.7 159.297l5.235-2.924c5.156-2.883 4.816-14.117 4.789-14.808v-23.07l-15.676-9.083-.99-.573-3.032-1.757-.271-.157-1.155-.672-.376-.218-12.184-7.06v24.106c.121 3.014-.345 11.275-3.92 13.272L0 139.774l8.943 5.179zm-21.961-36.25v-21.124l30.285 17.55v22.143c.122 3.014-.345 11.273-3.919 13.272l-4.389 2.453-23.05-13.356-7.225-4.186 3.509-1.962c5.206-2.909 4.808-14.34 4.789-14.791"/><g style="clip-path:url(#clip-path-29)" transform="translate(22.481 136.76)" class="c3"><path class="c5" d="M5.686 3.708-.001.001"/><path class="c32" d="M5.686 3.708-.001.001"/></g><g style="clip-path:url(#clip-path-30)" transform="translate(20.587 135.526)" class="c3"><path class="c5" d="M.89.581-.001 0"/><path class="c32" d="M.89.581-.001 0"/></g><path class="c5" d="m34.735 148.803.585-2.891a.842.842 0 0 0 .005-.238 45.2 45.2 0 0 0 .7-7.232 57.7 57.7 0 0 0-.323-7.822.762.762 0 0 0 .007-.232l-.418-3.467a1.3 1.3 0 0 0-.263-.619 28.67 28.67 0 0 0-1.2-4.391 1.121 1.121 0 0 0-.4-.522l-1.855-1.2-2.964-1.918-5.18-3.351-2.954-1.911-1.845-1.194a.309.309 0 0 0-.41 0 8.224 8.224 0 0 0-1.421 2.68.283.283 0 0 0-.288.26l-.611 2.786a.789.789 0 0 0-.008.231 43.551 43.551 0 0 0-.788 7.066 57.119 57.119 0 0 0 .222 7.8.77.77 0 0 0-.01.234l.378 3.506a1.3 1.3 0 0 0 .259.628 28.985 28.985 0 0 0 1.173 4.489 1.131 1.131 0 0 0 .4.535l1.88 1.229 3.012 1.97 5.28 3.452 3.022 1.976 1.891 1.237a.308.308 0 0 0 .418 0 8.6 8.6 0 0 0 1.414-2.813c.142.006.252-.089.289-.272m-1.614-26.344a29.664 29.664 0 0 1 .83 3.082l-1.1-.713c-.2-1.257-.4-2.229-.554-2.9zm-1.9-1.228c.131.511.361 1.5.593 2.927l-2.412-1.572c-.075-1.2-.158-2.1-.222-2.686zm-7.436-4.813 4.383 2.838c.049.418.118 1.117.194 2.126.013.175.024.365.037.565l-5-3.24c.154-1.1.294-1.844.387-2.288m-3.042-1.968 2.037 1.319a37.14 37.14 0 0 0-.378 2.293l-2.408-1.56a13.083 13.083 0 0 1 .749-2.052m-1.884-1.227.821.532a16.217 16.217 0 0 0-.708 2.077l-1.094-.709a8.987 8.987 0 0 1 .981-1.9m-1.483 2.846.132.086 1.193.768.507.329.51.331 2.542 1.646.5.323.5.322 5.228 3.389.5.322.5.323 2.552 1.655.513.332.51.332 1.2.775.133.087.249 2.078-.048-.031-1.307-.848-.506-.328-.506-.328-2.714-1.759-.5-.323-.5-.322-5.5-3.565-.5-.322-.5-.322-2.7-1.752-.5-.326-.5-.326-1.3-.842-.046-.031zm.477 24.854a30.738 30.738 0 0 1-.811-3.149l1.11.724c.187 1.283.382 2.279.536 2.971zm1.922 1.256c-.13-.526-.357-1.54-.581-3l2.443 1.595c.071 1.235.15 2.154.212 2.76zm3.1 2.023c-.013-.107-.023-.226-.039-.367-.052-.517-.12-1.32-.185-2.4l5.074 3.313a41.546 41.546 0 0 1-.389 2.372zm5.86 1.2 2.454 1.6a13.8 13.8 0 0 1-.746 2.14l-2.084-1.361c.1-.5.23-1.285.375-2.381m3.641 5.006-.842-.549a17.084 17.084 0 0 0 .7-2.169l1.117.73a9.391 9.391 0 0 1-.979 1.989m1.478-2.974-.135-.089-1.211-.791-.517-.337-.52-.339-2.587-1.689-.5-.328-.5-.328-5.3-3.456-.5-.329-.5-.328-2.575-1.68-.516-.337-.514-.336-1.2-.785-.134-.088-.228-2.1.048.031 1.312.855.508.332.509.332 2.712 1.78.5.327.5.327 5.555 3.622.5.328.5.327 2.743 1.789.511.334.512.334 1.321.862.048.031zm-.84-3.817c.155-.984.378-3.455.469-5.043.018-.317.015-.642.019-.955a1.227 1.227 0 0 0-.484-.953c-.279-.181-.512-.038-.516.32 0 .307-.012.618-.019.937a40 40 0 0 1-.486 5.03l-2.822-1.84-8.581-5.589-2.927-1.908-1.367-.891a54.923 54.923 0 0 1-.193-7.243 42.312 42.312 0 0 1 .712-6.59l1.355.879c-.089.6-.182 1.512-.257 2.218a1.239 1.239 0 0 0 .383.966c.294.252.562.151.6-.194.08-.749.178-1.709.276-2.34l2.783 1.806c-.054.639-.209 2.223-.259 2.963a1.2 1.2 0 0 0 .474.977c.266.173.5.05.516-.28.051-.766.206-2.368.261-3.016l5.638 3.658c.013.7-.08 2.34-.079 3.138a1.208 1.208 0 0 0 .479.927c.282.184.516.032.516-.334 0-.775.09-2.4.078-3.086l2.8 1.814c.054 1.268.051.526.056 2.291a1.218 1.218 0 0 0 .481.932c.283.184.517.032.516-.334-.005-1.731-.031-1.084-.045-2.236l1.364.885a55.606 55.606 0 0 1 .28 7.263 43.958 43.958 0 0 1-.64 6.73z"/><path class="c5" d="m19.632 126.022-2.044-1.327-.058.483.506.308-.741 5.862-.506-.361-.057.456 2.4 1.564.057-.457-.554-.332.365-2.971.3.2c.427.278.56.641.427 1.428l-.177 1.129a1.649 1.649 0 0 0 .8 1.8l.753.492.056-.459-.159-.082c-.159-.083-.226-.242-.176-.519l.2-1.3c.17-1.165-.255-1.768-1.3-2.5.912.491 1.411.334 1.534-.684.146-1.175-.4-1.928-1.624-2.722m.336 2.151c-.115.972-.319 1.014-.666.788l-.245-.161.305-2.423.244.158c.347.225.517.429.362 1.637m3.534 7.097-.082.525 1.54 1 .054-.4-.381-.228.54-4.5-1.582-1.029-.055.426.452.264-.355 2.936c-.077.62-.3.884-.59.7s-.276-.489-.175-1.3l.4-3.235-1.51-.982-.055.436.373.2-.392 3.219a1.759 1.759 0 0 0 .745 1.929.852.852 0 0 0 1.077.031m7.49 1.499c.1-.8.015-1.378-.62-1.791a1.088 1.088 0 0 0-1.25-.085 1.393 1.393 0 0 0-.693-1.18 1.059 1.059 0 0 0-1.168-.1l.072-.517-1.521-.99-.054.428.39.222-.492 4.1-.381-.269-.053.4 1.8 1.175.045-.4-.27-.156.358-2.992c.076-.649.309-.858.554-.7.27.175.286.444.189 1.264l-.347 2.918-.269-.2-.044.4 1.685 1.1.052-.4-.27-.155.355-3c.075-.649.308-.859.57-.689s.262.428.166 1.25l-.343 2.921-.278-.2-.044.405 1.806 1.178.044-.407-.375-.223z"/></g></g></svg>
