<svg xmlns="http://www.w3.org/2000/svg" width="168.867" height="125.976"><defs><style>.c3{fill:#fff}</style></defs><g style="clip-path:url(#clip-path)"><path class="c3" d="M51.634 100.318a1.411 1.411 0 0 0-1.276 0 .389.389 0 0 0 0 .737 1.411 1.411 0 0 0 1.276 0 .389.389 0 0 0 0-.737m3.337-1.19a.388.388 0 0 0 0-.736 1.4 1.4 0 0 0-1.276 0 .388.388 0 0 0 0 .736 1.411 1.411 0 0 0 1.276 0m3.335-1.925a.388.388 0 0 0 0-.736 1.4 1.4 0 0 0-1.276 0 .388.388 0 0 0 0 .736 1.411 1.411 0 0 0 1.276 0m-10.007 1.189a1.411 1.411 0 0 0-1.276 0 .388.388 0 0 0 0 .736 1.4 1.4 0 0 0 1.276 0 .388.388 0 0 0 0-.736m3.335-1.925a1.411 1.411 0 0 0-1.276 0 .388.388 0 0 0 0 .736 1.4 1.4 0 0 0 1.276 0 .388.388 0 0 0 0-.736m2.06-1.19a1.411 1.411 0 0 0 1.276 0 .389.389 0 0 0 0-.737 1.411 1.411 0 0 0-1.276 0 .389.389 0 0 0 0 .737m-8.731 1.19a1.411 1.411 0 0 0-1.276 0 .388.388 0 0 0 0 .736 1.4 1.4 0 0 0 1.276 0 .388.388 0 0 0 0-.736m3.336-1.927a1.411 1.411 0 0 0-1.276 0 .389.389 0 0 0 0 .737 1.411 1.411 0 0 0 1.276 0 .389.389 0 0 0 0-.737m3.335-1.924a1.411 1.411 0 0 0-1.276 0 .388.388 0 0 0 0 .736 1.4 1.4 0 0 0 1.276 0 .388.388 0 0 0 0-.736M41.627 94.54a1.411 1.411 0 0 0-1.276 0 .389.389 0 0 0 0 .737 1.411 1.411 0 0 0 1.276 0 .389.389 0 0 0 0-.737m3.336-1.924a1.411 1.411 0 0 0-1.276 0 .388.388 0 0 0 0 .736 1.4 1.4 0 0 0 1.276 0 .388.388 0 0 0 0-.736m3.336-1.927a1.411 1.411 0 0 0-1.276 0 .389.389 0 0 0 0 .737 1.411 1.411 0 0 0 1.276 0 .389.389 0 0 0 0-.737m-10.008 1.927a1.411 1.411 0 0 0-1.276 0 .388.388 0 0 0 0 .736 1.4 1.4 0 0 0 1.276 0 .388.388 0 0 0 0-.736m3.336-1.927a1.411 1.411 0 0 0-1.276 0 .389.389 0 0 0 0 .737 1.411 1.411 0 0 0 1.276 0 .389.389 0 0 0 0-.737m3.336-1.926a1.411 1.411 0 0 0-1.276 0 .389.389 0 0 0 0 .737 1.411 1.411 0 0 0 1.276 0 .389.389 0 0 0 0-.737m-10.036 1.905a1.411 1.411 0 0 0-1.276 0 .389.389 0 0 0 0 .737 1.411 1.411 0 0 0 1.276 0 .389.389 0 0 0 0-.737m2.059-1.189a1.411 1.411 0 0 0 1.276 0 .389.389 0 0 0 0-.737 1.411 1.411 0 0 0-1.276 0 .389.389 0 0 0 0 .737m3.336-1.926a1.411 1.411 0 0 0 1.276 0 .388.388 0 0 0 0-.736 1.4 1.4 0 0 0-1.276 0 .388.388 0 0 0 0 .736m-8.731 1.19a1.411 1.411 0 0 0-1.276 0 .389.389 0 0 0 0 .737 1.411 1.411 0 0 0 1.276 0 .389.389 0 0 0 0-.737m3.336-1.929a1.411 1.411 0 0 0-1.276 0 .389.389 0 0 0 0 .737 1.411 1.411 0 0 0 1.276 0 .389.389 0 0 0 0-.737m2.059-1.187a1.411 1.411 0 0 0 1.276 0 .389.389 0 0 0 0-.737 1.411 1.411 0 0 0-1.276 0 .389.389 0 0 0 0 .737m-8.732 1.187a1.411 1.411 0 0 0-1.276 0 .389.389 0 0 0 0 .737 1.411 1.411 0 0 0 1.276 0 .389.389 0 0 0 0-.737m3.337-1.924a1.411 1.411 0 0 0-1.276 0 .389.389 0 0 0 0 .737 1.411 1.411 0 0 0 1.276 0 .389.389 0 0 0 0-.737m3.336-1.925a1.411 1.411 0 0 0-1.276 0 .388.388 0 0 0 0 .736 1.4 1.4 0 0 0 1.276 0 .388.388 0 0 0 0-.736M24.922 84.89a1.411 1.411 0 0 0-1.276 0 .389.389 0 0 0 0 .737 1.411 1.411 0 0 0 1.276 0 .389.389 0 0 0 0-.737m3.332-1.925a1.411 1.411 0 0 0-1.276 0 .388.388 0 0 0 0 .736 1.4 1.4 0 0 0 1.276 0 .388.388 0 0 0 0-.736m3.337-1.926a1.411 1.411 0 0 0-1.276 0 .389.389 0 0 0 0 .737 1.411 1.411 0 0 0 1.276 0 .389.389 0 0 0 0-.737m-10.007 1.926a1.411 1.411 0 0 0-1.276 0 .388.388 0 0 0 0 .736 1.4 1.4 0 0 0 1.276 0 .388.388 0 0 0 0-.736m3.338-1.926a1.411 1.411 0 0 0-1.276 0 .389.389 0 0 0 0 .737 1.411 1.411 0 0 0 1.276 0 .389.389 0 0 0 0-.737m3.332-1.927a1.411 1.411 0 0 0-1.276 0 .389.389 0 0 0 0 .737 1.411 1.411 0 0 0 1.276 0 .389.389 0 0 0 0-.737m-10.005 1.927a1.411 1.411 0 0 0-1.276 0 .389.389 0 0 0 0 .737 1.411 1.411 0 0 0 1.276 0 .389.389 0 0 0 0-.737m3.335-1.927a1.411 1.411 0 0 0-1.276 0 .389.389 0 0 0 0 .737 1.411 1.411 0 0 0 1.276 0 .389.389 0 0 0 0-.737m3.338-1.925a1.411 1.411 0 0 0-1.276 0 .389.389 0 0 0 0 .737 1.411 1.411 0 0 0 1.276 0 .389.389 0 0 0 0-.737m-10.01 1.925a1.411 1.411 0 0 0-1.276 0 .389.389 0 0 0 0 .737 1.411 1.411 0 0 0 1.276 0 .389.389 0 0 0 0-.737m3.337-1.925a1.411 1.411 0 0 0-1.276 0 .389.389 0 0 0 0 .737 1.411 1.411 0 0 0 1.276 0 .389.389 0 0 0 0-.737m3.335-1.926a1.411 1.411 0 0 0-1.276 0 .389.389 0 0 0 0 .737 1.411 1.411 0 0 0 1.276 0 .389.389 0 0 0 0-.737m-10.008 1.926a1.411 1.411 0 0 0-1.276 0 .389.389 0 0 0 0 .737 1.411 1.411 0 0 0 1.276 0 .389.389 0 0 0 0-.737m3.336-1.926a1.411 1.411 0 0 0-1.276 0 .389.389 0 0 0 0 .737 1.411 1.411 0 0 0 1.276 0 .389.389 0 0 0 0-.737m3.337-1.925a1.411 1.411 0 0 0-1.276 0 .389.389 0 0 0 0 .737 1.411 1.411 0 0 0 1.276 0 .389.389 0 0 0 0-.737M8.212 75.241a1.411 1.411 0 0 0-1.276 0 .389.389 0 0 0 0 .737 1.411 1.411 0 0 0 1.276 0 .389.389 0 0 0 0-.737m2.059-1.189a1.411 1.411 0 0 0 1.276 0 .389.389 0 0 0 0-.737 1.411 1.411 0 0 0-1.276 0 .389.389 0 0 0 0 .737m3.336-1.927a1.411 1.411 0 0 0 1.276 0 .389.389 0 0 0 0-.737 1.411 1.411 0 0 0-1.276 0 .389.389 0 0 0 0 .737m-8.732 1.19a1.411 1.411 0 0 0-1.276 0 .389.389 0 0 0 0 .737 1.411 1.411 0 0 0 1.276 0 .389.389 0 0 0 0-.737m3.337-1.925a1.411 1.411 0 0 0-1.276 0 .389.389 0 0 0 0 .737 1.411 1.411 0 0 0 1.276 0 .389.389 0 0 0 0-.737m2.059-1.19a1.411 1.411 0 0 0 1.276 0 .389.389 0 0 0 0-.737 1.411 1.411 0 0 0-1.276 0 .389.389 0 0 0 0 .737M1.54 71.39a1.411 1.411 0 0 0-1.276 0 .389.389 0 0 0 0 .737 1.411 1.411 0 0 0 1.276 0 .389.389 0 0 0 0-.737m3.335-1.927a1.411 1.411 0 0 0-1.276 0 .389.389 0 0 0 0 .737 1.411 1.411 0 0 0 1.276 0 .389.389 0 0 0 0-.737m3.337-1.926a1.411 1.411 0 0 0-1.276 0 .389.389 0 0 0 0 .737 1.411 1.411 0 0 0 1.276 0 .389.389 0 0 0 0-.737m-6.672 0a1.411 1.411 0 0 0-1.276 0 .389.389 0 0 0 0 .737 1.411 1.411 0 0 0 1.276 0 .389.389 0 0 0 0-.737m3.335-1.925a1.411 1.411 0 0 0-1.276 0 .389.389 0 0 0 0 .737 1.411 1.411 0 0 0 1.276 0 .389.389 0 0 0 0-.737m133.679 49.846a1.411 1.411 0 0 0-1.276 0 .388.388 0 0 0 0 .736 1.4 1.4 0 0 0 1.276 0 .388.388 0 0 0 0-.736m-6.672 0a1.411 1.411 0 0 0-1.276 0 .389.389 0 0 0 0 .737 1.411 1.411 0 0 0 1.276 0 .389.389 0 0 0 0-.737m3.336-1.926a1.411 1.411 0 0 0-1.276 0 .388.388 0 0 0 0 .736 1.4 1.4 0 0 0 1.276 0 .388.388 0 0 0 0-.736m-6.672 0a1.411 1.411 0 0 0-1.276 0 .388.388 0 0 0 0 .736 1.4 1.4 0 0 0 1.276 0 .388.388 0 0 0 0-.736m3.336-1.926a1.411 1.411 0 0 0-1.276 0 .388.388 0 0 0 0 .736 1.4 1.4 0 0 0 1.276 0 .388.388 0 0 0 0-.736m-30.02 13.482a1.411 1.411 0 0 0-1.276 0 .388.388 0 0 0 0 .736 1.4 1.4 0 0 0 1.276 0 .388.388 0 0 0 0-.736m3.331-1.927a1.411 1.411 0 0 0-1.276 0 .389.389 0 0 0 0 .737 1.411 1.411 0 0 0 1.276 0 .389.389 0 0 0 0-.737m3.339-1.925a1.411 1.411 0 0 0-1.276 0 .388.388 0 0 0 0 .736 1.4 1.4 0 0 0 1.276 0 .388.388 0 0 0 0-.736m3.335-1.926a1.411 1.411 0 0 0-1.276 0 .389.389 0 0 0 0 .737 1.411 1.411 0 0 0 1.276 0 .389.389 0 0 0 0-.737m3.336-1.927a1.411 1.411 0 0 0-1.276 0 .388.388 0 0 0 0 .736 1.4 1.4 0 0 0 1.276 0 .388.388 0 0 0 0-.736m3.336-1.925a1.411 1.411 0 0 0-1.276 0 .389.389 0 0 0 0 .737 1.411 1.411 0 0 0 1.276 0 .389.389 0 0 0 0-.737m3.336-1.926a1.411 1.411 0 0 0-1.276 0 .388.388 0 0 0 0 .736 1.4 1.4 0 0 0 1.276 0 .388.388 0 0 0 0-.736m3.335-1.926a1.411 1.411 0 0 0-1.276 0 .388.388 0 0 0 0 .736 1.4 1.4 0 0 0 1.276 0 .388.388 0 0 0 0-.736m3.336-1.926a1.411 1.411 0 0 0-1.276 0 .389.389 0 0 0 0 .737 1.411 1.411 0 0 0 1.276 0 .389.389 0 0 0 0-.737m3.336-1.926a1.411 1.411 0 0 0-1.276 0 .388.388 0 0 0 0 .736 1.4 1.4 0 0 0 1.276 0 .388.388 0 0 0 0-.736m-36.694 17.334a1.411 1.411 0 0 0-1.276 0 .388.388 0 0 0 0 .736 1.4 1.4 0 0 0 1.276 0 .388.388 0 0 0 0-.736m3.336-1.927a1.411 1.411 0 0 0-1.276 0 .389.389 0 0 0 0 .737 1.411 1.411 0 0 0 1.276 0 .389.389 0 0 0 0-.737m3.338-1.925a1.411 1.411 0 0 0-1.276 0 .388.388 0 0 0 0 .736 1.4 1.4 0 0 0 1.276 0 .388.388 0 0 0 0-.736m3.331-1.926a1.411 1.411 0 0 0-1.276 0 .389.389 0 0 0 0 .737 1.411 1.411 0 0 0 1.276 0 .389.389 0 0 0 0-.737m3.339-1.927a1.411 1.411 0 0 0-1.276 0 .389.389 0 0 0 0 .737 1.411 1.411 0 0 0 1.276 0 .389.389 0 0 0 0-.737m3.335-1.925a1.411 1.411 0 0 0-1.276 0 .389.389 0 0 0 0 .737 1.411 1.411 0 0 0 1.276 0 .389.389 0 0 0 0-.737m3.336-1.926a1.411 1.411 0 0 0-1.276 0 .388.388 0 0 0 0 .736 1.4 1.4 0 0 0 1.276 0 .388.388 0 0 0 0-.736m3.336-1.926a1.411 1.411 0 0 0-1.276 0 .388.388 0 0 0 0 .736 1.4 1.4 0 0 0 1.276 0 .388.388 0 0 0 0-.736m3.336-1.926a1.411 1.411 0 0 0-1.276 0 .389.389 0 0 0 0 .737 1.411 1.411 0 0 0 1.276 0 .389.389 0 0 0 0-.737m3.335-1.926a1.411 1.411 0 0 0-1.276 0 .388.388 0 0 0 0 .736 1.4 1.4 0 0 0 1.276 0 .388.388 0 0 0 0-.736m3.336-1.926a1.411 1.411 0 0 0-1.276 0 .389.389 0 0 0 0 .737 1.411 1.411 0 0 0 1.276 0 .389.389 0 0 0 0-.737m-36.723 17.314a1.411 1.411 0 0 0-1.276 0 .389.389 0 0 0 0 .737 1.411 1.411 0 0 0 1.276 0 .389.389 0 0 0 0-.737m2.06-1.19a1.411 1.411 0 0 0 1.276 0 .389.389 0 0 0 0-.737 1.411 1.411 0 0 0-1.276 0 .389.389 0 0 0 0 .737m3.336-1.926a1.411 1.411 0 0 0 1.276 0 .389.389 0 0 0 0-.737 1.411 1.411 0 0 0-1.276 0 .389.389 0 0 0 0 .737m3.341-1.926a1.411 1.411 0 0 0 1.276 0 .389.389 0 0 0 0-.737 1.411 1.411 0 0 0-1.276 0 .389.389 0 0 0 0 .737m3.331-1.926a1.411 1.411 0 0 0 1.276 0 .389.389 0 0 0 0-.737 1.411 1.411 0 0 0-1.276 0 .389.389 0 0 0 0 .737m3.332-1.925a1.411 1.411 0 0 0 1.276 0 .389.389 0 0 0 0-.737 1.411 1.411 0 0 0-1.276 0 .389.389 0 0 0 0 .737m3.339-1.926a1.411 1.411 0 0 0 1.276 0 .389.389 0 0 0 0-.737 1.411 1.411 0 0 0-1.276 0 .389.389 0 0 0 0 .737m3.336-1.924a1.411 1.411 0 0 0 1.276 0 .389.389 0 0 0 0-.737 1.411 1.411 0 0 0-1.276 0 .389.389 0 0 0 0 .737m3.335-1.933a1.411 1.411 0 0 0 1.276 0 .389.389 0 0 0 0-.737 1.411 1.411 0 0 0-1.276 0 .389.389 0 0 0 0 .737m3.337-1.921a1.411 1.411 0 0 0 1.276 0 .389.389 0 0 0 0-.737 1.411 1.411 0 0 0-1.276 0 .389.389 0 0 0 0 .737m3.335-1.927a1.411 1.411 0 0 0 1.276 0 .389.389 0 0 0 0-.737 1.411 1.411 0 0 0-1.276 0 .389.389 0 0 0 0 .737m3.336-1.925a1.411 1.411 0 0 0 1.276 0 .388.388 0 0 0 0-.736 1.4 1.4 0 0 0-1.276 0 .388.388 0 0 0 0 .736m-38.753 18.522a1.411 1.411 0 0 0-1.276 0 .389.389 0 0 0 0 .737 1.411 1.411 0 0 0 1.276 0 .389.389 0 0 0 0-.737m3.335-1.925a1.411 1.411 0 0 0-1.276 0 .388.388 0 0 0 0 .736 1.4 1.4 0 0 0 1.276 0 .388.388 0 0 0 0-.736m2.06-1.19a1.411 1.411 0 0 0 1.276 0 .389.389 0 0 0 0-.737 1.411 1.411 0 0 0-1.276 0 .389.389 0 0 0 0 .737m-8.731 1.19a1.411 1.411 0 0 0-1.276 0 .388.388 0 0 0 0 .736 1.4 1.4 0 0 0 1.276 0 .388.388 0 0 0 0-.736m3.336-1.926a1.411 1.411 0 0 0-1.276 0 .389.389 0 0 0 0 .737 1.411 1.411 0 0 0 1.276 0 .389.389 0 0 0 0-.737m3.335-1.927a1.411 1.411 0 0 0-1.276 0 .389.389 0 0 0 0 .737 1.411 1.411 0 0 0 1.276 0 .389.389 0 0 0 0-.737m-10.007 1.927a1.411 1.411 0 0 0-1.276 0 .389.389 0 0 0 0 .737 1.411 1.411 0 0 0 1.276 0 .389.389 0 0 0 0-.737m3.336-1.927a1.411 1.411 0 0 0-1.276 0 .389.389 0 0 0 0 .737 1.411 1.411 0 0 0 1.276 0 .389.389 0 0 0 0-.737m3.336-1.925a1.411 1.411 0 0 0-1.276 0 .389.389 0 0 0 0 .737 1.411 1.411 0 0 0 1.276 0 .389.389 0 0 0 0-.737m-10.008 1.925a1.411 1.411 0 0 0-1.276 0 .389.389 0 0 0 0 .737 1.411 1.411 0 0 0 1.276 0 .389.389 0 0 0 0-.737m3.336-1.925a1.411 1.411 0 0 0-1.276 0 .389.389 0 0 0 0 .737 1.411 1.411 0 0 0 1.276 0 .389.389 0 0 0 0-.737m3.336-1.926a1.411 1.411 0 0 0-1.276 0 .389.389 0 0 0 0 .737 1.411 1.411 0 0 0 1.276 0 .389.389 0 0 0 0-.737m-10.007 1.926a1.411 1.411 0 0 0-1.276 0 .389.389 0 0 0 0 .737 1.411 1.411 0 0 0 1.276 0 .389.389 0 0 0 0-.737m3.335-1.926a1.411 1.411 0 0 0-1.276 0 .389.389 0 0 0 0 .737 1.411 1.411 0 0 0 1.276 0 .389.389 0 0 0 0-.737m3.336-1.926a1.411 1.411 0 0 0-1.276 0 .389.389 0 0 0 0 .737 1.411 1.411 0 0 0 1.276 0 .389.389 0 0 0 0-.737m-10.007 1.926a1.411 1.411 0 0 0-1.276 0 .389.389 0 0 0 0 .737 1.411 1.411 0 0 0 1.276 0 .389.389 0 0 0 0-.737m3.336-1.926a1.411 1.411 0 0 0-1.276 0 .389.389 0 0 0 0 .737 1.411 1.411 0 0 0 1.276 0 .389.389 0 0 0 0-.737m3.335-1.926a1.411 1.411 0 0 0-1.276 0 .388.388 0 0 0 0 .736 1.4 1.4 0 0 0 1.276 0 .388.388 0 0 0 0-.736m-10.007 1.926a1.411 1.411 0 0 0-1.276 0 .389.389 0 0 0 0 .737 1.411 1.411 0 0 0 1.276 0 .389.389 0 0 0 0-.737m3.336-1.926a1.411 1.411 0 0 0-1.276 0 .388.388 0 0 0 0 .736 1.4 1.4 0 0 0 1.276 0 .388.388 0 0 0 0-.736m3.336-1.926a1.411 1.411 0 0 0-1.276 0 .388.388 0 0 0 0 .736 1.4 1.4 0 0 0 1.276 0 .388.388 0 0 0 0-.736m-10.034 1.905a1.411 1.411 0 0 0-1.276 0 .389.389 0 0 0 0 .737 1.411 1.411 0 0 0 1.276 0 .389.389 0 0 0 0-.737m2.057-1.188a1.411 1.411 0 0 0 1.276 0 .389.389 0 0 0 0-.737 1.411 1.411 0 0 0-1.276 0 .389.389 0 0 0 0 .737m3.335-1.928a1.411 1.411 0 0 0 1.276 0 .389.389 0 0 0 0-.737 1.411 1.411 0 0 0-1.276 0 .389.389 0 0 0 0 .737m-8.73 1.191a1.411 1.411 0 0 0-1.276 0 .389.389 0 0 0 0 .737 1.411 1.411 0 0 0 1.276 0 .389.389 0 0 0 0-.737m3.338-1.926a1.411 1.411 0 0 0-1.276 0 .389.389 0 0 0 0 .737 1.411 1.411 0 0 0 1.276 0 .389.389 0 0 0 0-.737m2.057-1.19a1.411 1.411 0 0 0 1.276 0 .389.389 0 0 0 0-.737 1.411 1.411 0 0 0-1.276 0 .389.389 0 0 0 0 .737m-8.731 1.19a1.414 1.414 0 0 0-1.277 0 .389.389 0 0 0 0 .737 1.413 1.413 0 0 0 1.277 0 .39.39 0 0 0 0-.737m3.336-1.926a1.411 1.411 0 0 0-1.276 0 .389.389 0 0 0 0 .737 1.411 1.411 0 0 0 1.276 0 .389.389 0 0 0 0-.737m3.338-1.926a1.411 1.411 0 0 0-1.276 0 .389.389 0 0 0 0 .737 1.411 1.411 0 0 0 1.276 0 .389.389 0 0 0 0-.737m-10.01 1.926a1.411 1.411 0 0 0-1.276 0 .389.389 0 0 0 0 .737 1.411 1.411 0 0 0 1.276 0 .389.389 0 0 0 0-.737m3.336-1.926a1.414 1.414 0 0 0-1.277 0 .389.389 0 0 0 0 .737 1.414 1.414 0 0 0 1.277 0 .39.39 0 0 0 0-.737m3.336-1.926a1.411 1.411 0 0 0-1.276 0 .389.389 0 0 0 0 .737 1.411 1.411 0 0 0 1.276 0 .389.389 0 0 0 0-.737m83.475 1.984a1.411 1.411 0 0 0-1.276 0 .389.389 0 0 0 0 .737 1.411 1.411 0 0 0 1.276 0 .388.388 0 0 0 0-.736m3.341-1.928a1.413 1.413 0 0 0-1.277 0 .389.389 0 0 0 0 .737 1.414 1.414 0 0 0 1.277 0 .39.39 0 0 0 0-.737m3.335-1.926a1.411 1.411 0 0 0-1.276 0 .388.388 0 0 0 0 .736 1.4 1.4 0 0 0 1.276 0 .388.388 0 0 0 0-.736m3.336-1.926a1.411 1.411 0 0 0-1.276 0 .389.389 0 0 0 0 .737 1.411 1.411 0 0 0 1.276 0 .389.389 0 0 0 0-.737m3.339-1.926a1.411 1.411 0 0 0-1.276 0 .388.388 0 0 0 0 .736 1.4 1.4 0 0 0 1.276 0 .388.388 0 0 0 0-.736m3.331-1.926a1.411 1.411 0 0 0-1.276 0 .388.388 0 0 0 0 .736 1.4 1.4 0 0 0 1.276 0 .388.388 0 0 0 0-.736m3.332-1.925a1.411 1.411 0 0 0-1.276 0 .389.389 0 0 0 0 .737 1.411 1.411 0 0 0 1.276 0 .389.389 0 0 0 0-.737m3.34-1.927a1.411 1.411 0 0 0-1.276 0 .389.389 0 0 0 0 .737 1.411 1.411 0 0 0 1.276 0 .389.389 0 0 0 0-.737m-23.35 9.63a1.411 1.411 0 0 0-1.276 0 .388.388 0 0 0 0 .736 1.4 1.4 0 0 0 1.276 0 .388.388 0 0 0 0-.736m3.337-1.926a1.414 1.414 0 0 0-1.277 0 .389.389 0 0 0 0 .737 1.413 1.413 0 0 0 1.277 0 .39.39 0 0 0 0-.737m3.335-1.926a1.411 1.411 0 0 0-1.276 0 .388.388 0 0 0 0 .736 1.4 1.4 0 0 0 1.276 0 .388.388 0 0 0 0-.736m3.336-1.926a1.411 1.411 0 0 0-1.276 0 .388.388 0 0 0 0 .736 1.4 1.4 0 0 0 1.276 0 .388.388 0 0 0 0-.736m3.339-1.925a1.411 1.411 0 0 0-1.276 0 .389.389 0 0 0 0 .737 1.411 1.411 0 0 0 1.276 0 .389.389 0 0 0 0-.737m3.331-1.927a1.411 1.411 0 0 0-1.276 0 .389.389 0 0 0 0 .737 1.411 1.411 0 0 0 1.276 0 .389.389 0 0 0 0-.737m3.332-1.926a1.411 1.411 0 0 0-1.276 0 .389.389 0 0 0 0 .737 1.411 1.411 0 0 0 1.276 0 .389.389 0 0 0 0-.737m3.34-1.928a1.411 1.411 0 0 0-1.276 0 .389.389 0 0 0 0 .737 1.411 1.411 0 0 0 1.276 0 .389.389 0 0 0 0-.737M143.947 93.08a1.411 1.411 0 0 0 1.276 0 .389.389 0 0 0 0-.737 1.411 1.411 0 0 0-1.276 0 .389.389 0 0 0 0 .737m3.336-1.926a1.411 1.411 0 0 0 1.276 0 .389.389 0 0 0 0-.737 1.411 1.411 0 0 0-1.276 0 .389.389 0 0 0 0 .737m3.336-1.924a1.411 1.411 0 0 0 1.276 0 .388.388 0 0 0 0-.736 1.4 1.4 0 0 0-1.276 0 .388.388 0 0 0 0 .736m3.336-1.933a1.411 1.411 0 0 0 1.276 0 .388.388 0 0 0 0-.736 1.4 1.4 0 0 0-1.276 0 .388.388 0 0 0 0 .736m3.335-1.921a1.411 1.411 0 0 0 1.276 0 .388.388 0 0 0 0-.736 1.4 1.4 0 0 0-1.276 0 .388.388 0 0 0 0 .736m3.339-1.927a1.411 1.411 0 0 0 1.276 0 .388.388 0 0 0 0-.736 1.4 1.4 0 0 0-1.276 0 .388.388 0 0 0 0 .736m3.331-1.925a1.411 1.411 0 0 0 1.276 0 .389.389 0 0 0 0-.737 1.411 1.411 0 0 0-1.276 0 .389.389 0 0 0 0 .737m3.337-1.926a1.411 1.411 0 0 0 1.276 0 .389.389 0 0 0 0-.737 1.411 1.411 0 0 0-1.276 0 .389.389 0 0 0 0 .737m-10.838-23.446.269-.159-.005-.619L71.67 6.454l-.283-.181-58.772 33.933-.24.167.005.6 2.558 1.462L97.559 89.95l.177.055.167-.055 56.256-32.473zM97.727 88.844 15.991 41.835l-2.046-1.177L71.371 7.497l83.782 48.192-2.047 1.181z"/><path class="c3" d="m156.553 111.445-8.732-5.134a11.322 11.322 0 0 1-5.105-6.368l-1.3-4.082c-.077-.243-.173-.478-.265-.714a1.344 1.344 0 0 0 .735-.142.389.389 0 0 0 0-.737 1.414 1.414 0 0 0-1.145-.049 11.7 11.7 0 0 0-.865-1.478l27.747-16.022.24-.165V56.168l.012-.008-.013-.186v-.416l-.028-.015L71.944.181 71.661 0 2.037 40.2l-.215.138-.052.029.006 3.233 2.511 1.45v11.73l-2.25 1.2-.228.144-.039.023.005 3.308.309.1 4.649 2.682a.578.578 0 0 0 .2.185 1.153 1.153 0 0 0 .321.117l2.812 1.624a.577.577 0 0 0 .2.185 1.12 1.12 0 0 0 .321.117l2.812 1.624a.584.584 0 0 0 .2.186 1.112 1.112 0 0 0 .32.116l2.812 1.624a.584.584 0 0 0 .2.186 1.14 1.14 0 0 0 .321.117l2.839 1.639a.577.577 0 0 0 .2.19 1.17 1.17 0 0 0 .329.118l2.8 1.618a.562.562 0 0 0 .2.189 1.138 1.138 0 0 0 .329.118l2.8 1.618a.566.566 0 0 0 .2.189 1.1 1.1 0 0 0 .329.118l2.8 1.618a.587.587 0 0 0 .2.19 1.126 1.126 0 0 0 .329.117l2.8 1.618a.564.564 0 0 0 .2.19 1.106 1.106 0 0 0 .329.117l2.8 1.619a.566.566 0 0 0 .2.189 1.12 1.12 0 0 0 .328.118l2.859 1.62a.575.575 0 0 0 .2.189 1.1 1.1 0 0 0 .329.118l2.8 1.618a.587.587 0 0 0 .2.19 1.137 1.137 0 0 0 .329.117l2.83 1.634a.567.567 0 0 0 .206.194 1.133 1.133 0 0 0 .336.118l2.799 1.611a.575.575 0 0 0 .206.195 1.1 1.1 0 0 0 .336.118l2.794 1.614a.561.561 0 0 0 .205.193 1.134 1.134 0 0 0 .336.119l2.794 1.618a.563.563 0 0 0 .205.194 1.14 1.14 0 0 0 .337.118l2.793 1.613a.567.567 0 0 0 .206.194 1.1 1.1 0 0 0 .336.118l36.99 21.356.283.182 30.862-17.819a10.686 10.686 0 0 1 1.436 2.862l.592 1.827a1.178 1.178 0 0 0-.259.1.389.389 0 0 0 0 .737 1.262 1.262 0 0 0 .576.145l.436 1.349a12.384 12.384 0 0 0 2.077 3.867.411.411 0 0 0 .248.414 1.1 1.1 0 0 0 .158.06 12.366 12.366 0 0 0 3.065 2.539l9.224 5.422a.78.78 0 0 0 .4.11.783.783 0 0 0 .738-1.031l-1.955-5.8 10.5 1.18a.782.782 0 0 0 .827-.531.77.77 0 0 0-.346-.917m1.945-40.635-27.224 15.733-2.119-1.193 29.869-17.262-.527-.912-60.505 34.966-89.5-51.671-.528.912 89.729 51.8.283.182 20.008-11.559L120.102 93l-22.11 12.778L8.491 54.106l-.528.911 89.729 51.8.283.182 23.192-13.4 2.535 1.427-26.114 14.988L5.341 56.678V45.654l92.352 53.317.283.182 63.747-36.842V73.2l-26.81 15.393-2.574-1.45 26.684-15.422zm-60.9 25.473v-.386h.79v.379l-.005 1.423v.523h-.791V97.7zm65.183-34.578 1.395-.784v13.25l-1.395-.943zm-.551 12.422 1.48 1-26.18 15.117a11.849 11.849 0 0 0-1.529-1.04l-.02-.011zM71.645 1.224l94.642 54.638-68.3 39.431L3.351 40.654zM4.907 57.643l92.382 53.413.283.182 27.2-15.61.577.325a10.662 10.662 0 0 1 1.077.7l-28.435 16.42L3.385 58.452zm93.478 58.363h-.79v-.521l.006-1.415v-.388h.791v.375l-.005 1.423zm50.479-4.957-3.329-.374a.941.941 0 0 0-.828.342.929.929 0 0 0-.158.882l.854 2.537.937 2.783-1.379-.81-7.278-4.278a11.34 11.34 0 0 1-5.089-6.316l-1.344-4.156a11.678 11.678 0 0 0-5.4-6.6l-4.813-2.709-2-1.127 9.141-5.243 7.322 4.12a10.665 10.665 0 0 1 4.942 6.072l1.3 4.082a12.356 12.356 0 0 0 5.566 6.943l7.733 4.547z"/><path class="c3" d="M65.478 32.678a1.313 1.313 0 0 0-.309 1.245 1.44 1.44 0 0 0 .181.373 1.968 1.968 0 0 0 .706.634 3.648 3.648 0 0 0 1.46.41c.129.012.26.017.394.017a5.5 5.5 0 0 0 .7-.047 6.952 6.952 0 0 0 .737-.139l.781-.191-4.484-2.5zm.344.621 2.518 1.406a4.3 4.3 0 0 1-.769.006l-.052-.008a2.972 2.972 0 0 1-1.159-.326 1.124 1.124 0 0 1-.587-.63v-.021a.572.572 0 0 1 .047-.427m12.089 2.372a3.845 3.845 0 0 0-1.724-.464 6.059 6.059 0 0 0-2.184.366l-.68.228 1.242.693 3.583 2 .168-.145a2.482 2.482 0 0 0 .182-.19 1.434 1.434 0 0 0 .438-1.23 1.813 1.813 0 0 0-1.025-1.257m.38 1.554a.764.764 0 0 1-.089.268 2.739 2.739 0 0 0-.291-.193 3.742 3.742 0 0 0-1.332-.405l-1.022-.572-.633-.352a4.7 4.7 0 0 1 1.235-.131 3.24 3.24 0 0 1 1.444.385 1.229 1.229 0 0 1 .708.8.676.676 0 0 1-.019.2"/><path class="c3" d="M110.343 32.273a31.2 31.2 0 0 0-7.948-4.571c-6.159-2.436-12.274-2.567-16.339-.51a27.638 27.638 0 0 0-13.58-3.319c-10.92 0-19.817 5.462-20.089 12.236h-.026v4.441c0 6.316 7.519 11.542 17.26 12.412-.345.248-.334.607.066.838a1.716 1.716 0 0 0 1.548 0c.344-.2.4-.493.19-.731.35.012.7.033 1.051.033a28.169 28.169 0 0 0 12.858-2.908 30.53 30.53 0 0 0 6.612 4.828c6.384 3.478 13.132 4.39 17.967 2.9a.475.475 0 0 0 .286.55 1.712 1.712 0 0 0 1.55 0 .472.472 0 0 0 0-.894 1.427 1.427 0 0 0-.493-.154 9.807 9.807 0 0 0 2.686-1.7.555.555 0 0 0 .308.409 1.712 1.712 0 0 0 1.55 0 .473.473 0 0 0 0-.9 1.719 1.719 0 0 0-1.3-.095 7.976 7.976 0 0 0 1.115-1.527l2.124-3.9-.023-.013c2.5-5.061-.694-12.176-7.372-17.436M53.292 34.42c1.566-5.62 9.562-9.915 19.184-9.915a27.326 27.326 0 0 1 12.958 3.046c-.181.107-.369.206-.539.323a8.812 8.812 0 0 0-1.311 1.116c-.279-.158-.56-.316-.859-.461a25.232 25.232 0 0 0-20.506 0c-3.586 1.747-5.875 4.391-5.875 7.345a5.011 5.011 0 0 0 .066.762c.029.192.068.392.12.606 0 .017.005.032.01.051l.005.008c1.171 4.574 7.856 8.1 15.926 8.1a24.9 24.9 0 0 0 8.263-1.364 19.255 19.255 0 0 0 1.58 2.657 29.2 29.2 0 0 1-9.842 1.651c-10.742 0-19.482-5.347-19.482-11.92a7.47 7.47 0 0 1 .3-2.005m29.119-3.946-.152.277-.093.171a24.243 24.243 0 0 0-9.689-1.889c-.894 0-1.77.043-2.625.124v-2.033c.346-.034.69-.071 1.043-.091q.78-.047 1.582-.046t1.583.046a21.825 21.825 0 0 1 9.107 2.424 7.877 7.877 0 0 0-.731 1.03zm-10.175 7.307-.133.044a12.54 12.54 0 0 1-4.52.74 8.125 8.125 0 0 1-3.612-.991c-1.02-.568-1.567-1.225-1.625-1.926v-.1c-.017-.045-.037-.091-.051-.138a4.719 4.719 0 0 0 1.367 1.091 8.771 8.771 0 0 0 3.889 1.069 12.991 12.991 0 0 0 4.619-.727l3.337 1.862c-.264.01-.541.006-.831-.012h-.006a6.974 6.974 0 0 1-1.124-.178zm-10.083-5.817v.578a2.428 2.428 0 0 0-.418 1.17l-.028.014.008 1.949a3.249 3.249 0 0 0 1.948 2.452 8.744 8.744 0 0 0 3.889 1.07 13.03 13.03 0 0 0 4.619-.727l.044.024-1.349 1-.889.523v2.128l.2.081a11.882 11.882 0 0 0 4.644.942 10.361 10.361 0 0 0 4.135-.911l1.32.737c.064.161.119.321.19.482a24.519 24.519 0 0 1-7.988 1.286c-7.741 0-14.155-3.276-15.3-7.537.554-2.089 2.378-3.923 4.972-5.263m16.829 9.585-.146.069a9.713 9.713 0 0 1-4.025.919 10.8 10.8 0 0 1-4.2-.817v-.961c.1.037.2.072.294.105a11.727 11.727 0 0 0 3.915.683 10.343 10.343 0 0 0 4.137-.912l.666.373c.043.178.1.358.152.538s.09.355.149.533zm.485-1.357-.485-.271-.146.069a9.731 9.731 0 0 1-4.025.92 10.631 10.631 0 0 1-3.38-.538c-.162-.052-.323-.095-.486-.154l1.742-1.286a7.461 7.461 0 0 0 1.952.393 7.838 7.838 0 0 0 1.15-.01 5.864 5.864 0 0 0 .788-.1l.818-.177-5.156-2.879-.133.045a12.456 12.456 0 0 1-4.52.739 8.129 8.129 0 0 1-3.612-.991c-1.02-.568-1.567-1.225-1.626-1.95a1.567 1.567 0 0 1 .041-.435 2.556 2.556 0 0 1 .891-1.342c.126-.111.243-.222.394-.333l.4-.29-.616-.344-.355-.2.833-.5 1 .558.146-.07a8.855 8.855 0 0 1 3.536-.868 9.664 9.664 0 0 1 3.151.336l-.751.578-1.007.775a5.068 5.068 0 0 0-2.868-.147l-.784.191 1.393.777 3.45 1.927.134-.047a14.442 14.442 0 0 1 4.908-.981 7.589 7.589 0 0 1 3.46.96c.148.083.264.172.4.258q-.082.172-.155.348a9.1 9.1 0 0 0-.476 5.041m-7.51-9.035v.827l-1.747 1.353-1.032-.58-.983-.55a4.63 4.63 0 0 1 1.758.307l.165.061 1.588-1.218zm8.051 2.835a8.21 8.21 0 0 0-3.745-1.035 14.624 14.624 0 0 0-5 .97l-.448-.25 1.779-1.377v-2.23a7.211 7.211 0 0 0-1.441-.369c.438-.021.88-.035 1.326-.035a23.581 23.581 0 0 1 9.37 1.844l-1.481 2.718c-.121-.078-.224-.161-.357-.235m-27.018 6.556v-1.034l-.013-.053c1.977 4.94 8.641 8.722 16.87 9.4v3.491c-9.5-.789-16.857-5.773-16.857-11.8m18.776 11.9v-3.496c.236.005.467.023.706.023.753 0 1.494-.031 2.224-.082v3.49a31.89 31.89 0 0 1-2.224.083c-.239 0-.47-.016-.706-.021m9.071-17.773.5-.91c0-.017.01-.033.014-.051-.626 5.284 3.414 11.793 10.318 16.322l-.314.575-1.356 2.49c-7.969-5.239-12.045-13.134-9.162-18.426m10.793 19.431 1.357-2.492.314-.575c.205.118.4.244.609.358.661.36 1.326.687 1.992.993l-.313.574-1.353 2.491a31.276 31.276 0 0 1-1.993-.991c-.21-.114-.405-.24-.61-.357m20.727.057h-.045c.024-.008.048-.013.071-.021zm4.67-4.469c-3.144 5.772-13.377 6.286-22.811 1.147S79.67 36.827 82.814 31.057a7.459 7.459 0 0 1 1.22-1.617c4.063-4.187 13.14-4.134 21.591.47s13.419 12.2 12.1 17.889a7.5 7.5 0 0 1-.7 1.9"/><path class="c3" d="M112.703 38.348a23.735 23.735 0 0 0-7.962-6.817 26.55 26.55 0 0 0-4.412-1.915 23.114 23.114 0 0 0-2.884-.749q-.708-.135-1.4-.217a17.4 17.4 0 0 0-2.653-.12c-3.352.115-6.05 1.318-7.324 3.574-.015.025-.034.047-.049.073a5.156 5.156 0 0 0-.306.7 6.18 6.18 0 0 0-.185.591c0 .017-.01.031-.014.048v.01c-1.159 4.578 3.026 10.868 10.113 14.729s14.643 3.967 17.86.508h.008c.015-.017.025-.032.04-.048a5.978 5.978 0 0 0 .389-.467 4.99 4.99 0 0 0 .42-.636 5.588 5.588 0 0 0 .392-.894 5.844 5.844 0 0 0 .158-.629c.024-.106.061-.21.08-.317a6.938 6.938 0 0 0 .056-1.759 11.915 11.915 0 0 0-2.33-5.662m-11.51-3.358-1.254.2a5.065 5.065 0 0 0-2.449-1.5l-.779-.207.85 1.348 2.108 3.343.141.024a14.444 14.444 0 0 1 4.78 1.486 7.593 7.593 0 0 1 2.579 2.5 3.157 3.157 0 0 1 .6 2.8l-.008.012a2.824 2.824 0 0 1-2.366 1.444l-.465.082.529.74.751 1.052-.725.027-.391.014-1.13-1.8-.162-.011a9.719 9.719 0 0 1-3.978-1.118 10.618 10.618 0 0 1-2.71-2.09c-.118-.123-.239-.237-.354-.366l2.146-.3a7.466 7.466 0 0 0 1.523 1.277 7.807 7.807 0 0 0 1.014.542 5.8 5.8 0 0 0 .741.285l.8.236-3.15-4.995-.138-.024a12.473 12.473 0 0 1-4.323-1.513 8.15 8.15 0 0 1-2.7-2.6 2.676 2.676 0 0 1-.494-2.491 1.564 1.564 0 0 1 .245-.363 2.554 2.554 0 0 1 1.423-.751 4.962 4.962 0 0 1 .507-.1l.491-.063-.376-.6-.217-.344.969-.038.61.967.162.01a8.826 8.826 0 0 1 3.52.93 9.67 9.67 0 0 1 2.606 1.8zm.8.509-.4.726-2.18.351-.63-1-.6-.953a4.638 4.638 0 0 1 1.4 1.111l.115.132 1.982-.318zm4.211 11.788-.149-.2-.089-.123a5.228 5.228 0 0 0 .862-.285l-.008.011a1.993 1.993 0 0 1-.616.6M96.03 43.616l.182-.332c.069.08.138.157.207.233a11.739 11.739 0 0 0 3.112 2.472 10.358 10.358 0 0 0 4.068 1.179l1.153 1.829 1.042-.041.284-.011-.15.276-.276.506-1.338.052-1.132-1.792-.161-.008a9.728 9.728 0 0 1-3.974-1.119 10.814 10.814 0 0 1-3.3-2.727zm-4.584-8.858c.006-.048.012-.1.023-.145a4.689 4.689 0 0 0 .677 1.612 8.772 8.772 0 0 0 2.9 2.8 13 13 0 0 0 4.4 1.571l2.037 3.231q-.353-.177-.722-.407h-.005a6.734 6.734 0 0 1-.9-.7l-.8-1.269-.135-.024a12.549 12.549 0 0 1-4.323-1.513 8.126 8.126 0 0 1-2.7-2.6 2.681 2.681 0 0 1-.506-2.468zm4.486 12.941c-6.8-3.7-10.862-9.651-9.825-13.937 1.485-1.569 3.963-2.307 6.883-2.244l-.276.507a2.433 2.433 0 0 0-.926.827h-.032l-.925 1.715a3.247 3.247 0 0 0 .537 3.085 8.754 8.754 0 0 0 2.9 2.8 13.02 13.02 0 0 0 4.4 1.57l.027.043-1.661.229-1.031.033-.244.442-.778 1.43.134.164a11.887 11.887 0 0 0 3.628 3.051 10.368 10.368 0 0 0 4.078 1.183l1.153 1.829 2.062-.081.778-1.428.245-.45-.491-.671a2.836 2.836 0 0 0 .516-.422l.3-.335.945-1.734-.013-.015c.013-.028.034-.049.045-.077a3.736 3.736 0 0 0-.657-3.37 8.233 8.233 0 0 0-2.792-2.7 14.637 14.637 0 0 0-4.858-1.542l-.274-.434 2.221-.357 1.065-1.956a7.3 7.3 0 0 0-1.089-1.012c.4.191.79.39 1.182.6 6.674 3.637 10.876 9.623 9.814 13.959-3.041 3.194-10.242 3-17.038-.7m17.86-.392-.027.047c.246-4.491-3.86-9.956-10.307-13.469a27.561 27.561 0 0 0-2.365-1.147l.974-1.787c.32.135.64.268.96.419q.708.332 1.412.716a26.859 26.859 0 0 1 2.652 1.652c5.8 4.1 8.753 9.8 6.7 13.569"/><path class="c3" d="M95.57 33.735a1.31 1.31 0 0 0-.867.945 1.382 1.382 0 0 0-.015.457 1.984 1.984 0 0 0 .312.851 3.605 3.605 0 0 0 1.085 1.06c.107.072.22.14.338.2a5.387 5.387 0 0 0 .639.294 6.855 6.855 0 0 0 .714.231l.778.206-2.74-4.346zm.864 2.785c-.014-.01-.023-.02-.037-.029a2.992 2.992 0 0 1-.863-.841 1.127 1.127 0 0 1-.214-.834c0-.006.006-.014.008-.019a.578.578 0 0 1 .246-.352l1.538 2.438a4.216 4.216 0 0 1-.678-.362m7.48 8.385.216-.048a2.209 2.209 0 0 0 .25-.078 1.437 1.437 0 0 0 .975-.871 1.816 1.816 0 0 0-.3-1.595 3.882 3.882 0 0 0-1.292-1.233 6.08 6.08 0 0 0-2.093-.722l-.706-.126.76 1.2zm-.477-3.284a3.246 3.246 0 0 1 1.084 1.028 1.227 1.227 0 0 1 .236 1.042.674.674 0 0 1-.111.163.756.756 0 0 1-.206.192 3.081 3.081 0 0 0-.163-.308 3.738 3.738 0 0 0-.976-.994l-.624-.99-.387-.614a4.75 4.75 0 0 1 1.147.476M63.132 57.583a1.712 1.712 0 0 0-1.55 0 .473.473 0 0 0 0 .9 1.718 1.718 0 0 0 1.55 0 .473.473 0 0 0 0-.9m2.5-1.444a1.719 1.719 0 0 0 1.55 0 .473.473 0 0 0 0-.9 1.718 1.718 0 0 0-1.55 0 .473.473 0 0 0 0 .9m-6.55-.895a1.712 1.712 0 0 0-1.55 0 .473.473 0 0 0 0 .9 1.719 1.719 0 0 0 1.55 0 .473.473 0 0 0 0-.9m4.05-2.34a1.712 1.712 0 0 0-1.55 0 .473.473 0 0 0 0 .9 1.719 1.719 0 0 0 1.55 0 .473.473 0 0 0 0-.9m-8.102 0a1.712 1.712 0 0 0-1.55 0 .473.473 0 0 0 0 .9 1.719 1.719 0 0 0 1.55 0 .473.473 0 0 0 0-.9m4.052-2.338a1.712 1.712 0 0 0-1.55 0 .473.473 0 0 0 0 .9 1.719 1.719 0 0 0 1.55 0 .473.473 0 0 0 0-.9m-4.052-2.339a1.712 1.712 0 0 0-1.55 0 .472.472 0 0 0 0 .894 1.712 1.712 0 0 0 1.55 0 .472.472 0 0 0 0-.894m56.716 14.033a1.712 1.712 0 0 0-1.55 0 .473.473 0 0 0 0 .9 1.718 1.718 0 0 0 1.55 0 .473.473 0 0 0 0-.9m4.051-2.339a1.712 1.712 0 0 0-1.55 0 .473.473 0 0 0 0 .9 1.719 1.719 0 0 0 1.55 0 .473.473 0 0 0 0-.9m-8.102 0a1.712 1.712 0 0 0-1.55 0 .472.472 0 0 0 0 .894 1.712 1.712 0 0 0 1.55 0 .472.472 0 0 0 0-.894m0 4.678a1.712 1.712 0 0 0-1.55 0 .473.473 0 0 0 0 .9 1.718 1.718 0 0 0 1.55 0 .473.473 0 0 0 0-.9m-8.102 0a1.712 1.712 0 0 0-1.55 0 .473.473 0 0 0 0 .9 1.718 1.718 0 0 0 1.55 0 .473.473 0 0 0 0-.9m4.051-2.339a1.712 1.712 0 0 0-1.55 0 .473.473 0 0 0 0 .9 1.718 1.718 0 0 0 1.55 0 .473.473 0 0 0 0-.9m-16.206-4.677a1.712 1.712 0 0 0-1.55 0 .473.473 0 0 0 0 .9 1.718 1.718 0 0 0 1.55 0 .473.473 0 0 0 0-.9m4.052-2.339a1.71 1.71 0 0 0-1.548 0 .472.472 0 0 0 0 .9 1.719 1.719 0 0 0 1.55 0 .473.473 0 0 0 0-.9m-16.206 4.677a1.712 1.712 0 0 0-1.55 0 .473.473 0 0 0 0 .9 1.718 1.718 0 0 0 1.55 0 .473.473 0 0 0 0-.9m4.051-2.338a1.712 1.712 0 0 0-1.55 0 .473.473 0 0 0 0 .9 1.718 1.718 0 0 0 1.55 0 .473.473 0 0 0 0-.9m4.051-2.339a1.712 1.712 0 0 0-1.55 0 .473.473 0 0 0 0 .9 1.719 1.719 0 0 0 1.55 0 .473.473 0 0 0 0-.9m4.05-2.34a1.712 1.712 0 0 0-1.55 0 .472.472 0 0 0 0 .894 1.712 1.712 0 0 0 1.55 0 .472.472 0 0 0 0-.894m-20.255 7.017a1.712 1.712 0 0 0-1.55 0 .473.473 0 0 0 0 .9 1.719 1.719 0 0 0 1.55 0 .473.473 0 0 0 0-.9m4.052-2.338a1.712 1.712 0 0 0-1.55 0 .473.473 0 0 0 0 .9 1.718 1.718 0 0 0 1.55 0 .473.473 0 0 0 0-.9m4.051-2.339a1.712 1.712 0 0 0-1.55 0 .473.473 0 0 0 0 .9 1.718 1.718 0 0 0 1.55 0 .473.473 0 0 0 0-.9m4.051-2.34a1.712 1.712 0 0 0-1.55 0 .472.472 0 0 0 0 .894 1.712 1.712 0 0 0 1.55 0 .472.472 0 0 0 0-.894m16.204 9.356a1.712 1.712 0 0 0-1.55 0 .473.473 0 0 0 0 .9 1.718 1.718 0 0 0 1.55 0 .473.473 0 0 0 0-.9m4.052-2.339a1.712 1.712 0 0 0-1.55 0 .473.473 0 0 0 0 .9 1.719 1.719 0 0 0 1.55 0 .473.473 0 0 0 0-.9m-8.103 0a1.712 1.712 0 0 0-1.55 0 .473.473 0 0 0 0 .9 1.719 1.719 0 0 0 1.55 0 .473.473 0 0 0 0-.9m4.051-2.338a1.712 1.712 0 0 0-1.55 0 .473.473 0 0 0 0 .9 1.718 1.718 0 0 0 1.55 0 .473.473 0 0 0 0-.9"/></g></svg>
